<?xml version="1.0" encoding="utf-8"?>
<!-- Generator: Adobe Illustrator 23.0.6, SVG Export Plug-In . SVG Version: 6.00 Build 0)  -->
<svg version="1.1" id="Layer_1" xmlns="http://www.w3.org/2000/svg" xmlns:xlink="http://www.w3.org/1999/xlink" x="0px" y="0px"
	 viewBox="0 0 275.9 263.6" style="enable-background:new 0 0 275.9 263.6;" xml:space="preserve">
<style type="text/css">
	.st0{fill:#6F6F6F;}
	.st1{fill:#595959;}
	.st2{fill:#999999;}
	.st3{fill:#686868;}
	.st4{fill:#5B5B5B;}
	.st5{fill:#BEBEBE;}
	.st6{fill:#979797;}
	.st7{fill:#929292;}
	.st8{fill:#6D6D6D;}
	.st9{fill:#848484;}
	.st10{fill:#808080;}
	.st11{fill:#5F5F5F;}
	.st12{fill:#919191;}
	.st13{fill:#676767;}
	.st14{fill:#6A6A6A;}
	.st15{fill:#101010;}
	.st16{fill:#191919;}
	.st17{fill:#0E0E0E;}
	.st18{fill:#0F0F0F;}
	.st19{fill:#767676;}
	.st20{fill:#121212;}
	.st21{fill:#0D0D0D;}
	.st22{fill:#585858;}
	.st23{fill:#8E8E8E;}
	.st24{fill:#696969;}
	.st25{fill:#797979;}
	.st26{fill:#717171;}
	.st27{fill:#7C7C7C;}
	.st28{fill:#606060;}
	.st29{fill:#969696;}
	.st30{fill:#939393;}
	.st31{fill:#505050;}
	.st32{fill:#8C8C8C;}
	.st33{fill:#2C2C2C;}
	.st34{fill:#B4B4B4;}
	.st35{fill:#878787;}
	.st36{fill:#C6C6C6;}
	.st37{fill:#707070;}
	.st38{fill:#888888;}
	.st39{fill:#1D1D1D;}
	.st40{fill:#7B7B7B;}
	.st41{fill:#8D8D8D;}
	.st42{fill:#8F8F8F;}
	.st43{fill:#A0A0A0;}
	.st44{fill:#9D9D9D;}
	.st45{fill:#9C9C9C;}
	.st46{fill:#828282;}
	.st47{fill:#A5A5A5;}
	.st48{fill:#353535;}
	.st49{fill:#5C5C5C;}
	.st50{fill:#9A9A9A;}
	.st51{fill:#282828;}
	.st52{fill:#B5B5B5;}
	.st53{fill:#B9B9B9;}
	.st54{fill:#B6B6B6;}
	.st55{fill:#434343;}
	.st56{fill:#424242;}
	.st57{fill:#626262;}
	.st58{fill:#646464;}
	.st59{fill:#545454;}
	.st60{fill:#3D3D3D;}
	.st61{fill:#A4A4A4;}
	.st62{fill:#909090;}
	.st63{fill:#414141;}
	.st64{fill:#4F4F4F;}
	.st65{fill:#383838;}
	.st66{fill:#525252;}
	.st67{fill:#C2C2C2;}
	.st68{fill:#454545;}
	.st69{fill:#D1D1D1;}
	.st70{fill:#D8D8D8;}
	.st71{fill:#DDDDDD;}
	.st72{fill:#ACACAC;}
	.st73{fill:#C8C8C8;}
	.st74{fill:#D0D0D0;}
	.st75{fill:#2B2B2B;}
	.st76{fill:#EBEBEB;}
	.st77{fill:#4A4A4A;}
	.st78{fill:#AFAFAF;}
	.st79{fill:#404040;}
	.st80{fill:#3E3E3E;}
	.st81{fill:#8A8A8A;}
	.st82{fill:#616161;}
	.st83{fill:#555555;}
	.st84{fill:#444444;}
	.st85{fill:#666666;}
	.st86{fill:#656565;}
	.st87{fill:#464646;}
	.st88{fill:#363636;}
	.st89{fill:#4B4B4B;}
	.st90{fill:#0A0A0A;}
	.st91{fill:#CDCDCD;}
	.st92{fill:#CCCCCC;}
	.st93{fill:#3C3C3C;}
	.st94{fill:#242424;}
	.st95{fill:#5E5E5E;}
	.st96{fill:#3F3F3F;}
	.st97{fill:#4D4D4D;}
	.st98{fill:#131313;}
	.st99{fill:#858585;}
	.st100{fill:#373737;}
	.st101{fill:#323232;}
	.st102{fill:#333333;}
	.st103{fill:#CFCFCF;}
	.st104{fill:#5D5D5D;}
	.st105{fill:#D2D2D2;}
	.st106{fill:#565656;}
	.st107{fill:#B0B0B0;}
	.st108{fill:#2F2F2F;}
	.st109{fill:#2E2E2E;}
	.st110{fill:#161616;}
	.st111{fill:#7D7D7D;}
	.st112{fill:#575757;}
</style>
<title>di</title>
<g>
	<g id="Layer_1-2">
		<path class="st0" d="M232,30c0.9-1.6,2.5-2.5,4.1-3.4c0.7,0.1,1.5-0.6,2.2-0.2c0.7,2.3,1.9,4.5,3.4,6.4c0.6,0.5,1,1.3,0.8,2.1
			c0.1,1.1-0.7,1.9-1.7,2c-0.1,0-0.3,0-0.4,0c-1.8-0.5-3.1-0.6-3.4,1.7c-0.1,1.1-1.1,1.5-2,1.9c-2.1,0.6-3.2,2.3-5,3.4
			c-1.2,0.9-1.8,2.2-1.9,3.6c-2,2.4-3.3,5.4-5.7,7.7c-1,0.9-1.2,2.4-0.5,3.6c1.3,3.2-0.2,5.6-2.3,7.7c-2.3,3.2-5.9,5-7.8,8.6
			c-1,1.9-3.3,2.3-5,3.7c-3.3,3.2-6.6,6.3-9.8,9.7c-0.5,0.4-1,0.7-1.4,1.1c-0.3-2,0.8-3.6,1.7-5.4c2.6-2.1,4.9-4.2,7.2-6.8
			c1.1-1.4,2.5-2.4,4.3-2.8c1.4-1.6,2.9-3.2,4.2-5c0.6-0.4,0.9-1.2,1.5-1.6c1.4-1.2,2.3-2.7,3.2-4c0.7-0.8,0.6-2.1-0.2-2.8
			c-0.8-0.8-1.6,0.1-2.3,0.5c-2,1.3-3.4,3.7-6.2,3.1c-1-0.5-1.8-1.2-2.5-1.9c-2.1-2.1-2.3-2.6-0.1-4.3c1.5-1.1,2.4-2.9,2.4-4.8
			c3.1-3.5,6.7-6.4,10.2-9.6c0.4-0.4,0.7-0.6,1.1-1c4.5-0.8,7-4.2,10-7.2c1.7-1.5,3.7-2.8,5.4-4.2c-0.4-0.3-1-0.5-1.4-0.7
			C233.1,31.1,232.3,31,232,30z"/>
		<path class="st1" d="M162,96.1c0.5-0.5,0.9-0.9,1.4-1.3c0.9-0.3,1.7-1.3,3-0.6c0.1,0,0.2,0.1,0.2,0.2c0.5,2.3,1.5,4.2,3,5.8
			c1.3,1.3,2.3,2.7,3,4.4c-0.1,0.3-0.3,0.5-0.3,0.8c-0.4,3.9-0.4,3.9-4.3,3.9c-1.2,0.1-1.3,1-1.4,1.9c-1.5,2.3-0.8,3.8,1.3,4.9
			c0,0.3-0.2,0.5-0.3,0.7c-0.5,0.8-1.2,1.3-2.2,1.5c-0.8,0.2-1.5,0.7-1.9,1.4c-2.4,2.7-2.5,2.7-4.6-0.5c-0.4-0.6-0.9-1.3-1.3-2
			c-0.3-1.4-1.6-2.1-2.3-3.1c-0.4-0.6-1.3-1.2-2.1-1.2c-3.5-2-3.8-3.3-0.9-6c2-1.8,3.9-3.7,5.9-5.5C159.9,100.1,161.3,98.2,162,96.1
			z"/>
		<path class="st2" d="M232,30c0.7,0,1.4,0,2.2,0.1c1.6,1.4,0.5,2.5-0.4,3.2c-3,2.2-5.5,5-8.4,7.5c-1.4,1.4-3.1,2.6-4.9,3.6
			c-3.9,3-7.6,6.4-10.9,10.1c-0.8,1.7-2,3.3-3.6,4.5c-0.8,0.6-1.5,1.4-2.1,2.3c-0.4,0.4-1.1,0.8-1.6,1.1c-2.1,0.5-3.9,1.4-6,1.5
			c-0.2-0.1-0.4-0.3-0.4-0.5c6.4-4.4,11.6-10,17.2-15.2C219.5,42.1,226,36.3,232,30z"/>
		<path class="st3" d="M101,153.9c1.1-1.2,2.4-2.3,3.9-3c0.5,0,1.1,0.2,1.3,0.6c0.2,0.3,0.3,0.6,0.3,1c-0.1,1-1,2-0.1,2.9
			c1,0.9,1.7,2.2,3.2,2.7c1.4,0.5,3.1-0.5,4.4-3.2c0.1-0.2,0.3-0.4,0.4-0.7c1.5-1.7,3-3.2,4.7-4.9c0.6-0.7,1.6-1,2.5-0.8
			c0.3,0,0.5,0.2,0.8,0.4c0.2,1.4,2.3,1.7,2,3.4c-0.1,0.2-0.3,0.4-0.5,0.5c-2.7,0.2-4.1,2.1-5.2,4.2c-2.1,1.1-4.1,2.4-5.6,4.2
			c-1.5,1.6-3.9,1.9-5.6,3.2c-1.2,0.1-1.7-1-2.6-1.4c-0.6-0.3-1.3-0.9-1.3,0.4c-0.1,0.8,0,1.5-1,1.9c-2.5-0.1-4-1.9-5.9-3.1
			c-1.1-1.3-0.1-2.2,0.8-3C98.8,157.7,100.6,156.3,101,153.9z"/>
		<path class="st4" d="M221.1,58.7c-1.8-0.6-2.4-2-1.1-3.2c2.8-2.3,4.9-5.6,7.3-8.2c0.5-0.9,1.2-1.6,1.7-2.5c1-1.3,1.8-1.4,3-0.2
			c0.5,1-0.3,1.4-0.9,2.1c-1,0.9-2.3,1.7-2.1,3.4c0.3,0.2,0.6,0.4,1,0.2c2.8-0.9,2.8-0.9,3.7,1.9c-0.1,0.6-0.4,1.3-0.9,1.6
			c-2.5,3.2-5.9,5.6-8.8,8.4c-1.3,0.4-1.5-0.7-2-1.5C221.8,59.9,222,59.1,221.1,58.7z"/>
		<path class="st5" d="M82.5,198.3c-1.8,1.6-3.4,3.4-5.2,5.1c-2.1-1.3-2.1-1.3-3,1.3c-0.1,0.2-0.4,0.4-0.5,0.4
			c-1.2,0.4-2-0.5-2.4-1.4c-0.5,0.5-0.1,1-0.2,1.4c-0.5,1.1-1.2,2-2.2,2.6c-1.8,0.5-3.2,0.4-4.2-1.3c-0.9-1.3-0.4-2.3,0.6-3.2
			c2.7-2.3,5.3-4.8,7.7-7.5c0.4-1,1.2-1.8,2.2-2.2c1.1-0.4,2.1-1.2,2.9-2.1c1.7-2,3.2-2,5,0.4c0.3,1.6-1,3.1-0.7,4.8
			C82.5,197.1,82.4,197.8,82.5,198.3z"/>
		<path class="st6" d="M196,63.3l0.6,0.2c2.2,0.9,2.4,2,0.8,3.6c-7.2,7-14.4,13.9-21.8,20.7c-0.9,0.7-1.9,1.3-3,1.6
			c-0.4,0.3-0.8,0.2-1.2,0.1c-0.4-0.1-0.7-0.5-0.7-1c2.8-2.8,5.6-5.5,8.5-8.3c4.5-4.4,9.2-8.6,13.7-12.9
			C194.1,66.3,194.4,64.4,196,63.3z"/>
		<path class="st7" d="M162,96.1c1.1,1.8,0.7,3.1-0.9,4.4c-2.9,2.3-5.5,5-8.3,7.6c-1.4,1.3-2.4,2.5,0.4,3.3c0.4,0.1,0.5,0.5,0.8,0.6
			c-0.1,0.2-0.3,0.4-0.4,0.5c-4.1,2.1-6.8,5.8-10.2,8.7c-1.6,1.4-2.6,3.5-4.3,4.8c-1.1,0.3-2.3-0.4-2.5-1.4c0-0.1,0-0.1-0.1-0.2
			c-0.6-1.4,0.4-2.2,1.3-2.9c2.4-2.3,5-4.7,7.3-7c1.1-0.9,1.9-2.1,2.3-3.4c-0.2-0.5,0-1,0.4-1.4c4.2-4.2,8.9-8.1,12.7-12.8
			C161.1,96.5,161.6,96.4,162,96.1z"/>
		<path class="st8" d="M260.6,22.9c1.3,2.1,0.9,3.8-1,5.4c-3.4,3-6.6,6.2-9.9,9.3c-0.7,0.5-1.1,1.4-1.3,2.3
			c-0.8,0.8-1.4,1.9-2.7,1.1c-0.7-2-1.2-4-2.3-5.8c-1.1-1.5-0.4-2.5,1.2-3.3c1.5-0.8,2.9-0.6,3.6,1.2c0.3,0.6,0.5,1.4,0.6,2.3
			c-0.3-4-4.1-4.8-6.9-6.6c-0.8-0.6-2.3-0.5-2.6-2c1.1-2.2,2.9-2.2,5.6-0.1c1.2,0.9,2.2,1.7,3.9,1.6l0.7,0.2
			c3.9,2.9,3.8,2.9,7.3-0.9c1.3-1.4,2-3.1,3.2-4.4C260.1,23,260.4,22.9,260.6,22.9z"/>
		<path class="st9" d="M159,116.2c0.2,0.1,0.3,0.2,0.4,0.4c1.1,1.6,3.2,2.3,5.1,1.7c0.3-0.1,0.6,0.1,1,0.1c-1,1.1-2.1,2.3-3.2,3.4
			c-1.5,0.3-2.2,2.2-3.8,2.1c-2.2,4-6.1,6.1-9.2,9.5c-2.3,2.5-4.1,5.3-7.2,6.9c-0.9-0.9-0.3-1.4,0.2-2.3c1-1.4,2.3-2.9,1.1-5
			c-0.4-0.6,0-1.7,0.7-2.3c0.2-0.2,0.4-0.3,0.7-0.3c1.7,0,3.3-0.9,4.4-2.3c1.4-1.6,3-3.1,4.7-4.6c2.3-1.9,4.4-3.9,4.3-7.2
			C158.5,116.2,158.7,116.2,159,116.2z"/>
		<path class="st10" d="M107.4,164.2c1.9-2.7,5.3-3.5,7.4-5.9c0.5-0.6,1.5-0.8,2-1.7c0.6-1.2,1-0.2,1.4,0.3c1.8,0.4,2.3,1.9,3.4,3.1
			c-3.1,4.9-7.3,9.1-12.3,12.1c-0.7-2.1,0.8-3.7,1-5.6c0.4-0.9,0.6-1.8-0.9-1.5c-0.6,0.1-1.3,0.4-1.9-0.4
			C107.5,164.4,107.4,164.3,107.4,164.2z"/>
		<path class="st11" d="M58.2,195.1l0.8-0.9c1.7-0.5,3.2-1.6,4.4-3.1c2.1-2.4,4.8-4.4,7.3-6.5c0.9-1.4,1.1-3.4,3.2-4
			c0.9-0.2,1.5-0.4,2.3,0.2c0.8,1.3-0.2,2.1-0.9,2.9c-0.6,0.6-1.3,1.2-1.3,2.1c-0.4,1.4-1.2,2.8-2.3,3.8c-3,3.1-6.5,5.9-9.4,9.1
			c-1.5,1.7-3,1.7-4.4-0.1C57.2,197.5,58.5,196.3,58.2,195.1z"/>
		<path class="st12" d="M248.6,29.1c-1.8,1.1-2.3-0.7-3.6-1.4c-1.8-1-3.4-2.1-5.6-1.2c-0.4,0.5-0.6,0.6-1.1,0.4
			c-0.7-0.1-1.5-0.1-2.3-0.2c4-2.9,6.9-7,10.9-10.1c2.5-2,5.1-2.2,7.7,0c-0.2,0.4-0.6,0.5-0.9,0.5c-4,0.2-6.2,2.9-8.3,5.8
			c-0.7,1-0.3,2,0.8,2.6C247,26.7,249.2,27.1,248.6,29.1z"/>
		<path class="st13" d="M167.5,116.8c0-0.3,0.1-0.5,0.1-0.8c-0.4-0.3-0.6-0.7-0.5-1.1c0.8-1.9-0.2-3.1-1.7-4.2
			c0.7-2.3,1.8-2.9,4.1-2.3c1.4,0.4,1.5-0.7,1.7-1.6c0.1-0.7-0.9-1.7,0.5-2.2c0.1-0.1,0.2-0.2,0.2-0.1c1.6,0.5,3.4,0.6,5,0.4
			c0.4-0.2,0.8,0.3,0.8,0.7c-0.1,1.4-0.9,2.6-1.9,3.6C173.1,111.6,169.8,113.5,167.5,116.8z"/>
		<path class="st14" d="M144.6,131.2c-0.2,0.9-0.2,1.5,0.8,2.1c1.7,0.9,1.4,2.2,0.1,3.2c-1.4,1-2.6,2.3-3.3,3.9
			c-0.2,0.1-0.4,0.3-0.5,0.4c-0.2,0-0.4-0.2-0.4-0.3c-0.4-3-2.4-3.6-4.9-3.2c-1.8-1.2-1.4-2.4,0-3.5c2.1-1.9,4.4-3.4,7.2-4.3
			C144.3,129.5,144.7,130.1,144.6,131.2z"/>
		<path class="st15" d="M91.7,188.4c-0.1,1-1,1.1-1.6,1.8c-0.6,0.5-1.2,1.3-2.2,1.1c-1.6-0.5-1.5-2.2-2.3-3.1
			c-0.4-3,1.3-4.9,3.5-6.5c1.2-0.7,2.6-0.5,3.7,0.4c2.5,2.5,2.5,2.8,0.2,5.2C92.6,187.5,92.3,188,91.7,188.4z"/>
		<path class="st16" d="M136.5,136.7c1.3-1.2,2.7-1.6,4.3-0.6c1.9,1.4,1,3.1,0.6,4.8c-1,1-1.9,2-3,3c-2.8,1.1-3.2,0.1-4.2-3.1
			C134.9,139.4,134.4,137.2,136.5,136.7z"/>
		<path class="st17" d="M121.6,159.8c-2.6,0.5-2.9-1.4-3.4-3.1c1-4.1,2.1-5,5.5-4.5c3.2,1.3,3.3,2.2,0.9,4.5
			c-0.6,0.5-0.8,1.4-1.4,1.9C122.5,159.2,122.1,159.4,121.6,159.8z"/>
		<path class="st18" d="M102.7,178.1c-0.7,0.5-1.4,1.2-2.1,1.7c-2.9,2.4-3.9,2.2-5.1-1.6c0.6-4.8,3.1-6.8,7-5.9
			c1.3,0.9,2.1,2.4,1.9,4.1C104.1,177,103.4,177.7,102.7,178.1z"/>
		<path class="st19" d="M30.3,220.7c0.5-0.9,1.3-1.6,2-2.3c1.8-1.2,4-1.7,5.7-3.2c0.6-0.5,1.4-1.1,2.3-0.1c0.3,0.7,0,1.7-0.6,2.1
			c-0.5,0.5-1,1-1.4,1.4c-1.9,1.2-2.8,2.2-0.3,3.8c0.8,0.5,0.9,1.6,0.5,2.4c0,0.1-0.1,0.1-0.1,0.2c-0.2,0.3-0.6,0.4-0.9,0.4
			c-1.9-0.6-3.2,0.4-4.5,1.7c-0.6,0.7-1.4,1.3-2.3,1.7c-1.4-0.4-2.8-1.1-4.2,0.2c-0.2,0.3-0.8-0.1-1.2-0.4c-0.8-2.3,1.3-2.8,2.3-4.1
			C29,224,30.2,222.5,30.3,220.7z"/>
		<path class="st20" d="M111.1,166.4c0.7,2.3-0.5,3.9-1.8,5.4c-0.3,0.3-0.6,0.5-0.9,0.8c-1.8,1.4-3.3,1.4-4.5-0.7
			c-1-4.1,1-7.1,4.5-7C109.6,164.8,110.9,164.8,111.1,166.4z"/>
		<path class="st21" d="M134.9,147.1c-0.4,0.4-1.1,0.8-1.5,1.2c-1.2,1.6-2.4,3.1-4.7,2.4c-1.4-0.4-1.6-3.3-0.9-5.4
			c0.3-0.7,0.5-1.4,0.8-2.2c1.4-1.5,3.1-2.2,5-1.2C135.6,142.8,135.7,144.8,134.9,147.1z"/>
		<path class="st22" d="M129.4,143.4c-0.4,1.1-0.7,2.1-1,3.1c-0.4,1.2,0,2.5,1,3.2c0.9,0.6,2,0,2.9-0.6c0.5-0.4,0.9-0.6,1.2-1
			c0,1.3-1.2,1.8-2,2.6c-0.5,0.4-1.3,0.6-1.4,1.2c-1.4,3.2-4.3,4.7-7,6.6c0.2-0.6,0.4-1.2,0.8-1.6c1.7-1.6,1.4-3.2-0.1-4.7
			c0.2,0,0.5,0.1,0.6,0.1c0.3-0.4,0.5-0.8,0.6-1.2c0.7-1.3,0.9-3,0.3-4.4c0-0.9,0.6-1.3,1.3-1.8
			C127.5,144.6,127.7,142.5,129.4,143.4z"/>
		<path class="st23" d="M28.5,225.2c-0.5,1.7-3.1,1.4-3.1,3.5c0.5,1.7-0.9,2.2-1.8,3.1c-0.9,0.5-1.6,1.1-2.3,1.8
			c-0.9,1.8,0.7,3.7,0,5.5c-0.4,0.6-1.1,1-1.7,0.8c-0.5,0-0.8-0.2-1.1-0.5c-0.9-0.8-0.9-2.3-2.2-2.7c-0.5-1.5,0-2.5,1.1-3.4
			c3.1-2.5,5.9-5.2,8.6-8.2C26.8,225,27.7,224.2,28.5,225.2z"/>
		<path class="st7" d="M71.3,185.5c-2.9,2.6-5.8,5.4-8.5,8.1c-0.9,1.1-2.4,1.3-3.7,0.5c3-3.9,7.1-6.7,10.3-10.3
			c0.7-0.2,1.4-0.8,2.1-0.1C72.2,184.5,71.8,185,71.3,185.5z"/>
		<path class="st24" d="M50,202.1c1.2-0.8,2.3-1.6,3.3-2.3c0.6,0.2,1.2-0.4,1.8-0.3c1.4,0.6,1.5,1.8,0.5,2.8c-0.6,0.6-1.3,1.1-0.6,2
			c1.6,1.3,2.3,2.7,1.3,4.5c-1.1,1.5-3.1,2-4.6,1c-0.1-0.1-0.2-0.1-0.3-0.2c-0.4-0.2-0.7-0.3-0.9-0.4c-0.7-0.6-1.5-1.3-2.2-1.9
			C47.8,205.2,49.9,203.9,50,202.1z"/>
		<path class="st25" d="M111.8,143.6c1-1.4,2.4-2.5,3.9-3.3c2-1.3,3.7-3.1,4.9-5c0.8-0.8,1.7-1.5,2.6-2.2c0.5-0.3,1-0.3,1.4,0
			c0,2.3-0.4,4.7-2.4,6.2c-1.6,1.5-3.3,2.7-5.3,3.6c-0.7,0.4-1.4,1.1-1.5,2c-0.2,1-1.2,1.6-2.1,1.3l0,0
			C112.5,145.6,110.3,145.9,111.8,143.6z"/>
		<path class="st26" d="M129.4,143.4c-1.2,0.3-1,2.1-2.3,2.1c-0.8,0-1.2-0.4-1.3-1.3c1.1-2.1,2.8-3.7,4.9-4.9
			c0.5-0.5,0.9-1.2,1.6-1.2c1.8,0,3.1,0.6,3.1,2.6c0.5,1.5,0.9,3.1,3.1,3.1c-1.3,1-1.8,2.9-3.6,3.3c-0.2-0.3-0.2-0.5-0.3-0.9
			C134.4,142.5,132.6,141.6,129.4,143.4z"/>
		<path class="st23" d="M176.1,109.2c0.5-1.3,1.1-2.7,1.6-4c-0.3-0.4-0.2-1,0.2-1.4c1.1-0.8,2.1-1.7,3-2.7c1.2-0.6,1.6-2,2.4-2.8
			c2.1-1.8,3.8-4.1,5.8-5.9c1.1-1.3,2.6-2,4.2-2.2c0.5,0,1.1,0.2,1.4,0.5c-2,2-4.1,3.9-6.1,5.9c-1.8,1.4-3.3,3.1-4.7,4.9
			C181.5,104.5,178.4,106.5,176.1,109.2z"/>
		<path class="st27" d="M81.1,172.8c1.4-1.8,3.3-2.7,5-4c1.7-0.2,3.1-1.8,3.2-3.5c0.7-1.5,2.3-1.9,3.5-2.9c0.5,0,1.1,0.3,1.3,0.8
			c0.1,1.1-0.6,1.8-0.8,2.6c-0.7,1.7-1.3,3.5-3.1,4.4c-1.4,1.5-3.7,2-5,3.5c-1.1,1.7-1.9,3.5-3.7,4.6c-0.5,0.4-1.2,0.8-1.9,0.6
			c-1.5-0.9-1.2-1.9-0.2-2.7C80.3,175.3,81,174.1,81.1,172.8z"/>
		<path class="st28" d="M96.6,178.2c0.4,2.6,1.8,2.8,4,1.6c-2.2,3.7-4.9,6.8-8.7,8.6c0.1-0.8,0.7-1.3,1.2-1.9c1-1.1,0.9-2.8-0.3-3.8
			c0.1-0.5,0.4-1,0.8-1.2c0.7-0.3,0.9-0.9,1.1-1.5C94.8,178.9,95.3,178,96.6,178.2z"/>
		<path class="st29" d="M124.9,133.5l-1.6-0.4c2.8-3.4,6.9-5.8,9.4-9.4c0.2-0.3,0.8-0.3,1.2-0.4c0.3-0.2,0.6,0,0.8,0.3
			c0.8,1.8-0.3,3.1-1.3,4.2C131.1,130.2,128.9,133.2,124.9,133.5z"/>
		<path class="st29" d="M93.6,163.3c-0.4-0.3-0.5-0.6-1-0.9c2.8-2.8,5.7-5.7,8.5-8.5c1.8,1.7,1.3,2.7-0.6,4.1
			c-1.4,1.1-2.6,2.6-3.8,4c0,0.3,0,0.5-0.1,0.7c-0.1,0.3-0.2,0.5-0.4,0.7C95.2,163.7,94.4,164.5,93.6,163.3z"/>
		<path class="st30" d="M111.8,143.6c-0.1,0.5-0.1,1,0.7,0.8c1.1-0.3,0.9,0.6,0.9,1.3c0.5,1.3-0.4,2-1.1,2.7c-1,1.3-2.2,2.4-3.4,3.6
			c-1,0.3-2.1,0.9-3.1-0.2c-0.4-0.3-0.6-0.6-1-0.9C107.2,148.5,109.5,146.1,111.8,143.6z"/>
		<path class="st31" d="M52,226.6c-0.5,0.4-1,0.8-1.4,1.3c-1.7,0.8-2.3,2.8-3.7,3.9c-1.2,1-2.2,2.6-4.1,1.7
			c-0.5-0.6-0.9-1.4-0.9-2.2c-0.1-0.4,0-0.9,0.2-1.3c1.8-1.3,3.1-3.1,5-4.4c0.3-0.1,0.5-0.1,0.8-0.2c1,0.2,2,0.5,2.9-0.1
			c0.5-0.4,1.2-0.3,1.6,0.3c0.1,0.1,0.1,0.2,0.2,0.3C52.6,226,52.5,226.3,52,226.6z"/>
		<path class="st32" d="M246,40.8c0.8-0.4,1.7-0.5,2.5-1c-1.1,2.7-4.3,2.8-5.7,5c-1.6,0.5-2.3,1.9-3.4,3c-1.3,1.3-2.6,2.5-3.9,3.8
			c-0.8,0.4-1.3,0-1.6-0.9c-0.2-0.4-0.2-0.8-0.1-1.2c0.2-0.5,0.6-0.7,1.1-0.9c1.5-0.4,2-1.4,1.6-3.1c-0.4-1.5-0.3-3.2,1.9-3.5
			c1.3,0.9,2.2-0.5,3.1-0.5c1.4,0.1,2.5-0.8,3.8-1.1C245.7,40.6,245.9,40.6,246,40.8z"/>
		<path class="st11" d="M19,238.4l0.4,0.6c2.4,1.4,4,3.7,5.9,5.6c0.5,0.5,0.9,1.3,0.2,1.9c-0.6,0.6-1.4,0.1-1.8-0.4
			c-0.5-0.4-1.4-0.5-1.8-1.1c-2.3-1.6-4.2-4.1-5.3-6.8C17.5,236.8,18.3,238,19,238.4z"/>
		<path class="st33" d="M194.5,90.7c-0.4,0.1-0.7,0.1-1.1,0.3c-0.7,0.2-1.6-0.1-2.1-0.6c-0.2-0.2-0.1-0.5-0.1-0.7c2.5-2.3,3-5,3-8.2
			c1.9-1.3,2.8,0.5,4,1.3c0.5,0.6,0.4,1.3,0.2,2c-1.1,1.4-2.1,3-2.8,4.7C195.2,89.8,195,90.3,194.5,90.7z"/>
		<path class="st34" d="M134.7,123.7c-0.3-0.2-0.5-0.2-0.7-0.4c1.1-2.3,3.2-3.4,5-5c3.1-2.7,6-5.7,8.9-8.6c0.1,0.4,0.2,0.8,0.4,1.2
			c-0.5,2-2.3,3-3.5,4.2c-2.5,2.5-5.2,4.8-7.6,7.3c-0.4,0.4-0.7,0.9-0.9,1.4c-0.2,0.2-0.4,0.4-0.5,0.4
			C135.3,124.3,134.9,124.1,134.7,123.7z"/>
		<path class="st24" d="M253.6,16.3l1.1,0.3c2,1.6,4.5,2.3,5.3,5.1c-0.6,0.6-1.3,0.4-1.9,0.1c-1.4-0.3-2.8-0.6-4.1,0.1
			c-0.6,0.5-1.6,0.5-2.3,0c-0.6-0.6-0.9-1.5-0.7-2.4C251.4,18.1,252.3,17,253.6,16.3z"/>
		<path class="st30" d="M40,215.2c-2.3,1.7-4.9,2.8-7.7,3.3c3.2-2.3,6.2-4.9,8.7-8c2.6,1.1,1.1,2.7,0.5,4.1
			C41.2,215.2,40.6,215.3,40,215.2z"/>
		<path class="st35" d="M73.9,204.7c-0.7-1.8,0.9-5.1,2.6-5.6c1-0.2,1,0.5,0.9,1.2c0,1-0.1,2.2-0.2,3.1c-0.7,0.8-1.7,1.4-2.7,2
			C74,205.6,73.8,205.2,73.9,204.7z"/>
		<path class="st29" d="M81.1,172.8c1.4,1,1.6,2,0,3c-0.9,0.5-2,1.3-2.1,2.5c0,0.6-0.4,1.3-1,1.4c-1.1,0.3-2.3,1.9-3.2-0.4
			C76.8,176.9,79.1,175,81.1,172.8z"/>
		<path class="st36" d="M221.1,58.7c0.9-0.3,1.6-0.2,2,0.9c0.3,0.8,0.5,1.6,0.9,2.3c-1,2-2.7,3.2-4.3,4.4c0.2-1.1,0.6-2,1.3-2.9
			c0.3-0.5,0.7-1.1,0.3-1.4C219.3,61,220.9,59.8,221.1,58.7z"/>
		<path class="st37" d="M22,245.3c1,0.4,1.8,0.7,2.8,1c-1.4-2.7-4-4.5-5.4-7.2c0.5,0,0.9-0.2,1.3-0.6c0.1-0.1,0.2-0.2,0.2-0.3
			c1.8,0.5,2.5,2.1,3.6,3.2c0.2,0.4,0.4,0.8,0.8,1.2c0.7,0.6,2,0.4,2.4,1.3c0.2,0.2,0.1,0.4,0.1,0.7c-0.9,3.3-0.9,3.3-3.4,2.3
			C23.4,246.5,22.6,245.9,22,245.3z"/>
		<path class="st38" d="M170.5,88.6c0.4,0.1,0.8,0.4,1.3,0.4c-0.5,2-2.1,3.2-2.5,5.2c-0.9,0.9-1.7,1.3-2.9,0.4c-1,0.1-2,0.1-2.9,0.2
			C165.5,92.4,167.4,89.8,170.5,88.6z"/>
		<path class="st39" d="M54.7,200c-0.6,0.2-1.4,0.6-1.6-0.4c1.7-1.4,3.3-3.2,5-4.6c2.8,1,0.5,2.3,0.2,3.2c0,0.6-0.4,1.3-0.9,1.5
			C56.8,200.7,55.7,199.8,54.7,200z"/>
		<path class="st10" d="M75,179.3c1.1,0.8,2,0,2.8-0.3c0.4,0.2,0.6,0.8,0.6,1.4c-0.4,0.9-1.3,1.3-2.3,0.9c-1.9-0.3-3.2,0.3-3.4,2.4
			c-0.2,0.8-0.6,1.4-1.4,1.8c0.4-1.7-1.3-1-1.9-1.6C70.9,181.9,72.7,180.3,75,179.3z"/>
		<path class="st40" d="M40.8,214.3c0.7-1.2,1.4-2.4,0.4-3.9c0.9-1.9,3-2.3,4.2-3.7c1.1-0.1,1.4,0.6,1.8,1.4c-0.2,2-1.6,3.1-3,4.2
			C43,213,42.8,215.4,40.8,214.3z"/>
		<path class="st41" d="M46.6,208.3l-1.3-1.4c1.5-1.6,3.1-3.1,4.7-4.8c1.8,0.9,1.5,2,0.3,3.1c-0.5,0.4-1,0.9-1.4,1.5
			C48.5,208,48.1,208.6,46.6,208.3z"/>
		<path class="st42" d="M88.5,190.8c0.6-0.2,1.2-0.4,1.8-0.6c-1.9,3.2-4.1,6.4-7.6,8.3l-0.8-1.4c-0.1-1.6,1.2-2,2.3-2.7
			C85.4,193.1,85.9,190.6,88.5,190.8z"/>
		<path class="st43" d="M28.5,225.2c-0.8,0.6-2,0.5-2.7-0.2c1.4-1.4,2.9-2.8,4.4-4.2c2,0.7,1.8,1.7,0.3,2.7
			C29.9,224.1,29.2,224.7,28.5,225.2z"/>
		<path class="st44" d="M38.4,239.3c-2,3.1-5,5-7.6,7.7c-1.1-1.3-0.1-2.4,0.4-3.7c0.7-0.6,1.3-1.4,2-2.1c2-0.7,3.1-2.9,5.2-3.2
			c0.4,0.2,0.5,0.6,0.3,1C38.6,239.1,38.5,239.2,38.4,239.3z"/>
		<path class="st45" d="M73.9,204.7c0.4,0.3,0.5,0.5,0.8,0.8c-2.1,2.3-3.9,4.8-6.6,6.5c-0.1,0-0.3-0.2-0.4-0.2
			c-0.5-0.6-0.8-1.5-0.4-2.2c1.1-1.4,3.2-2.3,3.3-4.5c0.3-0.8,0.7-0.9,1.3-0.5c0.5,0.4,1,0.5,1.5,0.1H73.9z"/>
		<path class="st34" d="M38.4,239.3c-0.1-0.4-0.1-0.8-0.2-1.3c-0.3-0.2-0.4-0.4-0.3-0.7c1.5-1.8,2.5-4,5.2-4.1
			c0.5,0.2,0.9,0.6,1,1.2C42.3,236.1,41.3,238.8,38.4,239.3z"/>
		<path class="st10" d="M52,226.6l0.3-1.1c-0.3-0.9,0.5-1.7,0.7-2.3c0.3-0.5,0.7-0.7,1-1.1c2.1-0.4,2.4-2.8,4.3-3.4
			c0.5-0.3,1.3-0.2,1.8,0.4C58.4,222.3,55.5,225,52,226.6z"/>
		<path class="st46" d="M32.2,243.6c-0.4,1.2-1,2.3-1.4,3.4c-0.4,0.7-1.1,1.3-1.9,1.3c-2.2-0.5-1.2-2.5-1.6-3.8l0.2-0.5
			c-0.2-0.9,0.4-1.3,1-1.5c0.6-0.5,1.5-0.7,2.3-0.4C31.2,242.4,31.8,243,32.2,243.6z"/>
		<path class="st47" d="M27.3,244.5c1.4,0.8,2.7,1.8,1.6,3.8c-2,1.2-3.2-0.3-4.6-1.3c0.8,0.1,2,0.7,1.9-1
			C26.2,245.2,26.8,244.9,27.3,244.5z"/>
		<path class="st48" d="M258.5,20.8c0.5,0.4,1,0.6,1.5,0.9l0.7,1.3c0,0.2-0.2,0.4-0.3,0.6c-1.8,0.6-3.6,0.9-5.1,2
			c-0.9,0.6-2.2,0.5-2.8-0.4l0,0c-0.2-0.2-0.3-0.5-0.3-0.7C253.3,21.6,255.6,20.8,258.5,20.8z"/>
		<path class="st46" d="M44.2,234.4c-0.4-0.3-0.5-0.6-0.9-0.9c-0.1-0.1-0.1-0.3,0-0.4c0.1-0.1,0.1-0.2,0.2-0.2
			c2.8,0.2,3.4-2.3,4.9-3.8c0.7-0.6,1.2-1.4,2.3-1.3C48.7,230.3,47.3,233.2,44.2,234.4z"/>
		<path class="st49" d="M104.9,171.7c1,1.4,2.2,1.4,3.5,0.9c-0.4,0.7-0.9,1.3-1.6,1.8c-1.2,0.4-1.2,3.1-3.3,1.7
			c0.2-1.3-0.7-2.1-1.3-2.9C102.6,172.1,103.8,171.5,104.9,171.7z"/>
		<path class="st50" d="M89.1,165.2c1.3,0.8,1.2,1.8,0.1,2.6c-1.1,0.8-1.7,2.6-3.2,0.9C86.8,167.3,88,166.4,89.1,165.2z"/>
		<path class="st45" d="M68,211.9c-1.4,2.7-3.7,4.8-6.4,5.9c-0.5-0.6-0.1-1.4,0-2c0.1-0.4,0.4-0.8,0.6-1c0.8-1.2,2.2-1.7,3.2-2.7
			c0.6-0.8,1.7-1,2.6-0.4l0,0C68.1,211.7,68,211.8,68,211.9z"/>
		<path class="st51" d="M62.6,216.4l-0.9,1.4c-0.5,0.4-1,0.7-1.4,1.3c-0.5,0.3-0.8,0.4-1.4,0.7c-1.2,0.4-2.1-0.1-2.2-1.4
			C58.7,215.6,60.6,215.1,62.6,216.4z"/>
		<path class="st29" d="M103.6,176.1c1.4-0.2,1.9-1.8,3.3-1.7c-0.6,2.1-1.7,3.9-4.3,3.7C102.6,177.4,103.1,176.6,103.6,176.1z"/>
		<path class="st52" d="M234.7,50.4c0,0.5,0.4,1,0.8,1.3c-0.6,1-1.6,1.7-2.7,2c0-0.5,0-1.1,0-1.7C232.7,50.4,233.3,49.9,234.7,50.4z
			"/>
		<path class="st53" d="M158.4,123.9c1.1-1,2-2.5,3.8-2.1C161.2,122.7,160.7,124.8,158.4,123.9z"/>
		<path class="st54" d="M239.3,47.8c0.9-1.3,0.8-3.7,3.4-3C241.8,46.1,240.7,47.1,239.3,47.8z"/>
		<path class="st37" d="M19,238.4c-0.7-0.2-1.5-0.2-2.3,0.1c-0.2-0.6-0.4-1.2-0.5-1.9c0.4-0.2,0.5-2.3,1.4-0.3
			C18,237,18.5,237.8,19,238.4z"/>
		<path class="st55" d="M201.9,61c0.4-0.3,0.8-0.4,1.3-0.7c1.6-0.4,2.5,1.2,4,1.6c0.7,0.6,1.5,1.2,2.3,1.6c1.2,0.9,3.2,0.5,3.6,2.6
			c0.5,1.3,0.8,2.7,0.5,4.1c-1.4,1.8-2.8,3.5-4.1,5.3c-1.4,0.3-2.5-0.1-2.8-1.7c-0.2-0.6-0.6-1.2-1.1-1.6c-0.4-0.7-1-1.4-1.5-2.2
			c-1.6-1.7-4.1-2.4-5.9-3.8C197.5,63.3,199.5,62.1,201.9,61z"/>
		<path class="st56" d="M246,40.8c-0.2,0-0.3,0-0.5,0c-2.5,1.3-1.9-0.9-2.3-2.1c-0.2-0.5-0.5-1.2-0.8-1.6c-0.3-0.7-0.1-1.7-0.8-2.3
			c-1.1-1.7-3-2.7-4.5-3.9c-1.9-1.3-2.2-2.3,0.1-3.3c0.4-0.3,0.7-0.5,1.1-0.7c0.4-0.1,0.7-0.2,1.1-0.4c3.2,0.5,6.1,2.2,8.3,4.6
			c1.6,1.7,2.3,4.2,1.1,5.6c-0.4,0.5-0.6,1.4-1.6,0.8c-0.6-0.5-0.3-1.1,0.2-1.6c0.5-0.5,0.5-1.4,0.4-2c-0.4-1.2-1-1.8-2.3-1.2
			c-1,0.5-1.9,1-1.1,2.3C245.2,37,246.4,38.6,246,40.8z"/>
		<path class="st57" d="M212.4,66.7c-1-1-2-2-3-3c2.7-0.6,4.7-2.7,6.8-4.4c1.6-1.3,2.3-0.9,2.9,0.9c1.4,3.7,0.7,5.3-4,8.8
			C213.5,69.2,213.1,67.6,212.4,66.7z"/>
		<path class="st57" d="M206.1,71.6c1.4,1.2,1.4,3.3,3.2,4c-1.6,0.5-3,1.3-4.1,2.6c-2.1,2.4-4.5,4.6-7.2,6.5
			c-0.3-0.5-0.4-0.9-0.7-1.4c-1-1.4-0.7-2.5,0.5-3.9c2.2-2.5,4.9-4.3,6.3-7.7C204.7,71.1,205.5,70.8,206.1,71.6z"/>
		<path class="st10" d="M220.5,44.3c3.2-4.5,7.9-7.5,11.8-11.3c0.9-0.8,2.1-1.4,1.8-2.9c1.8,0.6,3,1.9,4.9,3.3
			c-4.6-0.8-6.8,2.4-9.2,4.3C226.8,40.1,224.8,43.8,220.5,44.3z"/>
		<path class="st58" d="M231.9,44.7c-2.3-0.5-3,1.9-4.5,2.6c0.4-3.9,3.3-5.4,6.3-7c1.4-0.8,2.3-1.3,2.8-3.1c0.4-2.2,1.9-2.4,3.8-1.1
			c0.8,1.8-1.1,2.1-1.6,3.2c-1.9,2.1-3.4,4.6-6.3,5.6C232.1,44.7,232,44.8,231.9,44.7z"/>
		<path class="st59" d="M207.1,62l-4-1.6c2.2-1.9,4.3-4,6.5-5.9c0.6,2.3-1.1,3.4-2.4,4.5C205.8,60.2,205.6,61,207.1,62z"/>
		<path class="st22" d="M237.9,38.7c0.8-0.9,1.6-1.8,2.4-2.6c0.7-0.2,1.4-0.3,1.4-1.4c0.8,0.5,1.3,1.2,1.6,2.2
			C242.4,39.5,241.1,39.8,237.9,38.7z"/>
		<path class="st57" d="M212.4,66.7c1.4,0.2,2,1.3,2.6,2.4l-1.4,1.3C212.9,69.3,212.5,68.1,212.4,66.7z"/>
		<path class="st60" d="M166.3,94.6c0.8-0.4,1.6-0.6,2.4-1.1c4.4,0.1,10.3,5.7,10.2,9.9c0,0.4-0.2,0.7-0.4,0.9
			c-0.3,0.4-0.5,0.5-0.8,0.8c-1.2,1-2,3.2-3.4,3.1c-1.4-0.1-1.2-2.6-2.4-3.6c-2.1-2.1-3.4-4.9-6.8-5.5c-1.3-0.3-1.2-1.3-0.7-2.3
			C164.9,96,165.5,95.2,166.3,94.6z"/>
		<path class="st61" d="M144.6,131.2c-0.4-0.4-0.8-1-1.3-1.3c-0.4,0.1-0.8,0-1.2-0.2c-1-0.8-1-2.1-1.3-3.2c-0.3-1.4,0.4-3.1,1.7-3.9
			c4.1-3.1,7.3-7.1,11.1-10.7c0.2,0,0.4,0,0.6,0.1c0.8,0.3,1.4,0.7,1.8,1.5c1.2,1.3,0.3,2.3-0.6,3.3c-2.8,2.9-5.8,5.6-8.7,8.3
			c-0.9,0.7-1.3,1.4-0.7,2.3c0.1,1.4,0.5,2.8-0.7,3.9L144.6,131.2z"/>
		<path class="st62" d="M145,127.5c-2.9-0.9-1.1-2.3-0.1-3c2.5-1.7,4.4-4,6.7-5.8c1.8-1.3,3.2-3.2,4.1-5.2c1,0.8,2,1.7,3.1,2.6
			l-0.1,0.4c-3.5,3.3-6.8,6.8-10.4,10C147.5,127.4,146.5,128.7,145,127.5z"/>
		<path class="st18" d="M165.4,110.7c1.2-0.4,2.4-1,3.3,0.4c1,1.3,0.3,2.4-0.4,3.6c-0.3,0.5-0.5,0.9-0.7,1.4
			c-0.8,0.4-1.4,1.7-2.4,1.1c-1-0.6-1.1-2-1.1-3C164,112.7,164.8,111.7,165.4,110.7z"/>
		<path class="st59" d="M201.9,61c-1.5,1.4-3.8,2.5-3.1,5.2c1.1,1.3,0,2.2-0.8,2.8c-3.3,3.4-6.7,6.8-10.3,9.7
			c-1.6,2.7-4.1,4.1-6.2,6.3c-1.3,1.4-2.6,2.8-3.2,4.6c-2,1-3.8,0.1-5.7,0.2c-0.5-0.4-0.3-0.9-0.2-1.3c4.1-2.2,6.9-5.8,10.3-8.7
			c4.6-4.2,9-8.6,13.5-12.8c1.3-1.2,1.6-2.3,0.3-3.6C198.4,62.8,199.8,61.2,201.9,61z"/>
		<path class="st63" d="M105.9,151.8c0.8-0.4,1.6-0.6,2.4-1.1c2.1-0.6,4.2,0,5.7,1.6c0.7,0.7,1.3,1.5,1.5,2.6
			c0.5,0.7,0.3,1.7-0.4,2.3l-0.1,0.1c-0.3,0.2-0.5,0.4-0.8,0.6c-3.6,3-3.6,3-7.1-0.3c-0.2-0.1-0.3-0.2-0.4-0.4
			C103.5,154.9,103.5,154.9,105.9,151.8z"/>
		<path class="st35" d="M104.9,171.7c-0.5,1.1-1.3,1.8-2.6,1.5c-3.3-0.9-5.6,1.1-5.6,5c-0.3,0.7-0.8,1.4-0.7,2.1
			c0.2,1.7-0.7,2-2.1,2c-1.1-0.6-2.3-1.3-2.6-2.8c0-2.1,2.1-2.8,2.7-4.4l0.5-1c0.6-1.4,1.7-2.4,3.2-3.1c0.6-0.3,1.2-0.8,1.5-1.4
			c1.1-0.7,1.4-2.1,2.4-2.8c0.5-0.2,1.1-0.5,1.4-1.1c0.7-1.3,1.1-3,2.7-3.7l1.6,2.1l0.2,0.1c0.2,0.4,1.2,0.4,0.7,1.2
			C105.2,166.3,104.5,167.6,104.9,171.7z"/>
		<path class="st64" d="M103,168.4c-1.8,0-1.5,2.2-2.8,2.6c-1.1-1.7-1.8,0.2-2.7,0.4c-2.5-0.2-3.8-2.4-5.5-3.8
			c-0.5-0.4-0.4-1.4,0.3-2.1c0.3-0.9,0.6-1.6,1.2-2.4c1,0.1,1.7-0.5,2.4-1c0.5,0.4,0.4,1.2,0,1.7c0.5-0.5,0.5-1.3,0-1.7
			c0.2-0.2,0.4-0.3,0.5-0.4c2.2,0.6,4,2.3,6.2,3.3c0.2,0.2,0.2,0.4,0.2,0.7C102.4,166.6,103.2,167.5,103,168.4z"/>
		<path class="st65" d="M126.3,144.2l0.8,1.4c-0.4,0.4-0.9,0.9-1.3,1.3c0.2,2.1-1.4,2.6-2.8,3.2c-0.3,0-0.5-0.2-0.7-0.4
			c-0.2,0-0.4-0.2-0.5-0.3c-1.4-0.6-2.9-1.4-3.6-3.1c0.4-3.1,2.4-4.4,5.1-5.2c1.5-0.2,3,1,3.2,2.5
			C126.4,144,126.3,144.1,126.3,144.2z"/>
		<path class="st66" d="M118.7,146.5c1.2,0.7,2.3,1.7,3,3c-2.5,1.4-4.1,3.9-6.5,5.5c-0.6-0.5-1.1-1-1.8-1.6c0.4-3.1,0.9-6,4.4-7.2
			C118.3,146.2,118.5,146.3,118.7,146.5z"/>
		<path class="st67" d="M102.8,165.7c0-0.2,0-0.3-0.1-0.5c-0.2-0.4-0.4-0.7-0.5-1.2c-0.5-0.9-1.7-1.9-0.7-2.9c1-1,2.4-0.6,3.4,0.4
			c0.3,0.2,0.5,0.4,0.7,0.7c-0.2,1.8-1.2,3.8-2.2,4.2C103.2,166.4,102.9,166,102.8,165.7z"/>
		<path class="st43" d="M122.2,149.8c0.2,0,0.3,0,0.5,0c1.8-0.6,2.5,0.2,2.7,1.9c-0.3,0.5-0.7,0.7-1.3,0.7
			C123.9,151.3,121.2,152,122.2,149.8z"/>
		<path class="st68" d="M228.2,50.8c-0.6,0.1-1,2-2,0.7c-0.7-1.1,0.6-1.1,1.1-1.7c1.3-2,2.9-3.6,4.7-5.1l0,0
			c0.4-0.1,0.8,0.3,0.9,0.6c0.4,0.8,0.3,1.9-0.3,2.7C231.4,49.4,230.1,50.8,228.2,50.8z"/>
		<path class="st62" d="M228.2,50.8c1.4-0.9,2.6-2.1,3.5-3.6c0.9,0.8,2.3-0.5,3.1,0.4c0.8,0.9-0.3,1.3-0.5,1.9
			c0.2,0.3,0.3,0.5,0.5,0.7c-0.7,0.3-1.5,0.9-2.1,1.5c-0.6-2.2-1.9-1.6-3.1-0.5C228.9,52.2,227.9,52.8,228.2,50.8z"/>
		<path class="st69" d="M228,55.9c-0.3,0.6-0.5,1.1-1,0.9c-0.8-0.3-0.5-0.9-0.4-1.4c0.2-0.5,0.5-0.8,0.9-0.5
			C228.2,55,227.8,55.6,228,55.9z"/>
		<path class="st38" d="M73.8,196.5c-2.4,2.4-4.8,5.1-7.6,7.2c-0.7,0.4-1.2,1.2-0.9,2c0.4,1.4-0.1,3.1,1.1,4.3
			c0.1,0.3,0.1,0.5,0,0.8c-0.5,1.6-1.9,1.5-3.1,1.7c-0.5,0.1-1,0-1.4-0.1c-0.8-0.2-0.6,0.4-0.8,1c-1.1,1.7-3.2,1.4-4.5,2.6
			c-2.8,0.3-1.7-1.9-2-3.1c0-0.3,0.2-0.5,0.4-0.8c0.5-2.1,2.3-3.1,3.7-4.2c2.6-0.1,3.4-2.5,4.6-4.2c2.4-2.7,5-5.2,7.7-7.7
			c1-0.8,1.9-1.6,3.2-0.4C74.2,196,74.1,196.3,73.8,196.5L73.8,196.5z"/>
		<path class="st35" d="M84.4,195c-1,0.6-1.8,1.3-2.8,1.9c-1.4-0.5-2.2-1-0.6-2.3c0.7-0.6,1.3-1.5,1.3-2.4c1.1-1.7-1-1.7-1.5-2.6
			c-0.3-0.8,0.1-1.8,0.9-2.2c0.7-0.4,1.3-1.1,1.6-2c0.3-0.5,0.1-1.1,0.5-1.6c1.2-1.5,1.9-3.7,4.4-3.5c0.5,0.3,0.9,0.7,1,1.3
			c-1.7,1.5-3.1,3.2-2.5,5.8c0.2,1.5-0.4,3.1-1.3,4.2C85,192.8,84.5,193.9,84.4,195z"/>
		<path class="st70" d="M73.6,204.7c-0.6,2.7-1.9-0.4-2.6,0.3c-0.2,0.2-0.3,0.1-0.4-0.1c-0.8-0.3-1.9-0.2-1.5-1.4
			c0.4-1.2,0.7-2.3,2.3-2.4c1.1,0,1.4,0.7,1.3,1.7C72.5,203.5,72.8,204.4,73.6,204.7z"/>
		<path class="st44" d="M81.5,189.9c0.7-0.4,1.5-0.5,1.9,0.5c0.4,0.5,0.3,1.3-0.4,1.9c-0.1,0.1-0.3,0.2-0.4,0.3
			c-1.3-1.8-2.5-1.5-3.9,0c-1.5,1.5-3.2,2.9-4.9,4.1l0.3-1.1c-0.5-0.8-0.3-1.9,0.4-2.6c1.4-1.4,2.8-3.1,4.9-3.6
			c0.5-0.3,1.1-0.3,1.6,0C81.1,189.4,81.3,189.7,81.5,189.9z"/>
		<path class="st46" d="M70.5,204.9l0.5,0.1c1.3,3-1.2,3.6-2.9,4.7c-0.7,0.3-1.3,1.3-2.3,0.5l-0.1-0.1c-0.3-1.1-0.3-2.1,1.2-2.3
			c0.8,0,1-0.8,1.5-1.2C69,206.1,69.8,205.4,70.5,204.9z"/>
		<path class="st71" d="M79.2,196c-0.5,0.9-1.1,2-2.5,1.6c-0.7-0.2-1.3-1.2-0.9-1.5c0.9-0.6,1.9-1.2,3.1-1.4
			C79.4,194.5,79.4,195.4,79.2,196z"/>
		<path class="st72" d="M68.4,206.6c-0.5,1.6-2.4,1.9-2.7,3.4c-1.6-1.3-2.3-2.6-0.4-4.3C66.1,206.7,67.2,207.4,68.4,206.6z"/>
		<path class="st59" d="M172.4,88.7c0,0.4,0.1,0.6,0.1,1.1c-0.6,1.6,0.3,3.3,1.8,4.1c1.4,0.8,2.3,2.3,3.2,3.7
			c1.2,1.7,2.2,3.4,4.1,4.3c-0.5,1.7-2.3,1.5-3.3,2.5c-0.4-4-3-7.2-6.7-8.8c-1.2-0.5-2.3-1.3-3.2-2.2c-1.3-3.1,1.4-3.3,3.1-4.6
			C171.9,88.9,172.2,88.8,172.4,88.7z"/>
		<path class="st22" d="M141.4,126.4c0.7,0.8,1.7,1.4,1.4,2.6c-2.8,0.9-5.2,2.3-6.9,4.7c-1.2,1.6-2.5,1.4-4.1,1
			c-1-0.8-2.6-1-3.1-2.5c-0.1-0.7,0.2-1.4,0.9-1.8c2.3-1.9,4.3-4.1,6-6.5l-0.1-0.2c0.4-0.5,1.2-0.5,1.6-0.1c0.5,0.9,1.4,1.4,2.3,1.7
			C140.2,125.2,141.1,125.6,141.4,126.4z"/>
		<path class="st73" d="M141.4,126.4c-0.7-0.1-1.4-0.4-1.9-1.1c-0.7-1-1-1.5,0.2-2.6c3.5-3.2,7.1-6.7,10.5-10c1-0.9,1.8-1.4,3.2-0.9
			c0.9,1.2,0.3,1.8-0.6,2.7c-3.3,3-6,6.4-9.6,9.2C142.3,124.3,141.7,125.3,141.4,126.4z"/>
		<path class="st74" d="M137.4,123.7c-0.4,0.3-1.1,0.4-1.6,0.1c-0.1-1.2,0.7-1.8,1.5-2.6c3.7-3.4,7.6-6.8,11.2-10.3
			c0.4-0.3,0.8-0.6,1.1-0.3c0.6,0.7-0.1,1.1-0.5,1.4l-9.7,9.4C138.5,122.3,137.8,123,137.4,123.7z"/>
		<path class="st75" d="M252.5,24.8c2.1,0.4,3.3-1.3,4.9-1.9c1.3-0.5,2.1-0.4,2.9,0.7c-0.2,3-2.3,4.5-4.1,6.3
			c-0.1,0.2-0.2,0.3-0.4,0.4c-4,3.7-4,3.7-6.8-1.1C248.5,26.3,251,26,252.5,24.8z"/>
		<path class="st48" d="M252.5,24.8c-0.5,2.1-2.9,2.5-3.5,4.6c-0.2-0.1-0.4-0.1-0.5-0.1c-0.7-1.3-2-2-3-3c-0.7-1.2-0.3-2.2,0.7-2.1
			C248.4,24.5,250.5,23.8,252.5,24.8L252.5,24.8z"/>
		<path class="st76" d="M145,127.5c4-2.6,7-6.7,10.6-9.7c0.9-0.8,1.7-1.8,3.1-1.3c1.4,1.9,1.3,3.4-0.7,5.1
			c-3.4,3.1-6.7,6.3-10.2,9.5c-1,0.9-1.9,1.7-2.9,0.1C144.6,130,143.7,128.8,145,127.5z"/>
		<path class="st77" d="M118.7,161.8c-1.1,1.4-2.1,3.1-3.6,4.1c-0.3,0.4-0.9,0.4-1.3,0.1l-0.1-0.1c-0.4-0.4-0.4-0.9-0.2-1.4
			c0.8-1.9,3.2-2.6,3.9-4.6c0.1-0.3,0.6-0.1,0.9,0.3C118.6,160.5,118.9,161.2,118.7,161.8z"/>
		<path class="st78" d="M108.2,165.4c-0.3-0.4-0.5-0.7-0.7-1.2c0.5-0.3,1.3-0.6,1.8-1c0.8-0.6,1.7-2,2.8-0.4
			c0.8,1.3,1.1,2.9-0.9,3.5C110.1,166,109.1,165.7,108.2,165.4z"/>
		<path class="st37" d="M57.2,199.2c0.5-0.3,0.9-0.5,1.3-0.9c0.9,0.6,2,1.1,2.8,0c2.9-3.7,6.8-6.1,9.8-9.7c0.8-1,1.6-2.2,2.4-3.1
			c0.3-0.3,0.7-0.4,1.2-0.5c1.3,0.3,2.5,0.7,3.1,2.1c0.2,0.2,0.3,0.4,0.2,0.8c-0.4,2.3-2.5,3.4-4,4.9c-3,3.3-6.3,6.5-9.6,9.5
			c-0.6,0.6-1.4,1.1-2.3,1.3C59.8,202.8,57.3,202.4,57.2,199.2z"/>
		<path class="st79" d="M74.4,185.8l-1-0.3c-0.3-2.2,1.5-3.1,2.7-4.2c0.4-0.7,1.1-1.2,1.9-1.2c0.4-0.4,1-0.4,1.5-0.1
			c0.7,1.2,1.2,2.6,3.1,1.7l0.7,0.2c1.2,0.6,1.5,1.6,1.6,2.9l-0.4,1.5c-1.5,0.8-3.2,1.5-3.6,3.3l-1.2,0.3c-1.3,0.1-2.5-1-2.6-2.4
			l0,0C77.1,185.9,75.9,185.5,74.4,185.8z"/>
		<path class="st77" d="M252.6,24.7c-1.7,1-3.2,2.7-5.4,0.6c-0.6-0.6-1.4,0-1.5,0.9c-3.4-1.4-3.2-1.3-1.3-4.2
			c1.5-2.3,3.8-3.8,5.8-5.6c1.1-1.1,2.4-0.4,3.6,0c-0.1,1.6-2.2,3.2-1.1,4.4c0.8,1,2.9-0.5,4.2-0.5c0.6-0.1,1.2,0.1,1.7,0.5
			C256.1,21.5,254.3,23,252.6,24.7z"/>
		<path class="st68" d="M132.5,133.9c0.8,0.3,1.8,0.4,2.1-0.4c1.2-2.3,3.6-3.1,5-4.8c1.7-2.3,2.3-0.7,3.3,0.4l0.4,0.6
			c-1.5,2.1-4,2.9-6,4.4c-0.7,0.6-2.2,1-0.7,2.3c-0.8,1.3-0.7,2.7-1.1,4.1c-0.7-1.1-1.9-1.8-3.2-1.9c-0.5-0.3-0.8-0.8-0.8-1.4
			c0-0.3,0-0.4,0.2-0.7c1.2-0.7,0.1-1.9,0.5-2.7C132.2,134.1,132.4,134,132.5,133.9z"/>
		<path class="st22" d="M84.4,195c-1.4-0.9-1-2.1-0.3-3.1c0.9-1.3,1.9-2.5,2.7-3.9c0.5,0.8,1,1.8,1.4,2.8
			C87.1,192.3,86.2,194,84.4,195z"/>
		<path class="st54" d="M89.4,182.1c-0.4-0.3-0.5-0.5-0.8-0.8c-0.2-1.9,1.3-1.9,2.5-2.3c0.3,0,0.5,0.2,0.7,0.4
			c1.7,0.2,1.4,1.7,1.9,2.8c-0.4,0.2-0.7,0.3-1.1,0.4C91.6,182.1,90.5,181.9,89.4,182.1z"/>
		<path class="st80" d="M37.8,225c-0.4-1.2-1.4-2.1-2.5-2.4c-0.9-0.1-1.5-0.9-1.5-1.9s0.6-1.8,1.6-2.3c1.2-0.5,2.3-1.1,3.5-1.7
			c2.1,2,6.1,1.6,6.8,5.2c-0.3,2.4-2,4-3.6,5.4c-0.4,0.3-0.7,0.4-1.3,0.5C39.3,227.7,37.3,227.5,37.8,225z"/>
		<path class="st81" d="M37.8,225c0.9,1,1.7,2.2,3.1,2.4c0.2,0.2,0.3,0.4,0.2,0.7c-0.3,0.9-1,1.5-1.8,1.7c-1.9,0.9-3.3,2.5-4,4.5
			c-0.5,2.1-2.6,3.1-4.7,2.6c0,0,0,0-0.1,0c-0.8-1-0.1-1.8,0.3-2.6c0.5-0.9,0.6-1.9,0.3-3c-0.2-1-1.2-1.8-0.9-3
			c0.6-2.3,2.5-3.5,4-4.8C35.7,222.7,36.7,224.6,37.8,225z"/>
		<path class="st82" d="M45.1,222c-1.3-1-2.2-2.3-4.1-2.2c-1.8,0.2-0.8-2.3-2-2.9c0.4-0.7,0.7-1.2,1.1-1.9l0.8-0.9
			c1.3-0.5,1.9-1.7,2.9-2.4c0.8,0.5,1.7,0,2.4,0.2c1.1,0.2,1.8,1.2,1.6,2.3c0,0.1,0,0.2,0,0.3c-0.8,1.4-2.8,0.5-3.8,2.1
			c1.3-0.9,2.9-1.4,4.4-1.5c0.3,0,0.5,0.1,0.8,0.2c0.9,0.3,1.4,1,1.4,1.8c-0.2,2-2.4,2.3-3.1,3.9c-0.4,0.6-1,0.7-1.5,1.1
			C45.6,222.1,45.4,222.1,45.1,222z"/>
		<path class="st63" d="M30.3,228.4c0.7,0.8,1.7,1.3,2.3,2.2c-1.1,0.6-1.5,2.3-3.2,1.8c-1-1.1-1.9-0.8-2.9,0
			c-1.3,1.3-2.8,2.1-4.6,2.4c-1.8,0.3-2.3-0.4-1.4-2c1.6-1.3,3.2-2.8,4.9-4.1C27,227.5,28.6,226.9,30.3,228.4z"/>
		<path class="st40" d="M125.5,151.6c-0.6-1-1.7-1.6-2.7-1.9c0.7-1.2,1.8-2.2,3.1-2.9C127.7,148.7,127.6,150.4,125.5,151.6z"/>
		<path class="st83" d="M20.5,232.8c0.1,1.5,0.8,1.5,1.8,0.9c1.6-1,3.1-2.2,4.7-3.2c0.6-0.4,1.2-1.5,2.2-0.9c1,0.6,0.3,1.5,0.3,2.3
			c-0.4,1.5-1.3,3-2.5,3.9c-0.6,0.4-1.4,0.8-2,1.2c-1.5,0-2.6,1.4-4.1,1.3l-0.1,0.2c-0.2-1.2-0.2-2.3-1.2-3.2
			C18.1,233.9,19.9,233.5,20.5,232.8z"/>
		<path class="st84" d="M57.2,199.2c1.4,1.4,3.2,2.7,5.1,3.5c1.3-0.4,1.7,0.5,1.8,1.6c-0.5,2.3-2.3,4.1-4.5,4.9
			c-0.2,0.1-0.4,0.1-0.5-0.1c-0.3-0.3-0.7-0.4-1.1-0.2c-0.6,0.2-1.3-0.1-1.4-0.7c-0.1-0.2-0.1-0.4,0-0.5c0-2.4-1.6-2.6-3.4-2.5
			c-1.3-1.4,0.3-2.1,1-2.9c0.5-0.6,2-0.7,0.8-2.1C55.6,199.8,56.4,199.5,57.2,199.2z"/>
		<path class="st68" d="M47.2,214.5c-0.5-1.9-3.3-0.5-3.7-2.7c0.8-1.4,1.9-2.5,3.2-3.5c0.7-0.5,1.3-1.1,2.2-1.6
			c0.8,0.2,1.4,0.7,1.9,1.5c0.6,1.5,2.2,1.4,3.3,1.6c1.2,0.2,1.6,0.6,1.5,1.9c-0.8,0.7-0.5,1.7-0.5,2.5c0,2.3-1,3.6-3.3,4
			c-0.9-0.2-0.9-0.8-1.2-1.4c0-0.7-0.7-1.2-1.3-1.1c-0.3,0.1-0.5,0.1-0.7,0.4l-0.5-0.2C47.1,215.6,46.7,215.2,47.2,214.5z"/>
		<path class="st66" d="M55,211.6c-1.1-1.3-1.9-2.9-3.3-0.4c-0.4,0.6-0.9,0.7-1.3,0.3c-0.5-0.4-1.4-1-1-2c0.4-0.5,0.7-0.9,1.1-1.4
			c0.4,0,0.6,0.2,1,0.4c1.7,1.1,3.2,1.1,4.1-0.9c0.8-2.2-1.3-2.1-2.6-2.7c2.8-0.4,2.7-0.4,4,2.4c0.2,0.4,0.7,0.7,1.1,1
			c0.4-0.2,0.7-0.1,1,0.3c0.2,0,0.5,0.1,0.6,0.3c-1.8,0.5-2.8,1.7-3.7,3.3C55.3,212.5,55.2,212.1,55,211.6z"/>
		<path class="st85" d="M118.2,146.5c0.2,0.4,0.2,0.9,0.2,1.4c-3,0.5-2.8,3.4-4,5.1c-0.2,0.2-0.5,0.3-0.7,0.3
			c-1.7-1-3.3-2.1-5.3-2.5c2-1.5,3.2-3.7,5.2-5.1c0.7-0.4,1.4-0.9,1.2-1.7c-0.6-2.1,0.4-2.4,2.1-2.3
			C117.2,143.3,118.4,144.7,118.2,146.5z"/>
		<path class="st86" d="M135.6,124.1c-1,3.6-4.7,5-6.5,7.9c-0.3,2.4-0.4,4.9-0.3,7.4c0.4,1.6-1.1,2.5-1.9,3.3
			c-0.8,0.9-2.3,0.5-3.3-0.2l0,0c-1.8-0.6-2.9-1.7-1.6-3.8c0.7-1.1,1.9-2.1,1.6-3.7c-0.3-1.2,0.8-1.1,1.4-1.5
			c2.4-1.6,4.7-3.4,6.8-5.4c1.4-1.2,2.5-2.7,3.1-4.5C135,123.8,135.3,123.9,135.6,124.1z"/>
		<path class="st68" d="M121.8,138.7c0.7,1.3,0.2,2.9,1.6,3.8c-2.3,0.6-3.6,2.3-4.9,4.1l-0.5-0.2c-3.2-2.1-3.3-2.6-1.3-4.8
			C118.5,140.9,120.3,139.9,121.8,138.7z"/>
		<path class="st87" d="M123.7,142.4c2.4,0.8,3.4-1.1,4-2.6c0.5-1.4-0.7-2.4-2.2-2.7c-1.5-0.3-1.3-1-0.6-1.9
			c1.1-1.5,2.5-2.7,4.2-3.3l3.2,2l0,0c-1.3,1,1,2.3-0.3,3.2l-0.2,0.5c-0.6,1-1.4,2.1-0.3,3.2c-2.3,0.3-3.6,2.3-5.3,3.4
			C125.5,143.7,124.5,143.1,123.7,142.4z"/>
		<path class="st88" d="M131.7,140.7c-0.2,0-0.4-0.1-0.5-0.3c-1-0.7-2.8-1.4-2.5-2.7c0.4-1.4,2.2,0,3.2-0.4l0.3,1.2L131.7,140.7z"/>
		<path class="st28" d="M178.1,89.5c-1.3-1.2-0.9-2.1,0.3-3.2c3-2.6,5.8-5.4,8.6-8c0.9,0.1,2-0.5,2.4,0.7c0.4,0.8,0.1,1.8-0.6,2.3
			c-0.7,0.6-0.9,1.3-0.2,1.9c0.3,0.5,0.4,1.1,0.4,1.7c-0.3,1.5-0.2,2.6,1.5,3.2c0.8,0.3,0.7,1.2,0.9,1.7c0.4,0.6,1.2,1,2,1.1
			c-1.2,0.3-2.3,0.9-3.1,1.8c-2,2.3-4.1,4.4-6.4,6.5c-0.4-0.4-0.8-0.7-0.9-1.3c-0.6-2.6-2.1-4.8-4.2-6.2
			C178.2,91.2,177.6,90.6,178.1,89.5z"/>
		<path class="st80" d="M178.1,89.5c3.1,2.6,6,5.1,6,9.7c-0.8,0.9-1.6,1.9-2.3,2.7c-1.2,0.6-2,1.1-2.8-0.7c-1.6-3.5-4.5-6.4-8.1-7.8
			c-1.3-0.5-1.3-1.3-0.5-2.3c0.6-0.6,1.3-1.3,2.2-1.4C174.3,87.5,176.1,88.5,178.1,89.5z"/>
		<path class="st89" d="M91.8,179.4c-0.1,0.1-0.3,0.1-0.4,0c-0.2,0.2-0.5,0.2-0.6,0c-0.4-1.4-1.3-1.6-2.5-1.2
			c-0.3,0-0.5-0.2-0.8-0.4c-0.7-0.6-1.5-1.2-2.4-1.4c-1.9-0.8-2.3-2.1-1.1-3.8c1.3-1.7,3.5-1.9,5.1-3c2.4-0.5,3.5,1,4.8,2.7
			c-0.4,1.3,0.2,2.5,1.2,3.2C94.7,177.4,92.8,178.1,91.8,179.4z"/>
		<path class="st24" d="M84,172.7c-0.4,1.5,0.3,2.3,1.7,2.6c1.3,0.1,2.3,1,2.5,2.3c0.4,2.6-2.3,5.3-5.2,5.1l0,0
			c-1.1-0.6-3-0.2-3.2-2c-0.5-0.2-1.1-0.4-1.6-0.5c-0.1-0.3-0.1-0.6-0.2-1l1.4-0.8C81.3,176.9,83,174.9,84,172.7z"/>
		<path class="st58" d="M93.1,172.8c-1.4-1.1-2.7-2.2-4.1-3.2c1.1-1.3,2.2-2.7,3.2-4.1c0.1,0.4,0.1,1.2,0.3,1.2
			c2.3,0.8,3.3,3,5.4,4.1c0.4,0,0.7,0.3,0.4,0.6c-1,1-2,2-3.1,3C94,174.8,93.3,174.2,93.1,172.8z"/>
		<path class="st90" d="M54.7,223c-0.3,0.4-0.5,0.6-0.7,0.9c-1.4,1.2-3.5,1.1-4.9,2.5c-0.3,0.4-0.9,0-1.4-0.5
			c-0.2,0-0.3-0.2-0.4-0.2c-1.3-1.7-0.5-3.6,0-5.3c1-1.3,1.9-2.4,3.8-2.3c0.7,0,1.4,0.1,2.1,0.4C56,219.3,56.4,220.6,54.7,223z"/>
		<path class="st91" d="M40.9,227.9l0.2-0.5l0.6-0.4c2.5,0.5,2.6,1,1.4,3.2c-0.2,0.4-0.3,0.6-0.4,0.9c-0.5,2.4-2.5,3.5-4.1,5
			c-0.6,0.5-1.4,0.3-2.2,0c-1.7-2.1-1.6-3.3,0.3-4.9C38,229.9,39.2,228.7,40.9,227.9z"/>
		<path class="st19" d="M43.1,230.2c0.3-1.4-0.5-2.4-1.4-3.2c0.9-1.8,3.3-2.7,3.5-4.9c0-0.2,0.1-0.4,0.3-0.6c0.5-0.7,1,1.9,1.3,0
			c0.4-0.4,0.6-1.2,1.4-0.9c-0.5,1.7-0.7,3.3-0.7,5.1C46.5,227.8,45,229.3,43.1,230.2z"/>
		<path class="st44" d="M36.6,235.5c1.6,0.4,2.3-0.9,3.2-1.7c0.8-1,1.8-1.8,2.9-2.5c0.2,0.6,0.5,1.1,0.6,1.8l-0.2,0.5
			c-1.6,1.3-3.3,2.8-5,4.1c-1.3,0.4-2.1,1.9-3.3,2.5c-0.8,0.4-1.9,1.5-2.8,0.1C32.7,236.9,33.9,235.7,36.6,235.5z"/>
		<path class="st39" d="M47.9,226c0.4-0.2,1-0.1,1.2-0.4c1.4-1.6,3.1-1.9,5-1.7c-0.5,0.6-1.1,1.1-1.7,1.6c-0.7,0.2-1.4,0.5-2.1,1
			C49.4,227.3,48.4,227.3,47.9,226z"/>
		<path class="st89" d="M234.4,49.6c-0.1-0.5,0-1.1,0.4-1.5c-0.4-1.3-2.2-1.3-2.4-2.8c-0.2-0.2-0.3-0.5-0.4-0.7
			c1.4-2.6,3.7-4.2,5.9-6c1.8-0.7,4,0.1,5.4-1.8l0.8,1.3c-0.1,2.3-2.7,2-3.7,3.5c-0.5,0.7-1.1,1.2-2,1c-0.7,0.5-0.9,1.4-0.7,2.3
			C238.3,48,237.3,49.5,234.4,49.6z"/>
		<path class="st22" d="M239.3,40.8c-0.4-0.9-0.4-2.2,0.7-1.6c1.6,0.6,2.6-0.6,3.9-0.9c0.4,0.8-0.1,2.4,1.4,2.7
			c-1,0.8-1.9,1.8-3,2.5c-1.1,0.7-0.9-0.3-0.8-0.8C241.4,41.5,240.3,41.2,239.3,40.8z"/>
		<path class="st92" d="M239.3,40.8c1.9-0.9,2.6-0.5,2.3,1.7c-0.4,0.4-0.9,0.8-1.4,1.2c-0.4,0.4-0.9,1.6-1.7,1.2
			c-1-0.5-0.4-1.4-0.3-2.3C238.8,42,239.5,41.6,239.3,40.8z"/>
		<path class="st59" d="M191.5,89.9c-1.5-2-2.1,0.8-3.3,0.7c-0.3-2.3-1.5-4.6,0.2-6.9c0.6-2.9,2.9-4.1,5-5.2
			c2.9-1.5,5.4-3.7,7.4-6.1c1.2-1.3,2.5-2.5,4.4-2.7c0.4,0.6,0.8,1.3,1.1,2c-1.5,3.9-5,6.2-7.6,9.3c-0.6,0.6-1,1.6-0.9,2.5
			c-1.1-0.6-2.2-1.6-3.4-1.4c-1.4,2.3-1.6,5.1-2.4,7.6C191.6,89.5,191.6,89.7,191.5,89.9z"/>
		<path class="st21" d="M191.7,89.3c-1.4-3.9-0.6-5.8,2.4-7.6C196.4,85.1,195.1,89,191.7,89.3z"/>
		<path class="st93" d="M20.7,238.2c0.6-1.8,1.9-2.6,3.7-2.2c1.4,0.6,2.6,1.8,3.5,3.2c0.5,1.3,1.4,2.5,0.5,4
			c-0.4,0.3-0.8,0.4-1.3,0.7c-0.9,0.3-1.9,0.1-2.7-0.6c0.3-0.8,0-1-0.8-0.8C22.3,241.4,21.8,239.6,20.7,238.2z"/>
		<path class="st94" d="M23.9,242.4c-0.1-0.3-0.3-0.6-0.4-0.9c-0.3-0.7-1.3-1.9-0.4-2.1c1.5-0.3,2.1,1.4,2.7,2.5
			c0.6,1.2,0,1.4-1.1,1.4C24.4,243,24.2,242.7,23.9,242.4z"/>
		<path class="st95" d="M32.6,240.5c1.5-0.5,2.8-1.5,3.5-3c0.7-1.3,1.4-1,2.2,0c0,0.2,0,0.3,0,0.4c-0.9,1.9-2.9,2.4-4.3,3.7
			c-0.7-0.6-1.7,1.3-2.3-0.2C31.5,240.9,31.9,240.4,32.6,240.5z"/>
		<path class="st96" d="M31.6,241.7c0.8,0.4,1.5-1.2,2.3,0l-1.6,1.9c-0.5,0.2-0.8,1-1.5,0.7c-0.9-0.4-0.4-1.1-0.5-1.8
			c-0.1-0.2-0.1-0.4,0.1-0.6C30.7,241.5,31.2,241.4,31.6,241.7z"/>
		<path class="st58" d="M65.8,210.2c0.6-0.4,1.5-0.7,2.3-0.5c-0.1,0.6-0.1,1.3-0.2,2c-2.1,0.8-3.1,3-4.8,4.3c-1.5-1.4-0.4-2.9,0-4.2
			C64.3,211.5,65.4,211.4,65.8,210.2z"/>
		<path class="st97" d="M54.7,223c0.6-3.1-1.3-3.9-3.7-4.2c1.5-1.7,3.8-1.3,5.6-2.6c1.1,0.4,1.1,1.1,0.5,2.1c0.3,0.7,1,1.4,1.8,1.5
			C57.3,220.6,56.6,222.4,54.7,223z"/>
		<path class="st5" d="M30.6,242.1c0,0.2-0.2,0.3-0.2,0.4c-0.5,0.4-1.2,0.6-1.8,0.6c-0.7-1.2-1.7-2.2-1.3-3.5c0-0.9,0.4-1.9,0.9-2.5
			c0.5-0.3,1.3-0.4,1.9-0.4C33.8,237.7,33.7,238.8,30.6,242.1z"/>
		<path class="st98" d="M57.2,218.2c-0.2-0.6-0.4-1.2-0.5-1.9c-0.5-0.4-0.2-0.8-0.3-1.3c0.4-2.7,2.7-1.5,4.1-2
			c-0.1-0.8,0.5-1.6,1.2-1.8l1.5,0.4c1.1,1.5,0.5,3,0,4.2c-0.2,0.2-0.4,0.3-0.5,0.4C60.7,217,59,217.5,57.2,218.2z"/>
		<path class="st24" d="M205.1,69.6c-3.7,3.5-6.4,7.8-11.4,10c-2,0.8-3.3,3.1-5.3,4c-1.2,0.1-2.3,1.9-3.1,0.6
			c-0.5-0.8,1.2-2.3,2.1-2.9c1.6-1.3,1.3-2.1-0.2-2.9c3.6-4.3,8.4-7.7,11.9-12.1C201.7,65.9,203.2,68,205.1,69.6z"/>
		<path class="st19" d="M211.3,70.1c-0.7,0.8-1.3,2.2-2.6,1.8c-1.1-0.3-1.7-1.4-1.4-2.4c0-0.1,0.1-0.3,0.1-0.4
			c0.4-1.1,1.3-2.3,2.8-1.9C211.4,67.6,211.5,68.8,211.3,70.1z"/>
		<path class="st99" d="M176,101c0.2,0.6,0.5,1.2,0.7,1.8c-0.8,1.5-1.8,2.8-3.5,1.3l0,0C172.6,101.6,173.8,100.5,176,101z"/>
		<path class="st13" d="M173.1,104c1.5,0.4,2.5-0.4,3.5-1.3c0.3,1.6-0.8,2.4-2,2.8C173.5,106,173.4,104.8,173.1,104z"/>
		<path class="st85" d="M176,101c-1.5,0.3-3,1-3,2.9c-1.3-1.6-0.1-2.7,1-3.7C175.1,99.5,175.6,100,176,101z"/>
		<path class="st100" d="M98.4,171.7l-0.4-0.6l-0.4-0.6c-0.5-0.7-1.5-1.4-0.7-2.5c0.4-0.6,1.3-0.5,1.9-0.4c1.3,0.2,1.5,1.3,1.6,2.4
			c0,0.4-0.1,0.8,0,1.3C99.7,171.2,99,171.4,98.4,171.7z"/>
		<path class="st101" d="M102.8,165.7c0.3,0.2,0.6,0.5,0.8,0.8c0,0.7,0.1,1.5-0.6,2c-0.4-0.3-0.7-0.5-1-0.7c-1-0.5-2.3-1.3-1.8-2.4
			C100.8,164.1,101.9,165.7,102.8,165.7z"/>
		<path class="st102" d="M93.1,172.8c0.7,0.6,1.4,1.1,2.2,1.7l-0.3,1C93.3,175.5,92,175.1,93.1,172.8z"/>
		<path class="st100" d="M96,162.2c1,0.4,2.2,0.5,0.8,1.8c-0.6,0.5-1.1,1.4-1.6,2.1c-0.5,0.6-1.1,1.1-1.8,0.4
			c-0.6-0.6-0.1-1.3,0.5-1.9C94.6,163.9,95.8,163.6,96,162.2z"/>
		<path class="st103" d="M232.2,45.5c0.4,0.1,0.7,0.4,1,0.3c3-0.7,2.5,0.7,1.4,2.3c-0.4,0.1-0.6,0.2-0.9,0.4c-0.4,0.5-1,1.3-1.7,0.8
			c-0.9-0.4-0.4-1.3-0.4-2.3C232.3,46.8,232.2,46.1,232.2,45.5z"/>
		<path class="st104" d="M64.1,204.3c-0.6-0.5-1.1-1-1.8-1.6c3.3-3.3,6.6-6.8,9.9-10c1.8-1.5,2.6-4,4.9-5c0.9,0.8,1.8,1.6,2.6,2.4
			c-2.2,1.7-4.3,3.2-5.8,5.6c-2,1-3.8,2.4-5.1,4.2C67.4,201.3,65.7,202.8,64.1,204.3z"/>
		<path class="st35" d="M56.4,215.1c0.1,0.4,0.2,0.8,0.3,1.3c-0.4,2.2-1.5,3.2-3.9,2.3c-0.5-0.3-1.2,0.1-1.7,0.1
			c-1,0.4-2,1.1-2.8,1.9c-0.4,0.5-0.7,0.9-1,1.4c-0.9-0.3-0.7-0.9-0.6-1.5c0.8-1.3,1.9-2.5,3.2-3.4c0.5-0.4,1.1-0.2,1.4,0.3l0,0
			c1.4-1,3-1.8,3.3-3.8c0.2-0.6,0.3-1.3,1.3-0.8C56.1,213.5,54.6,214.8,56.4,215.1z"/>
		<path class="st105" d="M61.7,211.3c0.1,0.9,0.1,1.7-1.2,1.8c-1-0.3-2-0.4-2.3-1.4c-0.2-0.5,0.3-0.8,0.5-1.1
			C60,210,60.8,210.5,61.7,211.3z"/>
		<path class="st101" d="M55.7,212.9c-0.5,0.3-0.8,0.5-1.3,0.8c-1.4,0.1-2.5-0.5-2-1.9c0.4-1.8,1.6-0.3,2.5-0.2l0.9,0.8
			C55.8,212.5,55.7,212.7,55.7,212.9z"/>
		<path class="st106" d="M82.9,182.7c2-1.4,3.8-3.1,5.2-5.1l0.5,0.2c1.3-0.4,1.8,0.6,2.1,1.7l0.6,0.2c-1,0.6-1.8,1.3-2.8,1.9
			c-1.5,0.8-2.7,1.9-3.6,3.4C84.3,184,83.6,183.5,82.9,182.7z"/>
		<path class="st106" d="M80.9,189.7c-0.2-2.5,1-3.7,3.6-3.3c-0.6,1.4-2.7,1.6-3.2,3.4L80.9,189.7z"/>
		<path class="st11" d="M74.4,185.8c0.2-0.1,0.3-0.2,0.4-0.2c0.8,0,1.4-1.4,2.3-0.6s0.2,1.7,0,2.6C76.6,186.7,75.6,186.1,74.4,185.8
			z"/>
		<path class="st106" d="M79.7,180.7c1.3,0.5,2.3,1.1,3.2,2c-1.3,0.1-0.9,1.2-1.3,2.1C80.4,183.6,77.8,183.2,79.7,180.7z"/>
		<path class="st88" d="M132.2,137.1c0.2-1.1-3.2-2.4,0.3-3.2c0.4,0.4,0.6,0.8,1,1.2c0.6,0.6,1.7,1.1,1,2.1
			C133.8,138.1,132.9,137.2,132.2,137.1z"/>
		<path class="st107" d="M30.6,242.1c0.4-0.5,0.5-0.9,0.8-1.4c1.5-1.8,1.1-3-1.1-3.6c-0.3-0.4,0.1-0.5,0.4-0.5
			c2-0.8,3.4-1.8,4.2-4.2c0.7-2.2,3.2-3.8,5.8-4.5c-1.1,1.2-2.3,2.2-3.4,3.1c-1.6,1.3-2,2.7-0.7,4.4c-1.3,1.7-3.7,2.5-4,4.9
			c-0.4,0.4-0.7,0.8-1.1,1.2C31.2,241.8,30.9,242,30.6,242.1z"/>
		<path class="st108" d="M30.8,236.6c-0.1,0.2-0.3,0.4-0.4,0.5c-0.5,0.3-1,0.5-1.4,0.8c-0.8-1.3-1.8-2.3-3-3.1
			c0.9-1.2,2.1-2.2,3.5-2.9c0.9-0.9,1.6-2,3.2-1.3c1.5,1.1,1.6,2.3,0.1,3.6C32.1,235,31.4,235.7,30.8,236.6z"/>
		<path class="st19" d="M47.2,214.5c0.3,0.4,0.4,0.8,0.7,1.4c-1.5,0.5-2.8,1.4-3.8,2.6c-0.8,1.1-1.8,0.8-2.7,0
			c-1.1-0.8-0.2-1.4,0.3-2.2C43,214.2,44.8,213.3,47.2,214.5z"/>
		<path class="st109" d="M51.2,217.5c-0.5-0.1-1-0.2-1.4-0.3c-0.5-0.4-0.9-0.9-1.4-1.3c-0.1-0.2,0-0.4-0.1-0.4
			c0.1-1.2,0.9-2.3,2-2.3s0.5,1.6,0.9,2.3C51.4,216.1,51.4,216.9,51.2,217.5z"/>
		<path class="st52" d="M46.5,220.6l0.6,1.5c-0.1,0.8-0.2,1.5-0.5,2.3c-0.2,0.6,0.3,1.7-0.7,1.6c-1-0.1-1-1.2-0.9-2
			c0.3-0.8,0.4-1.7,0.1-2.5C45.7,221.3,46.2,220.9,46.5,220.6z"/>
		<path class="st110" d="M25.8,234.9c0.2-0.2,0.5-0.2,0.7-0.3c0.8-0.3,1.6-1.3,2.6-0.4c0.9,0.9,0.5,2.1,0,3.1
			c-0.1,0.2-0.2,0.5-0.3,0.7c-0.2,0.8-0.7,1.4-1.6,1.8c-1.4-0.7-3-1.4-2.9-3.5C24.9,235.7,25.4,235.3,25.8,234.9z"/>
		<path class="st108" d="M59,208.9l-1-0.3c-0.2-1-1-2,0.3-2.7c0.5-0.3,1.3-0.2,1.7,0.4C61.5,207.7,59.8,208,59,208.9z"/>
		<path class="st111" d="M181.4,95.4c0,0.3,0.2,0.4,0.2,0.8c0.3,1.3,0.5,2.9-0.9,3.3c-1.8,0.5-1.9-1.3-2.5-2.3
			C178.8,95.9,179.1,94,181.4,95.4z"/>
		<path class="st112" d="M181.4,95.4c-1.4-0.1-2.3,1.1-3.2,1.9c-0.4-1.1,0.1-2.3,1.2-2.9C180.4,93.7,180.9,94.6,181.4,95.4z"/>
		<path class="st109" d="M90.8,179.3c-0.6-0.6-1.4-1.1-2.1-1.7c0.3-0.6,0.4-1.8,1.2-1.3C90.7,176.8,91.9,177.9,90.8,179.3z"/>
	</g>
</g>
</svg>
