<?xml version="1.0" encoding="utf-8"?>
<!-- Generator: Adobe Illustrator 23.0.6, SVG Export Plug-In . SVG Version: 6.00 Build 0)  -->
<svg version="1.1" id="Layer_1" xmlns="http://www.w3.org/2000/svg" xmlns:xlink="http://www.w3.org/1999/xlink" x="0px" y="0px"
	 viewBox="0 0 750.9 857.3" style="enable-background:new 0 0 750.9 857.3;" xml:space="preserve">
<style type="text/css">
	.st0{fill:#3A3A3A;}
	.st1{fill:#7E7E7E;}
	.st2{fill:#424242;}
	.st3{fill:#737373;}
	.st4{fill:#6B6B6B;}
	.st5{fill:#656565;}
	.st6{fill:#252525;}
	.st7{fill:#363636;}
	.st8{fill:#3E3E3E;}
	.st9{fill:#3B3B3B;}
	.st10{fill:#373737;}
	.st11{fill:#6A6A6A;}
	.st12{fill:#5A5A5A;}
	.st13{fill:#383838;}
	.st14{fill:#6F6F6F;}
	.st15{fill:#343434;}
	.st16{fill:#4D4D4D;}
	.st17{fill:#666666;}
	.st18{fill:#6D6D6D;}
	.st19{fill:#444444;}
	.st20{fill:#414141;}
	.st21{fill:#6E6E6E;}
	.st22{fill:#303030;}
	.st23{fill:#9A9A9A;}
	.st24{fill:#525252;}
	.st25{fill:#171717;}
	.st26{fill:#4F4F4F;}
	.st27{fill:#A8A8A8;}
	.st28{fill:#A9A9A9;}
	.st29{fill:#7F7F7F;}
	.st30{fill:#3F3F3F;}
	.st31{fill:#8F8F8F;}
	.st32{fill:#090909;}
	.st33{fill:#818181;}
	.st34{fill:#5B5B5B;}
	.st35{fill:#767676;}
	.st36{fill:#626262;}
	.st37{fill:#585858;}
	.st38{fill:#1B1B1B;}
	.st39{fill:#8A8A8A;}
	.st40{fill:#9C9C9C;}
	.st41{fill:#828282;}
	.st42{fill:#292929;}
	.st43{fill:#727272;}
	.st44{fill:#545454;}
	.st45{fill:#636363;}
	.st46{fill:#888888;}
	.st47{fill:#919191;}
	.st48{fill:#868686;}
	.st49{fill:#3D3D3D;}
	.st50{fill:#595959;}
	.st51{fill:#535353;}
	.st52{fill:#262626;}
	.st53{fill:#B2B2B2;}
	.st54{fill:#232323;}
	.st55{fill:#909090;}
	.st56{fill:#040404;}
	.st57{fill:#5D5D5D;}
	.st58{fill:#575757;}
	.st59{fill:#7A7A7A;}
	.st60{fill:#7D7D7D;}
	.st61{fill:#515151;}
	.st62{fill:#717171;}
	.st63{fill:#999999;}
	.st64{fill:#686868;}
	.st65{fill:#939393;}
	.st66{fill:#8E8E8E;}
	.st67{fill:#969696;}
	.st68{fill:#1E1E1E;}
	.st69{fill:#0D0D0D;}
	.st70{fill:#5C5C5C;}
	.st71{fill:#878787;}
	.st72{fill:#0A0A0A;}
	.st73{fill:#4A4A4A;}
	.st74{fill:#555555;}
	.st75{fill:#4B4B4B;}
	.st76{fill:#898989;}
	.st77{fill:#101010;}
	.st78{fill:#949494;}
	.st79{fill:#9D9D9D;}
	.st80{fill:#282828;}
	.st81{fill:#707070;}
	.st82{fill:#393939;}
	.st83{fill:none;stroke:url(#SVGID_1_);stroke-width:3;stroke-miterlimit:10;}
</style>
<title>erhu2</title>
<g>
	<g id="Layer_1-2">
		<path class="st0" d="M428.9,362.7c-20.6,18.8-41,37.7-61.6,56.7L186.2,585.8c-1.9-1.1-2.9-3.3-2.1-5.4c2.7-8.1,3.8-16.8,9-23.9
			c3.6-1.1,7-3,9.7-5.7c20.3-18.1,39-37.9,60.7-54.3c6.7-5.1,11.4-12.8,18.5-17.9c3.6-2.5,7-5.7,10.5-8.4
			c10.5-7.6,16.5-19.6,27.4-26.9s17.9-18.5,28.8-25.3c1.7-1.3,3.3-2.7,4.8-4.3c10.9-12.5,24.2-22.5,36.4-33.6
			c8.2-7.3,14.7-16.5,23.9-22.7c2.9-1.9,4.4-5.2,8.2-5.9C427.6,353.1,432.2,355.6,428.9,362.7z"/>
		<path class="st1" d="M196,557.6c-4,9-7.3,18.5-9.8,28c-8.4,18.4-15,37.5-20.1,57.2c0,1.4,0.5,2.7,0.5,4.1
			c-0.2,1.7-1.1,3.3-1.3,5.1c-1,3-2.9,5.9-3,9.2c-0.8,1.7-1.6,3.5-2.1,5.4c-5.5,16-12.2,31.4-17.1,47.5c-0.6,3-2.1,5.9-2.9,8.9
			c-0.6,1.7-1.6,3.5-2.9,4.9c-3.3,2.4-0.6,5.9-1.9,8.6c-1.3,2.5-3.3,4.6-5.9,5.9c-0.2,3.2-1.3,6-3.3,8.4c-5.7-0.6-4.3-5.5-5.4-8.9
			c-0.2-1.3-0.2-2.4,0-3.6c0.6-3.5,1.4-7,2.7-10.3c1.3-5.4,1.4-10.8,5.7-15.5c2.4-2.5,0.5-7.4,0.3-11.2c1.4-3.6,2.7-7.4,4.1-11.1
			c3-4.8,3.3-10.5,5.1-15.7c5.5-2.7,6.5-8.4,8.7-13.1c2.2-4.8,2.5-10,4.1-14.9c1.6-4.4,0.2-7.4-3-10.1c-0.8-6.8,3-12,6.5-17.1
			c2.4-3,3.8-6.7,4.1-10.5c6-7.9,5.9-18.1,8.7-26.9c0.3-1.6,0.5-3,0.6-4.6c0-2.1,1.6-3.3,2.5-4.9c4-6.2,5.9-13.1,8.6-19.8
			c1.6-4.1-1.4-7-1.3-10.5c6.7-9.7,19.5-10.6,27.1-21.4c1.4,10.8-7.4,17.6-4.4,26.3C202.8,551.9,200,554.9,196,557.6z"/>
		<path class="st2" d="M21.8,646.1c3.3-7,6.5-14.3,11.4-20.4c2.4-4.4,6.2-5.7,10.9-4.6s9.8,2.5,14.9,2.5c5.1,1.1,7.9,4,7.4,9.3
			c0.2,0.8,0,1.6,1.3,1.6c0.6-0.2,1.1-0.2,1.7-0.2c4.4-0.5,4-5.9,7.3-7.4c1.6-0.8,3.5-1.3,5.2-1.6c7.3-0.8,8.2,0.3,7.8,8.2
			c-0.2,0.8-0.5,1.4-0.6,2.2c-1.7,5.2-6,10.5,0.2,15.7c1,0.8,2.4,1.3,3.6,1c3.8,0.2,3.8-4.1,6.3-5.4c2.5-2.9,5.2-4.9,7.3,0.5
			c0.3,1.7,1.3,3.2,1.1,5.1c-4.1,7.6-6,16.6-13.5,22.2c-3.6,1-5.7-3-8.9-3.3c-2.7-0.8-5.5-0.2-8.1-1.3c-0.6-0.5-1.1-1-1.6-1.6
			c-0.3-0.6-0.5-1.4-0.5-2.2c-0.3-2.5,0-6.5-3.5-5.7c-2.9,0.6-8.7,1.1-6.3,7.4c1.1,2.9,1.6,5.7,1.6,8.7c-0.8,4-1.4,8.1-2.5,12
			c1,6.2,7.8,10.3,5.9,17.6c-1.6,2.4-1.4,5.5-3.6,7.8c-2.7,1.9-6.3,1.6-8.7-0.5c-5.1-4.6-11.1-4.3-16.8-3.5s-8.7-1.1-10.5-6.2
			c0.5-1.7,1.9-3,3.6-3.3c3.8,0.2,7.6,0,11.2-0.8c2.1-0.2,3.6-1.9,3.6-4c0-0.6-0.2-1.4-0.2-2.1c-1.1-4.6-1.6-9.2,1.3-13.3
			c1.3-4.4-1.1-7.9-2.7-11.6c-0.8-0.8-1.4-1.7-1.7-2.7c-4-4.8,1.6-8.7,1.1-13.3c-0.2-2.1-1.1-4.1-2.7-5.5c-3.6-4.4-8.1-4.3-11.9,0.2
			C27.8,652.6,23.8,652.3,21.8,646.1z"/>
		<path class="st3" d="M202.3,451.6c-9.5,29.5-19,58.9-28.7,88.5c-1.3,4,1.7,7.8,0.3,11.7c-3.6,11.4-9.5,22-11.1,34.1
			c-2.4,8.2-7,15.8-8.6,24.4c-2.1,3.3-1.6,7.1-2.4,10.6c-2.1,2.7-3.6,6-7.9,5.4c-0.6-0.5-1-1.3-1.6-1.7c-0.6-0.5-0.3,0.5-0.3,0.6
			c0.2,4.6-2.1,8.7-3.6,12.8c-7.8,20.8-13.5,42.1-22.2,62.6c-2.7,6.2-4.9,6.8-10,2.2c-1.6-2.7-0.3-5.1,0.6-7.4
			c3.6-10.1,6.5-20.4,10.8-30.4c2.4-5.4,3-10.3-1.6-14.9c0-2.5-1-5.1,0.6-7.4c1.1-1.3,2.7-2.1,4.4-2.2c5.4,2.4,7.4-0.3,7.8-5.4
			c1.1-6.8,3.5-13.5,6.7-19.6c1.9-4,2.9-8.4,2.5-12.8c5.7-10.6,9.7-21.9,14.4-32.8c1.1-3.8,3-7.4,5.7-10.5
			c7.1-14.1,10-29.8,15.8-44.4c3.6-1.3,3.6-4.8,4.6-7.6c3.6-12.5,8.4-24.6,12.4-36.9c1.7-6,4.4-11.7,5.7-18.1
			c0.5-2.4,1.4-4.4,4.3-4.8C203.3,448.4,203.5,449.7,202.3,451.6z"/>
		<path class="st4" d="M108.9,701.7c3.6,0,3.5,0,5.2-3.6c8.4-17.9,12.7-37.2,20-55.6c3.3-8.2,6-16.8,10.1-25l-0.5,8.6
			c0.5,0.6,0.8,1.3,1,2.1c-2.9,8.9-5.1,17.9-8.2,26.8c-6.7,13.6-11.4,28.2-14.1,43.1c0.3,2.5-0.5,5.5,3,6.7c1.9-0.3,2.9-2.2,4.6-2.9
			c1-0.6,2.2-0.3,3,0.5c0.8,9.7-3.8,18.1-6.7,26.8c-1.9-0.3-3.3-1.7-4.9-2.7c-1.4-1.3-2.2-3-2.2-4.9c-0.3-1.4,0-4.3-2.9-1.9
			c-1.3,2.4-1.7,4.9-3.2,7.3c-1.3,5.2-2.7,10.3,6.2,7.6c2.5-0.8,3.3,1.6,3.6,3.8c0,1.1,0.2,2.1,0.2,3.2c-0.5,3.2-1.3,6-5.2,5.9
			c-10.3,0.3-12.4,1.4-15.7,11.1c-4.3,12.2-9.5,23.9-13.5,36.3c-1,2.7-1.6,5.5-3.8,7.8c-3.2,1.4-5.4,3.5-5.5,7.4
			c-0.2,2.5-1.1,5.1-4.6,5.2c-1.9-0.8-1.9-2.2-1.1-3.8c2.4-18.1,10.6-34.4,15.5-51.6c1.9-6.5,4.9-12.7,5.5-19.5
			c-2.4-7.4,3.5-13,4.3-19.8c0-5.9-4.4-4.6-7.9-4.9c-6.3-0.6-13.3,2.1-18.4-4c-1.1-1.7-1.3-4.1-0.5-6c0.3-0.8,1-1.4,1.6-1.9
			c8.9,1,17.4-5.7,26.5-1.6C103.2,702.2,106,699.2,108.9,701.7z"/>
		<path class="st5" d="M531.8,232.8c17.4-13.8,32.8-30.1,49.3-45c2.4-2.1,4.4-4.4,7.4-5.7c6.8,0.3,9.3,5.4,12,10.5
			c0.5,3.3-1.9,5.4-3.8,7.4c-14.6,15.5-29.9,30.3-46.1,44.2c-3.2,2.9-6.5,4.8-10.5,1.4C537.7,241.1,530.1,240,531.8,232.8z"/>
		<path class="st6" d="M196,557.6c0.8-4,1.9-7.9,5.1-10.9c20-18.1,39.9-36,59.9-54c3-0.8,5.7-2.4,7.8-4.6
			c35-33.7,71.8-65.3,106.9-98.8c13.3-12.7,27.1-24.7,40.4-37.2c1-1,2.2-1.4,3.5-1.3c1.1,0.5,1.9,1.3,1.4,2.5
			c-10.5,10-20.6,20.3-31.2,30.1c-16,14.9-32.2,29.6-48.6,44c-22,19.2-42.8,39.6-64.5,59.2c-18.5,16.9-37.5,33.7-55.4,51.3
			c-7.1,7-14.7,13.5-22,20.1C197.9,559.3,196.8,559,196,557.6z"/>
		<path class="st7" d="M27.8,724c-5.1-0.8-9.3-4-11.6-8.6c-5.4-9.3-10-19-13.9-29c-5.1-13.8-0.3-29.3,11.4-38.8
			c3.3,1.6,2.2,4.3,1.4,6.7c-4.3,12.2-1.6,21.9,8.6,29.9c1.1,1.1,1.9,2.5,1.9,4.1c0.5,5.5,3,10.5,4.8,15.7c1.6,4.4,5.4,6.8,10.9,6.2
			c4.6-0.5,11.2-4,13,4.6c-4.6,4.1-8.7,8.9-15.2,10C35.2,725.5,31.4,725.1,27.8,724z"/>
		<path class="st8" d="M509.8,290c-21.1,15.8-39.1,35-58.6,52.4c-2.1,1.9-4.4,3.6-6.7,5.4c-6.5,2.5-8.6-1.7-10.1-6.7
			c1.7-6,5.4-11.4,10.5-15.4c10.9-9,21.7-18.1,32.9-26.5c9.7-7.4,19.5-14.7,28.5-23.1c1.3-0.8,2.9-1,4.3-0.6
			c1.7,0.2,3.5-0.3,4.8-1.4c3.6-2.2,5.5-0.6,5.9,3.3C518.8,283.1,514.1,286.5,509.8,290z"/>
		<path class="st9" d="M698.3,119.1c-17.9,9.5-32.5,23.1-46.4,37.5c-1.3,1.3-2.1,3.2-4.1,3.5c-1.7,1.3-4.3,1.1-5.7-0.6
			c-1.7-3.2-0.3-5.9,1.7-7.9c14.7-14.6,29-29.6,47.2-40.2c9.3-4.1,18.7-8.2,28.8-10c6.5-1.1,13-1.3,18.8,2.2
			c2.9,6.8,1.3,12.7-4,17.7c-1.3,0.5-2.9,0.8-3.8-0.2C720.8,110.7,709.7,113.2,698.3,119.1z"/>
		<path class="st10" d="M419.2,351.6c-28.7,26.5-57.3,52.7-86,79.2C312.4,450,291.7,469,270.9,488c-2.9,2.5-4.9,6.7-10,4.4
			l82.4-76.2c24.4-22.5,48.6-45.1,73-67.6C418.9,348.2,420,349.1,419.2,351.6z"/>
		<path class="st11" d="M595.3,172.3c8.9-3.8,14.1-11.7,21.2-17.7c4.8-4,9-8.7,15.4-10.3c2.9,1,5.4-2.9,8.4-0.8
			c1.9,2.2,1.1,4.3-0.2,6.3c-1.6,2.9-0.5,5.4,0.3,8.1c1.4,2.5,3.2,5.9-0.6,7.3c-7.9,2.9-12.4,9.3-17.6,15c-3.2,1.7-7,1.6-9.7,4.8
			c-4.6,5.2-8.6,3.6-11.7-1.7c-1.1-2.5-3.6-3.6-5.4-5.7c-1.4-1.3-1.7-3.3-0.5-4.9C595,172.5,595.2,172.5,595.3,172.3z"/>
		<path class="st12" d="M511.2,277.2c-1.1,0.5-2.1,1.1-3.2,1.6c-2.4,1.3-4.4,3-7.3,3.2c-7-1-7.3-1.6-5.4-11.1
			c3-7.8,9.8-11.9,15.4-17.3l14.3-13.3c1.1-0.2,2.4,0,3.3,0.6c2.2,4.1,6.8,6.3,8.6,10.8c0.3,1.1,0.5,2.4,0.5,3.5
			c-3.2,7.3-10.5,10.5-16.2,15.2C518.3,273.4,515,275.8,511.2,277.2z"/>
		<path class="st13" d="M555.3,256.8c0.6,0.5,1.3,1.1,1.9,1.6c8.9,6.7,16.6,14.4,24.9,21.9c3.5,3.2,3.8,7.1,4.4,11.2
			c-6.2,9-8.9,9.5-17.3,3.5c-1.7-1.1-3.5-2.1-5.4-3c-4.1-4.1-7.4-8.6-10.3-13.6c-3-4-5.2-8.2-8.1-12.4c-2.2-3.5-1.9-6.3,1.1-8.9
			C549.6,254.5,552.2,253.3,555.3,256.8z"/>
		<path class="st14" d="M555.3,256.8c-9.8,2.1-11.2,5.7-5.4,13.8c1.9,2.7,3.6,5.7,5.5,8.4c-0.5,1.3-1.3,2.1-2.7,1.3
			c-1-1.3-1.9-2.5-2.7-3.8c-7.4-12.2-7.4-12.2-18.7-2.4c-0.8,0.6-1.7,1.1-2.7,1.4c-1.1-0.2-2.1-1-2.7-1.9c-1.1-3.8,1.6-6,3.8-8.1
			c12.8-11.9,24.1-25.5,39-35c0.5-0.3,1-0.6,1.3-1c8.2-10.5,18.7-18.7,29.5-26.6c2.1-1.6,4.4-4,4-6.5c-1.6-6.5,3.3-8.1,7.3-10.5
			c3.2,1,6.5-0.2,9.7,0.5c1.1,0.3,1.9,1.3,2.2,2.4c-1.3,2.7-4.9,4-4.8,7.6c-0.2,1.4-0.8,2.9-1.7,4c-1.3,1.7-2.7,3.3-4.6,4.4
			c-1.6,0.8-3.3,1.3-5.1,1.4c-7.9,3.8-13,11.1-19.5,16.8c-9.7,8.4-18.8,17.4-28.4,26C555.7,250.4,554.3,253.8,555.3,256.8z"/>
		<path class="st1" d="M116.8,744.5c2.5,0,4.9-1.3,6.3-3.3c1.1,3.2,2.2,6.5,3.3,9.7c-10.5,27.9-18.8,56.4-30.1,84
			c-1.7,0.8-3.2,3.2-5.7,1.6c-3.2-3.8-0.6-7.4,0.5-11.1c4.3-13,10.1-25.5,11.2-39.3c5.1-7.1,9.5-14.6,10.8-23.8
			c0.6-3.5,0.5-7.1-0.6-10.6C111.9,748,114.6,746.4,116.8,744.5z"/>
		<path class="st1" d="M118.5,642.9v8.2c1,1.7,0.3,4-1.3,5.1c-4.8-0.6-9.3-2.4-14.1-3.5c0.3-1.6,0.8-3.2,1.1-4.8
			c-1.1-7-6-11.9-8.7-17.9c-2.4-4-5.7-7.3-7-11.9c-1-2.2-2.5-4.4-1.6-7.1c1.9-3.6,4.8-6.2,9.2-6c2.1,0.5,4.3,1.1,6.3,1.6
			c2.1-0.8,2.7,0.5,3.5,1.9c0.3,7.8,6.5,12.7,9,19.3C117.8,632.6,123.1,636.6,118.5,642.9z"/>
		<path class="st15" d="M135.7,726.9c0.6-1.6,1.1-3,1.7-4.6c4.1-3.6,10.3-4.1,13.9-8.7c7.9-10.9,11.2-24.2,17.1-36.3
			c1.1-2.4,1.1-5.2,3.3-7c6.8-1.3,9.3,3.8,12.2,8.4c-7.6,11.2-11.6,24.1-16.8,36.4c-0.6,1.7-0.6,3.6,0.2,5.4
			c-0.5,0.6-0.8,1.1-1.3,1.7c-8.1,1.4-16,3.3-23.9,5.7C139.6,729,137.1,731.6,135.7,726.9z"/>
		<path class="st3" d="M282,212.4c-20.3,61.1-41.8,121.8-61,183.4c-2.1,0.6-2.9-0.6-3.3-2.2c-1.1-3,2.5-5.7,0.8-8.7
			c0.5-1,1.1-2.1,1.6-3c5.9-16.2,10.9-32.6,16.6-48.9c1.7-4.9,4.1-9.7,5.1-14.7c3.6-10,6.7-20.3,9.7-30.6c0.2-0.8,0.3-1.6,0.8-2.4
			c7.4-22.3,16.2-44.2,22.7-66.8c1-3,0.8-7.1,5.1-8.2c1.1-0.2,1.9,0.6,2.1,1.7C282,212.1,282,212.2,282,212.4z"/>
		<path class="st1" d="M419.2,351.6l-2.9-2.9c0.8-2.4,1-4.6-1.1-6.5c-1.7-1.6-3-3-1-5.2c1.6-1.7,3.2-3.8,5.9-1.7
			c3.5,2.5,7,1.3,10.6,0.5c2.2-0.3,4.1-0.2,5.2,2.1c0.3,1,0.2,2.1,0.6,2.9c1.6,3.3,5.1,4.9,7.8,7.1c-2.7,7.6-8.6,11.7-15.5,14.9
			c-0.6-4.8-5.2-6.3-7.9-9.5C420.3,352.8,419.7,352.3,419.2,351.6z"/>
		<path class="st1" d="M275.2,209.1c-3.6-2.5-2.7-5.9-1.4-9.2c4.8-12.4,9.5-24.6,14.3-36.9c2.5-1.3,4.6-4.3,8.1-2.2
			c0.6,0.6,1,1.4,1.3,2.2c1,3.2,0.2,6.2-0.8,9.2c-3.8,10.9-7.8,21.7-11.4,32.8c-1,2.7-1.9,4.9-5.1,5.1c-0.8,0.3-1.7,0.3-2.5,0.3
			C276.6,210.2,275.8,209.7,275.2,209.1z"/>
		<path class="st16" d="M21.8,646.1c4,1.6,8.9,4.3,7-4c-1.1-4.9,2.5-4,4.6-3.6s4.1,2.2,6.2,2.9c8.6,2.9,8.9,3,12.7,11.2
			c-2.5,4.8-6.8,3.2-10.8,3c-0.5,0-1-0.2-1.4-0.3c0.8,0.3,1.6,0.3,2.4,0.3c1.9,0.3,3.8,0.8,3.5,3.2c-0.2,1.6-1.3,2.9-2.9,3.2
			c-2.7,0.8-5.5,0.8-8.2,0.2c-2.1,1-6.8-2.9-5.7,3.3c-0.2,0.8-0.6,1.6-1.3,2.1c-4.1,4.3-8.6,5.4-13.6,1.9c-3.3-6.5-1.1-14.9,6-22.8
			C20.7,646.4,21.1,646.3,21.8,646.1z"/>
		<path class="st17" d="M50,609.5c3.2-1.6,6.2-2.9,9.7-1.1c3,1,6,1.7,7.6-2.1c4.8-1.7,8.9-5.7,14.6-4.3c5.7,3.6-0.3,6.5-0.8,9.7
			c-2.7,3.8-2.1,9-5.7,12.5c-5.9,4-11.6,1.6-17.3-0.5c-4.8,0.8-9.3-0.5-13.8-2.1c-2.7-1.6-8.1,2.7-8.4-4c0.5-2.4,2.4-4.3,4.8-4.9
			C44.1,612.5,48.1,613.8,50,609.5z"/>
		<path class="st1" d="M732.8,120.2c4.4-4.4,5.4-9.8,4.8-15.8c-3.8-2.1-6.3-4.9-6.5-9.5c0.2-0.8,0.5-1.6,1-2.2
			c0.6-0.5,1.3-1,2.1-1.1c7,1,8.6,6,9.2,11.9c0.5,4.9-1.4,10.1,1.7,14.6c1.3,2.2,2.1,4.6,2.4,7.1c-3,6-6.8,12.2-14.4,10.6
			c-9.3-2.1-11.4-10.5-12.7-18.5c2.5-2.9,4.9-1.3,7.3,0.3C729.2,118.6,730.1,121,732.8,120.2z"/>
		<path class="st1" d="M73.7,810.8l1.9,3.3c1.3-1.4,3.3-2.2,5.2-1.7c2.7,0.6,4.4,3,4.4,5.7c0.5,6.2,2.5,12.2,2.5,18.5
			c-4.9,5.1-5.9,10.6-1.3,16.5c1,1.3,1.4,2.9-0.2,4.1c-2.9-0.6-5.7-1.1-8.4-1.9s-5.4-2.5-4.8-5.4c2.7-11.2-2.4-21.7-2.9-32.6
			C70.4,814.2,71,812.1,73.7,810.8z"/>
		<path class="st1" d="M351.6,50.7c-6.3,20.6-11.7,41.3-19.5,61.5c-4-0.2-1.9-2.7-1.6-4.4c0.6-4.4,3.6-8.2,3.2-12.8
			c2.5-9.3,5.2-18.7,7.8-28c1.1-4.1,1.6-8.2-2.2-11.6l-1-1c-0.5-4.6,0.3-8.7,3.8-11.9C349,40.7,351.6,44.3,351.6,50.7z"/>
		<path class="st1" d="M104.1,609.5c-0.5-1-1.1-1.9-1.6-2.9c18.4-16,36.4-32.5,55.8-47.4c-1.1,3.8-2.2,7.4-3.3,11.2
			c-9.5,11.2-21.4,20.1-32.2,29.9c-4.8,4.6-10,8.6-15.7,11.7C105.6,612.4,104.1,611.1,104.1,609.5L104.1,609.5z"/>
		<path class="st18" d="M296,162.8c0-0.5-0.2-0.8-0.2-1.3c-1-1.6-1.1-3.5-0.3-5.2c8.2-23.1,14.3-46.9,24.1-69.5
			c4.3-9.5,9.5-18.7,13.3-28.4c1-2.5,1.9-5.2,5.5-2.9l0.6-0.2c-2.7,6.5-4.9,13.3-8.2,19.6c-14.6,27.9-21.7,58.6-32.2,87.9
			C297.7,164.1,296.7,164.1,296,162.8z"/>
		<path class="st19" d="M102.5,720.7c-2.1,6.7-3.3,13.5-7.9,19L80.4,735c-2.4-1.4-5.4-2.7-4.8-6.3c0.6-3.2,2.9-4.8,5.9-5.5
			c3.8-1,7.1-3.3,10.5-5.2C95.9,717.2,99.9,716.6,102.5,720.7z"/>
		<path class="st20" d="M618.9,188.5c-3,1.6-5.7,1.7-7.9-1.4c1.6-4.6,5.1-8.2,9.7-9.8c4.6-6,7.8-13.3,16.9-14.3c2.5-0.3-1-1.7-1.1-3
			c0-1.3,0.8-2.4,1.9-2.9c1.6-0.6,3.5-0.2,4.4,1.3c1.6,0.6,3.3,1.1,4.9,1.7c-0.6,1-1.3,2.1-1.9,3
			C638.6,173.4,628.6,180.9,618.9,188.5z"/>
		<path class="st1" d="M351.6,50.7c-1.9-4.1-4.8-6.8-9.7-6.5c-1.4-0.2-2.9-1.1-2.7-2.4c1-9.5,1.4-19.2,8.4-26.8
			c0.8,0,1.4,0.3,2.1,0.8C355.7,27.2,355.5,38.8,351.6,50.7z"/>
		<path class="st5" d="M614.2,198c1.1-0.6,2.4-1.1,3.5-1.7c11.2,7.9,21.4,17.6,29.9,28.5c2.5,3.5,5.9,7,2.7,12
			c-3,4.8-5.5,9.8-12.5,8.7c-1.6-0.2-3.2-0.2-4.8,0.2c-0.8-1-1.6-1.9-2.2-3c-1.1-3.2-2.5-6.3,0.8-9c2.9-2.1,7.4,2.9,9.2-1.6
			c1.7-4.4-2.9-7-5.4-9.5c-6.3-6-11.1-13.3-18.1-18.7C615.4,202.4,614.3,200.4,614.2,198z"/>
		<path class="st1" d="M286.3,451.4c-25,21.9-50.1,43.9-75.2,65.7c-0.6-0.8-1.3-1.6-2.1-2.2l75.6-65.1
			C286.5,449.2,286.6,450,286.3,451.4z"/>
		<path class="st21" d="M585.8,291.4c-6.5-9.7-15.5-17.1-23.3-25.5c-2.1-2.4-4.8-4.3-5.4-7.6c10.6,2.1,16.6,10.8,24.7,16.8
			c5.7,4.1,8.1,9.3,5.9,16.3C587.1,291.8,586.3,291.8,585.8,291.4z"/>
		<path class="st22" d="M639.5,144.1c-2.5,0.5-5.1,2.5-7.8,0.3c12.2-7.1,21.4-17.9,32.6-26c10.9-7.9,22-15.2,35.3-18.7
			c2.2,0.2,4,0.8,4.1,3.5c-0.3,1.6-1.3,3-2.9,3.6c-4.8,2.4-10.8,0.5-14.9,4.8c-10.1,4-18.1,11.4-26,18.5c-4.3,4-8.9,7.8-12.8,12
			C645.1,144.3,642.7,145.6,639.5,144.1z"/>
		<path class="st1" d="M747.4,125.1c-1.6-1.6-3.3-3.2-4.9-4.8c-1.9-5.1,1-10,0-15c-1-5.1-1.3-10.5-7.6-12c-0.6,0-1.4,0-2.1,0.2
			c-3.2,2.5-6.2,3.2-9.3,0c9.8-7.6,19.2-5.9,24.2,5.2C751.7,107.4,752.3,116.4,747.4,125.1z"/>
		<path class="st23" d="M243.4,318.2c-6.3,19.3-12.8,38.8-19.2,58.1c-0.8,2.4-1.7,4.4-4.1,5.4c0.5-11.2,5.1-21.4,8.6-31.7
			c3.8-11.1,7.8-22.2,11.7-33.3C242.1,316,242.9,317,243.4,318.2z"/>
		<path class="st24" d="M633.2,242.3v3.2c-5.4-0.3-7.3-4.6-9.3-8.4c-6-10.3-11.7-20.8-17.6-31.2c1.1-1.1,2.1-2.2,3.2-3.3
			c4.9,0.5,6.5,4.8,9.2,7.8c3.5,4.1,6.8,8.4,10.1,12.7C630.7,229.4,630,236.3,633.2,242.3z"/>
		<path class="st25" d="M167.2,720.6c-2.5-2.5-4.1-5.1-2.4-9c4.1-8.7,7.8-17.7,11.6-26.6c1.3-3.2,3.2-5.4,6.8-5.4
			c1,0.8,1,2.2,0.2,3.2C178.7,695.7,173.4,708.4,167.2,720.6z"/>
		<path class="st26" d="M495.4,270.9c1.4,3.2,0.2,7.8,4.8,9.5c0.3,0.5,0.5,1.1,0.2,1.4c-10.9,9.2-21.5,18.7-33.4,26.9
			c-1.6-0.2-3-1.4-3.2-3c6-5.7,11.9-11.6,18.1-17.1C487.3,283.4,492.4,277.8,495.4,270.9z"/>
		<path class="st27" d="M276.8,209.1h1.6c0.5,0.6,1.6,0.6,1.6,1.6c-7.1,20.8-14.1,41.7-21.2,62.4c-1.6,4.6-2.2,9.8-5.7,13.6
			c-3-5.2,1-9.7,2.4-13.9c2.5-8.7,5.4-17.4,8.7-25.8c1.7-6.3,3.3-12.7,5.1-19C273.5,222.4,273.6,215.1,276.8,209.1z"/>
		<path class="st28" d="M321.1,87.1c-8.4,24.9-16.9,49.6-25.3,74.4L288,163c1.4-1.6,3-3.2,4.4-4.8c6.8-13.5,10.1-28.4,15-42.5
			c2.7-7.9,5.5-15.7,8.4-23.6c1-2.7,1.4-6.2,5.2-7.1C321.9,85.8,321.9,86.5,321.1,87.1z"/>
		<path class="st29" d="M192.8,471.9c-6.2,16.3-11.6,32.9-16.9,51.3c-2.1-3.5,0-6.3-1.7-8.2c5.2-15.8,10.6-31.7,15.8-47.5
			C193.8,467.1,190.9,471.1,192.8,471.9z"/>
		<path class="st30" d="M463.5,305.7c1.1,0.5,2.2,1.1,3.3,1.6c0.3,4.1-3.2,5.7-5.5,7.8c-9,7.8-17.3,16.3-26.3,24.2
			c-1.4-1.1-2.7-2.4-4.1-3.5C441.8,325.7,452.6,315.7,463.5,305.7z"/>
		<path class="st31" d="M192.8,471.9c-1-1.4-1.9-3-2.9-4.4l20.4-61.8c6,1.9,2.4,6.2,1.7,8.9c-2.5,9.7-6.8,18.8-8.4,28.7
			c-0.5,1.9-1.4,3.6-2.9,5.1C198.1,456.2,195.5,464.1,192.8,471.9z"/>
		<path class="st32" d="M20,646.6c0,4.9-3.2,8.6-4.6,13c-1,3-1.6,6-0.2,9c5.1,4.8,9.7,9.7,6.5,17.4c-3.6,0.8-4.1-2.4-5.5-4.4
			c-7.6-10.8-8.1-22-2.5-33.7C15.4,645.2,17.8,646.1,20,646.6z"/>
		<path class="st29" d="M321.1,85.5c-5.4,7.4-7.4,16.3-10.5,24.7c-4.9,13.6-9.2,27.6-13.9,41.2c-0.8,2.5-0.5,6-4.3,6.8
			c9.2-26.6,16-54,28.4-79.4c1-2.1,2.4-4.1,3.5-6.2c0.6,0.5,1.1,1.1,1.4,1.9C325.9,79,322.7,81.9,321.1,85.5z"/>
		<path class="st9" d="M526.7,242.5c-0.6-0.6-1.1-1.4-1.7-2.1c-2.1-2.4-4.1-4.9-6.2-7.3c0.3-5.4,3.6-6.2,8.1-4.9l4.8,4.8
			c2.9,4,8.6,5.5,9.5,11.1c1.3,2.4,4.3,4.4,1.9,7.6c-1.9,2.7-4.3,5.5-8.2,3.5V252C535.1,246.1,530.4,244.9,526.7,242.5z"/>
		<path class="st23" d="M202.3,443.5c-2.1-3.5,0.2-6.7,1-9.8c2.2-9.3,7.9-17.9,7.1-28c2.4-7,4-14.4,8.1-20.8c4,2.1,1.4,5.2,1.3,7.9
			c-3.3,16.8-9.8,32.5-15.2,48.5C204.1,442.2,203.3,443,202.3,443.5z"/>
		<path class="st1" d="M170.7,551.2c0.8-3.8,1.1-7.8,3.2-11.1c1,2.4,2.7,1.9,4.6,1.6c5.9,1,7.3,3.6,4.6,9.2
			c-3.5,7.3-6.2,15-9.3,22.7c-5.5,1.9-5.7-1.7-5.1-5.4c0.6-3.3,1.6-6.5,3-9.7C172.4,555.8,173,553.3,170.7,551.2z"/>
		<path class="st19" d="M183.5,682.9c0-1.1-0.2-2.1-0.2-3.2l-10.8-7.9c-1.6-0.2-3-1.1-4-2.4c-2.9-5.9-7.9-10.9-6-18.4
			c0.6-1.4,1.3-3,2.1-4.4c3.8-0.6,3.8,2.9,5.1,4.9c4.8,7.1,7.1,15.8,13.8,21.7C185.1,675.9,184.3,679.7,183.5,682.9z"/>
		<path class="st1" d="M280,210.7l-1.6-1.6c1.9-0.3,3.5-1.4,4.3-3.2c4.3-14.4,13-27.6,13.5-43.1c1,0,1.7,0,2.7,0.2
			c1.1,1.6,1.3,3.5,0.8,5.2l-13.8,40.4c-0.5,1.9-1.9,3.3-3.6,4C281.4,211.9,280.7,211.3,280,210.7z"/>
		<path class="st33" d="M202.3,443.5c5.9-16.9,11.6-33.7,17.4-50.7c0.5,1,1,2.1,1.4,3c-6.2,18.5-12.5,37.2-18.7,55.8
			c-0.5-1.1-1.1-2.2-1.6-3.2C201.2,446.7,201.7,445.1,202.3,443.5z"/>
		<path class="st26" d="M27.8,724c3.8-0.6,7.6-1.1,11.4-1.7c6.8-2.9,13.5-3.5,20.1,0.5c3,1.7,6.2,3.5,3.8,7.8
			c-2.9,0.8-5.9,0.8-8.7,0C45.2,729.7,36.2,727.5,27.8,724z"/>
		<path class="st34" d="M54.4,730.4c2.9-0.2,5.7-0.2,8.6-0.3c7.6-8.1,15.5-14.9,27.9-10.6c0.3,0.3,0.6,0.8,0.8,1.1
			c-1.4,3.3-4.9,3.6-7.8,4.6c-5.2,1.9-7.4,4.8-3.5,9.8C72,732.1,63.1,732.1,54.4,730.4z"/>
		<path class="st3" d="M324.3,74.4v-1.6c9.2-19.6,13.1-41,19.2-61.6c1.6-0.3,2.4,0.6,3,1.7c-4.8,19.6-7.6,39.8-17.9,57.8
			C327.6,72.2,327.3,75.1,324.3,74.4z"/>
		<path class="st20" d="M595.3,172.3c1,1.3,2.1,2.4,3,3.6c-0.5,1.7,1,2.9,1.4,4.3c0.6,1.4,0.2,3.2-1.1,4.1c-1.4,1.3-3.6,1-4.9-0.5
			c-2.4-1.9-3.5-5.1-6.5-6.5c-2.1-2.1-4.1-4.3-6.2-6.3c-0.8-6.3,2.2-7.9,7.8-6.3C591.1,167.3,593.1,169.8,595.3,172.3z"/>
		<path class="st1" d="M333.7,94.9c3.6,6.2-3.8,11.2-1.6,17.3c-1.4,4.8-2.9,9.5-4.4,14.3c-0.6,1.7-0.5,4.9-3.5,4.1
			c-2.5-0.8-2.2-3.2-1.4-5.4C326.4,115.2,330,105,333.7,94.9z"/>
		<path class="st1" d="M588.8,164.7c-2.7,2.1-6.2,3-7.8,6.3c-3.3-1.6-7.1-3.2-6.2-7.9c0.3-3,3-5.4,6-5.4
			C585.4,157.9,588.7,159.5,588.8,164.7z"/>
		<path class="st35" d="M183.5,673.2c-3.6,0-5.4-2.5-7-5.4c-4-7.1-7.9-14.1-11.9-21.2c0.5-1.3,1-2.5,1.4-3.6
			C173.4,652,178.6,662.4,183.5,673.2z"/>
		<path class="st36" d="M618.9,188.5c7.9-9.7,17.3-17.6,26.9-25.3c0.8,3.8-1.7,6-4,8.1c-6.3,5.9-12.8,11.7-19.3,17.4
			C621.3,188.5,620,188.5,618.9,188.5z"/>
		<path class="st37" d="M585.8,291.4c0.6,0,1.1-0.2,1.7-0.2c-1.7,8.4-9.7,12.5-16.5,8.4c-1.7-3.3-9.2-2.7-6.2-9.2
			c0.8-0.2,1.9-0.5,2.2-0.2C573,298.6,579.3,296,585.8,291.4z"/>
		<path class="st38" d="M587.3,177.4c1.3-0.3,2.7,0.2,3.5,1.3c4.9,5.7,7.1,4.3,7.4-2.7c1.6,1.6,3.2,3.2,4.8,4.6
			c2.9,10.3,2.7,10.8-4.6,12.7c-3.3-3.8-6.7-7.4-9.8-11.2C589.2,180.3,587.9,178.8,587.3,177.4z"/>
		<path class="st39" d="M264.1,246.9c-1.9,10.9-6.7,20.9-9.3,31.5c-0.6,2.7-1.1,5.5-1.7,8.4v-0.2c-1.9,4-2.2,8.4-4,12.5
			c-0.8,1.9-1.4,3.5-3.8,1.7C251,282.6,255.7,264.2,264.1,246.9z"/>
		<path class="st1" d="M516,231.3c-3.3-2.1-6-4.6-4.6-9c0.5-2.4,2.5-4.3,5.1-4.4c3.6-0.6,7,1.9,7.6,5.4
			C523.7,228.4,519.8,229.7,516,231.3z"/>
		<path class="st5" d="M732.8,120.2c-5.4,3.6-7.8-4.3-12.5-3.2c-7.8-3.8-14.9,0.5-22.2,1.9C709.4,110.1,726.8,109.9,732.8,120.2z"/>
		<path class="st1" d="M286.3,451.4l-1.6-1.6c11.2-9.8,22.3-19.6,33.6-29.3c0.5,0.5,1,1.1,1.4,1.6
			C308.6,432,297.4,441.6,286.3,451.4z"/>
		<path class="st40" d="M565.1,290.5c2.1,3,4.1,6.2,6.2,9.2c-10.8-2.2-13.6-11.9-18.5-19.5c1-0.5,1.9-0.8,2.7-1.3
			C560,281.6,561,287.3,565.1,290.5z"/>
		<path class="st41" d="M344.9,12.8c-0.5-0.6-1-1.1-1.6-1.6c0.3-2.1,0.3-4.1,0.8-6c0.8-2.5,1-6.3,5.2-4.9s3.3,4.4,2.4,7.6
			c-0.8,2.7-1.4,5.4-2.1,8.1c-0.5,0-1.1,0-1.6,0.2C345.1,16.9,346.3,13.6,344.9,12.8z"/>
		<path class="st42" d="M723.5,93.4h9.3c0,0.5,0,1.1-0.2,1.6c-0.3,1-0.5,2.5-1.3,2.7c-9.3,2.9-18.5,6.8-28.7,5.1
			c-1.1-1.1-2.1-2.2-3.2-3.2C707.2,96.1,715.7,96,723.5,93.4z"/>
		<path class="st43" d="M86.4,857.3c-2.4-3.3-4.6-7-6.3-10.6c-2.1-4.8-1.9-8.9,5.1-8.7c1,0.5,1.7,1.4,1.9,2.5
			c-0.5,4.6-1.1,9.2,4.9,10.9C94.2,857.4,91,857.9,86.4,857.3z"/>
		<path class="st27" d="M245.4,300.8c5.5-3,3.3-10.5,7.8-14.1c-1.3,11.1-6.3,21.1-9.7,31.5l-2.9-1.4
			C242.1,311.6,243.7,306.2,245.4,300.8z"/>
		<path class="st5" d="M142.1,727c7.6-3.3,15-6.8,23.8-4.8c-7.1,5.1-15.5,5.2-23.8,6.7C141.4,728.3,141.4,727.7,142.1,727z"/>
		<path class="st44" d="M142.1,727c0,0.6,0,1.3,0.2,1.9c-1.9,0.6-3.6,1.4-5.5,2.1c-0.2,3,5.5,1.6,3.8,4.3c-2.4,3.8-5.7,7.4-10.9,7.3
			c2.1-5.2,4-10.3,6-15.5C137.9,728.8,139.9,728,142.1,727z"/>
		<path class="st45" d="M527.1,274c0.5,0.5,1,1,1.6,1.3c-5.4,6.2-10.5,12.4-18.8,14.7l9.5-12.8C521.4,275.1,522.9,271.6,527.1,274z"
			/>
		<path class="st46" d="M78.9,609.8c0.8-2.7,4-4.4,3-7.9c5.1-0.5,10-0.3,14.3,3l-6.3,6.3c-2.7,2.2-5.5,1.1-8.6,0.6
			C80.2,611.6,79.3,610.9,78.9,609.8z"/>
		<path class="st47" d="M67.4,606.3c2.9,4.1,1.9,6.3-3.3,6c-3-0.2-6.2,0.8-9-0.8c0.6-2.5,3.5-1.7,4.8-3.2
			C61.8,605.7,64.9,606.8,67.4,606.3z"/>
		<path class="st1" d="M36,617.8c2.9,2.7,7-2.2,9.5,1.6c1.3,2.2-0.3,3.5-1.6,4.8c-4-1.6-7.1,1.4-10.9,1.6
			C32.1,622.3,33.6,620,36,617.8z"/>
		<path class="st46" d="M91.8,851.6c-5.7,2.7-6.2-2.4-7.8-5.4c-1-1.7-3.2-5.2,1.9-5.2c0.8,0,1.4,0.2,2.1,0.5c3,1.7,2.1,5.2,3.2,7.8
			C91.3,850,91.6,850.8,91.8,851.6z"/>
		<path class="st1" d="M91.3,849l-4.3-6.7c1-2.4,0.2-6.2,4.4-6c1.6-0.5,3-1.1,4.6-1.6L91.3,849z"/>
		<path class="st48" d="M50,609.5c0,7.3-1.3,7.6-9.3,3.3C43.1,610.5,46.5,609.4,50,609.5z"/>
		<path class="st35" d="M516,231.3c1.7-3.6,5.5-5.2,7.9-8.1c1.1,1.6,2.1,3.3,3.2,4.9c-2.7,1.6-5.4,3.3-8.1,4.9
			C518,232.4,516.9,231.9,516,231.3z"/>
		<path class="st29" d="M276.8,209.1c-1.6,6.7-2.1,13.8-7.6,18.8c2.1-6.3,4.1-12.5,6-18.8H276.8z"/>
		<path class="st49" d="M140.4,714.2c5.2-16.6,11.1-32.9,17.6-49.1c9.5-0.5,13.1,3.6,10.3,11.7c-6.5,1.4-9.2,6.3-10.8,11.9
			c-2.4,8.9-7.3,16.8-9.5,25.8c-0.5,2.2-1.3,4-3.8,4.4C140.9,719,139,717.9,140.4,714.2z"/>
		<path class="st50" d="M165.9,676.4c3.6-8.2-4.3-8.4-8.1-11.2c0.5-1.6,1.1-3.2,1.6-4.8c3.2-1.6,4.4,0.8,6,2.7s2.5,4.6,5.4,5.4
			c0.5,1.1,1.1,2.2,1.6,3.3c-4.6,15.4-10.9,30.3-19,44.2c-1,1-2.5,1.1-3.6,0.3c-0.8-0.8-1.1-1.9-0.8-3c3.5-12.4,7.6-24.4,14.3-35.5
			C163.9,677,164.8,676.5,165.9,676.4z"/>
		<path class="st30" d="M131.1,703.3c-1,3.3,0,8.6-6.3,6.3c-7.9-4.6-3.8-11.6-1.7-16.6c3.5-8.4,8.1-16.3,11.2-25
			c1.1-2.9,2.7-4.8,6.2-4.1c0.8,0.3,1.6,0.8,2.1,1.6c2.7,3.8,0.2,6.5-1.9,9.3c1.1,5.7-0.5,11.7-4.3,16.2
			C130.4,693.5,130,698.1,131.1,703.3z"/>
		<path class="st51" d="M123,738c-1.4-1.3-2.5-1.3-4,0.3c-2.5,3.3-7.1,4.3-10.6,2.1c-4.1-2.4-0.8-6,0-9c0.6-2.1,1.3-4,2.2-5.9
			c4.4-2.5,9.3-1.3,13.9-1.7c0.6,1.7,1.3,3.5,1.9,5.1C125.2,731.8,124.1,735,123,738z"/>
		<path class="st52" d="M159.7,584.8c4.1-2.4,6.7-7.9,12.7-7l-1.9,3.3c-4,7.3-4.6,15.8-7.9,23.3c-2.2,2.1-5.1,3.5-7.1,6.2
			c-0.8,1.1-3.5,3-4.1-1C153.6,601.3,155.8,592.7,159.7,584.8z"/>
		<path class="st53" d="M148.3,635.3c0.5-0.2,1.1-0.3,1.6-0.3c5.4,1.6,6.7,4.9,4.9,10.1c-3,9.2-5.9,18.4-8.6,27.6
			c-1.1,4-3.3,3-6,2.2c-2.1-2.7,1.6-5.1,0.5-7.8c1-3.5,1.3-7.1,2.2-10.6c3-4.8,7.6-9.2,4.1-15.7
			C146.3,638.5,146.4,636.6,148.3,635.3z"/>
		<path class="st54" d="M131.1,703.3c-1.6,0.6-3,2.9-4.8,1.4s-0.5-3.3,0.2-4.9c2.5-5.4,5.1-10.6,7.9-16.5c3,2.7,1,5.4,1.6,7.6
			c-1.6,3.5-0.6,7.8-3,10.9L131.1,703.3z"/>
		<path class="st45" d="M160.8,603.3c1.7-5.4,3.6-10.8,5.2-16.3c0.8-2.5,1.4-5.1,4.4-5.9c-1.1,10.1-2.7,20.1-9.7,28.4
			c-0.5,0.2-0.8,0.2-1.3,0.2C157,607,158.8,605.2,160.8,603.3z"/>
		<path class="st55" d="M170.8,668.4c-5.5-0.2-7.1-6.2-11.4-8.1c1-3.2,2.1-6.3,3-9.5C165.3,656.7,168.1,662.6,170.8,668.4z"/>
		<path class="st35" d="M149.9,715.8c1.1,0,2.4,0.2,3.5,0.2c-3.8,5.9-10.1,5.5-16,6.3c0.3-2.9,1.4-5.7,3-8.1
			c0.6,2.2,2.9,3.5,5.1,3.2C146.7,716.1,147.9,714.7,149.9,715.8z"/>
		<path class="st1" d="M103.2,652.8c0.2-0.2,0.3-0.3,0.6-0.5c2.7-1.9,3.8-6.5,8.6-5.4c5.2,1.1,2.4,6.2,4.1,8.9
			c2.9,2.1,1.9,4.6,1,7.1c-4,10.1-8.4,20-13.5,29.5c-3.3,1.7-3.8,6.3-7.6,7.6c-4.1,0.6-5.5-3-7.8-5.2c-8.7-6.5-1.7-12.4,0.6-18.5
			c0.8-1.4,2.4-2.1,3.6-3C96.4,666.4,99.9,659.6,103.2,652.8z"/>
		<path class="st56" d="M102.5,720.7c-3.6,0-7.3,0-10.9-0.2l0,0c-5.7-1.1-11.2-0.5-16.9,0.3c-7.8,1.1-15.5,0.3-21.1-6.7
			c-3.5-1.9-7.8-2.4-11.6-1.3c-6.5,1.6-10.1-1.4-12.2-6.8c-2.2-5.7-8.2-9.8-6.3-16.9c2.2-1.6,3.5,0.3,4.9,1.6c1,1.1,1.9,2.4,2.5,3.8
			c2.1,2.5,2.1,6,0.3,8.7c11.2,4.9,23.6,4.3,35.2,7.9c1.9-3.8,4.6-3.6,7.8-1.7c6.5,1.9,13.5,2.4,20.1,1.1
			C106.7,708.8,106.7,709,102.5,720.7z"/>
		<path class="st57" d="M28.1,695.4c-0.5-1.1-1.1-2.2-1.6-3.2c-1.1-2.4-2.1-4.8-2.9-7.3c1.6-4.8,5.9-8.1,6.7-13.3
			c-0.2-0.6-0.3-1.1-0.5-1.7c-0.8-1.4-2.1-2.9-1.9-4.8c-2.5-2.4-6.8-0.2-9.8-3.8c5.4-2.7,10.8-2.5,16.2-2.5
			c3.6,4.6,10.8,1.4,14.3,6.3l1.6,1.6c3.3,6-4,4.9-5.1,7.9c0,0.5,0,0.8,0.2,1.3c3.3,1.6,7.6,1.4,9.7,5.2c-1.6,2.7-4.4,4.9-1.3,8.4
			c1.6,1.7-0.2,3.3-1.9,4.3c-1,2.9-3.2,4.6-5.9,3.5C40,695.2,34,697.1,28.1,695.4z"/>
		<path class="st21" d="M93,673.2c-0.5,1.1-1,2.2-1.3,3.3c-2.9,2.5-4.8,6-7.1,8.9c-2.2,2.5-4.1,4.4-7.8,3.5
			c-3.6-4.6-10.9-5.5-12.2-12.5c-0.5-2.7-6.2-4.3-1.6-7.9c3.6-8.1,8.1-8.7,14.3-1.6v1.6c3,3.2,6.2,3.3,9.3,0.3
			C90,668.3,91.5,670.8,93,673.2z"/>
		<path class="st39" d="M77.2,666.9c-4.9-1-9.8-1.9-14.3,1.6c-4.1-2.5-1.9-6.7-3-10.9c5.9,1.9,9.7,0.3,11.4-5.2
			c0.3-1.3,1.1-2.5,2.7-2.4c2.1,0.2,2.2,1.7,2.4,3.3C76.7,657.8,80.4,662.1,77.2,666.9z"/>
		<path class="st58" d="M91.3,617.8c2.9,3.2,5.1,7,6.5,11.1c0,4.6-1.7,7.8-6.8,8.1c-2.2-0.2-3-2.1-4.4-3.5c0.6-9-6.2-3.2-9.2-4.8
			c-3.3-1-3.3-1.7-0.8-5.7c1.7-1.7,4.6-2.1,6-4.4C85.1,614.7,88.3,616.3,91.3,617.8z"/>
		<path class="st59" d="M58,621.1c5.2,0.8,10.5,2.5,16,1.3c2.1,7.3,0.5,12.5-5.1,16.2c-0.3,0-0.6-0.2-1-0.2
			c-4.8,1.6-5.4-1.1-5.1-4.9c-0.3-3.3-1.1-6.3-4.8-7.6C56.8,624.6,56.8,622.5,58,621.1z"/>
		<path class="st18" d="M28.1,695.4c3-6.5,8.1-4,12.5-2.5c3.8,1.1,7.3,2.5,11.2,1.1c0,0.5,0.2,1,0.2,1.4c0.6,1,1,2.7,0.5,2.7
			c-6.2,0-9.8,7.1-16.5,5.4h-4.8C30.2,700.8,29.1,698.1,28.1,695.4z"/>
		<path class="st58" d="M93,655.6c-11.7-1-13.9-7.8-6.7-20.6c4.8-0.2,6.3,6.3,11.4,5.7c1.9,0.6,3.2,2.4,3,4.4
			C98.3,648.6,96.2,652.6,93,655.6z"/>
		<path class="st4" d="M66.1,704.9c1.1-4.8-2.2-7.8-4.3-11.2c-1.1-1.7-1.6-3-0.6-4.8c5.7-7.6,7.3-7.8,14.9-2.1
			c3,3.2,0.3,6.8,0.6,10.3c1,3-0.2,6.2-2.7,7.9l0,0C71.3,707.6,68.8,707.9,66.1,704.9z"/>
		<path class="st59" d="M99.1,646.1c-0.3-1.4-1.4-2.7-2.9-3c-1.9-2.5-5.5-3.8-4.9-7.9c3.8-0.3,1.9-6.7,6.5-6.3
			c4.3,5.7,9,11.2,6.3,19.2c-2.5-2.5-1.9,1.7-3.2,1.6C98.4,649.6,98.4,648,99.1,646.1z"/>
		<path class="st60" d="M75.8,687.6c-4.1-1.4-8.2-4-10.8,2.7c-1,2.5-2.9,0.2-3.8-1.4c1.1-4.1,2.2-8.2,3.3-12.5c1-0.5,1.9-1,2.7-1.3
			c1.3,5.7,8.9,6.5,9.8,12.5C76.6,687.9,76.1,687.9,75.8,687.6z"/>
		<path class="st61" d="M55,681.1c-4.3-0.2-8.7-0.5-13-1.1c-2.2-0.5-6.7-0.8-2.9-5.2c1.1,1,2.2,0,3.5-0.2c-1.1,0.2-2.2,1.1-3.5,0.2
			c1-6.3,9-3,11.1-7.9C54.1,670.8,52.5,676.7,55,681.1z"/>
		<path class="st62" d="M48.7,665.3c-4-0.6-7.9-1.6-12-2.1c-3-0.3-3.3-1.9-2.2-4.3l7.4,0.5c1,0,2.4-0.3,1-1.6
			c-0.5-0.5-1.4-0.3-2.2-0.5c-1-0.8-1-2.1-0.2-3l0.2-0.2c3.6-1.4,7.8,1,11.4-1.6c-0.3,0.6-0.6,1.4-0.8,2.2c-0.3,2.4-6.5,4.3-0.6,7.1
			L48.7,665.3z"/>
		<path class="st63" d="M69,638.7c2.9-5.1,5.2-10.1,5.1-16.2c1.6-4.1,3.3-8.4,4.9-12.5h3.5c4.1,6.2-0.5,10-3.8,14.1
			c-1.1,1.4-2.4,2.9-1.1,4.9c-1,2.7-1.6,5.2-2.7,7.9S72.3,642.1,69,638.7z"/>
		<path class="st57" d="M36,703.4c3.8-5.9,10.5-6,16-8.1c2.5,1.1,6,2.7,1.6,4.8C48.2,702.7,42.5,706.5,36,703.4z"/>
		<path class="st64" d="M99.1,646.1c0.6,1.1,1.3,2.4,1.9,3.5c-1,4.3-3.5,6.5-7.9,6c0.6-3.8-2.7-5.9-4.4-9.2
			C92.6,645,95.9,645.8,99.1,646.1z"/>
		<path class="st24" d="M66.1,704.9c2.7-0.6,5.2-1.4,7.9,0c0.6,1.6,0.6,3.2,0,4.8c-2.5,0.6-5.2,1.1-7.8,1.7
			C62.2,709.3,66,707.1,66.1,704.9z"/>
		<path class="st65" d="M58,621.1c0,1.6,0.2,3.2,0.2,4.8c-4.9,1.3-9.5-1.4-14.3-1.7c0.5-1.6,1.1-3.2,1.6-4.8
			C49.3,621.2,53.8,621.9,58,621.1z"/>
		<path class="st64" d="M91.5,635.2c3,1.7,5.1,4.1,4.9,7.9c-6.2,0.8-6.5-5.4-9.7-7.9c0-0.5,0.2-1,0.2-1.4
			C88.5,634.1,89.9,634.5,91.5,635.2z"/>
		<path class="st66" d="M62.9,633.6c1.4,1.9,2.5,4.1,5.1,4.9c-2.5,1.1-4.6,5.5-7.4,2.5C58.5,639,59.1,635.2,62.9,633.6z"/>
		<path class="st67" d="M86.6,668.8c0,2.5-0.8,4.8-3.8,4.8c-3.3,0-5.4-1.6-5.5-5.1C80.4,668.4,83.4,668.6,86.6,668.8z"/>
		<path class="st6" d="M101,690.8c5.2-11.7,10.3-23.3,15.5-35c0.8-1.6,1.4-3,2.2-4.6c6.3-2.4,6.2,2.4,5.4,5.7
			c-1.1,5.4-3.3,10.5-5.1,15.7c-3.3,9.7-6.8,19.3-10.1,29c-2.4,1.7-4.8,3.5-7.9,3.2c-0.6-0.5-1.1-1.1-1.6-1.7
			C97.3,698.5,101.4,694.9,101,690.8z"/>
		<path class="st68" d="M137.2,606.5c1-1.9,2.9-3.2,4.9-3.2c-2.5,11.6-6.8,22.5-10.9,33.6c-0.6,1.4-1.7,2.5-3.2,3.2
			c-2.5,0.6-5.2-1-5.9-3.6c-0.2-0.3-0.2-0.6-0.2-1c-0.3-4.4-2.4-8.6-2.2-13l1.9-1.4C128.4,617.8,133.9,613.3,137.2,606.5z"/>
		<path class="st69" d="M119.8,622.3c4.4,2.2,7,6.8,6.3,11.7c-0.2,2.2,0.2,3.5,1.9,4.4c0.6,4-2.1,4.4-4.9,4.4h-4.4
			c-2.2-4.8-4.4-9.3-6.5-14.1c-1.1-5.4,3-5.4,6.3-6.3C118.9,622.3,119.3,622.3,119.8,622.3z"/>
		<path class="st9" d="M160.8,603.3c-0.5,2.1-0.8,4.3-1.3,6.3c-2.9,4.3-7.3,6.7-10.9,10c0-3.5,1-7,2.9-10
			C155.5,608.9,156.7,604,160.8,603.3z"/>
		<path class="st23" d="M123,642.9c1.6-1.4,3.3-2.9,4.9-4.4c1.1-0.6,2.1-1.1,3.2-1.7c0.3,3.8,0,7.6-3.5,9.5
			C125.5,647.4,124.3,644.5,123,642.9z"/>
		<path class="st70" d="M140.4,665.4c-7.4,11.6-13.5,23.9-18.1,36.9c-1,2.9,1.1,5.1,2.4,7.3c-6.3-1.6-6.3-6-4.8-11.1
			c2.1-13.3,8.1-25.5,11.9-38.2c1.1-3.5,4-4.9,7.6-3.2C143.7,659.3,142.8,662.3,140.4,665.4z"/>
		<path class="st71" d="M150.1,639.9c2.1,6.8,0.3,12.5-4.8,17.4c-1.4,0.6-0.8,6.2-4.4,1.9c-1.9-2.2-6.7-0.5-6.8-5.1
			c2.4-9.2,4.1-18.7,9.2-26.9c0.2,1.4,0.3,3,0.5,4.4C144.5,635.7,145,639.6,150.1,639.9z"/>
		<path class="st37" d="M100.8,703.4c0,0.5,0.2,1,0.2,1.4c-5.5-0.5-11.1-1.4-16.5,1.4c-3.5,1.7-7.1,0.5-10.5-1.4V697
			c1.7-4.3,5.7-2.9,8.9-3.6c2.9-0.6,5.9,0.3,8.6-1c2.4,1.3,3.2,3.8,4.6,5.9C98.9,698.7,99.1,701.9,100.8,703.4z"/>
		<path class="st3" d="M134.1,654.2c3.5,1.7,6.5,6,11.2,3.2c0,3.8-1.7,7.4-4.8,9.7c-0.2-0.5-0.2-1.1-0.3-1.6c0-2.7,0.2-5.5-3.2-6.3
			c-3.6-0.8-4.1,2.5-4.9,4.9c-4.1,11.6-8.2,23-12.4,34.5c-0.3-0.8-1-1.6-0.8-2.2C123.3,681.9,126.3,667.2,134.1,654.2z"/>
		<path class="st72" d="M124.4,723.6c-3.3,10.6-9,3.5-13.9,1.7c1.1-2.7,2.1-5.4,3.2-8.1c3.8-1.7,6.3-0.2,7.9,3.3
			C122.5,721.7,123.5,722.6,124.4,723.6z"/>
		<path class="st73" d="M82.3,800.4l-1.9,13.8h-4.8c1-4.3,1.9-8.7,3.2-13C79.3,799.3,80.2,797.2,82.3,800.4z"/>
		<path class="st74" d="M121.6,720.7c-2.7-1.1-5.4-2.2-7.9-3.3c1.1-1.6,0-5.7,3.5-4.6C120.1,713.9,124.3,715.6,121.6,720.7z"/>
		<path class="st75" d="M527.1,274c-2.4,1.6-4.8,3.2-7.8,3.2c-5.9-3.5-5.4,4.3-8.9,4.9c-1-1.9,0.3-3.3,1-5.1
			c6.8-8.6,14.7-16,23.8-22.2c3.6-2.9,7.8-5.4,6.3-11.1c1.7,0.8,3.8,0.3,5.1-1.1c17.4-16.3,36.1-31.4,52-49.4
			c5.4-2.9,4.9-7.8,4.6-12.7c2.5,5.4,5.5,5.7,9.5,1.1c2.1-2.2,3.8-6,8.1-4.4c-3.2,3.3-6.3,6.5-9.7,9.8c-1.9,2.1-7.6,2.9-2.2,7.3
			c0.3,0.3-0.2,2.1-0.8,2.7c-1.9,2.9-4.1,5.5-6.7,7.8c-8.2,6.8-16.2,14.1-23.4,21.9c-10.5,10.9-23.3,19.3-34.2,29.9
			C538,262.1,532.3,268,527.1,274z"/>
		<path class="st19" d="M53.4,714.4c12.7,2.1,25.3,4.1,38,6.3c-7.8-0.5-15,0-20.6,6.7c-1.9,2.2-4.9,2.7-7.9,2.9
			c-6.8-6-15-7.8-23.8-7.8C44.1,719.9,47.9,715.5,53.4,714.4z"/>
		<path class="st61" d="M24.9,684.3c0.5,2.7,1.1,5.2,1.6,7.9c-1.1-1-2.1-1.9-3.2-2.9c-0.5-1.1-1-2.2-1.6-3.3
			c-0.8-6.3-5.2-11.4-6.5-17.4c4.1,1,8.4-0.2,11.2-3.2c1.7,3.2,6,1.9,7.8,4.8v1.4C30.6,675.4,27.5,679.7,24.9,684.3z"/>
		<path class="st25" d="M435,339.3c7.1-9.5,16.5-16.5,25-24.6c2.4-2.4,4.8-4.8,6.8-7.4c11.6-8.4,20.8-19.6,33.3-26.9
			c2.7-0.5,5.2-1,7.9-1.6c-10.1,7.9-20.4,15.7-30.3,23.9c-14.3,12-29.1,23.4-41.2,38C436.1,340.2,435.5,339.8,435,339.3z"/>
		<path class="st32" d="M702.9,103c8.9-7,20.1-4.6,29.9-7.8c3.8,1.9,3.2,6.3,4.8,9.3c-16.6-0.6-32.2,3.5-47.4,9.7
			c-1.4,0.5-2.2-0.3-2.7-1.6c1.7-5.9,7-6.8,11.7-8.2C700.5,103.9,701.8,103.4,702.9,103z"/>
		<path class="st25" d="M688.5,112.1c0.6,0.6,1.3,1.3,1.7,2.1c-14.6,10.3-28.2,22-40.6,34.8c-2.9,2.7-5.2,5.9-7,9.3h-4.6
			c-1.3-4.1,0.8-7.3,3.2-10c13.3-14.1,27.1-27.6,43.9-37.4C686.3,110.7,687.7,111.2,688.5,112.1z"/>
		<path class="st76" d="M685.5,112.5c-16.8,14.3-34.7,27.2-47.4,45.8l-1.7,1.7c-1.3-5.5,0-11.4,3.2-16c12.7-10,23.4-22.5,37.5-30.7
			c2.7-1.6,5.5-2.9,8.4-4.3C689.1,110.1,686.9,111.2,685.5,112.5z"/>
		<path class="st77" d="M526.7,242.5c2.7-1.4,5.5,1.4,8.9-0.8c2.5-1.7,3.5,1.9,3.6,4.1c0,3-2.1,4.6-4.3,6
			C531.5,249.3,528.8,246.1,526.7,242.5z"/>
		<path class="st9" d="M625.3,224.9c-5.2-7.4-12.7-13.5-16-22.3c1.6-1.6,3.2-3.2,4.9-4.6c9,3.2,13.8,11.1,20,17.4l12.8,12.8
			c2.9,2.9,3.5,5.2-0.8,7.3c-0.2,0.2-0.6,0.2-0.6,0.5c-5.7,11.4-8.9,3.3-12.4-1.6C628.9,232.7,627.5,228.4,625.3,224.9z"/>
		<path class="st1" d="M105.7,785.7c2.7-11.1,3.8-22.8,9.2-33.1c0.8-0.5,2.7-1.3,2.5-0.5C114.6,763.6,114.9,776.3,105.7,785.7z"/>
		<path class="st78" d="M118.4,622.5l-6.3,6.3c-3-5.2-6.2-10.5-9.2-15.7c-0.8-1.4-2.4-3.6,1.3-3.6c1.1,0.6,2.1,1.3,3.2,1.9
			L118.4,622.5z"/>
		<path class="st19" d="M78.6,623.9c1.3-4.8,2.5-9.3,3.8-14.1c1.3-1.4,1.7-4.1,4.3-3.8c3.2,0.3,1.4,4,3.3,5.4c0.5,2.1,1,4.3,1.4,6.3
			C85.9,617.4,83.9,623.9,78.6,623.9z"/>
		<path class="st3" d="M34.4,670c-2.9-1.1-7.8,1.1-7.8-4.8c0.5,0,1,0,1.4-0.2c2.5,0.3,5.5,0,7.6,1.3C40,668.8,35.4,668.9,34.4,670z"
			/>
		<path class="st18" d="M40.8,654.2v3.2c-3.3-1.1-7.1,0.3-10.9-2.1C33.6,651.7,37.3,653.2,40.8,654.2z"/>
		<path class="st14" d="M40.3,648c-2.9,3.3-5.2,2.7-7.6,1.6c-0.3-0.2-0.5-1.7,0-2.1C35.1,645.2,37.3,646.9,40.3,648z"/>
		<path class="st10" d="M734.9,93.4c4.4-3,5.2,1.6,6.5,3.6c4.8,7.4,2.9,15.5,1.1,23.4c-1.6,1.3-2.2,3.8-5.5,2.7
			C741.5,112.8,745.2,102.5,734.9,93.4z"/>
		<path class="st79" d="M344.9,12.8l3.2,3.2c-4.3,8.9-5.1,18.7-6.2,28.4c-0.5,4-1.7,7.8-3.5,11.4c-4.8,2.5-4.8,7.8-6.8,11.7
			c-3.3,6.7-6.2,13.6-10.6,19.8v-1.6c1.1-3.6,2.1-7.4,3.2-11.1c8.4-11.6,11.6-25.3,15.4-38.6C341.9,28.2,343.2,20.4,344.9,12.8z"/>
		<path class="st45" d="M625.3,224.9c3.6,2.4,5.5,6,7.9,9.7c-1.4,2.7,0.2,5.2,0,7.9C630,236.8,626.4,231.4,625.3,224.9z"/>
		<path class="st43" d="M685.5,112.5c0-1.1-0.2-2.2-0.2-3.5c4.4-2.5,8.6-6,14.1-4.6l-10.9,7.6L685.5,112.5z"/>
		<path class="st80" d="M149.9,715.8c-1.6,0.5-3,1-4.6,1.6c2.9-14.9,8.9-28.5,15.5-42c2.2-4.6,4.1-3,5.1,1.1
			C160.7,689.5,155.3,702.7,149.9,715.8z"/>
		<path class="st81" d="M150.1,639.9c-2.5,1-3.3,3-4.3,5.2c-0.6,1.6-0.6,4.3-3.2,3.5c-2.1-0.6-3.3-3-2.7-5.1c1-4,2.5-7.9,3.8-11.9
			c1.6,1.1,3,2.4,4.6,3.5C149,636.9,149.6,638.3,150.1,639.9z"/>
		<path class="st2" d="M91.5,692.4c-4.4,7-10.9,5.5-17.3,4.6c-2.9-0.5-4.8-1.4-2.2-4.6c1.3-1.6,2.7-3.2,4-4.8c0.5,0,1,0,1.4-0.2
			c5.1-3.5,8.4-9,14.4-10.9C90.5,681.7,84.5,687,91.5,692.4z"/>
		<path class="st82" d="M100.8,703.4c-2.5-0.8-4.3-2.7-4.9-5.2c1.7-2.5,3.3-4.9,5.1-7.4C103.3,695.1,101.3,699.2,100.8,703.4z"/>
		<path class="st3" d="M24.9,684.3c-2.7-3.8-0.2-5.5,3-7.1c-1.7-2.5-5.2,0-7.3-3c4.1-3.3,9.2-1.9,13.6-2.5
			C33.3,677.2,29.8,681.9,24.9,684.3z"/>
		<path class="st57" d="M39.2,674.8c1.1-0.6,2.2-1.3,3.3-1.9c1.7-0.6,3.6-0.8,4.9,1c0.3,0.6,0.5,1.4,0.2,2.1
			c-1.4,1.9-3.3,0.8-4.9,0.5C41.4,675.9,40.3,675.4,39.2,674.8L39.2,674.8z"/>
		<path class="st7" d="M137.2,606.5c-0.8,7.4-8.6,14.7-15.5,14.6C126.9,616.2,132,611.3,137.2,606.5z"/>
		<path class="st5" d="M591.5,208c-0.2-4.9,3.3-7.3,6.7-9.8c0.8-0.6,2.1-0.5,2.7,0.3c0,0,0,0,0,0.2c0.5,1,0.2,2.2-0.8,2.7
			C597.4,203.5,594.4,205.8,591.5,208z"/>
		
			<linearGradient id="SVGID_1_" gradientUnits="userSpaceOnUse" x1="199.0076" y1="531.0589" x2="326.2187" y2="531.0589" gradientTransform="matrix(1 0 0 -1 0 860.1287)">
			<stop  offset="0" style="stop-color:#7E7E7E"/>
			<stop  offset="1" style="stop-color:#7E7E7E"/>
		</linearGradient>
		<line class="st83" x1="324.8" y1="127.2" x2="200.4" y2="531"/>
	</g>
</g>
</svg>
