<svg xmlns="http://www.w3.org/2000/svg" xmlns:xlink="http://www.w3.org/1999/xlink" id="Layer_1" x="0" y="0" version="1.1" viewBox="0 0 361.3 370.7" xml:space="preserve" style="enable-background:new 0 0 361.3 370.7"><style type="text/css">.st0{fill:gray}.st1{fill:#898989}.st2{fill:#767676}.st3{fill:#757575}.st4{fill:#444}.st5{fill:#646464}.st6{fill:#535353}.st7{fill:#737373}.st8{fill:#3c3c3c}.st9{fill:#6c6c6c}.st10{fill:#5b5b5b}.st11{fill:#787878}.st12{fill:#474747}.st13{fill:#505050}.st14{fill:#5a5a5a}.st15{fill:#707070}.st16{fill:#5f5f5f}.st17{fill:#818181}.st18{fill:#313131}.st19{fill:#888}.st20{fill:#5c5c5c}.st21{fill:#494949}.st22{fill:#3a3a3a}.st23{fill:#2d2d2d}.st24{fill:#3f3f3f}.st25{fill:#8c8c8c}.st26{fill:#393939}.st27{fill:#383838}.st28{fill:#434343}.st29{fill:#212121}.st30{fill:#626262}.st31{fill:#454545}.st32{fill:#686868}.st33{fill:#606060}.st34{fill:#7b7b7b}.st35{fill:#696969}.st36{fill:#242424}.st37{fill:#838383}.st38{fill:#4d4d4d}.st39{fill:#2e2e2e}.st40{fill:#1f1f1f}.st41{fill:#2b2b2b}.st42{fill:#3b3b3b}.st43{fill:#555}.st44{fill:#797979}.st45{fill:#464646}.st46{fill:#6a6a6a}.st47{fill:#7d7d7d}.st48{fill:#252525}.st49{fill:#4a4a4a}.st50{fill:#858585}.st51{fill:#343434}.st52{fill:#727272}.st53{fill:#7a7a7a}.st54{fill:#515151}.st55{fill:#5d5d5d}.st56{fill:#6d6d6d}.st57{fill:#585858}.st58{fill:#676767}.st59{fill:#8e8e8e}.st60{fill:#1d1d1d}.st61{fill:#828282}.st62{fill:#4e4e4e}.st63{fill:#373737}.st64{fill:#353535}.st65{fill:#2c2c2c}.st66{fill:#3e3e3e}.st67{fill:#717171}.st68{fill:#2f2f2f}.st69{fill:#4b4b4b}.st70{fill:#9f9f9f}.st71{fill:#a8a8a8}.st72{fill:#666}.st73{fill:#3d3d3d}.st74{fill:#303030}.st75{fill:#4c4c4c}.st76{fill:#545454}.st77{fill:#484848}.st78{fill:#6f6f6f}.st79{fill:#919191}.st80{fill:#7e7e7e}.st81{fill:#7f7f7f}.st82{fill:#868686}.st83{fill:#636363}.st84{fill:#2a2a2a}.st85{fill:#909090}.st86{fill:#141414}.st87{fill:#575757}.st88{fill:#8d8d8d}.st89{fill:#6e6e6e}.st90{fill:#414141}.st91{fill:#959595}.st92{fill:#8a8a8a}.st93{fill:#525252}.st94{fill:#323232}.st95{fill:#363636}.st96{fill:#9b9b9b}</style><title>Asset 2</title><g><g id="Layer_1-2"><path d="M135.7,359.3c-0.4-2-1.2-3.1-3.5-4c-31.7-10.4-59.4-27.7-83.4-51c-5.2-4.9-11.3-9-15.4-15 c-1.2-1.9-3.2-2.2-5-0.7c-2.8,2.2-5,1.1-7.4-0.4c-2.6-1.6-1.4-3.7-0.8-5.9c1.7-7.2,0.5-14.2-2.2-21c-5.5-14.6-8.6-30-5.8-46 c0.6-3.1,0.1-6.5,0.4-9.7c0.1-2.8-1.8-3.7-3.8-4.6c-4-1.4-4.6-4-3.4-7.8c1.6-4.9,4-9.1,8.3-12.2c9.1-6.6,16.7-14.2,18.7-25.8 c0.5-1.8,1.7-3.2,3.2-4.1c2.3-1.2,4.8-0.7,6.8-0.2c4.8,1.2,3.1,4.9,2.8,8.2c-2,3.4-3.8,6.7-7,9.2c-3.5,0.8-6.5,3-8,6.1 c-2.5,3.8-5.3,7.3-8.4,10.7c1.2-1.1,1.9-3,4.1-2.6c2.8,0.8,6.1-1.2,7.9,2.5c0.6,1.9-0.7,2.9-2,4c-10.8,9.1-13.7,21-11.5,34.4 c1.4,10.3,5,19.9,9.7,29.3c0.8,1.7,1.3,3.7,1.2,5.6c1.3,3.7,1.7,6.7-2.6,9.2c-1.7,1-2.3,3.6-0.1,5.8c2.3,2.5,5.4,4.2,8.8,4.8 c3.1,0.5,6.4,1.2,9.5,2c4.9,3.1,4.8,9,7.6,13.6c0.7,2.2,2.2,4,4,5.5c19.6,17.2,40.8,31.6,65.3,40.9c1.8,0.6,3.7,1.6,5.4,2.6 c1.9,1.1,3.6,1.8,5.4,0.2c1.6-1.1,3.6-0.7,4.8,0.7c2.3,2.4,4.7,1.9,7.2,0.8c0.5,0,1.1,0,1.6,0.2c2.2,0.8,4.4,1.4,5.9,3.4 c1.4,2.6,0.5,4.3-1.8,5.8c-1.6,0.8-3.2,2.2-4.6,3.7c-1.9,3.7-5.3,1.7-8.2,2C138,359.9,136.9,359.7,135.7,359.3z" class="st0"/><path d="M317.4,94.3c10.7,13.1,21,26.4,26.9,42.5c1.8,4.4,2.9,9.2,3.2,14c0.2,1.3,0.6,2.4,0.8,3.7 c0.4,2.2-0.8,3.7-2.8,4.6c-1.7,0.8-3.6,0.5-4.9-1c-2-1.8-3.1-4.3-3.1-7.1c0-2.3-0.8-4.4-2.3-6c-2.5-19.1-15.6-32.5-26.2-47.3 c-3.2-4.7-6.5-9.5-11.4-12.6c-15.5-16.9-33.7-30.5-53.4-41.8c-5.5-3.1-11.4-5.9-16.2-9.7c-0.1-1.9-1.1-4.1,0.8-5.8 c21.5,10.6,41.6,24.1,59.9,39.6c7.7,6.7,15.2,13.6,23,20.3C313.9,89.7,316.3,91.3,317.4,94.3z" class="st1"/><path d="M228.9,27.7c0.5,1.6,0.6,3.1,0.5,4.8c-1.9,2.4-4,0.8-5.9,0.1c-13.3-5.9-27-10.8-41.5-12.6 c-11.6-1.6-23.3-2.8-33.2,5.6c-3.6-1.9-7-0.7-10.7-0.4c-2.9,0.5-5.9,1.7-8.4-1c-0.8-7,3.8-12.7,11.9-14.9 c11.2-4.3,22.3-3.2,33.8-1.4c7.4,1.2,14.5,4.1,21.7,5.9c3.7,1.1,7.4,1.6,11.3,1.3c2.2,1.6,4.9,2.5,6.5,4.8 C219.3,22.6,224.1,25.1,228.9,27.7z" class="st2"/><path d="M54.6,146.9c1.6-5.4,4.7-9.6,8.6-13.8c6.1-6.5,8.9-15.6,14-22.9c4.3-5.9,7.6-12.6,9.2-19.9 c0.5-2.2,1.2-4.2,3.1-5.5c2.8-2,2.3-4.7,1.3-7.1c1-5.6,4.4-9.8,8.2-13.6c2.9-1.6,6.4-1.9,8.4-5c1.8-0.7,3.7-1.8,5.9-1.1 c7.7,1.8,9.7,4.4,8.3,10.3c-0.4,0.8-0.5,1.6-1.1,2.4c-0.5,0.5-0.6,0.7-1.3,1c-2.9,1.1-4.2,5.2-8,4.9C105.3,72,99.8,75,97,84 c-0.6,3.7-3.8,6.5-4.1,10.3c-0.7,2.5-1.1,5-1.1,7.8c0.1,1.9,0.5,4.3-1.8,5.8c-2,1-2.8,3.1-4,4.8c-8.5,12-15.8,24.7-22.2,37.8 c-1.2,2.6-2.9,5-6.1,3.7C54.6,153,53.1,150.6,54.6,146.9z" class="st3"/><path d="M350.5,164.8c8.2,1,8.6,2.2,6.1,10.2c-1.7,5.4-4,9-9.7,10.8c-4.2,1.4-6.7,5.9-9.5,9.2 c-5.4,6.2-12,11.4-14.4,19.9c-2.5,3.7-4.7,2.3-6.8-0.1c0.8-4.4,2.6-8.5,5.5-12c3.8-4.6,7.8-9.4,12.1-13.6c1.1-1.1,2.8-2.8,1.3-4.8 c-1.7-2.6-5.6-0.4-7.1-3.4c-2.6-5.4,3-7,4.8-10.4c3.7-0.8,4.9-5.4,8.5-6.5C344.2,165.9,347.6,162.5,350.5,164.8z" class="st4"/><path d="M54.6,146.9c0.6,1.1,1.3,2,2,3.1c1.9,2.6,3.5,2.9,4.9-0.4c4-8.8,8-17.9,14-25.3c4.8-5.9,7-13.8,14.2-17.6 c0.2,0.1,0.6,0.4,0.8,0.5c2.2,2.3,0.8,4.4-0.1,6.2c-10.7,17.2-19,35.5-28.3,53.4c-0.4,0.5-0.6,0.8-1.1,1.2c-2,1-3.8,2.6-4.9,4.8 c-3.2,7.1-5.4,5.4-10.6,3.8c-1.6-0.8-2.6-2.9-2-4.9c0.8-2.2,1.9-4.1,3.1-6.1c2.3-4,3-8.2,1.6-12.6c0.2-1.2,1.4-1.7,2.2-2.5 C51.6,149.1,52.4,147.3,54.6,146.9z" class="st5"/><path d="M141.3,9.4c-4.8,4.1-10.3,7.4-10.1,14.9c0.7,0.8,1.2,2.3,0.6,3.2c-2.8,3.6-6.1,5.9-10.8,6 c-1.7,0-3.6-0.4-5.3-0.6c-1.1,0.1-2.2,0-2.4,1.4c-0.8,3.7-3.6,7-5,10.3c-1.8,3.8-4.3,7.4-4.9,11.9c-0.7,3.8-5,5.3-6.6,8.6 c-3.7,4.3-7,4.1-9.7-1c1.6-5.2,4.9-9.6,9.5-12.5c1.6-0.8,2.8-2.2,3.5-3.8c2.6-9.1,8.2-17.2,10.8-26.4c1.4-1.4,3.1-2.5,5.3-1.6 c3.7,1.6,5.2-0.4,7-3.4c1.3-2.3,1.1-5.2,3.6-7c2.8,2,5.6,2.8,8.8,0.4C137,8.4,139.2,8.7,141.3,9.4z" class="st6"/><path d="M342,165.4c-1.8,2.6-4.3,4.8-7,6.6c-0.6,0.1-1.3,0.2-1.7-0.1c-2.9-5.9-9.1-4.4-13.9-6.1 c-0.8-0.4-1.4-0.8-1.7-1.7c-0.6-4.7,3.8-4,6-5.8c1-0.5,1.7-1.3,2.6-1.9c3.7-0.1,4.2-3.2,5.3-5.9c0.8-2.2,0.2-4.7,2.3-6.2 c0.6-0.5,1.4-0.8,2.4-0.7c1.9,1.9,3.2,4.4,3.7,7c0.5,2.8,1,6.1,4,6.2c3.7,0.1,2.3-4.2,3.5-6.1c2.8,2.3,3,4.9,1.7,8 C347.2,161.4,347.2,166.2,342,165.4z" class="st7"/><path d="M126.4,9.5c2.5,2.6,5.5,5.2-0.5,7.7c-0.6,0.2-0.6,1.9-1.1,3c-2.2,4.3-5,4.9-9.2,2.8c-1.6-0.6-3.4-1.2-4.9-1.6 c-2.3-4.2-1-7.3,2.5-10.3c1.6-1.2,2.8-2.6,4.2-4c1.4-1.4,1.8-3.6,4.6-2.4C124.2,5.8,126.8,6.1,126.4,9.5z" class="st8"/><path d="M316.8,212.5c1.6,1.9,4,2.8,6.2,2.2c0.5,4.7-1.3,8.5-4.6,11.9c-3.5-0.2-5.9-2.4-8.8-3.8 c-2.2-1.8-1.9-4.9-3.2-7.1c-1-1.8-0.1-4,1.6-5.4c2.6-2.4,5-0.5,7.4,0.5C316.2,210.9,316.8,211.6,316.8,212.5z" class="st2"/><path d="M86.8,64.3c2.8,0.2,6.4,4.6,7.7-1.8c2.8-1.1,5-1.8,6,2.2c-3.5,4.2-4.6,10-9.6,12.8c-1.2-1.2-2.2-2.8-3.7-3.7 C82.9,70.8,83.2,67.6,86.8,64.3z" class="st9"/><path d="M50.7,150.7c-0.4,1.1-0.7,2.3-1.2,3.5c-0.7,4.1-3.2,4.9-7,3c-0.2-1.4,1.2-2.6,0-4c-2.3,0.8-1.4,4.1-4,4.8 c-0.6-2.4-0.5-5.4-3.2-6.6c0.2-0.4,0.5-0.6,0.5-1c6.7-8.4,6.7-8.4,13.2-0.2C49.4,150.7,50.2,150.6,50.7,150.7z" class="st10"/><path d="M137.8,356.5c2.8,0.5,5.5,1.7,8.2-0.5c2.9-1,5.6-1.4,8.3,0.7c0.6,1,0.4,2.2-0.5,3c-2.5,1.7-5.3,2.8-6.8,5.4 c-4,3.1-7.7,3.6-11.3-0.5C136.9,362.3,137.2,359.3,137.8,356.5z" class="st11"/><path d="M342,165.4c2.5-1.9,3.7-5.6,7-6.8l1.6,6c-0.8,0.5-2.2,0.7-2.6,1.7C345.1,170.9,343.6,168.5,342,165.4z" class="st5"/><path d="M137.8,356.5c1.8,3.5,2.2,6.6-2,8.6c-1.6-1.8-0.6-3.8-0.2-5.8C136.5,358.3,137.1,357.5,137.8,356.5z" class="st12"/><path d="M317.4,94.3c-2.9-1.2-4.9-3.2-5.6-6.5C315.9,88,318.7,89.3,317.4,94.3z" class="st13"/><path d="M214.5,20.1c-2.6-1-5.8-1.3-6.5-4.8C211.6,14.9,214.2,16,214.5,20.1z" class="st8"/><path d="M246.4,308.8c-2.9,4.3-6,8.9-9,13.3c-1.8,2.3-3.1,5.2-3.1,8.3c-0.1,3.8-9,12.8-12.8,13.4 c-2,0.4-4.4-0.4-5.3-1.9c-1.9-3.6-3.8-1.8-6-0.6c-7.6,4.3-14.2,10.2-22.3,13.7c-3.4,1.7-7.2,2.4-10.8,2.2 c-2.8-3.6-0.5-5.4,2.4-6.8c1.9-0.8,3.8-1.3,4.1-3.7c1.1-4.7,5.5-4.8,8.9-5.3c3.5-0.6,6.8-1.9,9.8-3.7c3.5-1.2,5.2-4.7,8.2-6.4 c4.6-0.6,4.7-5,6.7-7.9c1.1-1.3,1.3-3.2,3.7-3.1c2.8,0.8,2.5,3.8,4,5.5c1.4,1.6,1.7,0,2.2-0.7c3.7-6.1,7.9-11.9,11.9-17.8 c1.2-1.7,2.4-3.7,5-3.4C246.2,304.8,247.3,306.4,246.4,308.8z" class="st14"/><path d="M293.1,233.7c-6.8,7.6-11.6,16.1-13.2,26.4c-2.8,4.8-5.9,9.1-9.5,13.4c-3.2,3.8-7,5.2-11.6,3.5 c-1.7-2.2-4.2-3.8-3.4-7.1c4-5.4,7.8-11.2,10.1-17.8c2.4-3.1,6.5-3.4,9.4-5.3c2.8-1,2.6-3.1,2.8-5.3c0.4-3.7,1.7-7.3,4-10.3 c2.8-3.5,4-7.9,5.3-12.1c2-6.8,4.9-8,10.9-4.4c1.9,2.3,0.4,4.7-0.4,6.7C296.1,225.5,294.6,229.6,293.1,233.7z" class="st15"/><path d="M259.5,275.5c11.5,1.2,13.8-10,20.4-15.5c-2.8,10-11.2,16-16.8,23.9c-1.4,1.9-4.1,2.8-1,5.6 c2.3,2-0.4,4.1-1.8,5.8c-3.8,1.4-7.2-3.4-11.4-0.4c-3.2,2.6-6.7,4.7-10.2,6.7c-0.5,0-1.1,0-1.6-0.4c-2.2-0.8-2.6-2.9-2.8-4.9 c-0.4-2.8,1.4-3.7,3.7-4.3c2.5-0.5,4.8-1.4,7-2.8c4.2-3,4.7-4.4,1.7-8.9c-1.2-1.7-1.1-3.8-0.1-5.4c0.5-0.8,1.3-1.6,2.3-1.9 C252.7,272.5,255.9,274.8,259.5,275.5z" class="st16"/><path d="M185.1,347.3c0.2,2.6-1.7,3.7-3.5,4.7c-2.3,1-4.1,2.8-4.7,5.2c-7.4,3-15.5,1-22.9,3c0-0.7-0.2-1.7-0.4-2.4 c-0.2-7.2,3.4-11.3,11-12c6-0.6,12.4,0.7,18.4-0.4C184,345.7,184.6,346.3,185.1,347.3z" class="st17"/><path d="M293.1,233.7c-1.8-2.8-0.5-5.5,0.6-8.2c1.4-3.2,2.9-6.5,2.5-10.2c-0.8-1.6-2.5-3.4-1.6-5.4 c2.9-7,4.9-14.3,9.7-20.4c3.2,0.2,6.6-4,10-0.2c0.7,1.6,0.6,3.2-0.6,4.4c-1.9,2.5-3.4,5.6-3.7,8.8c-1.8,9.1-7.3,16.9-10.3,25.7 c-0.7,1.7-2,3.1-3.6,4.2L293.1,233.7z" class="st18"/><path d="M295.8,232.5c3.7-12.4,10.3-23.6,14.3-36.1c0.4-1.6,1.4-2.9,2.9-3.8c2.8,0.4,3.4,1.9,2.9,4.1 c-3.2,3.1-2.8,6,0,9.4c1.8,2.2,2.8,4.4-1,5.6c-1.9-0.6-4-1.4-5.4,0.5c-1.7,2.4,0.8,3.2,1.9,4.6c2.2,2.8-1.2,3.7-1.8,5.8 c-1.3,0.7-2.8,1.1-4,0.7c-2.5-0.5-3.7,0.7-3.8,3C301.6,230.2,299.7,232.2,295.8,232.5z" class="st10"/><path d="M238.9,300.3c5.4-8.3,14.3-10.6,21.2-4.9c-2.6,9.7-5.5,12.5-13.7,13.6c-1.1-1.3-2.5-2.5-3.6-3.7 c-0.7,0.4-1.7,0.4-2.6,0C238.9,303.7,237.1,302.5,238.9,300.3z" class="st11"/><path d="M147.4,346.1c-0.2-0.1-0.6-0.2-1-0.2c-3.8-0.6-7.2-2.5-10.8-4.1c-2.4-1.2-5.2-1.8-7.9-0.5 c-2-0.2-4.3-0.6-6.2-1.7c-16.1-7-31.6-14.9-44.3-26.9c-8.3-7.9-17.5-15.4-25.3-24c-1-1.9-4-3.8-1.8-6c2.2-2.3,4.8-1.4,7.1,1.1 c1.9,2,5.5,1.1,7.9,2.9c14.4,13.8,30,26,48.2,34.6c8.5,4.1,17.6,7.3,26.8,9.7c4.8,1.3,10,2,13.1,6.7 C153.2,341.7,152.8,345.4,147.4,346.1z" class="st16"/><path d="M52.6,287.7c9.2,6.1,16.7,14.2,24.6,21.6c14.9,13.6,32.2,23.2,51,30c2.8,1.2,6.6,0.8,7.1,5.2 c-2.5,3-5.3,1.3-7.9,0.5c-27.5-9.2-51.1-25.3-72.6-44.3l-5.2-4.7C50.2,292.7,51.6,290.2,52.6,287.7z" class="st19"/><path d="M28.6,259.2c-1.1-8-6.4-14.5-8.2-22.1c-1.1-4.2-2.6-8.3-1.9-12.6c1.1-1,1.6-2.5,1.4-3.8 c-1.3-6.5,0.5-12,4.6-16.9c2.4-2.8,3.7-6.7,8-7.3c5.4,1.6,3.6,5.5,2.9,9c-2.3,13.6-1.7,27.1-0.1,40.6c0.5,3.5,1.2,7.1,1.2,10.7 c0.2,2.5,0.5,4.9-2.3,6.1C30.8,263.4,31.4,258.7,28.6,259.2z" class="st20"/><path d="M52.6,287.7c0.4,3.2-1.3,5.6-2.9,8.2c0.4-4.9,1.2-10.3-4.7-13.4c-2.9-4.2-7.7-7.3-9-12.6 c1.9-4,3.2-8.6,8.2-10.3c4.1,0.7,5,4.6,6.6,7.6c0.8,1.6,1.6,3.1,3,4.2c2.6,4.2,5.5,8.2,8.5,12c1.4,1.7,3.4,3.6,1.1,5.9 c-3-1.6-5.9-3.4-9-4.8c-1.2-0.6-2.8-1.2-3.6-0.2C50,285.7,52.2,286.5,52.6,287.7z" class="st21"/><path d="M183.1,346.6c-2.4,1.1-4.9,1.4-7.3,1c-9.5-1.2-17.8,0.1-22.1,10c-2.5,1-5.6,0.6-7.6-1.4 c-0.5-2.3,0.7-3.4,2.8-3.7c1.8-0.4,3.4-1.4,4.2-3c-0.4-2.2-0.1-4.3,0.8-6.1c1.4-3,3.8-5.6,6.6-7.1c1.4,0,2.8,0.5,3.8,1.6 c3.4,3.4,7.4,4.3,12.2,3.7C179.8,341.1,183.4,341.7,183.1,346.6z" class="st22"/><path d="M38.4,271c3.7,3,7.1,6.2,7.1,11.5c-7-0.6-13.6-1.7-18.5-7.7c-2.8-3.2-2.8-5.6,0.4-7.8s3.5-4.7,1.6-7.6 c3.6-2.3,2.9,1.8,4.6,2.9c1.2,0.5,1.7,1.7,1.4,3l-0.1,0.1C32,269.9,35.1,270.4,38.4,271z" class="st23"/><path d="M45.7,171.3c-2.5-1.8-4.9-3.5-8.2-2.9c-0.6,0.4-0.8,0.1-0.8-0.5c2.5-3.2,4.4-6.8,6-10.4c2.3-1,4.6-2.2,7-3 c3.5-1.1,3.8,0.8,3.2,3.4C51.2,162.6,50,167.9,45.7,171.3z" class="st1"/><path d="M33.3,186.4c0.7,0,1.6-0.1,2.4-0.1c2,2.6-0.1,4.4-1.6,6c-1.9,2.5-4.4,4.6-6.6,6.8c-1.4,1.4-2.2,3.1-1.9,4.9 c-2.4,5.2-5.4,10.2-4.3,16.4c0.4,1.9-1,3.2-2.9,4C16,208.8,19.5,195.6,33.3,186.4z" class="st24"/><path d="M156.1,344.7c-0.8,1.7-1.9,3.2-2.9,4.7c-2.2-0.7-4.3-1.3-5.8-3.2c1.6-2.9,3.6-5.6,4.3-8.8 c-1.7-4.1,1.6-6.4,3.4-9.2c2.9-1.6,5.5-4.9,9.2-1.8c0.5,0.8,0.5,1.7,0.2,2.8C161.4,334.1,158.1,339,156.1,344.7z" class="st25"/><path d="M36.6,167.9c0.4,0.2,0.6,0.4,0.8,0.5c-4.1,5.4-8.3,10.6-12.5,16c-1.7,2.3-3.5,4.7-5,7 c-0.5,1-1.7,1.4-2.9,0.8c-0.8-0.5-1.4-1.4-1-2.3c0-0.2,0.1-0.2,0.4-0.6c6-7,10.7-14.8,17.6-21C34.5,167.8,35.7,168,36.6,167.9z" class="st22"/><path d="M135.6,344.2c-2.8-1.2-5.2-2.9-7.1-5.2c7.2-0.6,13.2,1.3,18.1,6.7c-3.1,7-3.4,6.8-7.9,1.2 C137.7,346,136.6,345.1,135.6,344.2z" class="st26"/><path d="M147.4,24.4c6.7-8.5,15.8-8.8,25.3-8.2c18.6,1.1,35.5,8.2,52.4,14.9c1.3,0.5,2.6,1.1,4,1.6 c16.7,9.2,33.1,18.7,48,30.8c7.9,6.2,15.2,13.3,22.1,20.8c1.4,1.7,2.9,3.6-0.8,4.4c-7.2-3.5-11.3-10.2-16.9-15.5 c-12.1-10.4-24.5-20.5-38.4-28.3c-7.2-4-15.1-7.9-23.8-8.4c-15.6-9.5-32.5-11.3-50.2-10.2c-3.7,0.2-6.6,1.8-9.6,3.2 c-3.7,0-6.4,1.9-9,4.3c-2,1.9-4.1,3.7-7,1C141.1,28.3,142.3,25.3,147.4,24.4z" class="st27"/><path d="M299.1,87.6c0.8-1.1,0.2-2.2,0.1-3.4c5.3,1.9,7.9,6.8,10.8,10.8c9.1,11.9,20.3,22.7,24.1,37.9 c1,3.6,1.6,7,2.3,10.4c-0.5,0.6-0.5,1.3-1,1.9c-2.8,0.5-3-1.7-3.4-3.5c-0.4-1.7-1-3.2-1.2-4.9c2,7.8,2.8,15.2-3.7,21.5 c-0.6,0.5-1.2,1.1-1.8,1.6c-3.1,0.1-4.2-1.6-4.4-4.3c-0.1-1.8-0.5-3.5-1.4-5c5.4-12.4,0.2-23.5-3.6-34.9c-0.7-2.5-2.4-4.4-4.8-5.6 c-2.6-4.4-5.6-8.6-8.8-12.7C302.2,94.2,297.7,91.8,299.1,87.6z" class="st28"/><path d="M147.4,24.4c-3.2,3-2.8,7-2.8,10.6c1.9,1,2.8,3,2,5.2c-0.2,0.6-0.5,1-0.7,1.4c-3.5,1.8-7,3.2-10.8,4 c-2.8-0.6-3.7-2.8-3.8-4.9c0-1.7-0.6-3.4-1.9-4.7c-1.1-2.9-0.2-5.8,0.7-8.8l1.1-3.1l12.4-2.8C146,21.1,147.6,21.4,147.4,24.4z" class="st0"/><path d="M119.8,68.5c-0.1-4.9-2.9-7.7-7.7-8.8c-0.6-2.9,1.4-3.7,3.6-4.2c2.8-0.6,5.6-0.7,8.3-1.6 c2.8-0.5,3.8,1.6,4.7,3.6c2,4.1,4.8,8,7,12.2s5.4,5.3,9.2,2.6c2.8-1.8,5.2-1.7,8-1.4c4.8,4.3,10.1,8,12.5,14.5 c-1.2,3.6-3.4,3.8-6,1.7c-1.7-1.4-3.6-2.5-5.8-2.9c-4-1.1-7,0.5-9,4.3c-1,1.8-1.4,4,0.1,5.5c2,1.9,3.6,0.2,4.9-1.3 c1-1.2,2.4-1.7,3.8-1.6c4,3.7,8.9,1.7,13.4,2c4.6,1.6,8.2,3.8,9.8,8.4c-1,5.9-5.2,10.3-7.8,15.4c-2.3,2.5-4.6,1.6-6.7,0.1 c-4.3-2.8-8.9-5.5-13.4-8c-1-3.8-4-4.8-7.4-5.6c-1.8-0.6-3.8-1.1-5.5-1.8c-3.8-1.6-3.7-4.9-2.6-7.6c3.4-9.1-1.4-15.7-5.9-22.7 C125.6,67.7,122.1,70.5,119.8,68.5z" class="st5"/><path d="M119.8,68.5c7.4-2.9,7.2-2.8,11.9,3.8c4.9,7,8.3,13.6,4.1,22.1c-1,1.8,0,3.8,1.1,5.5c1.7,2.4,1.1,4.3-1.2,6 c-6.6,0.1-7.3-0.8-7-7.3c0.5-5.8,1.7-11.6-3.7-16.1c-1.1-0.8-1-2.8-1.1-4.1c0.4-3.5-1.6-6.6-4.8-8L119.8,68.5z" class="st29"/><path d="M91.3,93.5c1.6-3.4,1.2-7.1,3.6-10.2c3.6-2.6,8-3.8,10.8-7.4c1.7-2.3,3.8-0.6,5.9-0.5 c2.4-1.6,2.6-5.8,6.6-5.5c0.5,0.7,1.3,1.3,2,1.7c5.8,2.3,6.6,4.8,3.4,10.6c-0.7,0.4-1.8,0.7-2.5,0.2c-3.8-2.4-6.8-0.8-9.6,1.7 c-1.6,1.4-3.4,2.6-5.3,3.5c-2.8,2.5-6,4.6-9,6.7C94.9,95.7,92.7,96.6,91.3,93.5z" class="st27"/><path d="M91.3,93.5c5.9-0.5,8.9-6,14.2-7.4c4,2.5,4.1,3.4,0.6,9.8c-3.8,2.3-3.2,7.8-7.2,10.2c-2.9,0.8-5.6,3.2-9.1,1 l-0.1-0.1c0.5-2.5-0.5-4.8-1-7.2C88.2,97.3,89.2,94.8,91.3,93.5z" class="st30"/><path d="M110.2,44.1c-1.1,2.6-2,5.2-3.2,7.8c-1.6,3.1-1.6,6,0.7,8.9c0.4,1.8,1.6,3.8-0.5,5.3 c-2.4,1.6-4.8-0.1-6.8-1.2l-6-2.2c-0.8-0.6-2-1-1.7-2.4c0.2-0.8,1.1-0.8,1.8-0.6c3.7,1.7,4.8-1.2,6.1-3.5 c2.5-3.8,3.2-8.6,6.6-12.2C108.1,43.6,109.3,42.7,110.2,44.1z" class="st31"/><path d="M122,81.6c3-3.4,3.4-6.2-1.3-8.3c-1.4-0.5-2.4-1.7-2.6-3.2c0.4,0.1,0.8,0.2,1.2,0.4c4.8-0.4,7,1.9,6.6,6.7 c-0.2,1.6,0.2,3.4,1.2,4.6c4.7,4.8,4.7,10.6,3.7,16.4c-0.6,3.1,0,5.6,3.4,6.8c1.1,1.2,1,2.9-0.1,4.2c-2.9,1.6-6.5,1.1-8.8-1.2 c-2.8-2.6-1.1-5.5,0.2-8.2c2.8-5.9,1.8-10-2.8-11.5c-1.8,0.2-3.6-1.2-3.8-3.1C118.9,82.8,120,81.9,122,81.6z" class="st32"/><path d="M111.6,75.5c-1.6,0.8-3.5,1.3-4.6,2.9c-2.9,4.4-7.2,5.5-12.2,5c1.6-4.9,4-9.2,8.6-11.9c2.3-1.3,4.4-3,7-1.8 C113,70.8,110.5,73.7,111.6,75.5z" class="st33"/><path d="M312.7,189.1c-1.6,0.5-2.8,1.4-3.4,2.9c-0.6,1.2-0.8,3.2-2.6,2.5c-2-0.7-0.6-2.8-0.4-4.2 c-4.2-2-3.5-4.9-1.4-7.9c1.7-2.4,3.7-4.4,3.5-7.7c0.7-2.3,2.6-2.8,4.8-2.6c3,0.2,4.9-0.8,4.9-4.1c0.1-1.7,1.1-3.2,2.4-3.8 c3.4-0.4,6.6,0.5,10.1-0.6c2.4-1,3.6,0.7,3.7,3c0.1,1.7,0.5,3.5,0.7,5.2c-1.3,3-6,4.1-5.4,8.3c-1,6-6.1,7-10.8,8.6 C317,189.6,314.8,189.6,312.7,189.1z" class="st34"/><path d="M314.4,196.7c2.5,5,5.2,5.6,8.8,1.8c4.7-5,9.1-10.3,13.7-15.6c4.2-1.3,3,1.2,1.6,2.9 c-1.9,2.5-4.3,4.8-6.5,7.1c-4,4.8-8.9,8.9-10.8,15.2c-0.7,2.2-2.4,3.7-4.6,4.3c-0.6-0.2-1.2-0.6-1.9-0.8c0.8-1.6,0.4-2.6-1-3.6 C309.3,204.3,309.6,200.5,314.4,196.7z" class="st23"/><path d="M122,81.6c-1.9,2.5-1.2,3.8,1.9,4.3c3.8,3.8,4.8,8.4,2.4,13.6c-2.4,4.7-3.4,10-6.6,14.3 c-3.8,5.3-7.9,9.7-15.2,9.2c-2.4,0.7-4.8,1.6-7.1,0.2c-1.7-1.6-0.6-4.2-2.5-6c-2.5,2.5-4.8,4.9-4.9,8.6c-0.1,1,0,2-0.2,3 c0,0.7-0.1,1.6-0.4,2.3c-0.5,1.6-1.1,3.1-2,4.2c-1.9,1.3-2.6,3.2-3.2,5.3c-2.5,12.6-9,23.9-10.6,36.6c-0.2,2.2-1.4,4.2-3.2,5.4 c-0.6,0.8-3.5-0.6-1.6,2.6c2.3,4.4,1.3,10-2.4,13.3c-2.4,1.9-4.6,1.7-6.2-0.8c-0.5-0.7-0.7-1.7-1.1-2.4c-1.8-4-1.1-24.4,1-27.8 c4.1-10.9,10.4-20.8,15.2-31.2c3.4-7.6,8.3-14.2,12.5-21.1c1.7-2.4,2.4-5.2,2.4-8.2c2.4-1.3,4.6-3,7.4-1.8c3,0.7,4.8-0.6,4.9-3.6 c0.1-2.4,1.7-4.4,1.1-6.8c1.6-2.6,4.1-4.9,1.9-8.4c2.8-2.5,5.3-5.4,8.8-7.1C117.7,77.1,120.6,77.1,122,81.6z" class="st13"/><path d="M59.8,167.2c1.8,6.1,1.8,12.8,0.1,19c-0.8,2.6-0.6,5.3,0.5,7.8c0.6,1.4,1.2,3.2,3.4,2.9 c1.7-0.2,3.1-1.4,3.5-2.9c0.5-1.2,0.6-2.5,0.6-3.8c0.1-1.7,0.6-3.8-1.3-4.9c-2.8-1.2-1.7,2.8-3.5,2.9c-0.6-5.4,1-7.2,5.8-6.7 c1.4,0.4,2.8,1.2,3.2,2.5c2.4,5.5,0.5,13.9-4.2,18.2c-0.6,1.1-1.2,1.7-1.9,2.5c-4.8,2.8-5.5,7-4.6,12.1c0.4,1.7,0.8,3.4,0,5 c-2,1.6-3.6,3.8-6.1,4.2c-0.7,0-1.6-0.2-2.4-0.6c-1.8-2.2-3.4-4.9-6.7-5.3c-1.8-0.4-2.4-2.5-2.9-4c-0.2-1.1,0.1-2.2,0.7-3 c1.6-1.4,2.8-3.1,2-5.2c-1.8-5-0.8-10.4-1.3-15.7c-0.2-2.3-0.6-4.3,2.5-4.9c3.5-4.9,3.6-8.8,0.1-12.5c3.7,1.7,5.6,0.4,6.8-3.2 C54.6,168.9,56.4,166.9,59.8,167.2z" class="st35"/><path d="M123.8,51.4c-3-6.1-0.6-13.4-3.7-19.4c3.6-1,7-2.6,10.2-4.7c0.6,2.5,1.1,5,1.7,7.6 c-0.6,4.9-1.6,9.4-4.3,13.4C126.7,49.8,126,51.5,123.8,51.4z" class="st20"/><path d="M110.2,44.1c-1-0.1-2.2-0.1-3.1-0.1l5.9-13.1c1-2.2,2.2-4.3,3.8-0.2C114.6,35.2,112.3,39.6,110.2,44.1z" class="st36"/><path d="M320.6,164.4c0,0.4,0.1,0.7,0.1,1.1c0,9.1,0,9.1-8.8,9.6c-0.7,0.1-1.4,0.1-2.2,0.4c-0.5,1.6-2,2.5-3.7,2.2 c-2.6,0-5-0.1-7-1.9c-0.7-4-4-7.7-2.5-12.2c0.4-0.7,1.1-1.4,2-1.7c2.5-0.7,5.3-0.8,7.7,0c1.1,0.4,2.2,0.5,3.1,0.6 c1.6,0.6,3.1,1.1,4.8,0.1c1.8-0.4,3.5-0.5,4.6,1.1C319.3,163.9,320,164.2,320.6,164.4z" class="st37"/><path d="M318.4,163.7l-3.8,1.1c-1.9,1.6-3.8,1.1-5.9,0.1c-1-0.5-1.9-0.6-3-1.2c-2.8-3.8-0.5-6.4,2.2-8.6 c2.3-1.9,4.9-3.2,8-3.8c1.6-0.1,3.2-1.3,4.9-0.4c3.5,2.4,1.7,7,4.4,9.5C323.1,161.4,320.7,162.6,318.4,163.7z" class="st38"/><path d="M327.2,158.7c2.8-7,3.4-14.9,1.4-22.1c-0.5-1.6-1.8-4.1,0.6-4.9c2.4-0.8,2.9,2.2,3.6,4c1,3.2,1.8,6.6,2.8,10 C334.8,151.3,333.2,156.4,327.2,158.7z" class="st6"/><path d="M183.1,346.6c-2.2-1.6-4.3-3.4-7.2-2.4c-7,2-11.3-1.6-14.6-7c-1.2-3.4,1.7-5.2,2.8-7.7 c0.5-0.5,0.7-0.7,1.4-1c8.3,0.6,16.6,1,22.4-6.8c3.5-2.2,7.3-2.8,11.3-3c4.2-0.4,6.1,2.8,4.3,6.7c-0.4,0.7-1,1.6-1.6,2.2 c-5.3,6-5.3,6,1.6,8.9c0.5,0.7,0.6,1.6-0.1,2.2c-3.7,2.9-8.5,4-13,5.6c-1.7,0.6-3.7,1.1-4.9,2.8 C184.4,347.1,183.8,346.9,183.1,346.6z" class="st39"/><path d="M203,338.8l-0.6-1.4c-1.2-1.4-1-3.2,0.4-4.3l0,0c6-6.4,8.9-14.2,11.2-22.2c2.4-3,4.9-3.7,7.8-0.8 c0.4,0.6,0.6,1.3,0.7,1.8c-0.1,1-0.4,2-0.7,3c-3,6.5-5.6,13.6-10.8,18.8C207.9,335.2,206.4,338.1,203,338.8z" class="st40"/><path d="M240.9,304.5c0.6,0.2,1.2,0.5,1.8,0.6c-4.2,6-8.4,11.9-12.6,17.9c-1.2,1.7-2.5,3.7-1.4,5.9 c0.8,1.9,2.2,3.8-1.2,4.2c-2.6,0.2-4.7-0.7-4.7-3.7c0.1-1,0.4-1.7,0.5-2.5c-0.7-2.9,1.3-4.8,2.8-6.8c2.6-4.8,6.5-8.8,9.6-13.2 C237.1,305.1,238.3,303.3,240.9,304.5z" class="st41"/><path d="M227.6,321.3c-0.6,2.3-2,4.2-4.2,5.5c-2.9-0.7-3.6-2.8-2.6-5.6c-1.9-2.3,0.8-4.9-0.7-7.3 c0.2-0.7,0.5-1.3,0.7-2c4.6-1,6-0.1,6.7,4C228,317.8,227.4,319.6,227.6,321.3z" class="st37"/><path d="M220,313.9c2.8,2.2,1.7,4.7,0.7,7.3c-1.7,2.8-3.6,5.3-5,8.2c-0.8,2.2-2.9,3.8-5,4.3 C213.9,327,217,320.4,220,313.9z" class="st42"/><path d="M306.2,175.5c1.1-0.1,2.4-0.1,3.5,0c1.9,2.9,0.5,5.4-1.7,7.4c-2.2,2.3-3,4.8-1.6,7.7 c-4.1,8-8.8,15.7-10.3,24.8c-3.7-1.1-6,0.2-6.6,4c-0.5,3.1-2.2,5.9-3.7,8.3c-3.4,5-5.8,10.2-6,16.2c-0.2,2.8-1.6,5.2-4.9,5.2 c-1.4-0.6-1.7-1.8-2.2-3.2c-0.7-2-1.3-3.8-3.2-5.5c-2.4-1.7-2.8-4.9,0.2-5.9c11.3-4.3,11.9-13.9,12.1-23.6 c-0.1-0.2,0.1-0.2,0.1-0.5c8.9-5.2,10.3-14,11.6-23C296.8,182.2,301.8,178.9,306.2,175.5z" class="st43"/><path d="M259.5,275.5c-2.2,0.4-5,0.2-2.8,5c-3.1-2.8-5.2-4.6-7.2-6.4c-4.1-0.4-9.5,2.8-11.5-3.8 c0.4-7.7,5.8-14.2,12.7-15.2c4.9,3.8,6.2,9.1,6,15C257.4,272.1,258.2,273.9,259.5,275.5z" class="st43"/><path d="M256.8,269.9c-3.5-3.7-5.3-8.5-5.4-13.6c-0.1-4.3,3.5-4.8,6.2-5.5c2.6-0.6,5.2-0.5,7.8,0.4 c0.5,0.4,0.8,0.7,1,1.4C265.8,259.8,263.4,266.2,256.8,269.9z" class="st44"/><path d="M266.5,252.7c-0.4-0.1-0.6-0.5-1.1-0.5c-2-3.7-1.4-6,2.4-7c1.8-0.6,3.8-0.7,5.9-0.6c0.5,0,1.2,0.2,1.4,0.7 c0.1,1.1-0.1,2.3,0,3.6C272.5,250.9,269.5,251.8,266.5,252.7z" class="st45"/><path d="M221.1,311.1c-2.3-1.1-4.2-0.4-6.1,1c-6.6,4.6-13.6,8.3-22.1,6.4c-3.4-2.8-1.7-5.3,0.4-7.8 c2.9-3.5,6.7-5.3,10.9-6.5c3.8-1.1,7.1-3.6,9-7c0.4-0.4,0.8-0.6,1.2-0.8c3.4,0.4,6.7,3,9.6-0.6c6.8-3.8,7-4,11.8,0.2 c0,1.6,0.8,3.1,2,4.1c0,0.2,0,0.5-0.1,0.5C232.3,304,227.4,308.5,221.1,311.1z" class="st46"/><path d="M239.6,270.6c2.9,2.6,7.1,1.2,10,3.5c-0.5,0.6-1.2,1.1-1.7,1.7c-3.2,2.8-3.7,7.1-5.6,10.7 c-2.9,5.4-4.3,6.8-10.3,5.9c-2.8-0.5-4.7,2.4-7.3,1.1c-1.8-1.7-1.6-3.5-0.5-5.4c1.4-2.3,1.6-4.9,0.7-7.4c0.5-5.4,3.6-8.8,8.2-11 C235.3,268.3,238,268.8,239.6,270.6z" class="st46"/><path d="M225.4,293.1c1.6-0.7,2.9-2.3,4.1-2c7.2,0.6,9.7-3.7,12-9.4c1-2.5,2-6,6.1-5.8c0,1.6,1.1,3.1,2.6,3.6 c4.2,2,3.4,4.6,1.1,7.7c-3.8,5-9.7,6.8-15.5,8.6c-2.3,1-4.9,6.7-6.5-0.6c-1.8,0.1-2.2,2.2-3.6,2.6 C223,296.5,223.2,295,225.4,293.1z" class="st47"/><path d="M301.3,209.1c0.6-3.1,1.2-5.5,3.8-7.4C305.2,204.5,303.8,207.3,301.3,209.1z" class="st15"/><path d="M252.4,300c-1.2-0.7-1.8-1.7-1.3-2.8c0.6-1.2,1.7-1.1,2.8-0.6c0.8,0.4,1.4,1.3,1.1,2.2l0,0 C254.4,300.1,253.3,300.1,252.4,300z" class="st45"/><path d="M156.8,330c-1.7,2.4-3.5,4.8-5,7.2c-8.2-3.4-16.8-4.8-25.3-7.8c-22.4-7.9-41.6-20.9-58.9-36.7 c-1.3-1.2-2.8-2.4-4-3.7c-3.4-5.9-9-10.2-11.3-16.7c-1.2-4.4-2.8-8.8-1.1-13.6c1.1-3,2.6-5,6-4.9c2.5,0.1,4.8-0.8,6.5-2.8 c2-0.7,3.7,0,5.2,1.3c2.4,2,3.4,5.2,5.2,7.7c0.5,1.6,1.4,2.4,1.9,3.8c0.6,2.4,1.6,4.8,3.6,5.8c4.6,2.2,6.1,6.1,7.8,10.3 c1,2.3,1.9,4.9,4.2,6.1c9.7,5.4,18.4,12.8,29.6,15.8c9.1,2.5,18.4,4.1,27.7,5.2c3.2,1,3.6,4.8,5.8,6.6c0.4,0.5,0.5,1,0.7,1.6 c0.7,1.6,1.8,3,3.1,4c2.6,1.7,2.8,3.8,1,6.4C159.1,327.4,158.1,328.8,156.8,330z" class="st48"/><path d="M45.9,214.9c-0.6,0.5-1.2,1.1-1.7,1.6c0,7.8-1.1,15.5-0.2,23.3c0.4,3,0.6,5.9,2.2,8.5c0,1.6-0.5,2.9-1.2,4.1 c-1.6,1.6-3.4,3-5,4.3c-1.7,1.2-3.7,1.8-5.5-0.4c-3.2-15.1-4.2-30.7-2.8-46c0.2-2.2,0.4-4.2,1.9-5.9c2.8-2.8,6.5-2,9.8-2.9 c1.8-0.4,2.8,1.6,2.8,3.1C46.3,208.3,47.1,211.7,45.9,214.9z" class="st5"/><path d="M45.9,214.9c-0.2-3.2,0.5-6.7-1-9.4c-2-3.7-5.4,1.6-8.2,0.1c-1.1-0.6-1.9-0.6-3-1c-1.6-0.8-1.9-1.8-0.8-3.4 c1.1-1.2,1-2.8,0.1-3.8c-1-1.2-0.7-2.9,0.5-3.7l0,0c4.1-3.5,8.2-7,13.4-8.8c0,0.7,0.1,1.6,0.2,2.5c0,1.1-1.7,3.6,0.6,2.9 c4.3-1,2.2,1.8,1.7,2.8c-2.3,4.4-2.9,9.5-1.6,14.4C48.1,210.1,48.4,213.1,45.9,214.9z" class="st49"/><path d="M34,256.7c3.6-0.5,5.9-3.1,8.6-4.8c3.1,1.4,2.4,4.9,4,7.2c0,0.7-0.7,1.4-1.6,1.6c-2.8,3.1-4.8,6.8-7,10.4 c-0.6,0.7-1.2,1.3-1.8,2c-1.7,1.6-3.6,2.6-5.5,1.1c-2.4-1.7-1.7-3.8-0.6-6.1c1-1.8,1.9-3.7,2.9-5.6 C33.8,260.5,32.6,258.4,34,256.7z" class="st50"/><path d="M46.5,185.2c-1.4,3.7-4.1,5.9-7.7,7.6c-2.4,1.1-4.2,3-6,4.9c-2.9,1.7-4.9,4.1-7.1,6.6c-1.1,0.5-1.6,2-3,2 c1.8-8.3,8.2-13.6,13-19.9c2.4-1.3,4.7-2.8,7-3.8C45.4,181,46.6,182.1,46.5,185.2z" class="st41"/><path d="M45.1,260.5c0.2-0.6,0.5-1.2,0.6-1.8c-1.8-4.9,1.1-8.2,4.2-11.3c2.8-2.5,5.6-1.6,8.3,0.1 c2.3,1.4,5.5,1.6,5.9,5.2c-1.1,3.2-2.5,5.5-6.5,4.7c-3.5-0.6-4.1,2.2-4.4,4.6c-0.6,3.5,0.6,7.1-1,10.6 C49.3,268.9,46.4,265.2,45.1,260.5z" class="st51"/><path d="M165,329.7c-1.3,2.6-2.5,5.2-3.7,7.8c-1.7,2.5-3.5,4.8-5.2,7.3c0.7-5.9,3.2-11.4,7-15.8 c0.5-0.4,1.4-0.1,1.8,0.5C165,329.4,165,329.5,165,329.7z" class="st52"/><path d="M156.8,330c0.1-3.2,5.3-7.1-1.1-9.7c-0.7-3.2,2.3-5.3,2.6-8.3c1.8-1.7,4.6-1.8,6.6-0.7 c1.2,2.3,2.4,4.3,5.5,3.8c1-0.2,1.9,0.4,3,0.7c1.9,0.6,4.9,0.2,5.4,3.4c0.4,3.2-2.8,3.7-4.8,4.8c-0.7,0.4-1.7,0.6-2.4,0.8 c-3.1-1.8-5.3,1.7-8.2,1.8C160.5,326.4,159.1,328.9,156.8,330z" class="st53"/><path d="M163.5,326.8c1.1-3.5,4.4-5.5,7.9-5c0.5,5.6-0.7,7.1-5.4,8.2l-3-1.1C163.3,328.2,163.5,327.6,163.5,326.8z" class="st54"/><path d="M145.3,39.6c-0.2-1.7-0.4-3.2-0.5-4.8c4.3-2.5,7-8.4,13.1-7.9c16.8-2.8,31.6,3,45.5,12 c6.4,4,13.2,7.3,19,12.4c1.3,0.8,2.8,1.6,4.3,1.9c4.9,6.6,11.4,9.7,19.4,11.4c7,1.4,7.6,4,6.4,11.3c-0.7,4,0.5,7,3.8,9.2 c1.6,1.1,3.2,2.2,4.7,3.7c2,2.2,2.3,4.4,0.7,6.8c-1.7,2.5-3.8,2-6,1c-1.9-1.2-4.2-1.8-6.4-2c-8-5.9-17-9.1-26.8-10.4 c-4.1-0.6-7.8-2.8-10.4-6c-7.1-7.7-14.5-14.8-25.2-17.6c-6.1-9.4-15.8-13.6-26.3-16c-3.5-0.8-7.1-1-10.6-1.6 C148,42.4,146.1,41.9,145.3,39.6z" class="st30"/><path d="M225.8,55.2c-2,0.5-3.5-0.6-4.8-1.7c-10.1-8.2-21.5-13.8-32.8-19.9c-6.8-3.6-14.3-4.6-21.7-5.6 c-2.8-0.5-5.8-0.8-8.5-1.3c13.6-3.8,26.9-4.8,40.6-1.4c7.4,1.9,14.6,4.6,21.5,8c5.6,3.6,12.4,5.6,17,10.6c1,3.8-2.8,3.6-4.7,5.2 C229.9,51,227.6,52.9,225.8,55.2z" class="st55"/><path d="M236.2,45.1c-6.6-2.4-10.9-7.8-16.4-11.5c24.4,7,43.4,22.3,62.2,38.3c5.9,4.9,11.3,10.3,16.9,15.7 c1.6,3.2,5.8,4.9,6,9c-3.1,1.7-5.2-0.5-7-2.4c-17.2-18.6-37.3-33.1-58.8-46.2C238.2,47.5,237.2,46.5,236.2,45.1z" class="st43"/><path d="M236.2,45.1c3.1-0.1,6.1,0.8,8.5,2.6c19.7,13.4,39.3,27,55.3,44.7c1.6,1.6,3.2,2.9,4.9,4.2 c3.1,3.7,6,7.9,8.2,12.2c0.5,1.3,1.2,2.6,1.8,3.8c1.1,2.4,2.3,4.8-0.5,6.7s-5.4,1.1-7.6-1.2c-0.6-0.7-1.1-1.4-1.3-2.4 c0.5-3.4-1.2-5-3.8-7c-13.6-10.2-27.5-19.4-40.7-30c-1-0.6-1.7-1.3-2.3-2.2c-5.5-8.9-14.3-14-22-20.6c-2.5-2.3-6.5-3.8-5.9-8.2 L236.2,45.1z" class="st56"/><path d="M307.5,114.9c1.2,2,2.8,4.1,5.4,2.8c2.8-1.3,0.8-3.6,0.6-5.5c-0.2-1-0.4-2-0.2-3 c7.4,9.2,11.5,20.9,11.6,32.8c-0.2,3.6-1.6,6.8-3.8,9.1c-1.1,0.7-2.2,1.6-3.1,2.3c-1.6-1.3-2.4-3-2.9-4.9 c-3.1-12-10.4-22.6-20.9-29.4c-1.9-1.4-3.5-3.2-4.4-5.3c-0.2-0.6-0.1-1.2-0.2-1.8c3.4-4.9,10.1-5.3,15.1-0.4 C306,112.1,306.9,113.4,307.5,114.9z" class="st57"/><path d="M145.3,39.6c11.4,0.6,22.8,2,32.9,8.5c4.1,2.6,8.2,5.3,9.7,10.2c-1.4,3.1-3.6,6-4.7,9.2 c-3,2.9-5.9,1.1-8.9-0.2c-4-1.9-7.9-4-12.5-4.1c-5-1.1-9.1-4.1-12.7-7.6c-3.4-3-4.3-7.1-5.9-11.3c-0.7-1.6-0.1-3.2,1.4-4h0.1 C145,40.5,145.2,40,145.3,39.6z" class="st58"/><path d="M123.8,51.4c2.2-5.9,4.8-11.4,8.3-16.6c1.2,3.1,1.6,6.6,3.5,9.5c2.3,0.1,3.4,1.6,4.3,3.5 c2.5,5.5,6,10.3,9.2,15.5c0.2,2,1.6,3.5,2.6,4.8c1.6,1.7,1.8,3.4,0,4.9c-4.7-1.9-2.5,1.7-2.8,3.8c-2.4-0.5-4.7-1.6-6.8-0.4 c-4.1,2.8-5.8,0.2-7.4-2.8l-9.8-18.4C124.5,53.9,124.2,52.7,123.8,51.4z" class="st49"/><path d="M146.6,64.3c-4.9-6-8.5-12.7-11.3-20c2.3-3.1,5.8-3.6,9.2-3.6c1.2,4.8,3,9.4,5.5,13.6 c0.8,2.3,1.9,4.4,3.4,6.2c1.4,1.7,3.1,4.1,0.5,6.4C150.7,68.5,149.2,64.8,146.6,64.3z" class="st19"/><path d="M146.6,64.3c2.8-0.6,4.9,0.7,7.4,1.6c4.2-1.8,10.1-1.2,12.5,2.4c4.4,6.4,10.2,11,16.4,15.7 c6.1,4.7,11,11.3,16.8,16.7c12.4,11,25.2,21.7,39.8,30c3.8,2.3,6.7,5.3,9.7,8.3c3,3.1,6.1,6,10.6,7.1c10.8,5.9,23,8.5,34,14.3 c1.7,1,3.6,1.7,3.7,4.1c1.2,3.1,2.8,6.2,2.2,9.8c-1.4,1.7-3.6,1.3-5,0.7c-4-1.1-8.2-1-12.1-2.3c-1.4-0.7-2-2.6-3.7-3 c-11.8-6.4-23.8-12.5-36-17.9c-3.7-1.7-6.8-4.6-10.2-6.8c-6.8-4.7-15.5-6-21.6-11.6c-3.4-2.8-6.8-5.3-10.2-7.9 c-9.2-7-17-15.6-25.3-23.8c-3.5-2.4-6.1-5.5-10.1-7.1c-0.2-0.5-0.5-0.8-0.6-1.3c0.4-2.6-2.4-4.7-0.8-7.3 c-4.1-4.1-8.3-8.4-12.4-12.5C150.1,70.1,148.3,67.2,146.6,64.3z" class="st59"/><path d="M149.6,106.8c4.7,1.4,9,3.8,12.8,6.6c1.7,1.2,3.4,2.9,5.8,2.4c0.6-0.4,1.1-0.5,1.7-0.5 c1.2,0.4,2.8,0.5,3.6,1.3c7.8,7.6,16.8,13.4,25.2,20.3c1,0.7,1.7,1.9,1.4,3.4c-1.6,5.4,0.2,9.7,4.6,13.3 c9.5,7.8,19.3,14.8,29.5,21.6c3.1,2,6.6,2.8,10.2,1.3c3.2-1.2,6.1-1.1,8.9,1.6c-1.3,7.8-3,15.4-11.2,19.2 c-1.8,0.7-3.4,2.2-4.2,3.7c-1.2,1.9-2.9,3.1-5.3,2.3c-2.4-0.8-2.4-3-2.3-4.9c0.5-5.9-3.4-9-7.6-11.6c-0.4-0.2-0.6-0.5-1-0.5 c-6.2-2.6-11.3-5.9-11.2-13.9c0.1-2.6-2.8-5.2-5.8-6.2c-1.9-1.2-4.1-2.2-6.4-2.8c-4.3-1.3-8.2-4.2-10.2-8.3 c-0.6-1-0.8-1.9-1.2-2.9c-1.2-5.3-3.8-7.7-9.2-8c-4-0.2-7.3-1-10-4.4c-1-1.7-3.5-2.4-5.2-1.2c-0.1,0-0.4,0.2-0.5,0.4 c-1.3,0.8-2.9,1.2-4.6,0.7c-2-0.1-4.1,0.5-6,0.2c-3.6-2.2-5.3-5.6-6-9.2c-0.1-1.4-1-2.8-2.2-3.4c-1.3-1-2.4-2.3-4.1-2.4 c-3.2-0.2-4.7-2.3-5.4-5c-0.1-1.1,0.5-2.3,1.1-3.2c3.4-1.3,2.8-5,4.2-7.3C144.6,103.5,145.3,103.2,149.6,106.8z" class="st60"/><path d="M164.2,85.7c1.1,2.4,4.6,4.4,1.8,7.7c-4.1-0.1-8.2-2-12.4-1.3c-1.1,1.4-2.3,2.8-3.2,4.2 c-1.4,1.7-3,3.4-5.4,2.6c-2.2-0.7-3.5-2.6-3.8-4.9c-0.6-5,1-9.2,5.3-12s8.5-1.6,12.4,1.7C160.5,84.6,161.5,87.3,164.2,85.7z" class="st61"/><path d="M149.6,106.8c-3.4-0.4-6.5,1.1-8.4,3.8c-3.8,4.2-4.7,4.4-9.4,0.7c-0.4-0.8-0.1-1.9,0.8-2.6 c0.6-1.4,1.1-2.8,1.7-4c1.7-1.1,1.9-3,2.8-4.8c4-0.7,7.4,1.7,11.3,2.5C150.9,102.9,150.1,105.1,149.6,106.8z" class="st25"/><path d="M169.3,116.1c-0.4-0.1-0.7-0.1-1.2-0.2c2.5-4.8,5-9.6,7.6-14.5c1.8,0.8,3.8,1.4,5.2,2.8 c10,9.2,21.1,17,31.7,25.4c0.4,0.6,0,1.2-0.6,1.6c-2.9,0.8-4.6-1.1-6.6-2.5c-6.4-4.3-12-9.4-18-14c-0.6-0.5,0.2,0-0.5-0.1 c-2.9-1-4.3-4.8-7.7-4.7c-3.5,0.1-4.3,3.6-6.4,5.4C171.8,116.2,170.4,115.9,169.3,116.1z" class="st62"/><path d="M153.6,91.9c4.1-5.6,4.9-5.6,10-0.8c0.7,0.6,1.7,1.4,2.5,2.2c-0.1,0.2-0.2,0.6-0.2,1 c-1.4,0.6-2.9,1.1-4.3,1.7C157.2,97.7,154.5,96.6,153.6,91.9z" class="st63"/><path d="M103.4,94.6c2,3.1,1.4,7,2.3,10.3c0.6,2.4-1.6,3.4-3.6,3.8c-3.1,0.7-4.1-1.2-4.8-3.7 C99.3,101.5,101.4,97.9,103.4,94.6z" class="st64"/><path d="M132.4,108.7c-0.2,0.6-0.5,1.3-0.6,1.9c-0.1,1,0.4,2-0.4,2.6c-4.8,4-8.2,9.4-13.3,13.1 c-1.6,0.5-3.1-0.1-4.8-0.2c-6.2-1.9-6.5,3.5-8.2,7l-0.6,1.7c-1.1,2.4-2.8,3.4-5,2.3c-2.2-0.8-3.6-3.2-3.4-5.5 c0.1-5.4,2.6-9.7,6.6-13.2c5,2.8,8.6,1.2,12-3.2c4-5.3,6.8-11.4,10.3-16.9c2.6-4.4-1.6-8.2-1.2-12.5c3-0.7,4.3,1,4.8,3.7 c0.6,2.9,0.5,6.1-0.5,9C125.8,105.9,125.8,105.9,132.4,108.7z" class="st65"/><path d="M72.4,264.9c-0.5-0.8-0.8-1.8-1.3-2.8c0.5-2-0.2-4-0.4-5.9c-0.4-3.4,0.8-5.4,4-5.9c3.1-0.5,5.2,1.3,4.9,4.8 c-0.1,0.7,0.1,1.6,0.4,2.2c0.2-5.4,0.1-5.9-4.9-7c-1.4-0.2-2.6-1.1-3.4-2.4c-0.5-2.5,0.7-3.8,2.9-5c8.2-4.6,9.7-10.7,5-19 c-1-2.4-1.2-5.5-4.9-5.4c-0.6-0.5-1.2-0.7-1.9-1.3c-1.8-1.2-1.8-3.4-2.4-5.2c-0.6-2.2-1.9-4.2-3.7-5.5c-1.6-1-3.1-1.9-1.7-4.1 c5-6.2,5-13.6,3.1-20.9c0.6-1.1,1.6-2.2,1.8-3.2c1.7-11.3,6.1-21.7,9.6-32.3c0.8-2.6,1.8-4.9,3-7.4c3.8,0.5,4.2,4.6,6.8,6.2 c0.1,0.5,0.1,1.1,0,1.7c-1.2,7.6-1.2,7.6,5.9,9.2c2.8,3.4,8.2,5.3,6,11.4c-0.6,1.6,1.3,0.6,1.9,0.8c5.6,1,8.6,3.8,9.6,10 c1.1,5.9,3.6,11.4,7.2,16c11.3,14.6,24.1,27.6,37.2,40.6c5.6,5.4,12.4,9.4,19.9,11.3c4.1,1.2,8,3.1,12.1,4.6 c4.1,1.4,5.6,5.3,5.9,9.6c0.2,4.3-1.3,7.8-3.1,11.3c-3.5,6.5-4.6,13.2-1,20c-0.4,2.6-1.9,3.2-4.2,3c-3.5-0.2-6.8-0.7-9.7-2.8 c-4.2-2.8-8.6-4.2-13.6-1.6c-2.6,1.4-4.3,0-5.4-2.6c-1.1-2.4-0.7-4.1,1.7-5.2c3.4-1.2,7.3-2.3,6.2-6.8s-5-4.8-8.8-4.4 c1.7,0.5,3.8-0.5,5.6,0.6s3.6,2.5,3.5,4.9s-1.7,3.7-3.7,4.4c-3.7,1.6-7.4,2.9-11.5,1.4c-2.5-0.2-4-2.8-6.5-3.2 c-3.6-1.4-4.4-4.3-3.6-7.9c1-4.6-1.8-7.2-5.3-8.9c-2.9-1.4-6.4-1.7-9,1.9c4.2-3.8,9-3.4,12.6,0.7c3.2,3.7,2.5,8.6-1.8,11.8 c-7.7,4.9-13.4,1.7-19.3-3.7c-3-3-7.1-4.9-11-6.6c-1.7-1.7-2.8-3.6-2-6.2c0.7-2.8-0.1-5.4-1.3-7.8c-1.7-3.4-1.2-5.8,1.9-7.7 c3.5-2.2,6-0.6,8.6,1.6c1,1.1,1.7,2.3,2.3,3.6c0,0.2,0.1,0.2,0.1,0.2s0-0.2,0-0.5c-3.5-6.4-6.5-7.2-12.2-3.6c-0.6,0.5-1.6,1-2.4,1 c-2.2-0.1-10.3-5-11.2-6.8c-1.6-3.5,0.5-11.9,3.1-14.2c2.2-2.2,5.6-2,7.8,0c0.2,0.4,0.5,0.6,0.6,1c1.2,1.8,1.9,4,1.9,6 c-0.1-1.6-0.2-2.9-1-4.3c-0.7-2.5-3.1-4.1-5.8-4.2c-2.6,0-4.1,1.6-5.3,3.8c-2.3,4.3-1.7,9.1-2.2,13.7c-0.2,2.8-0.7,5.8-0.1,8.4 c0-0.5,0,0.5-0.1,0.2c-0.5-6.2,0.6-9.1,7.9-5.6c6.1,3.1,6.7,8.4,7.3,13.8c0.5,3.2-2,3.7-4.6,3.7c-2.4,0.1-4.9,0-5,3.2 c-4.3,7.3-2.9,13.7,3.8,19.2c2.3,1.7,4.8,3.1,2.3,6.4c-6.5,0.1-11.6-3-13.3-8.8C86.4,274,79.2,269.9,72.4,264.9z" class="st66"/><path d="M94.5,156.9c-7.9-0.2-9.1-2.5-6.4-11.4c-0.7-3.5,2-4.2,4.2-5c1.1-0.5,2.3,0.1,2.8,1.1c2,2.5-0.5,4.2-0.7,6.5 c2-1.8,3.4-4,1.8-6.5c-1.7-2.8-4.1-0.7-6,0.2c-1.4,0.8-2.9,1.7-4.3,0.2c-2.3-2.2-3.1-4.7-1.6-7.7c0.7-1.3,1.6-2.6,2.6-3.8 c4.7,1.9,6.1,1.4,7.4-3.5c0.5-2,0.5-4.3,3.6-4c1.6-1.3,2.5-3.7,4.9-4.1c-2.3,4-5,7.9-4.7,12.7c0.1,1.6,0.2,3.4,1.9,4.1 c2.2,0.6,2.4-1.4,3.4-2.8c3.2-1.3,5,0,5.9,3.1c-0.1,1-0.2,1.8-0.5,2.8c-2.4,3-3.5,5.5-1.2,9.5c2,3.4-3.1,4.7-3.7,7.4 C101,156.1,97.9,158.3,94.5,156.9z" class="st67"/><path d="M97.9,122.7c-1.2,3.4-2.4,6.8-3.8,10.1c-1.2,2.4-2.6,5.4-5.8,4.3c-3.8-1.1-1.9-4.3-1.4-7 c0.2-0.7,0.6-1.4,0.8-2.2c-0.4-0.7,0.6-1.7-0.4-2.6c-0.5-5.2,3.6-8.3,6-12.2c1.2-1.8,2.4-0.6,3.4,0.6 C98.6,116.3,99,119.7,97.9,122.7z" class="st23"/><path d="M84.4,133.8c0.6,7,2.2,7.8,8,4.1c0.4-0.4,0.8-0.6,1.3-0.8c2.8-1,4.1,0.6,5,2.8c1.8,3.5,0.4,9.6-2.8,12.4 c-1.8,1.6-3.8,2.2-5.9,0.5c-1.8-1.6-1-3.6-0.2-5.5c0.6-1.9,2.8-2.6,4.4-4.7c-3.6-1.1-4.4,1.8-6.1,3c-3.2-1.1-3.8-4.3-5.5-6.6 C83,137.1,82.6,135.1,84.4,133.8z" class="st68"/><path d="M87.6,125.4c1.7-1.2,3.8-1.8,4.1,0.5c0.5,3-2.8,1-3.8,2C87.8,127,87.7,126.3,87.6,125.4z" class="st35"/><path d="M64.3,252.7c-2.5-0.8-4.8-1.8-7.2-2.8c-1.3-6.7-1.3-14-7.1-17.9c3.2,5.2,2.6,10.8-2.3,15 c-1,1-2.4,1.1-3.5,0.5c-1.8,0.7-2.9,0.2-3-1.7c0-9.1-0.4-18.2,1.3-27.4c0.4-0.8,1-1.6,1.6-2c1.2,1.2,3.1,1.9,4.8,1.8 c4.8-0.1,5.3,2.4,3.7,6.2c2.6,2.2,2.6,7.4,7.6,7.1c1.2-1,0.5-1.4-0.6-1.4c-1,0.1-1.9,0.1-2.9-0.1c-1.7-1.3-2.8-2.8-1.9-4.9 c1.6-1.2,3.1-2.5,4.8-4c0.7-0.8,1.6-1.7,2.9-1.7c3.1,0,5.4,1.1,5.9,4.7c0.2,2.5,2.4,4.3,2.6,6.8c-2.8,5.9,1.8,11.3,1.1,17.2 c1.2,3.2-0.6,4.9-2.9,6.4C67.5,253.9,66,253.3,64.3,252.7z" class="st69"/><path d="M62,220.8c-0.7,0.2-1.6,0.2-2.4,0.5c-0.7-2.8-2.2-5.4-2.3-8c-0.5-5.6,2.8-8.8,7.8-10.4 c6.8,1.9,8.4,7.3,9.1,13.4c0.6,1,0.6,2.4-0.1,3.4c-2,2.3-4.7,1.2-6.8,0.8C65.4,220,63.7,219.9,62,220.8z" class="st70"/><path d="M54.9,225c1.1,1.2,2.2,2.5,3.1,3.7c2.2,1.7,7,2.2,3,6.6c-4.9-1.9-7.9-5.4-8.3-10.9 C53.6,224.7,54.3,224.8,54.9,225z" class="st71"/><path d="M57,198.6c-1.6-2.6-2.3-4.7-0.8-7.2C58.4,193.6,58.4,195.5,57,198.6z" class="st54"/><path d="M290.8,113.3c12.8,6.8,21,17.8,25.8,31.2c1,2.8,1.4,5.5,1,8.3c-5.6,1.6-10.3,4.2-11.9,10.6 c-2.3-0.1-4.6-0.1-7-0.2c-2.8-2.6-5.3-5.6-4.1-10.1c1.1-3.2,1.1-6.2-1.3-9c0-2.8-0.8-5.3-2.4-7.4c-3.5-4.8-5.2-10.7-4.9-16.7 C286.6,117.4,287.4,114.4,290.8,113.3z" class="st16"/><path d="M297,153.5c-0.6,3.6,2.6,6.4,2.2,9.8l-1.4,0.6c-11.3-5.4-23.8-8-34.4-14.3c-1.3-0.7-3-0.7-4.6-1.2 c-1.3-1.9-2.4-4-0.5-6.4s4.3-1.6,6.5-1.1c3.8,1.2,7.2,2.9,10.6,5.2c2.8,1.9,5.8,3.1,9.2,2.5c2.6,0.5,5.2,1.3,7.9,1.7 C294.1,150.9,296.2,151.1,297,153.5z" class="st72"/><path d="M283.2,169.2c5.5,1.7,10.8,3.8,16.4,4.7c1.9,1,4.2,1.6,6.4,1.6c-1.7,5.9-6,9.1-11.2,11.9 c-0.6,0.5-1.6,0.7-2.3,0.5c-2.5-1.7-3.6-4.1-2.6-7.1c0.4-1.1,0.2-2.4-0.5-3.5c-0.6-2.3-2.2-3.4-4.6-3.8 C283.4,172.8,282,171.7,283.2,169.2z" class="st4"/><path d="M309,164.8c1.9-0.5,3.8-0.5,5.9-0.1C312.8,171.5,310.9,166.1,309,164.8z" class="st34"/><path d="M193.8,317.1c5.4-0.6,10.6-1.7,15.5-4.3c1.7-1,3.7-1.3,5.8-0.8c0.6,8.3-3.5,14.5-8.5,20.5 c-1.4,1.7-2.8,3.2-4.2,4.9c-3,0.2-6.5,4.2-9-0.2c-2.4-4.2,1.8-6.1,4-8.9c1.6-1.8,4.9-3.2,3.7-5.9c-1.3-2.6-4.6-0.5-7-0.6 c-1.8-0.1-3.7,0.6-5,1.6c-1.4,1-2.8,1.6-4,0.1c-1.7-6.2-0.1-8.2,6.1-6.8C192,317.1,192.9,317.2,193.8,317.1z" class="st73"/><path d="M185.7,323.3l3.5,0.2c-5.2,6.5-12.8,7.1-19.9,9c-1.7,0.5-2.5-0.8-3-2.5c1.7-2.8,3.7-5.5,5.4-8.2 c0.6,0.2,1.2,0.4,1.8,0.6c1,1,2.2,1,3.4,1.6c2.6,1.8,4.3-0.6,6.4-1.7C184.2,322,185.2,322.5,185.7,323.3z" class="st60"/><path d="M292.9,186.4l2.2,0.7c3.1,6.7-4.9,22.3-12,23.2c-0.2,0.7-0.7,1.2-1.6,1.6c-11.3,3.1-15.2,11.4-15.6,22.2 c-0.1,4.4-3.5,7.6-9.6,9.4c-4,1.2-5.3-1.7-6.8-4.3c0-0.7-0.1-1.6-0.1-2.5c-0.1-1.8,1.2-3.5,2.9-4c3.5-1.7,3.6-4,1.7-6.7 c-0.4-0.8-0.6-1.9-0.8-3c0.8-3.7,2.6-7,3-10.9c0.5-5.5,7-8.6,12.2-7.1c2.4,0.6,4.9-0.1,6.7-1.8c1.6-1.6,3.6-1.9,4.3-3.1 c-0.7,0.7-2.8,1.4-4.2,2.6c-2.2,1.7-4.3,3.8-7.1,1.7c-3-2-1.1-4.8-0.2-7.2c0.4-0.6,0.5-1,1-1.3c4.9-0.8,9.4-3.6,12.6-7.2 C285.1,184.6,289.4,184.1,292.9,186.4z" class="st74"/><path d="M251,239.2c2.2,3,4.8,3.2,8,1.7c3.2-1.6,4.4-3.8,4.1-7.2c-0.8-8.2,3.4-14.5,8.6-19.9 c2.8-3.1,7.3-4.3,11.4-3.1c0.5,0.5,1.3,0.7,1.6,1.6c2.2,6-4.3,20.9-10.3,23.3c-3.4,1.3-5.9,2-1.6,5.8c1.3,1,1.6,3.1,2.5,4.8 l-1-0.5c-1.1,0.5-2.2,0.4-3.2,0.1c-5.9-1.7-10.3,0.6-14.3,4.9c-3,3.4-5.3,2.8-7-1.7c-0.7-2-2.2-3.7-2.6-5.9c0.1-1.7-1.1-3.7,1-4.7 C249.2,237.1,250.4,238,251,239.2z" class="st75"/><path d="M248.2,242.5c3.5,1.1,4.7,3.6,4.3,7.4c2.6-2.6,5.3-5,8.3-7.3c2.9-2,5.8-3.7,8.6,0.2c0.8,1.1,2.8,1.6,4.3,2.2 c-3,2-8.3,1.6-8.4,7.1c-4.3,2.5-10.3-0.4-14,4.3c-6.1,3-10.4,7.3-11.9,14.3c-7,0.2-10.3,4.6-13.2,10.1c-0.4,4.1-2.5,7.7-4.1,11.3 c-1.4,2.8-3.7,5.4-7.4,5l-0.1,0.1c-3.1,1.6-6.2,4.4-9.4,0.4c-2-2.8-0.6-5.9,3.7-9.1c3.6-2.6,5.4-3.4,9.2-3.6 c-3.2,0-5.6,1.1-9.8,4.1c-1.7,1.2-2.9,3.4-5.2,3.7c-10.9,1.7-16.3-5-12.7-15.6c3.1-8.4,7.4-16.4,13-23.4c3-4.1,4.9-8.2,3.8-13.4 c1.4-3.1,4-3.1,7.1-3.6c8.5-1.4,13.6,5,20.2,8c2,1.8,1.9,3.6,1.1,6.1c-1.4,4.1,0.5,5.6,4.8,4.9c0.7-0.1-0.2-0.7,0.1,0 c0,0.1,0,0.2-0.5,0.4c-4.3,0.1-5.9-1.8-4.3-5.5c1.8-4.4,6.1-5.9,9.6-8.5C246.4,241.3,247.6,241.7,248.2,242.5z" class="st23"/><path d="M204.2,291c2.6-2.9,6-5.2,9.6-6.5c2.2-0.7,4.9-3.2,6.5,0.1c1.4,3-0.8,5.2-3.7,6.6c-1.7-2.2,3-3.5,0.5-5 c-2.2-1.6-3.8,1-5.6,1.9c-1,0.5-1.7,1.4-2.5,1.9c-1.4,1.4-3,2.6-2,4.9c1,2,2.8,1.8,4.7,1.6c1,0.1,2.2,0.1,3.2,0.4 c0.5,5.6-3.6,7.7-8,9c-3.6,1-7.1,2.3-10.1,4.8c-1.8,1.7-3.8,3.4-3,6.1c-0.8,1-2,1.6-3.4,1.4c-3.6-0.6-4.8,1.6-4.8,4.7 c-0.7,0.2-1.7,0.2-2.4,0.5c-2.9-1-4.9,2.6-7.8,1.8c-1.1-0.7-1.8-1.8-2-3.1c1.4-0.6,3.6-0.6,3.5-2.8c-0.1-1.7-2-1.7-3.4-2 c-1.9-0.6-3.7-0.6-5.8-1.2c-2.4-0.5-3.8-1.6-3.2-4.4c1.7-1.8,3.4-0.2,4.6,0c-2-0.7-4.2-1.2-6.4-1c-3.6,0.4-5.2-1.8-3.1-4.9 c1.6-2,1.8-4.7,1.3-7.1c-0.6-2.8,0.7-4.9,3.4-6c2.8-1.3,5.6-4.6,8.8-1.3c3.8,3.8,10.1,4.8,12.6,10.3c0.6,1.4,2.6,2.2,2.8-0.5 c0.2-4.8,3.6-6.1,7.2-7.4C198.7,294,201.7,293.1,204.2,291z" class="st76"/><path d="M214.8,297c4.9-4.8,7.7-11,11.5-16.4c2.4,4.3-1.7,8.2-1,12.4c-0.2,1.6-0.1,3.2,0.5,4.8 C220.5,303.1,218.7,303,214.8,297z" class="st77"/><path d="M195.7,295.9c-1.3,0.7-2.3,1.7-3.4,2.5c-0.6,0.6-1.4,1.2-0.8,2.2c1.1,3.2-0.6,7-4,7.9 c-0.4,0.1-0.6,0.2-1,0.2c-2.3,0.2-2.8-1.3-3-3c-0.6-3.5-1.8-6-6-6.6c-1.2-0.2-2.3-1.7-3.1-2.8c-2.4-3.1-4.8-3.5-8.2-1.4 c-3.5,2-2.6,4-1.3,6.6c2.4,4.3-2,5.2-5.5,8.4c7-1,11.9,0.1,16.6,4.4c-4.7,1.2-7.8-1.7-11.3-2.5c-1.8,0.1-3.7,0.6-5.2,1.7 c-1,2.8-2.3,4.4-5.4,2.5c0.1-0.2,0.1-0.5,0.1-1c-1.3-2.3-0.8-5.3-2.6-7.2c-2-2.2-0.5-4.6-0.8-6.8c1.1-2.8,0-6,0.8-9 c0.8-2.8-1.4-2.4-2.8-1.6c-2.8,1.4-5.3,1.7-8.2,0.2c-1.9-1.2-2.9-2.8-2.3-4.9c1.1-3.4,5.4-3.6,7-7c0.6-1.6,3.1,0.6,4.9,0.8 c1.1,0.4,1.9,1,3,0.6c2.3,0.7,4.7,0.8,7,0.4c2.3-0.6,4.4-1.7,4.6-4.7c0.1-1.7-1-3.2-2.8-3.6c-2.4-0.6-4.6-0.4-6.2,2 c-0.6,0.8-0.5,3.8-2.5,2.3s-1.1-3.7,0.5-5c2.5-2,5.8-2.5,8.8-1.3c2.9,0.6,5,3,5.9,5.9c1,4-2.4,5-5,6.6c-1.7,0.8-4.4,1.2-3,4 c1.3,2.8,3,0.5,4.4-0.1c4.1-1.8,8.2-1.7,11.6,1c4.2,3.1,9.1,4.2,14.2,4.1C194.1,290.5,196,292,195.7,295.9z" class="st37"/><path d="M152.4,300.9c-0.2,2.3-0.6,4.7,1.3,6.4c-0.5,3-2.4,1.9-4.1,1.7c-5.9,1.6-11.9,1-17.4-1.6 c-4-1.7-8.4-3.1-12.8-3.7c-5-1.1-10.1-2.8-13.8-6.7c-0.4-0.4-0.7-0.6-1.3-0.8c-9.7-3.5-17.5-11-21.1-20.6 c-1.7-4.4-8.2-5.8-10.6-10.3c6.5,3.7,14.6,4.9,16.3,14.8c1.1,6.5,6.1,10.6,13.1,12c4-3.7,5-3.7,9.2,0.7c2,6.1,6.4,8.3,13,7.8 c3.8-0.5,8,0.8,11,3.4c2.2,1.7,4.7,3.1,7.4,2c-2.8,0.2-5.3-0.5-5.9-3.5c-0.5-2.8,0.8-4.9,3.4-6 C145.3,293.4,150.1,295.2,152.4,300.9z" class="st56"/><path d="M69.3,254.5c0.8-2.5,1.8-4.9,1.7-7.4c0.6-0.5,1.4-0.1,1.9,0.6c0,0.1,0.1,0.2,0.1,0.4c8.5,2,10.2,3.7,11.4,11 c0.4,2.3,0.5,4.6-2.4,5c-2.9,0.5-4.3-1.3-4.8-3.7c-0.1-1.4-0.2-2.8,0-4.2c0.1-1.6,0.2-3-1.8-3.1c-1.6,0.1-2.8,1.2-2.9,2.6 c-0.6,2.2,0.6,4.7-1,6.7C70.5,259.8,69.9,257.2,69.3,254.5z" class="st78"/><path d="M149.6,309c1.3-0.6,2.8-1.2,4.1-1.7c7,2.4,1.4,5.3,0.4,8.2C151,314.3,150.4,311.4,149.6,309z" class="st43"/><path d="M153.9,316.1c2-0.5,3.7-1.3,5.4-2.5c1.1,3.5-2.4,4.6-3.6,6.8C154.4,319.5,153.9,317.8,153.9,316.1z" class="st43"/><path d="M44.2,247.8c1.7-2.5,3.7-4.7,4.6-7.1c1.1-3.1,2.3-7-3.2-7.3c-2.3-0.4-2.3-1.9-2.3-3.6 c0.1-1.8,0.2-3.8,2.3-4.4s2.3,1,2.8,2.4c0.5,2.3,2.9,2.5,4.2,3.8c5.6,5.4,8,11.3,4.6,19c-2.8-2.3-4.9-1.8-7.2,1.1 c-1.7,2.5-2.9,4.9-4.1,7.4c-3.7-1.1-2.8-4.3-3-7C43.3,250.3,43.8,249,44.2,247.8z" class="st79"/><path d="M290.8,113.3c-2.9,6.4-2,12.5,0.6,18.6c1.7,4.1,3.6,8.2,5.3,12.2c-1.7,1.6-3.4,0.6-4.9-0.4 c-7.3-5.2-15.5-8-23.8-10.8c-11.6-3.8-23.2-7.6-33.7-14.4c-3.4-2-6.6-4.4-9.5-7.1c-7-6.4-14-12.7-21.2-19 c-5.4-4.7-10.2-9.7-13.4-16c-2.2-4.2-5.6-7.4-8.4-11.2c1.4-2.8,1.2-7.1,5.9-7c9.6,0.1,15.8,6.7,21.7,12.8 c5.5,6.2,13.3,10.3,21.6,11.4c7.2,1,13.6,4.8,19.3,8.9c2.4,3.1,5.8,4.9,9.4,6.2c9.1,3.5,18.1,7.4,26.8,12 C288.3,110.8,289.8,111.9,290.8,113.3L290.8,113.3z" class="st11"/><path d="M290.8,113.3c-6,0.5-10.2-3.8-15.4-5.9c-6.7-2.6-13.3-6-19.9-9.2c-2.8-1.2-4.6-3.6-5.2-6.6 c1.8,0.8,3.6,1.8,5.2,2.8c1.2,0.5,2.5,0.8,3.4-0.2c0.8-0.8,0.8-2.5,0-3.4c-0.1-0.2-0.5-0.2-0.5-0.5c-1.7-1.3-3.5-2.5-5.3-3.6 c-3.5-2.4-5.5-5-4.4-9.5c1.9-8.2-2-13.2-10.3-11.5c-4.9,0.8-7.2-0.4-8.9-4.7c-0.7-2.2-2.5-3.8-3.8-5.8c-1.9-4.8,2.2-5.9,4.9-7.3 c10.1,8.4,20.8,16.4,29.6,26.5c8.2,9.2,19.7,15,29.4,22.6c4.7,3.6,9.2,7.2,13.9,10.8c2.3,1.8,4.2,3.7,4,7.2 c-2.8-1.4-5.8-2.9-8.6-4.2C295.6,109.5,292.5,109.7,290.8,113.3z" class="st52"/><path d="M181.9,65.5c3.5-0.5,5.6,1.3,7,4.1c9.4,18.1,26.5,28.9,40.7,42.4c5.9,5.6,13.8,9,21.5,12.1 c11,4.8,23,7,33.8,12.2c4.4,2.2,8.2,5.2,12.2,7.9c1.3,3.1,5.3,6.1,0.1,9.2c-4.1-0.4-8.2-0.6-12.2-1.1c-7.4-4.9-15-9.7-24-12.1 c-10-2.8-18.8-8.2-27.5-13.9c-17.4-11.6-34.2-24.2-48.1-40.2c-1.6-1.7-3.4-3.1-5.3-4.4c-4.4-2.9-8.2-6.6-11.3-10.9 c-1.2-2.3-3.1-4-5.4-5c-1.7-0.7-3.5-2.8-1.3-5.3c5.3,2.3,11.3,2.3,16.2,5.6C179,67.2,180.6,66.7,181.9,65.5z" class="st80"/><path d="M161.7,60.6c7.9,8.2,15.5,16.3,23.4,24.4c12.4,12.4,24.8,24.4,39.6,33.7c14,8.8,28.3,16.8,44,22.4 c6.4,2.4,12.1,5.4,15.7,11.4c-6-1.8-12-4.7-17.5-7.8c-5.3-3.2-7.7-1.9-8.6,4.1c-4.8-2.4-9.2-5.8-12.8-9.6 c-7.3-8.2-17.4-12.6-25.7-19.6c-11.9-10-24.2-19.2-34.4-30.8c-2.2-2.8-4.9-4.8-7.9-6.4c-4.7-2.3-8.6-4.9-10.4-10.2 c-0.8-2.6-3.4-3.6-5.9-4.1s-4.9-1.2-7.1-2c-1.8-3.8-4.9-7-3.7-11.8C153,58.2,158,58.3,161.7,60.6z" class="st81"/><path d="M283.2,169.2c3.4,3.6,9.1,2.9,12.4,6.7c0.4,1.3-0.6,1.6-1.4,1.7c-3.8,1-6.2,3.7-8.8,6.5 c-2.3,2.5-3.7,7-8.8,5.9c-0.5-0.1-0.4-0.5-0.2-0.1c2.3,6.7-5.4,4.4-7.1,7.7l0,0c-6.6,8-14.6,14.8-21.2,22.9 c-1.6,2.2-1.6,3.4,0.8,4.4c2.8,2.5,1.1,5,0.1,7.6c-1,1.4-2.8,1.8-4.4,1.2c-3.5-1.1-6.7-2.9-9.6-4.9c-2.8-2-3.2-7.1-0.4-8.4 c7-3.4,10-10.2,14.8-15.4c0.2-0.4,0.5-0.5,0.8-0.6c3.2-3.4,5.6-7.4,8.8-10.8c2.3-2.5,0.1-5.6,0.6-8.3c1-1.9,2.8-3.4,4.8-3.7 c2.8-0.7,5.3-1.8,7-4.4c1.3-1.9,3.4-2.6,5.5-3c-1.3-1.7-3.4-2.8-4.9-4.1c-3.8-2.3-9.4-2.3-11.2-7.9c0.2-2.5,1.7-2,3.5-1.6 c3.6,1.4,6.8,3.7,10.6,4.9c1.9,0.6,3.7,2,6,1.7C281.5,167.9,282.4,168.6,283.2,169.2z" class="st82"/><path d="M280.5,167.1c-4.8,0.5-8.6-2-12.6-4c-1.9-1-3.7-3-6.4-1.6c-1.6,4.6-5.5,5.9-10,3.2c-1-2.8,0.2-6.1-3.2-7.7 c-4.8-6.8-12.5-8.6-19.1-12.1c-5.5-2.9-10.3-6.7-15.6-10.3c-1.6-1-2.2-2.8-1.7-4.3l0.5-1c13.8,8.9,27.6,17.9,42.5,25.2 C263.5,159,272,162.9,280.5,167.1z" class="st69"/><path d="M206.5,164.3c3.4,2,5.6,5.6,6.1,9.6c0.6,4.8,2.2,8.2,7.6,8.6c1.4,0.2,2.8,1.2,3.1,2.6 c-0.1,0.7-0.6,1.6-1.3,1.9c-3.1,1.4-6.5,0.5-9.6-0.2c-3-0.6-3.7-3.4-3.7-6.2c-0.4-6.6-0.6-7.1-4.4-10.3c1.6,0.8,3,1.9,3.1,3.5 c1.3,7.2,3.7,14.6-1,21.5c-0.5,1-1.2,1.7-1.7,2.8c-2.3,5.9-5.6,9.8-13,8.5c-2.9-0.5-5.3,1.2-5.6,4.6c-0.5,2.4,0.8,4.7,3.2,5.6 c1.7,0.6,3.6,1.2,2.5-1.9c-0.8-2.9-0.6-5.4,2-7.1c2.8-1.7,5.6-0.5,8.2,1.1c2.5,1.4,3,4.1,2,6.6c-1,2.9,0.6,5.2,1.7,7.7 c-2.5,5.6-4.7,11.5-7.6,16.9c-2.8,5-8.2,7-13.8,7.1c-4.3,0.2-8.2-3.1-8.5-7.4c-0.5-4.9,3.4-10.3,7.6-11.2c2.2-0.4,4.3,1,4.7,3.2 c0.1,0.5,0,0.7,0,1.2c0,1.6-1.7,2.4-1.6,4.8c3.5-0.7,4.9-2.8,4.8-5.8c-0.1-3.1-2.9-4.9-6-4.4c-2.4,0.5-4.1,2.3-6.1,3.5 c-4.8,2.8-10.3,2.6-14.2-0.4c-3.5-2.8-5-9.4-3.6-13.8c1.4-4.1,7.2-7.2,11.3-6c1.9,0.4,3.5,2,3.7,4.1c0.5,2.5-1,4.9-3.4,5.6 c-1.1,0.5-2.8,0.5-2.6,2.3c0,0.7,0.7,1.2,1.6,1.3c1.6,0.2,2.9-0.2,3.8-1.4c0.5-0.7,1-1.7,1.3-2.5c1.4-5.5-1.7-14.5-6.6-17.5 c-5.4-3.2-9.6-7.9-13.8-12.7c-0.7-1.6-1.3-3.1-1.9-4.7c-0.2-2.2-0.6-4.3-1.6-6.2c-1.6-5.3-0.5-9.6,3.5-13.8 c4.7-4.8,10.2-8.6,16.2-11.3c6.2-2.9,7.7-3,13,1.7c0.8,0.8,1.8,1.6,2.9,2.3C194.2,162.7,200.8,162.6,206.5,164.3z" class="st83"/><path d="M188.7,160.2c-1-0.7-1.9-1.6-2.8-2.4c-5.3-5-6.6-4.8-13-1.1c-5.4,3-9.2,7.3-13.9,11.2 c-3.7,3.1-4.9,6.4-2.6,10.8c1.2,2.3,2.2,4.6,1.4,7.1c-1.4,4.9-8.4,7.2-12,3.7c-4.8-4.7-5.5-9.5-2.3-15.7c-1,0.6-1,1.7-1.4,2.6 c-1.8,3.2-3.8,3.7-5.8,0.8c-1.9-2.9-3.8-6-5.6-9.1c-1.7-3.1,0.5-6.1,1.8-9c3.2-6.4,6-13.1,6-20.4c0.7-2.9,1.1-5.9,2.2-8.8 c0.8-2.3,1.3-4.9,4.6-5.2c3,3.8,3.2,9.2,6.7,12.8c0.8,2.6-1.4,3.1-2.8,4.2c-2.9,2.4-4.8,5.9-5,9.7c-0.2,2.5,0.4,4.8,2.5,6.4 c1.8,1.6,4.6,1.2,6.4-0.5c-4.9,2.8-9.1,0.5-9-4.9c0-5.4,4.4-11.3,9.5-12.5c6-1.6,10.2,0.5,13.3,6.4c1.7,3.4,3.8,4.6,7.7,4 c6.4-1,12,0.2,15.4,6.5C190.8,158.7,190.9,158.5,188.7,160.2z" class="st84"/><path d="M251.4,155.3c5.9,1.9,3.8,5.2,1.4,8.5c-0.2,3.8-1.6,6.8-5.8,7.7c-2.5,0.5-4.7-0.6-6.6-1.7 c-12.2-6.8-24.4-13.8-35.9-21.6c-3-1.9-5.4-4.2-6.4-7.7c-7.7-7.7-17.8-12.5-25.2-20.8c-1.2-1.4-2.6-2.5-3.7-3.7 c1.4-1.9,2.8-3.7,4-5.6c4.7-6.4,5.8-6.6,11.4-1.1c1.1,1,1.9,2,2.8,3.1c3.2,5.8,8.5,9.2,13.6,13c3.5,2.4,6,4.6,5.4,9.4 c-0.5,3.8,6.5,10.1,11,8.5c7.4-2.3,12.7,2.2,18.6,4.8C241.4,150.7,246.1,153.5,251.4,155.3z" class="st85"/><path d="M198.2,140.7c13.9,9.4,28.1,18.4,42.8,26.4c1.9,1.2,4.3,1.8,6.4,2.8c4.2,0.5,5.5,3.7,6.5,7.1 c-0.2,0.8-0.8,1.6-1.7,1.8c-2.2-0.5-4.3-0.7-6.2,0.5c-4.6,3-8.6,1.6-12.6-1c-10.9-7.2-21.5-15-31.8-23.3 C196.6,150.7,195.1,146.3,198.2,140.7z" class="st86"/><path d="M252.1,178.6l0.6-1.9c5.3-1.2,8.2,1.7,8.5,8.8c3.2,4.2,2.6,7.7-1,11.4c-2.8,2.6-5,5.6-7.4,8.5 c-1.8,0.7-3.5,0.5-4.6-1.2c-2.5-3.7-5.5-4.4-9.2-1.9c-1.1,0.2-2.2-0.5-2.6-1.6c-0.5-1.7,0-3,1.7-3.5c6.7-1.8,9.1-7.1,11-12.8 C249.7,182.1,250.8,180.1,252.1,178.6z" class="st8"/><path d="M145.4,124.8l-4.7,15.6c-3,1.6-1.7,6.8-6.1,7.2c-2.9-0.6-5.4-2.3-7.4-4.3c-1.1-1-2.4-1.6-3.8-1.6 c-3.7-0.5-4.7-2.3-2.8-5.6c2.5-5.2,6.5-9.6,9.7-14.4c1.2-1.7,3.1-3,5.4-1.9c1.4,1.7,3.4,1.6,5.3,1.7 C143.1,121.6,145,122.9,145.4,124.8z" class="st87"/><path d="M188.7,160.2c-0.4-5.9-6.7-10.2-13.3-8.2c-6,2-8.4,0.4-10.2-5c-1.7-4.9-5.9-6.5-10.9-5.3 c-5,1.1-7.8,4.3-8.2,9.4c-0.4,3,0.4,5.9,3.8,5.8c3.2-0.1,3.8-2.6,3.4-5.5c-0.2-1-0.6-2.2,0.8-3.1c2.8,1.9,2.8,4.4,1.7,7.2 c-0.8,2.9-3.7,4.8-6.6,4.6c-3.1,0-4.9-1.8-5.9-4.7c-2-6,1.6-13.3,8.8-18.1c1.9-0.1,4-0.2,5.9-0.4c5.3-0.1,9.6,1.2,12.6,6 c1.3,1.9,3.8,2.2,6.2,2.5c5,0.7,9.6,2.5,12,7.6c3.8,7,11,8.4,17.6,11.3c-4.7-0.4-9.4-0.6-14.2-1.1 C190.8,163.2,188.1,163.5,188.7,160.2z" class="st80"/><path d="M189.1,153c-5-3-10.3-5.2-16.1-4.9c-1.9,0.1-4-0.6-4.8-2.8c-1.6-4.9-5.8-6.5-10.1-8.2 c1.8-0.4,3.6-0.4,4.9-1.9c3.2-4.2,5.3-2,7,1.6c1,2.5,3.6,4.2,6.4,4.1C186.7,141.3,188.4,142.9,189.1,153z" class="st41"/><path d="M135.8,120c-5.3,4.4-8.6,10.3-12.5,15.7c-1.7,2.5-2.8,4.8,2,4.1c1.4-0.1,2.8,0.5,3.6,1.8 c0.1,1.2-0.6,2.4-1.8,2.8c-3.5,0.5-6.8,2.2-10-0.5c-1.8-1.9-2.5-4.8-4.4-6.6c-1.4-1.3-2.8-2.8-1.8-4.9c1-2.2,2.8-2.8,4.8-2.8 c0.6,0,1.4,0.1,2-0.1c4.9-4.4,7.7-10.7,12.7-15c1.6-1.3,3.1-1.8,4.8-1.3s2.4,2,1.4,3.8C136.4,118.1,136.2,119.1,135.8,120z" class="st88"/><path d="M236.4,200.4c0.7,0,1.6-0.1,2.3-0.4c1.6-0.5,3.1-1.3,4.2,0.7c0.7,1.3,0.4,3-0.8,3.7 c-5,4.3-11.2,7.4-17.5,9.4c-2.4,0.6-4.9,0.1-7.2-1.1c-3-1.1-6.6-1.6-6.1-6c0.4-1.1,1.4-2,2.5-2.3c1.4-0.1,2.8-0.1,4.2,0 c3.4,0.4,6-0.6,7.7-3.7c1.7-3.1,0.6-5.9-1.2-8.5c-1.2-1.9-4.2-3.2-2.5-6.4l1.4-0.6c5.6,2.6,8.6,7,8.5,13 C231.9,202.8,233.7,202,236.4,200.4z" class="st50"/><path d="M136.6,117.3c-3.1-5.3-5.5-1.6-7,1.1c-3.1,5.5-7.3,10.2-10.6,15.6c-1.8-2.6-4.1-5.3-1.6-8.8 c2.3-7.3,9.2-9.7,14.3-14.4c3,1.3,6.1,2.3,9.2-0.1C140.7,113.3,139,115.7,136.6,117.3z" class="st89"/><path d="M251.4,155.3c-5.2,0.2-9.7-2.2-14.2-4.6c-3.4-1.7-7-3.1-10.4-4.3c-1.6-0.6-3.4-1.3-4.8-0.1 c-3.4,3.5-5.9,1.6-8.9-0.5c-1.6-1.1-3.5-1.9-5.2-2.8c-3.8-2-7.7-4-4.4-9.4c1.6-2.4-1-3.8-2.6-5.2c-3.1-2.4-6.2-4.7-9.4-7.3 c-2.5-2.3-4.6-4.8-4-8.4c8.2,6,16.3,12.1,24.4,18C224.5,140.1,238.2,147.5,251.4,155.3z" class="st46"/><path d="M117.6,124.9c1.4,2.8,3.6,5.3,1.6,8.8c-1.1,1.9-2,4.2-3.1,0c-0.4-1.1-1-2.2-2.2-1.6c-1.6,0.6-1.2,1.9-0.5,3 c1.3,2.3,2.8,4.6,3.8,6.8c0.5,1.1-0.4,2.6-1.6,2.8c-5.2-0.5-6.2-4.8-8.2-8.3c-1.2-1.6-2.3-3.1-4.3-3.8c0.1-0.4,0.2-0.8,0.5-1.3 c-0.2-3.6,2-4.8,4.9-5.4c1.6-0.4,3.5,0.2,4.3-1.7C114.7,124.7,116.1,124.8,117.6,124.9z" class="st28"/><path d="M113.1,124.3c1.3,2.4,0.5,3.2-1.9,3.1c-3.1-0.1-6,0.5-7.6,3.7C104.1,125.2,105.1,124.6,113.1,124.3z" class="st15"/><path d="M158.6,189.4c6.6,5.2,13.3,10.3,19.7,15.7c2,1.7,3.2,16.2,1.9,18.6c-2.8,5-9.2,5.9-12.5,1.7 c-1.2-1.7-2.2-3.4-1.3-5.5s2.8-2.2,4.6-1.7c1.9,0.5,4,0,3.7-2.6c-0.2-2.6-2.5-2.3-4.3-1.8c-3.4,0.6-6,2.2-6,5.9 c-0.2,4.1,0.2,8.2,4.7,10.1c4.4,1.9,8.9,1.6,12.4-2.3c2.8-3.1,5.8-3.8,9.5-1.8c3.4,1.7,5,3.8,4.8,7.6c-0.6,4.3-2.6,7.4-6.8,8.8 c-2.5,0.7-5.2,1-6.5-2c-1-2.5,0-4.6,2.6-5.8c1-0.5,2.5-0.6,1.8-2c-0.8-1.6-2.3-0.7-3.2,0c-3.1,1.7-4.8,5.3-3.7,8.9 c1,3.6,4,4.6,7.3,4c5.5-1.1,10.6-3.5,11.4-9.8c0.5-4.6,2.9-8.5,6.4-11.2c0.8-1.3,2.8-1.4,4-0.6l0,0c1.1,5.6,1.7,11.4,0.4,17 c3.4,4.1,2.6,7.9-0.6,11.5c-6,7.3-10.9,15.6-14.5,24.4c-4,9.6-1.8,13.2,8.3,14.8l2.2,0.5c-2.5,7.3-3.5,8-8.5,4.9 c-1.7-1.4-3.5-2.8-5.2-4.2c-3.7-1.3-4.8-4-4.3-7.6c0.5-5.4,1.1-10.7,4.2-15.4c1.7-2.6,2.5-5.6,2.4-8.6c-0.2-4-1.8-6.7-5.9-7.9 c-5.9-1.7-11.5-3.8-17.2-6.4c-7.3-3.4-13.6-8.5-19.2-14.5c-13.1-13.7-26.2-27-36.2-43.1c-2.2-3.4-4-7-4.4-10.9 c-0.5-3.1-1.7-5.5-4.9-6.4s-4.6,1.1-5.9,3.4c-0.6,1.1-1.3,1.9-2.6,1.6c-1.6-0.5-1.2-1.9-1-3.2c0.1-0.6,0.4-1.1,0.6-1.6 c3.8-4.9,3.1-9-1.4-13.1c-0.5-0.2-0.4-1.1-0.5-1.6c2.5-2.9,5.3-4.7,9-2.2c0.7,0,1.6-0.1,2.3,0.1c4.8,2.6,8.8,5.5,9.5,11.5 c0.6,4,6,5.5,10.8,3.2c2.6-1.3,4.7-2.2,7.1,0.7c3.6,4.7,3.1,6.4-2.5,7.7c-2.8,0.6-5.2,1.9-7,4.1c-2.3,2.4-3,5.9-1.9,9 c1,2.9,3.6,4.7,8.2,4.8c-7.8-1.3-10.3-5.2-7.6-11.2c2.3-5,6.6-6.8,11.8-7c4.3-0.1,6.5,2.8,8.6,5.9c2.8,4,3.8,7.3,0.6,12 c-2.8,3.7-0.6,7.7,2.3,10.8c3,3.5,6.2,2.8,9.7,1.1c-5.9,2.4-8.2,1.7-11.5-3.2c-2.5-3.8-1.9-9.6,1.4-12.5c0.4-0.4,0.8-0.7,1.3-0.7 C150.7,191.5,154.4,189.5,158.6,189.4z" class="st74"/><path d="M108.9,294.3c-1.6-3.5-4.3-2.8-7.2-2.8c-0.5-2-2-2.8-3.6-3.7c-7.8-5.2-9.8-14.2-5.2-22.3 c3.4-5.3,8.2-1.3,12.5-1.8c0.8-0.1,1.8,1,3,0.6c4.7,1.9,9.2,4.3,12.7,7.9c4.9,4.8,10,6.6,16.3,3.8c1.1-0.5,2.4-0.2,3.2,0.7 c0.6,1,0.5,2.3-0.5,3c-2.9,2.8-3.1,5.9-1.8,9.7c1.1,3.7-1.4,8.2-5.9,10.7c-5.6,2.9-17.5,1.4-22.2-2.8 C109.3,296.2,108.7,295.5,108.9,294.3z" class="st33"/><path d="M108.9,294.3c7.8,7.7,18.1,8,24.7,1.1c2.4-2.4,3-4.9,1.8-8.3c-2.8-7.2-2.8-7.4,4.9-10 c1.6-1.6,2.8,1.2,4.2,0.4l8.3,3c-1.9-0.1-3.8-0.5-5.9-0.5c0.7,6.8,0.1,7.3-7,6.5c2,3.7,4.3,4,7.8,1.1c2-1.7,3.6-3.7,6.4-1.6 c2.8,2.2,1.7,4.8,0.1,7c-1.6,2.3-1.4,5-2.2,7.7c-2.3-1.3-4.6-3.1-7.3-3.1c-2.4,0-4.8,0.4-6,2.9c-0.5,0.8-0.2,1.8,0.6,2.4 c0,0,0,0,0.1,0.1c0.8,0.6,1.3-0.2,1.6-0.8c1.1-2.8,3-2.8,5.3-1.8c1.7,0.5,2.6,2,2.2,3.8l-0.1,0.1c-0.6,2.3-2.3,3.8-4.6,4 c-3.6,0.5-7.4,0.6-10.3-1.8c-4.2-3.6-8.8-4.6-13.9-4.2c-4,0.4-7.3-1.8-10.3-4.2C108.4,296.7,107.5,295.6,108.9,294.3z" class="st90"/><path d="M108.4,264.1c-4.9,2.2-10.3-0.8-15.5,1.3c-0.6-3.7,1.6-4.2,4.6-4.1c6.8,0.1,8.2-2,5.5-8.4 c-1.2-2.9-3.4-5.2-6.2-6.5c-1.6-0.8-3.7-0.4-4.7,1.2c0,0.2-0.2,0.5-0.4,0.5c-0.8,2.2-0.4,3.8,2.4,4.3c1.4,0.2,3.2,0.5,2.5,2.5 c-0.6,1.7-2.5,1.3-3.8,0.8c-2.2-0.6-3.1-2.4-3.4-4.4c-0.4-3-0.6-6.1-2.8-8.5c-0.5-0.6-1.3-1.9-0.5-2.4c4.7-3.1,3.2-8.9,5.9-13 c1.6-2.6,3.6-4.1,6.6-3.7c4.1,0.6,6,3.6,7,7.3c0.6,2.8-0.2,5-2.6,6.5c-1.3,0.7-3.2,1.6-4.3-0.2s0.7-2.5,2.2-2.8 c1.7-0.4,2.8-1.8,2.5-3.6l0,0c-0.1-1.9-1.4-3.8-3.4-4.4c-1.6-0.7-3.7-0.2-4.9,1.2c-3.4,3.4-3.7,8.5-0.8,12.5 c3.1,4.7,7.4,6,11.9,3.7c3.7-2,6.7-0.6,9.4,1.6c2.8,2.3,4.7,4.9,3.6,9c-0.4,1.8-1.8,3.1-3.8,3.4c-1.3,0.1-2.5-0.5-2.9-1.8 c-0.8-1.9,0.1-2.9,1.7-3.7c2-1.1,1.4-2.8,0.5-4c-1-1.9-3.2-3-5.5-2.6c-2.2,0.4-4,1.9-3.5,4.2C106.4,254.4,105.8,259.7,108.4,264.1 z" class="st19"/><path d="M72.9,247.9l-1.9-0.6c-1.3-1.6-2.2-3.7-3.6-5.4c-2.4-3-0.6-7.1,2.4-10c2.4-3.5,4.8-1.9,7.3-0.1 c-0.6-2.5-2.8-4.1-3.8-6c-1.2-1.9-3-4.3-0.1-6.6c0.5-1,0.6-1.9,1.3-3.1c0.6,0.4,1.3,0.5,1.8,1c1.7,2.3,4.3,3.5,6.1,5.5 c3.6,8,1.9,15.8-4.7,21.1C76,244.9,74.6,246.5,72.9,247.9z" class="st19"/><path d="M144.8,277.5c-1.6,0.6-2.9,0-4.2-0.4c-1.1-0.4-2.2-0.8-3.2-1.3c2.6-2.9,4.4-6,1.4-9.5 c-2.2-2.5-4.9-3.7-8.2-2.3c-3.6,1.7-1.8,4.6-0.8,7.6c-3.6-1-4.7-3.1-4.3-6c0.4-2.9,2.2-4.3,5.2-4.7c5.9-0.6,11.2,3.5,11.9,9.2 c0.1,0.2,0.1,0.5,0,0.6C142.8,273.1,142,275.9,144.8,277.5z" class="st61"/><path d="M82.3,222.4c-2.9-0.7-5.9-1.8-6.1-5.5C79,217.7,81.4,219.4,82.3,222.4z" class="st15"/><path d="M104.4,155.8c-0.2-0.4-0.5-0.7-0.7-1.1c1.2-4.1,2.6-8.2,0.7-12.5c-0.7-1.8,0.4-3.5,2.8-3.8 c2.8,1,3.4,3.8,5,5.9c1.8,2.4,2.5,0.5,3.6-0.6c0.6-0.5,1.3-1.1,1.8-1.7c3.1,1.6,6.4,1,9.6,1.3c1.7,2.6,5.9,2.5,6.8,5.9 c0.1,2.8-2.2,3.4-4,4.4c-3.5,1.8-5.6,4.2-5.5,8.4c0.1,3.5-1,6.7-5.2,6.8s-6-2.6-6.6-6.1C111.8,157.8,108.9,155.4,104.4,155.8z" class="st57"/><path d="M115.4,143.8c0.5,1.8,1.6,3.6,3,4.8c1,0.7,1.2,2,0.6,3c-0.1,0.1-0.2,0.1-0.2,0.5c-0.6,0.8-2.2,1.6-2.8,0.5 c-2.8-4.9-10.2-6.7-9.1-14c0.2-0.6,0.5-1.3,0.8-1.9C111.7,137.5,113,141.1,115.4,143.8z" class="st91"/><path d="M73,219.1c0.6,3.2,2.6,5.9,4.8,8.2c2.3,2.3,3.1,4.7,1.9,7.7c-0.8,1.9-1,4.9-3.5,4.9c-3-0.2-1.4-3-1.6-4.8 c-0.4-3.4-3-3-5.3-3.2c-1.9-1.9-3.7-4-3.8-6.8c-0.4-2.3-1.8-3.5-3.7-4.1C65.1,215.7,69.1,218.3,73,219.1z" class="st15"/><path d="M61.2,235.2c-1.1-2.2-1.9-4.4-3-6.6c2.8,0.5,0.7-4.2,3.5-3.2c2.2,0.6,2.9,3,3,5.2 C64.6,232.9,64.3,235.2,61.2,235.2z" class="st15"/><path d="M269.5,197.4c0-0.2,0.1-0.2,0.4-0.5c5-5.6,5-5.6-0.2-10c0.4-0.2,0.5-0.5,0.7-0.5c6.4,3.2,10.7,1.1,13.6-4.9 c2.6-5,5.9-7.9,11.8-5.9c0.1,3.8-4.8,6.2-2.8,10.4c-3.7,0-7.4,1.4-10.1,4.1C279.1,194.7,274.5,196.5,269.5,197.4z" class="st20"/><path d="M175.5,325.6c1.2-1.1,2.3-2.2,3.4-3.2c2.8-2.9,3.7-1.4,4.4,1.6C181.2,326.3,178.8,328.1,175.5,325.6z" class="st92"/><path d="M209,239.9c-2.5-5.4-4.1-10.7-0.8-16.3c-1.6-1.9-1-3.6,0.6-5.2c2.8-2.9,5.6-5.9,9.7-7.2 c9.4,2.3,15.7-4.1,22.2-8.6c2.8-1.8-1-1.7-1.8-2.4c5.6-3.6,7.8-3.1,11.6,2.4c0.8,1,1.6,1.8,2.5,2.6c-3.7,4.8-7.2,9.6-11.2,14.4 c-1.3,1.6-2,4.1-4.9,3c-0.8-0.4-1.3,0.2-1.4,1c-0.1,1.3,0.5,2.5,1.7,3.1c3.5,1.9,7,3.7,10.3,5.4c1.7-1.2,1.8-3.1,2.3-5 c0.2-1.6,0.7-2.8,2.5-2.8c3.7,2.9,0.7,6.5,1,9.8c-0.2,1.2-0.5,2.3-1.6,3c-0.2,0.7-0.5,1.3-0.6,2c-3.7-0.8-2.2,2.2-2.6,3.5 c-0.7,0.2-1.7,0.2-2.4,0.5c-2.4,0.2-4,1.6-6,2.8c-1.7,1.2-3.6,1.6-5.6,0.8c-3.8,0-7.3-1.8-9.5-5c-0.5-0.7-1.8-1.9-2.5-1.8 C217.8,240.6,213.3,238.1,209,239.9z" class="st83"/><path d="M246.4,225.9c-1.7,0-5.5,1.2-2.8-2.3c7.6-9.6,15.2-19.4,25.8-26.2c-0.5,1.8-1.7,4,0.5,5.3 c1.8,1.2,3.4-0.5,4.8-1.6c2.9-1.6,5.5-4,9.2-4.2c1.7-0.1,4-0.5,4.3,1.8c0.4,2.3-2,1.9-3.6,1.9c-2.6,0.2-5.4-0.2-7.3,2.3 c0.2,0.4,0.4,0.7,0.5,1c1.4,0.8,3.8-0.5,4.4,1.9c0,0.6-0.5,1.2-1,1.6c-2,0.7-4.3,1.7-6.1,0.1c-3.6-3-7.9-1-11.8-1.2 c-2.9-0.1-5.3,3.6-5,7.2c0.2,3.7-1.3,6.6-2.9,9.5C251.7,221.7,249.2,224.7,246.4,225.9z" class="st20"/><path d="M246.4,225.9c1-1.6,1.8-2.9,2.9-4.3c1.4-1.7,2.5-4.9,4.9-4.1c3,0.8,0,4.1,1.1,6c0.2,0.7,0.4,1.6,0.5,2.4 c-0.2,0.1-0.5,0.4-0.6,0.5c-1,0.2-2.2-0.4-2.5-1.3c-2.8,1.7-2.6,5.5-5,7.2C248.6,229.7,249.7,227.4,246.4,225.9z" class="st93"/><path d="M251.6,237c0.4-1.1,0.6-2.2,1.1-3.4c-0.1-3.1,0.2-5.8,2.8-7.8l0.5-0.1c0.8,1.2,2,2.5,2.9,3.7 c1.4,1.7,1.7,3.6-1.1,3.7C254.7,233.3,253.4,235.6,251.6,237z" class="st75"/><path d="M234.3,246.7c3.7-1.7,6.8-5.3,11.6-3.7c-2.2,1.8-4.6,3.7-6.4,5.8c-1.3,1.4-3.1,3.4-1,5 c1.8,1.7,3.1-0.6,4.1-2c0.5-0.5,1.2-1,1.7-1.4c0.5,3.7-1.4,5.4-3.7,6.6c-1.8,1.1-3.8,1.3-5.5-0.2c-1.8-1.6-1.8-3.7-1.2-5.9 C234.1,249.5,234.2,247.9,234.3,246.7z" class="st93"/><path d="M261.3,185.3c-3.1-2.8-4.4-7.1-8.5-8.8c-3.4-1-4.1-4.4-5.5-7c1.8-1.9,3.7-3.7,5.6-5.8c3-0.2,5.9-1.1,8.9-2.5 c3.7,3.4,9.1,3.4,12.7,6.7c-2.2,2.9-2.6,6.6-1.6,10C270.6,183.1,265.5,183.5,261.3,185.3z" class="st16"/><path d="M273.1,178.1c-2.8-1.3-4.8-3-4.1-6.5c0.6-3.6,1.8-5.2,5.5-3.4c3.6,2.2,5.8,5.6,8,9.8 C279,177.4,275.8,175.2,273.1,178.1z" class="st21"/><path d="M218.4,211.2c-2,5.3-7.7,7.6-10.3,12.4c-1.1,0-2.3-0.1-3.2,0c-3.8-1.1-5.4-3.1-3.2-7.1 c1.8-3.6,0.4-5.9-3.6-6.7c-1.7-0.2-2.9,0.2-3.2,1.9c-0.4,1.7,1,1.7,2.4,2c4,0.6,2.2,3,0.8,4.6c-2.6,3.2-5.9,3-9.1,1.6 c-4.1-1.9-6-5-5.3-9.5c0.6-3.7,2.6-6.4,6.6-6.6c1.8,0.1,3.6,0.1,5.4,0.5c1.6,0,3.1,0.1,3.8-1.3c4.6-7.7,9.2-15.4,7.9-25.1 c-0.5-3.8-3.2-5.3-6.5-6.6c-2.2-0.7-4.9-1.9-3.4-4.9c1.6-2.6,4.2-1.3,6.1,0.1c3.4,2.4,6.5,5.3,6.2,9.6c-0.5,6.7,2.9,9,9,9.1 c1.1,0.2,2.2,0.4,3.2,0.7c1.2,1.2,2.8,2.4,3.8,3.7c4.1,4.4,4.8,9.8,2,13.8c-3.1,4.7-7.1,5.4-13.2,2.9c-2-1.8-1.8-3.8-0.6-6 c-1.2,1.9-0.5,4.6-1.7,6.5C213.3,209.5,216,210.1,218.4,211.2z" class="st23"/><path d="M104.4,155.8c4.9-1.9,7.6,0.1,8.6,4.9c0.4,1.8,0.6,3.7,2.4,4.7c2.8,1.9,7,0.4,6.2-2.6 c-2-8.6,4.2-10.1,9.6-12.5c0.7-0.4,1.2-0.7,1.8-1.1c-0.6-1.8,0.6-2.3,2-2.6c0.4-3.6,1.1-6.5,5.8-6c0.7,6.6-1.9,12.5-4.4,17.9 c-4.2,9.2-4.1,10.8,3.6,18.5c0.8-1.7,1.9-3.2,3.2-4.7c2.3-2.3,5-2.8,7.3,0c1,1.2,0.8,2.9-0.2,4c-1.1,1.2-1.8,0.4-2.5-0.5 c-2.6-3.1-3.8-0.6-4.3,1.6c-1,4.4,0.4,8.3,4.2,10.7s7.1,0.6,10.1-2.4c1,1,1.3,2.5,0.7,3.7c-2.8,2.2-5.8,2.8-9.1,3 c-3.2,0.4-5.5,1.9-6,5.2c-0.6,3.5,0.8,7.1,4,8.9c3.4,2.2,6.5,0.5,7.3-3.7c0.2-1.2-0.4-3,1.6-2.8c1.8,0.2,1.8,1.9,1.8,3.5 c0,4.4-3.8,7.4-8.5,6.6c-6.5-1.1-10.2-7.9-8-14.4c2.5-7.1,1.4-10.3-4.8-14.5c-2.6-2-6.2-2.3-9-0.2c-3.2,1.9-5,5-4.8,9.1 c0,2.2,1.6,3.8,3.7,4.1c4.2,0.7,3-3.6,5-5.6c1.7,1.6,1.9,4.2,0.4,5.9c-0.1,0.1-0.2,0.1-0.2,0.4c-1.8,2-3.8,3.2-6.7,1.8 c-6.2-2.8-7.6-10.4-2.6-15.7c2.3-2.3,5.4-3.7,8.6-4.2c1.8-0.4,3.2-1.2,2.3-3.2c-0.7-1.8-2.2-3-4.2-2c-0.7,0.4-1.3,0.6-1.8,1.1 c-7.9,3.6-12,2-14.3-6.1C111.9,161.5,108.8,157.7,104.4,155.8z" class="st3"/><path d="M179,190.3c-1.7,3-2.2,9.2-7.8,5.5c-3.7-2.8-6.8-7.3-8.5-11.6c-1.3-3.1,1.3-7.3,4.8-7.8 c3.1-0.5,7.9-0.5,8.6,4.9c0.1,0.8,0.5,2.4,0.8,2.4C182.8,184.6,179.5,187.8,179,190.3z" class="st94"/><path d="M179.8,194.1c1.2-3.8,4-5.5,8.2-4.2c3,1,3.6,3.2,2.5,6c-1.8,4.9-5.9,8.4-9,7.1 C177.3,201,178.4,197.5,179.8,194.1z" class="st8"/><path d="M135.1,146.4c-0.6,0.8-1.4,1.7-2,2.6c-1-0.5-2-0.6-3.1-0.6c-5.5,0.7-4.7-1.8-2.9-5c0.6-0.5,1.2-1.1,1.8-1.6 C130.9,143.3,132.9,144.9,135.1,146.4z" class="st95"/><path d="M212.2,206.5c-1.2-6,1.1-10.6,5.5-10.8c1.6-0.1,3.1,0.1,3.6,1.8c0.5,2.2-1.2,2.2-2.8,2.2 c-4.4,0.2-3.4,3.7-3.8,6.4C213.8,206.3,213.1,206.4,212.2,206.5z" class="st83"/><path d="M232.3,220.1c-0.6,1.2-1.1,3-2.6,1.9c-2-1.4-2.3-3.6-1.4-5.8c0.5-1.2,1.4-2.6,2.8-1.8 C233.6,215.7,232.6,218.2,232.3,220.1z" class="st24"/><path d="M255.4,225.9l-2.8,7.8c-2-3,0-5.9,0-8.9L255.4,225.9z" class="st96"/></g></g></svg>