<?xml version="1.0" encoding="utf-8"?>
<!-- Generator: Adobe Illustrator 23.0.6, SVG Export Plug-In . SVG Version: 6.00 Build 0)  -->
<svg version="1.1" id="Layer_1" xmlns="http://www.w3.org/2000/svg" xmlns:xlink="http://www.w3.org/1999/xlink" x="0px" y="0px"
	 viewBox="0 0 760.9 747.3" style="enable-background:new 0 0 760.9 747.3;" xml:space="preserve">
<style type="text/css">
	.st0{fill:#111111;}
	.st1{fill:#1A1A1A;}
	.st2{fill:#3C3C3C;}
	.st3{fill:#282828;}
	.st4{fill:#161616;}
	.st5{fill:#232323;}
	.st6{fill:#505050;}
	.st7{fill:#2C2C2C;}
	.st8{fill:#535353;}
	.st9{fill:#3D3D3D;}
	.st10{fill:#7B7B7B;}
	.st11{fill:#2B2B2B;}
	.st12{fill:#242424;}
	.st13{fill:#575757;}
	.st14{fill:#777777;}
	.st15{fill:#E3E3E3;}
	.st16{fill:#272727;}
	.st17{fill:#4B4B4B;}
	.st18{fill:#E8E8E8;}
	.st19{fill:#303030;}
	.st20{fill:#E1E1E1;}
	.st21{fill:#E9E9E9;}
	.st22{fill:#323232;}
	.st23{fill:#4A4A4A;}
	.st24{fill:#D3D3D3;}
	.st25{fill:#6E6E6E;}
	.st26{fill:#ABABAB;}
	.st27{fill:#4E4E4E;}
	.st28{fill:#5E5E5E;}
	.st29{fill:#666666;}
	.st30{fill:#404040;}
	.st31{fill:#AAAAAA;}
	.st32{fill:#7A7A7A;}
	.st33{fill:#757575;}
	.st34{fill:#383838;}
	.st35{fill:#151515;}
	.st36{fill:#181818;}
	.st37{fill:#848484;}
	.st38{fill:#141414;}
	.st39{fill:#202020;}
	.st40{fill:#292929;}
	.st41{fill:#B9B9B9;}
	.st42{fill:#A8A8A8;}
	.st43{fill:#818181;}
	.st44{fill:#C4C4C4;}
	.st45{fill:#101010;}
	.st46{fill:#121212;}
	.st47{fill:#1B1B1B;}
	.st48{fill:#252525;}
	.st49{fill:#353535;}
	.st50{fill:#393939;}
	.st51{fill:#2F2F2F;}
	.st52{fill:#171717;}
	.st53{fill:#424242;}
	.st54{fill:#5C5C5C;}
	.st55{fill:#343434;}
	.st56{fill:#2A2A2A;}
	.st57{fill:#2E2E2E;}
	.st58{fill:#222222;}
	.st59{fill:#1F1F1F;}
	.st60{fill:#F5F5F5;}
	.st61{fill:#E6E6E6;}
	.st62{fill:#606060;}
	.st63{fill:#F6F6F6;}
	.st64{fill:#FBFBFB;}
	.st65{fill:#434343;}
	.st66{fill:#EEEEEE;}
	.st67{fill:#DFDFDF;}
	.st68{fill:#838383;}
	.st69{fill:#BFBFBF;}
	.st70{fill:#DEDEDE;}
	.st71{fill:#333333;}
	.st72{fill:#DBDBDB;}
	.st73{fill:#E0E0E0;}
	.st74{fill:#CFCFCF;}
	.st75{fill:#C6C6C6;}
	.st76{fill:#EAEAEA;}
	.st77{fill:#363636;}
	.st78{fill:#F0F0F0;}
	.st79{fill:#EDEDED;}
</style>
<title>zr</title>
<g>
	<g id="Layer_1-2">
		<path class="st0" d="M577.7,143.8c0.5-0.8,0.9-1.7,1.4-2.5c0.1-0.7,0.1-1.4,0.2-2.1c2.3-4.1,6.5-5.9,10.2-8.3
			c2.2-0.3,4.2-1.3,5.7-2.8c7.9-7.4,15.3-15.3,22.1-23.7c3.9-4.9,7.4-9.9,12.2-13.9c3.4-0.7,5.8-2.8,8.1-5.3
			c1.2-1.3,2.4-2.7,4.2-3.2c4.1,0.3,6.3-2.1,7.1-5.6c1.5-6.2,7.1-9.3,10.5-13.9c1.8-2.5,5.8,0,8.9-1.2c2.5-1,5.4-1.2,8.1-2.3
			c5.6-2.3,11-0.1,13.6,5.4c0.8,1.7,1.7,2,3.3,2.3c4.9,0.9,7.5,5.6,5.9,10.5c-1.4,4-2.1,8.5-7,10.2c-1.4,0.5-1.5,2.4-1.8,3.9
			c-1.4,6.2-2.7,7.2-8.6,8.4c-4.6,0.9-9.2,1.4-13.8,1.6c-2.2,0.2-2.7,0.8-1.8,2.7c2.5,5.1,0.7,10.1-0.4,15.1
			c-0.9,4.9-2,9.7-3.4,14.4c-3.7,4.9-8.5,8.7-12.6,13.2c-1.1,1.2-2.7,2.1-2.6,4c0.3,7.6-5.6,9-10.9,11c-3.1-2.2-6.2-1.1-9.2,0.2
			c-2.7,1.2-4.9,3.4-8.1,3.8c-1.4,0.2-1.7,1.4-1.8,2.6c-0.5,3.3-2.5,5.1-5.8,4.9s-3.1,1.3-2.3,3.5c2.1,5.5-0.3,10.7-5.9,12.8
			c-1.1,0.5-2.3,0.4-3.3-0.3c-3.4-2.6-7.6-4-10.1-8c-1.9-3.1-5.2-4.6-8.6-5.7c-2.7-0.9-4.9-2.2-5.2-5.3c-0.3-2.4-2.5-3.4-3.7-5.1
			c-0.9-2.4-1.6-5-3.4-6.9c-0.4-3.5,3.4-5.5,3.2-8.9C573,146.6,575.9,145.8,577.7,143.8z"/>
		<path class="st1" d="M38.7,656.4c-0.6-1-1.3-2-1.9-2.9c-5.7-10.6-12.2-20.8-16.4-32.1c-3.7-9-7.3-18-9.5-27.4
			c-0.3-1.9-0.6-3.8,1.7-4.5c1.7-0.6,3.6,0.2,4.2,1.9c0.1,0.2,0.2,0.5,0.2,0.7c0.9,4,4.6,5.3,6.9,7.9c3.2,8.1,6.4,16.3,10.1,24.3
			c6,13.3,13.9,25.6,23.4,36.7c1.4,1.6,1.5,3.7,2.9,5.1c7.3,6.5,13.4,14.3,21,20.5c19.9,16.3,41.4,30,66,38.4c3.4,1.5,6.9,2.8,9.3,6
			c-1.8,2.9-0.8,4.3,2.3,5.2c9.1,2.5,18.5,4.3,27.9,5.3c3.1,0.4,5.4-1.1,7.3-3.4c2-0.5,4.1-0.1,6.1-0.5c1.8-0.2,3.5-1.2,5.4-0.5
			c1.8,1.1,5.1,0.4,5,4c-0.3,1.4-1.7,2.4-3.2,2.1c20.6-0.1,41.1-1.1,61.4-5.5c3.9-0.9,7.9-1.7,11.2-4.1c4.3-3.1,9.2-2.1,13.9-3.1
			c1-0.1,2,0.5,2.5,1.4c0.3,0.5,0.2,1-0.2,1.4c-33.5,12.9-68.2,15.8-103.7,13.1c-39.9-3-74.4-19.1-106.4-41.9
			c-3.8-2.7-7.2-5.1-12.2-4.2c-2.7,0.5-5.2-0.8-7.1-2.9c-5.2-5.4-10.4-10.8-15.6-16.1c-1.6-2.4-3.5-4.5-5.8-6.2
			c-4.2-3.4-5.6-7.7-4.5-12.9C41.2,660,40.3,657.9,38.7,656.4z"/>
		<path class="st2" d="M39.9,407.2c11.1-15.9,24.2-30.4,39-43c21.7-17.3,46.3-30.7,72.6-39.4c19-6.4,38.9-9.9,59-10.6
			c30.1-1,58.7,5.4,86.6,16c10.4,3.7,20.5,8.4,30,14c0.3,0.5,0.3,1,0,1.5c-4.9,2.2-9.1-0.8-13-2.6c-13.5-6.2-27.1-11.7-41.7-14.8
			c-6.3-1.3-12.5-3.2-18.9-4.3c-1.8-0.3-3.6-0.8-5.4-0.3c-8.7,2-17.4,1.1-26.2,0.1c-3.2-0.4-6.3,0.8-9.4,0.4
			c-4.6-2.8-10.3-3.2-15.3-1c-4.5,1.1-9.2,1.5-13.8,1.4c-4.2,0-8.2,1-12.3,1.9c-5.5,1.4-11.3,1.5-16.5,4.2c-3.7,1.5-7,4-10.9,5.1
			c-18.4,7.1-35.2,16.8-51.6,27.8c-12.1,8.1-21.9,18.2-31.8,28.5c-0.2,0.2-0.6,0.5-0.6,0.8c-3.2,10.4-13.8,14.7-18.8,23.8
			c-3.5,6.3-7.6,12.5-11.7,18.5c-2.5,3.5-3.7,3.6-5.7,0C27.7,425.2,33.8,416.2,39.9,407.2z"/>
		<path class="st3" d="M579.9,140.4c-0.3,0.3-0.5,0.6-0.8,0.9c-5.5-7.3-13.9-10.8-20.9-16.3c-2.1-1.6-4.3-3.1-6.4-4.6
			c-0.6-0.7-1.6-1.2-1.1-2.4c1.7-1.7,3.2-0.8,4.9,0.1c4,2.1,8.1,3.8,10.9,7.5c0.8,1,2.2,1.6,3.1,2.5c3.9,3.8,8.2,4.5,12.3,1.9
			c-3,0.2-5.2-2.5-7.7-4.4c-3.4-2.6-6.5-5.6-11.5-4.7c-2.2,0.4-4.2-1.4-6.1-2.9c-13.7-10.7-27.3-21.7-41.2-32.3
			c-2.5-1.9-5-3.8-6.5-6.7c1.4-5.2,5.8-8.4,9.2-12c2.5-2.6,5.4,0.5,7.7,2.4c20.3,19.3,40.7,38.6,61,57.9c4.2,2.7,4.2,2.7,0.6,6
			C584.9,135.7,582.7,138.4,579.9,140.4z"/>
		<path class="st4" d="M509.9,79.3c9.4,5.1,17.4,12.1,25.5,19.1c7.9,6.8,17.3,11.9,24.7,19.3c0.8,0.8,2.4,2.5,2.7-0.9
			c0.1-1.7,1.8,0,2.8,0.3c6.3,2.3,10.7,7.6,16.3,11.1c0.6-2-2.1-2.3-1.4-4.4c2,2.1,5.5,3.2,3.3,6.8c-3.2,5.2-6,6.1-9.8,3.4
			c-4.5-3.1-9-6-12.9-10.1c-2.5-2.7-6.8-3.7-10.3-5.5c-3.8-0.2-5.8-3.6-9-4.9c-9.3-6.7-18.6-13.3-28-20c-2.4-3.2-7.1-4.2-8.4-8.6
			C505.5,81.9,506.5,79.6,509.9,79.3z"/>
		<path class="st5" d="M635.9,160.2c2.2-1.4,3.8-3.6,6.7-3.9c1.2-0.1,2.2-1,2.4-2.2c1-8.3,8.3-11.9,13-17.4c0.9-1.1,1.9-2.3,2.9-3.4
			c3.3-6.3,7-12.4,15-13.6c0.7-0.1,1.4-0.9,2-1.4c2.1-0.8,2.6-3.9,5.4-3.7c1,0.2,1.8,1.1,2,2.1c0.5,1.9-1,2.8-2,4
			c-1.4,1.6-2.7,3.4-0.7,5.5c3.1,5.4,8,9.3,12,13.9c12.1,14,25.5,27,38.7,40c2.4,2.6,5.4,4.5,8.7,5.6c0.6,0.6,0.8,1.4,0.7,2.2
			c-0.9,2.5-2.6,2.7-4.7,1.4c-18.3-16.6-34.5-35.3-51.3-53.3c-3.1-3.3-6.2-6.5-9.3-9.8c-1.9-2.1-3.7-2.4-5.9-0.2
			c-7.2,7.4-14.6,14.7-21.9,21.9c-3.9,3.9-1.1,7.1,1.3,10c4.7,5.4,9.7,10.6,14.5,15.8l39.3,42.6c1.2,1.1,2.3,2.3,3.2,3.6
			c1.3,2.2,2,4.6-1.2,6c-1.9,0.2-3.1-1.3-4.1-2.5c-13.8-17.4-29.7-32.9-43.7-50.2c-2.4-2.9-4.2-6.3-7.2-8.8
			c-1.7-1.7-3.2-4.5-6.1-2.1c-2.6,2.2-1.5,4.7,0,7.1c4.5,6.7,8.8,13.6,13.4,20.2c1.5,2.1,3.7,4.2,0.9,6.9c-0.4,0.2-0.9,0.1-1.3-0.2
			c-6.2-9.2-12.4-18.5-18.5-27.7c-4.1-6.3-5.2-6.5-10.4-1.3c-8.3,8.4-16.5,16.8-24.8,25.2c-0.4,0.3-0.9,0.3-1.4,0.1
			c-1.5-2,0.1-3.4,1.1-4.6c6.9-7.8,13.8-15.5,20.9-23.1C628.4,162,631.6,159.7,635.9,160.2z"/>
		<path class="st6" d="M603.9,192.3c0.4,0.1,0.8,0.1,1.3,0.2c-3.9,6.8-10.9,10.6-15.8,16.4c-0.6,0.6-1.4,1-2.2,1
			c-7.4-0.3-11.8,4.5-16.5,9.1c-47,46.7-94,93.4-141,140.2c-11.7,11.6-23.5,23.1-35.3,34.6c-2.6,2.5-4.3,5-2.4,8.6
			c-1.7,1.1-2.6,0.1-3.3-1.3c-0.8-4.6,0.1-8.6,3.9-11.6c4.7-4.5,9.4-8.9,14.3-13.2c3.4-4.5,7.5-8.5,12.1-11.8
			c3.4-2.3,4.9-6.1,7.7-8.9c6.3-6.1,13-11.9,18.3-19c5.1-3.7,9.6-8.1,13.3-13.2c11-9.2,22.4-17.9,31.7-29c2.7-3.2,6.4-5.7,8.2-9.8
			c8.4-6.1,15.4-13.8,22.9-20.9c18.9-17.7,37.2-36.1,55.4-54.4c8.6-2.8,16.3-7.9,22.4-14.6C600.1,193.1,601.6,191.6,603.9,192.3z"/>
		<path class="st7" d="M580.8,15.5c16.8,24,31.7,49.2,48.2,73.5c0.3,0.4,0.4,0.9,0.2,1.4c-0.4,0.3-0.8,0.5-1.3,0.6
			c-2.7-0.5-4-2.8-5.4-4.8c-2.4-3.4-4.4-7.1-7.9-9.6c-1.6-1.1-1.8-3.1-2.3-4.8c-0.8-2.9-2.4-5.7-5.3-6.1c-5.9-0.9-7.9-5.5-10.6-9.6
			c-4-7.8-10.1-14.2-14.9-21.4c-3.3-5-7.1-9.6-11.3-13.8C573,15.5,576.6,13.7,580.8,15.5z"/>
		<path class="st8" d="M395.1,408c3,0.7,3.8,3.6,5.2,5.7c32.4,50.4,41.1,105.1,28.8,163.4c-6.6,31.2-18.4,60.2-37.8,85.8
			c-1,1.3-1.8,2.9-3.3,3.7c-2.3-1.8-0.7-3.4,0.4-4.9c18.5-24.1,29.8-51.5,36.7-80.8c0.4-1.8,1.3-3.4,1.3-5.3
			c2-11.1,3.3-22.3,3.9-33.6c0.1-8.3,2-16.7-0.1-25c-0.7-6.6-1.5-13.2-2.3-19.8c-1.3-11-3.8-21.8-7.3-32.3
			c-1.3-3.8-3.2-7.3-4.3-11.1c-5-10-8.6-20.7-15-29.9c-2.6-3.8-3.5-8.5-6.4-12.2C394.2,410.5,393.8,409.1,395.1,408z"/>
		<path class="st9" d="M427.8,576.2c-6.7,31-18.3,59.9-37.5,85.4c-1.1,1.5-2.2,2.9-2.4,4.8c-10.2,13.7-22.5,25.4-36,35.9
			c-3.2,1.5-5,5.3-9.1,5.3c-1.8-2.2-0.4-3.8,1.3-5c6.3-4.4,11.7-9.8,17.6-14.7c7.6-6.2,14-13.7,18.9-22.1c1-2.1,2.3-4.1,3.7-5.9
			c10.2-12.6,19.1-25.9,24.5-41.3c0.4-0.9,0.9-1.8,1.6-2.5c2.2-3.1,8.7-22.9,8.6-26.3c2.1-4.1,3.9-8.2,3.8-13c0-2.2,1.1-3.8,3.8-3.2
			C427.6,574.3,427.2,575.5,427.8,576.2z"/>
		<path class="st10" d="M297,330.2c-8.8-1.4-16.8-5.3-25.3-7.6c-42.8-11.7-84.9-9.9-126.6,5.3c-22.3,8.1-43.2,19.5-62,33.9
			c-1.3,1-2.5,2.3-4.3,2.4c8-8.4,18-14.2,27.9-19.9c26.2-15.1,54.2-25.4,84.3-29.4c35.5-4.7,69.7,1,102.9,13.5
			C295,328.9,296,329.6,297,330.2z"/>
		<path class="st11" d="M627.9,90.3h1c0.6,0,1.2,0.6,1.2,1.2c-11.3,11.9-21.3,24.9-33.2,36.3c-2.1,2-4,4-7,4.5
			c-0.4-1.7,0.5-2.4,2-2.7c8.9-7.8,16.3-17,24.8-25.1c3.1-3,0.9-5.4-1.1-7.7c-10-11.5-20.1-23-30.2-34.5c-6.8-7.7-13.7-15.3-20.5-23
			c-1.2-1.8-2.9-3.1-4.2-4.8s-3.3-3.6-2-5.6s2.9-4.4,6.1-3.4c0.5,0.2,0.8,0.6,1,1.1c-0.9,4.2,1.4,6.5,4.1,9.5
			c11.7,13.4,22.9,27.1,34.2,40.8c3.4,4.1,6.8,8.2,10.1,12.3c2,2.6,4.3,4.1,7.6,1.7C623.6,89.7,625.9,89.5,627.9,90.3z"/>
		<path class="st12" d="M695.9,122.4c10.4,5.6,19.1,13.6,28.4,20.8c10.6,8.2,21,16.7,31.5,25.1c1.9,4.2,1.5,5.1-3.6,8.3
			c-5.5-0.9-8.6-5.1-12.3-8.6c-5.2-7-11.5-13.2-18.6-18.3c-1.9-1.4-3.8-2.7-4.4-5.2c0.4-1.7-0.4-3.4-1.9-4.3
			c-6.5-3.4-10.7-9.8-17.3-13C696.2,126,694.1,124.9,695.9,122.4z"/>
		<path class="st13" d="M388.8,331.1c18-17,36-34.1,54.1-51c29.8-27.9,59.6-55.8,89.4-83.6c2-1.9,3.8-4.2,6.5-5.3
			c0.4,0.3,0.6,0.7,0.7,1.2c-3.4,5.6-8.6,9.6-13.1,14.1c-9.7,9.3-19.8,18.1-28.8,28.2c-0.6,0.7-1.6,1.2-2.3,1.9
			c-0.5,0.5-0.9,1.1-1.3,1.7c-3.5,3.2-7.3,6.1-10.2,9.9c-1.8,1.1-3.4,2.5-4.6,4.3c-3.9,2.8-7.4,6.1-10.5,9.8
			c-4.3,2.9-7.9,6.6-11.5,10.1c-11.4,11.1-23.6,21.4-34.9,32.5c-1.8,1.7-3.5,3.5-5,5.5c-2.8,1.4-5.2,3.3-7.1,5.8
			c-5.1,6.7-12.8,10.3-18.8,16c-0.7,0.8-1.9,0.8-2.7,0.2C388.4,332,388.5,331.5,388.8,331.1z"/>
		<path class="st0" d="M695.9,122.4c0.4,1.8,1.8,2.7,3,3.9c-1.9,3.7-4.3,1.7-6.5,0.6s-4.3-3.5-7.1-1.4c-1.3,1-2.4,2.2-4.3,1.9
			c-2.8-1.7-3-3.6-0.6-5.9c1.3-1.3,2.5-2.7,3.6-4.1c1.1-1.6,1.2-3.6,2.1-5.1c-0.2,1.6-1.6,2.4-3.1,3.1c-1,1.6-2.4,3-4,4
			c-3.7,1.5-4.7-0.7-3.1-3.2c4.3-6.5,8.7-13,14.9-18c2.1-1.8,5.3-1.5,7.1,0.6c0.4,0.5,0.8,1.1,1,1.8c0.7,2.3,2.3,3.1,3.9,4.2
			c1.2,2,3.2,3.8,1.8,6.6c-4.3,3.1-10,2.4-14.4,5.1C691.7,118.7,693.3,121,695.9,122.4z"/>
		<path class="st11" d="M395.1,408c3.9,7.1,8.1,14.1,11.7,21.4c4,7.9,7.4,16,11.1,24c0.4,1.4,0.2,2.9-0.6,4.1
			c-2.7,1.3-3.7-0.9-4.5-2.6c-2.8-5.8-6.9-10.7-8.7-17.2c-1.7-6.1-7.4-10.4-10.1-16.4c-0.7-1.5-1.8-2.8-1.7-4.6
			c0.2-3.6-1.7-6.3-4.1-8.6c-2.9-2.8-4.7-6.4-6.9-9.7c-1-1.2-1.1-2.8-0.4-4.2c4.2-3.7,7.1-2.8,8.4,2.3c0.3,1.3-0.2,2.6,0.6,3.8
			c0.3,1,1.1,1.7,2.1,2C392,404.7,395.3,405.3,395.1,408z"/>
		<path class="st14" d="M39.9,407.2c-2.8,6.6-7.6,12.1-10.8,18.4c-1.7,3.3-3.3,6.5-5,9.7c1.2,4.1-1.1,7.4-2.6,10.8
			c-3.5,7.8-6.8,15.7-8.6,24.2c-0.3,1-0.8,1.8-1.5,2.6c-2,3-2.3,6.5-2.7,9.9c0.1,3.5-2.2,6.5-2.4,9.9c-1.9,4.9-0.3,9.8-0.4,14.7
			c-0.4,3.5-1.2,7-1.5,10.6c0.3,7.3-1.9,14.3-2.1,21.5c0.1,1.2-0.5,2.3-1.5,2.9c-1.9-18.3-0.3-36.5,3.1-54.5
			c5.3-28.2,17-53.7,33-77.4C37.8,409.4,38.8,408.3,39.9,407.2z"/>
		<path class="st15" d="M705.9,225.1c2.7-1.5,2.7-3.3,0.9-5.5c-0.8-1-1.5-2.1-2.1-3.2c6.4,4.5,7.2,14.1,1.7,20.9
			c-4.4,5.4-13.4,5.9-18.4,0.9c0.6-1,1-2.1,1.4-3.2c1.1-1.5,2.9-2.2,4.3-3.3c1.3-1.3,3-2.1,4.3-3.3
			C700.3,226.4,702.2,223.5,705.9,225.1z"/>
		<path class="st16" d="M689.9,116.4c3.8-3.8,9.4-3.1,13.9-5.2c0.3-4.1,2.8-5.7,6.6-5.9c4.6-1.6,7-5.7,10-8.9
			c5.4-5.9,11-11.9,11.9-20.7c0.2-2.1,1.9-3.8,3.6-5.2c3.2-1.1,5-4,7.7-5.9c1.1-1,2.6-1.3,3.8-2.1c1.2-0.4,2.4-0.9,3.6-0.4
			c3,2.4,0.3,3.7-1.2,5c-4.6,3.8-9.4,7.3-13.9,11.3c-5.8,13.8-14.2,25.5-28,32.4C702.2,113.8,696.1,115.1,689.9,116.4z"/>
		<path class="st17" d="M693.6,9.3c1.7-3.3,4.7-5.6,7.3-8.1c2.3-2.2,3.8-1.3,4.4,1.6c0.3,1.6,0.8,3.2,1.3,4.8
			c3.5,10.1,10.2,16.7,20.9,18.5c4.5,0.7,6.6,2.5,6.9,7.3c0.7,9.4,7.2,14.9,14.5,19.6c0.2,0.2,0.3,0.5,0.3,0.8c0,0.3,0,0.5-0.1,0.5
			c-1.6,1.7-3,0.6-4.3-0.4c-7.1-4.8-12.2-11-13.6-19.7c-0.5-3.1-1.6-4.2-5.1-4.5c-7.9-0.8-13.4-5.9-18.2-11.8
			c-1.6-2-2.9-4.1-4.1-6.3c-0.7-1.3-1.5-2.7-3.4-2c-0.7,0.1-1.4,0.2-2.1,0.2c-0.5,0-1,0.1-1.4,0.1C695.8,10.1,694.5,10.5,693.6,9.3z
			"/>
		<path class="st17" d="M0.8,542.5c0.9-8.4-0.8-16.9,1-25.3c3.2,1.4,2.5,4.4,2.5,6.9c0,11.4,0.1,22.8,2,34.2
			c0.7,4.4,1.3,8.8,2.3,13.2c1.8,7.5,3.3,15.1,3.3,22.9c2,9.3,5.9,18,9.1,26.9c-0.4,0.6-0.7,0.6-1.1,0c-8.8-18.6-13.8-38.4-17-58.6
			C1.7,556.1,1,549.3,0.8,542.5z"/>
		<path class="st18" d="M760.9,174.3c0,12.6-5.4,18.8-17,19c-0.3-0.4-0.5-0.8-0.5-1.3c4.1-7.2,9.6-13.4,16.3-18.2
			C760.2,173.9,760.6,174,760.9,174.3z"/>
		<path class="st19" d="M539,192.3c-0.1-0.4-0.1-0.8-0.2-1.2c2.3-2.4,4.6-4.7,6.9-7.2c2.8-3.1,4.9-6.6,5-11.1
			c0.2-3.1,1.5-6.1,3.8-8.3c6.6-6.7,13.7-13.1,20.6-19.5c0.8-0.5,1.7-0.9,2.7-1.1c-0.7,2.6-3.7,3.2-4.8,5.5c-2.8,6-7.5,10.4-12,14.9
			c-2.6,2.3-4.4,5.4-5.1,8.9c-2.2,5.5-4.5,10.9-8.8,15.1C544.8,190.5,543.3,194.2,539,192.3z"/>
		<path class="st20" d="M564.8,26.1c-7,3.7-7,3.9-2,9.9c0.8,1,2,1.8,2.1,3.3c-4.6-3.3-7.9-7.4-9.1-13c1.8-0.5,3.4-1.9,4.2-3.6
			c1.8-3.4,4.7-5.7,8.9-5.6c1.7-0.2,3.1-1.1,4.1-2.5c3.2-4.3,5.5-2.5,7.7,0.9c-4.8-0.5-6.7,3.8-10,5.8
			C570.3,24.7,567.8,25.7,564.8,26.1z"/>
		<path class="st21" d="M569,17c-3.9,3.7-7.1,8.5-13.1,9.2c3.4-2.6,0.8-6.8,2.9-10.1c3.4-5.2,5.2-5.8,8.9-0.7
			C568.2,16,568.6,16.5,569,17z"/>
		<path class="st6" d="M748.9,54.3c0-0.4,0.1-0.9,0.1-1.3c3,1,6,2.1,9,2.9s3.5,2.3,1.1,4.4c-7.5,6.3-14.6,13.2-23.2,18.1
			c2.9-4.9,8-7.3,11.9-11.1c1.2-1.2,3.4-1.7,2.9-4.1c-0.9-0.6-2.5-0.4-2.3-2.2C751.6,58.9,748.8,56.5,748.9,54.3z"/>
		<path class="st10" d="M342.9,707.2c3.6-0.5,5.5-4.3,9.1-4.8c-7,7-15.5,11.9-24,16.7c-10.2,5.8-20.5,11.5-32.1,14.2v-1
			c0-2.3,1.8-2.9,3.5-3.6c13.6-5.6,26.6-12.6,38.9-20.7C339.8,707,341.1,706,342.9,707.2z"/>
		<path class="st22" d="M630.1,91.5l-1.2-1.2c0.1-0.4,0.1-0.9,0.2-1.3c0.3,0.1,0.7,0.2,1,0.2c4.8-0.6,18.1-13.7,18.3-18.4
			c0.3-5.3,2.5-10.2,2.2-15.6c-0.1-2.1,2.2-3.2,3.4-4.7c0.5-0.6,1.3-0.8,2-0.5c0.4,0.3,0.7,0.7,0.9,1.2c0.2,0.7,0.1,1.5-0.2,2.2
			c-2.5,2.3-1.1,5.8-2.5,8.4c-0.1,0.5-0.2,1-0.2,1.5c-0.6,4.3-2.4,8.3-4,12.4c-1.4,3.6-4.3,6.5-8,7.8C637.2,85,635,90.2,630.1,91.5z
			"/>
		<path class="st15" d="M509.9,79.3c-1.7,1.7-3.1,3.7-4,6c-0.2,0.2-0.5,0.3-0.8,0.1c0,0-0.1-0.1-0.1-0.1c-1.6-0.9-3.7-1.5-2.4-4.1
			c2.4-1.2,2.8-3.9,4.2-5.7c3.5-3,6-6.8,9.1-10.2c1.7-3.2,3.5-1.1,5.2-0.1s3.8,2,4.7,4.2c-4-3.1-7.1-2.2-9.8,2
			C514.3,74.3,512,76.7,509.9,79.3z"/>
		<path class="st23" d="M690.9,236.3c-0.6,1.2-1.8,1.5-3,1.8c-10.7-13.2-20.5-27.2-29.2-41.8c0.4,0,0.8-0.1,1.1-0.1
			c3-0.6,4.1,1.7,5.3,3.6c6.3,9.5,13.1,18.7,19.5,28.2C686.6,231,689.8,232.9,690.9,236.3z"/>
		<path class="st24" d="M760.9,174.3h-1.1c-6.4,5-12.5,10.3-15.9,18v1c-2.4-0.6-4.5-2-6-4c1.6,0.4,3.3-0.4,4.1-1.9
			c1-6,4.6-9.9,10.3-11.9c2.1-1.9,5.4-3.2,3.5-7.1C757.5,170.3,759.2,172.3,760.9,174.3z"/>
		<path class="st15" d="M503,80.3c-2.9-8,2.7-14.8,12.1-14.9c-1.3,4.6-5.5,7.1-7.8,11C505.9,77.7,505.6,80.3,503,80.3z"/>
		<path class="st25" d="M388.8,331.1c0,0.4,0.1,0.8,0.1,1.2c0,3.9-3.5,5.3-5.5,7.8c-6.4,8.3-15.2,14.2-22.4,21.7
			c-0.8,0.9-2,1.2-3.2,0.9c-0.8-0.2-1.5-0.7-1.8-1.4C366.8,351.1,377.5,340.7,388.8,331.1z"/>
		<path class="st17" d="M693.6,9.3l3.4-0.9c0.3,0.6,0.6,1.4,0.1,1.9c-4.3,4.7-6.9,10.8-12,14.9c-2.6,1.9-4.9,4.3-6.8,7
			c-1.4,0.7-2.8,1.6-4.4,0.5c-0.4-0.4-0.4-1-0.1-1.4C680.4,23.9,687,16.6,693.6,9.3z"/>
		<path class="st26" d="M673.8,31.2c0.1,0.4,0.2,0.8,0.3,1.1c1.6,2.8-0.8,4.3-2.1,6c-4.3,5.4-9.1,10.2-16.1,11.8l-1.8,0.3
			C660,43.4,666.3,36.7,673.8,31.2z"/>
		<path class="st27" d="M19.9,621.3H21c4.4,9.4,8.6,18.8,14.2,27.6c1,1.3,1.5,2.9,1.6,4.6C29.7,643.6,24,632.8,19.9,621.3z"/>
		<path class="st28" d="M38.7,656.4c2.3,0.9,3.5,3.4,2.7,5.7c-1.4,5.8,1.1,9.8,5.1,13.4c1.8,1.6,3.9,3.1,4.4,5.8
			c-6.2-5.2-12.9-9.9-10.9-19.7C40.3,660,39.1,658.2,38.7,656.4z"/>
		<path class="st29" d="M356.1,361.3h1.8c-1.6,4-3.1,4.4-8.3,2.1c-1.2-1.6-3.2-1.8-4.9-2.4c-2.1-3.4-7-4.9-7-9.8
			c0.4-0.3,1-0.3,1.3,0.1c3.9,2.7,7.9,5.5,11.8,8.2C352.3,360.6,353.8,362.1,356.1,361.3z"/>
		<path class="st30" d="M506.4,76.1l8.8-10.6c0.2,0,0.5,0,0.7-0.1c1.7,1.7-0.1,2.6-0.9,3.5c-2.2,2.6-4.5,5-6.8,7.5
			C507.6,76.7,506.9,76.6,506.4,76.1z"/>
		<path class="st31" d="M591.9,129.6c-0.7,0.9-1.4,1.8-2,2.7c-3.5,2.5-5.8,6.6-10,8.1c1.5-3.2,4.5-5.1,7-7.4s2.6-3.8,0-5.7
			C588.8,127.6,590.5,128.4,591.9,129.6z"/>
		<path class="st32" d="M338.9,351.3c-0.4,0.1-0.8,0.1-1.2,0.2c-4.7,0.5-10.3-2.6-11-6.1c0.1-0.4,0.2-0.7,0.3-1.1
			C331.4,345.9,335.4,348.3,338.9,351.3z"/>
		<path class="st33" d="M505,85.3h0.9c2.2,3.1,6.3,4.4,7.9,8.1C510.5,91.1,506.6,89.5,505,85.3z"/>
		<path class="st34" d="M506.4,76.1l1.8,0.3c-0.5,2.2-2,3.8-3.4,5.4c-0.9,1-1.7,0.7-2.1-0.6c0.1-0.3,0.3-0.6,0.4-0.9
			C504.1,78.9,505.3,77.5,506.4,76.1z"/>
		<path class="st25" d="M541.8,113.5c3.7,0.4,5.8,3.6,9,4.9c0.4,0.7,0.7,1.4,1.1,2C548.1,118.8,544.7,116.5,541.8,113.5z"/>
		<path class="st35" d="M655.8,50.1C662.6,45,668.7,39,674,32.3c1-0.7,1.9-1.3,2.9-2c5.2-3.6,7-3.2,9.9,2.4c0.9,1.8,1.6,3.6,2.2,5.5
			c2,5.8,5.8,9.4,12.2,9.9c4.5,2.1,6.9,6.2,9.7,9.9c2.1,2.7-0.7,5.3-0.5,8c1,7.2,3.6,9.9,10.9,11.2c2.3,0,4.6-0.7,6.9-0.8
			c3.3,0,4.4,1.6,3.2,4.7c-2.2,5.8-6.8,9.9-10.6,14.5c-2.9,3.7-6.3,7-9.9,10c-3.2,2.5-6.7-0.3-10,0.5c-1.8-1-3.2-2.5-4-4.3
			c-1.3-3.5-3.8-3.3-5.7-1.2c-4.7,5.3-9.1,10.8-13.6,16.4c-1.2,1.5-0.1,2,1.3,2.2c-6.6,3.9-12.6,8.6-18,14
			c0.5-6.6,1.6-13.2,3.3-19.6c1.1-3.7,0.5-7.7-1.8-10.9c-1.2-1.6-2.2-3.7-0.4-5.5s3.3-0.4,4.9,0.6c3,1.9,6.2,0,9.3,0.2
			c2.7,0.2,5-1.7,8.1-1.6c2.6,0.1,3.5-3.7,3.6-6.3c0.2-3.5,0.1-6.3,5.1-6.7c3.6-0.3,5.3-11,2.6-13.6c-0.6-0.8-1.7-1-2.5-0.5
			c0,0-0.1,0-0.1,0.1c-1.1,0.7-0.9,3.8-2.9,2.4c-1.5-1-2.5-3.2-2.9-5.1c-0.9-5.3-4.7-7.8-9.6-5.7c-2.6,1.2-5.1,2.3-8.1,2.2
			c-0.2,0-0.4,0-0.5,0.1c-2.4,4.2-4.9,4.2-7.7,0.3c0,0-1.3,0.5-1.6,1c-2.9,4.4-7.9,7.2-9.5,12.6c-1.2,4.1-3.6,6.7-8.4,5.9
			c7.5-5.4,8.5-13.8,10.1-22c1.3-2.9,0.1-6.6,3-9c2.9,0.2,4.4,3.9,8,3.1c-1.1-3.9-5.6-1.3-7-4.1C655.9,50.9,655.8,50.5,655.8,50.1z"
			/>
		<path class="st36" d="M553.9,172.3c-0.3-3.2,1-5.7,3.3-7.9c5.3-5,10.5-10.1,15.7-15.1c0.5,3.5-1.5,6.2-3,9c0.6,0.8,0.8,2,0.3,2.9
			c-0.3,1,0.2,2,1.2,2.4c0.5,0.3,1,0.5,1.5,0.7c3,1.1,7.5,0.8,5.8,6.4c-0.5,1.5,1.4,2,2.6,2.5c4.9,1.7,9.1,3.9,12.1,8.7
			c3.4,5.4,9.8,6.2,13.1,2.8c1.6-1.6,2.2-3.1,0.8-5.3c-1.2-2.2-2.2-4.4-2.9-6.8c-0.7-1.6,0-3.5,1.6-4.2c0,0,0.1,0,0.1,0
			c1.1-0.9,2.6-0.7,3.5,0.4c0.1,0.2,0.2,0.3,0.3,0.5c0.9,1.5,2.1,2.3,3.7,1s0.7-2.7-0.3-3.9s-1.4-2.3-0.6-3.6c0.6-1,2-1.4,3-0.8
			c0,0,0.1,0,0.1,0.1c3.2,1.9,5.7,0.2,8.2-1.5c3.8-2.5,7.8-3.8,11.9-0.4c-12,9.3-22.4,20.2-32,32c-7.3,8.4-14.9,16.6-26.9,18.1
			c-0.6,0.5-1.3,0.6-2,0.4c-1.7-1.5-0.9-3,0.1-4.4c2.2-2.7,1.3-4.8-0.9-6.9c-3.5-3.3-6.8-6.8-10.2-10.1c-1.4-1.4-3-2.8-5.2-2.3
			c-3.1,0.7-5-1.1-6.7-3.2c-0.6-1-0.4-2.3,0.4-3.1C554.6,178.1,554.1,175.2,553.9,172.3z"/>
		<path class="st11" d="M606.1,125.7c1.6,0.7,3.4,1.7,3.5,3.6c0.1,1.7-1.1,3.1-2.8,3.2c-0.1,0-0.2,0-0.3,0c-2.3-0.1-2.6-2.4-2.9-4.1
			C603.3,127,604.5,126.1,606.1,125.7z"/>
		<path class="st5" d="M647.1,133.1c1.5,0.3,2.9,0.8,2.9,2.4s-1.4,3-2.8,2.7c-1.3-0.5-2.3-1.6-2.7-2.9
			C644.2,133.9,645.9,133.4,647.1,133.1z"/>
		<path class="st1" d="M573,164.3c-0.4,0.3-0.7,0.7-1.1,1c-1.2-1.4-2.1-3.1-4-4c0.7-1,1.3-2,2-3C573,159.2,574.3,161,573,164.3z"/>
		<path class="st37" d="M146,727.3c-15.2-5-29.1-12.7-42.6-21.3c-16.7-10.8-31.8-23.4-44.5-38.8c0.5-4,0.9-7.7-1.8-11.4
			c-1.3-1.8,0.6-4,2-5.9c-2.8,1.7-5.5,2.1-7.3-0.6c-3.1-4.8,2.4-6.4,4-9.5c-5.6,0.9-7.1-0.5-6.3-5.8c0.3-2.2,0.6-3.8-2.2-4.5
			c-2.5-0.6-3.2-4.2-6.7-4c-1.8,0.1-1.9-6.4,0.2-8.4s3.9-4.2,6.4-5.5c2.8-1.4,4.4-3.3,4.7-6.5c0.2-2.3,2.2-3.2,3.8-4.4
			c3.5-2.8,6.7-5.5,4.1-10.8c-1-2.1,0.4-3.8,1.9-5.3c4.2-4.3,8.2-9,13.1-11c-2.6,1.9-3.3,2.3-7.4,1.8c-2.5-0.3-4.1,1-5.9,2.2
			s-3.4,1.6-5,0s-1-3.5,0.3-4.9c2.9-3.2,5-7.4,9.5-9.1c3.1-1.2,4.1-4.6,6.7-6.5c6.6-5,11.9-11.4,16.6-15.4
			c-4.6,4.1-10.6,9.9-16.5,15.7c-5.3,5.2-11.4,9.5-16.6,14.9c-4.1,4.2-9.5,8.5-16.1,9.6c-1.3,0.3-2.7,0-3.7-0.9
			c-1.8-3,0.7-4.6,2.3-6.4c9.3-9.9,19.7-18.6,29.7-27.7c8.7-8,17.7-15.6,27.1-22.7c4.1-3.1,7.9-6.5,12.2-9.3c0.8-0.6,1.5-1.3,2-2.2
			c3.4-5.9,8.7-9,14.4-12.6c5.3-3.3,10.1-6.9,16.3-8c0.2,0,0.3-0.1,0.4-0.3c4.4-7.8,13.2-10.9,18.8-17.5c2.6-3.1,6.3-4.9,9.3-7.4
			c1.2-1,3-0.9,4.1,0.2c1.2,1,1.5,2.7,0.8,4.1c-1,2.4-3,3.9-4.9,5.5c-0.8,0.7-2.7,1.4-1.6,2.5c3.9,4.1,0.5,6-2,8.3
			c-0.3,0.3-0.5,0.7-0.6,1.1c0.9-1.6,1.9-3.7,4.4-2.2c1.5,1,1.9,2.9,1,4.4c-0.1,0.2-0.2,0.3-0.4,0.5c-4.1,5.2-8.7,10-13.8,14.3
			c-1.3,0.8-3,0.8-4.2-0.2c-4.3,11.5-15.1,16.9-23.6,24.4c2.1-2.1,4.5-4,7-5.7c6.6-4.2,11.4-10.4,17.5-15.1c5.3-4,10.3-8.4,15-13.1
			c1.8-2.1,4.9-2.4,7-0.6c0.1,0,0.1,0.1,0.2,0.1c2.6,2.1,1,4.6-0.4,6.7c-1.4,2.1-3.2,3.8-5.2,5.3c-2.2,1.6-3.5,4.3-5.4,5.7
			c-5.9,4.2-10.2,10-15.5,14.7c-5,4.5-11.3,7.4-15.7,12.9c1.7-1.7,2.9-3.5,4.5-4.8c1.4-1,3.2-1.4,4.6,0s0.9,2.7,0,4.1
			c-4.3,7-11.2,11.3-17.6,16.1c-2.4,1.8-4.2,0-4.1-4.1c-1,0.6-1.3,1.7-0.8,2.3c3.2,3.8,0.6,6.2-1.9,8.4c-4.4,4-7.6,9.3-12.6,12.1
			c5.3-2,9.7-6,13.7-10.4c2.3-2.5,4.9-2.6,7.8-1.8c1.7,0.5,3.4,1.1,4.4-0.9c3.4-6.5,10.5-8.8,15.3-13.8c7.1-7.4,15.9-13,23.2-20.2
			c1.6-1.5,3.3-2.8,5.3-3.8c1.7-0.8,3.3-1,4.4,0.8c1.1,1.4,0.8,3.4-0.6,4.5c0,0,0,0,0,0c-2.2,1.7-3.4,4.4-5.5,6.1
			c-11.7,9.7-21.4,21.2-32,32c-1.2,1.2-2.4,2.2-3.8,3.2c5.5-3.8,9.3-9.4,14-14c7.1-6.7,12.9-14.8,21.5-19.9c3.1-1.8,3.3-5.9,6.3-8.1
			c2.5-1.9,5.4-2.5,8-3.7c1.7-0.6,3.5,0.1,4.3,1.7c1.1,1.8,0.9,4.1-0.5,5.6c-2.3,2.6-5,5-5.8,7c1.4-3.1,5.2-5.7,8.7-8.5
			c5.7-4.6,12.3-8.3,16.7-14.4c0.7-0.9,1.5-1.7,2.4-2.5c2.1-1.9,4.4-2.9,6.5-0.4c2.1,2.5,1.4,5.3-1,7c-11.3,8.2-21.1,18.3-31.9,27.2
			c-4.9,4.1-8.8,9.5-13.2,14.2c-5.3,5.7-11.7,9.9-15.3,14.6c7.9-8,18-16.4,26.3-26.6c3.5-4.4,8.6-7.3,12.9-10.9
			c7.5-6.4,14.3-13.7,22.6-19.1c2.9-1.9,6-3.4,7.3-7.2c0.6-2,12.9-5.1,14.9-4.3c2.4,1,3,3.8,0.8,6.2c-4.4,4.8-8.6,9.8-13.9,13.6
			c-6.4,4.6-10.8,11-16.1,16.6c-3.3,3.5-6.4,7.1-11.6,7.9c3.4,0.3,15.9-7.9,18.3-11.9c0.1-0.5,0.3-0.9,0.4-1.3
			c3.6-3.2,6.2-7.7,11.1-9.4c1.4-0.5,3-1.2,3.7-2.4c3.1-4.9,8.8-5.7,12.9-9.1c0.9-0.9,2.2-1.1,3.3-0.7c2.7,1.3,4.7,0.5,6.8-1.4
			c1.5-1.4,3.4-1.6,4.9,0c1.5,1.3,1.6,3.5,0.4,4.9c-0.1,0.2-0.3,0.3-0.5,0.5c-2.8,2.6-4.9,5.8-7.5,7.6c2.7-2.1,5.2-5.6,8.6-8.1
			c1.9-1.5,3.6-2.9,6.3-2.3c2,0.4,3.5-0.6,5-1.8c1.7-1.4,3.6-2,5.3-0.1s1.2,4-0.4,5.8c-1.6,1.9-3.4,3.6-5.4,5.1
			c-3.6,2.7-6.9,5.8-8.9,9.7c1.7-1.4,3.7-2,5.5,0.2c1.5,1.9,0.8,3.7-0.6,5.4c-9.1,11.1-18.4,21.9-30,30.5c-2.1,1.5-4,1.9-5.8,0.1
			c-2.1-2.2-0.4-3.7,1-5c-2,1.7-3.1,3.5-0.4,5.9c1.4,1.1,1.7,3.1,0.6,4.5c0,0,0,0-0.1,0.1c-2.6,2.9-3,7.4-7.2,9.2
			c-2.7,1.1-3.1,4.6-5,6.7c-4.5,4.9-10.1,8.7-14.2,14c2.7-3.6,6.6-5.8,9.6-9c2.9-3.1,7.1-4.7,11.3-4.2c1.5,0.3,3,0,4.3-0.8
			c8.2-5,16.3-10.1,23.3-16.9c4.4-4.2,9.3-7.6,12.1-13.5c2.4-5.1,9.1-5.7,13-9.6c0.8-0.8,2.3-0.3,3.1,0.7c0.9,1,1.2,2.5,0.6,3.7
			c-0.6,1.5-1.9,2.7-2.2,5.1c2.2-0.9,4.1-2.4,5.4-4.3c2.8-4.1,6.8-7.2,9.5-11.3c4.9-7.4,12.9-11.4,19.2-17.2c1.2-1.1,2.8-1.5,4-0.2
			c1.6,1.7,0.9,3.4-0.5,4.9c-5.4,5.6-10.6,11.5-16,17.1c4.3-2.7,6.6-10.6,14.3-5.8c6.3-8.9,15.1-15.9,23.6-23.2
			c2.6-2.3,4.3-5.5,7.6-7.2c2-1,3.7-1.8,5.4,0.1s1.3,3.8-0.3,5.4c-3.2,3.3-6,6.6-4.6,11.8c0.4,1.6-0.8,3.8-2.3,4.1
			c-4.2,1-4.5,4.5-5.6,7.1c0.4-3.6,3.5-5.6,6.5-7.8c3.7-2.8,6.3-6.8,10-9.6c2.1-1.6,4.2-2.4,6.1-0.1c1.8,2.1,0.5,4.1-1.2,5.7
			c-5.8,5.7-12,11.1-15.7,18.5c6.6,2.2,10.3-2.9,14.5-6.1c7.4-5.7,12.5-13.7,18.6-20.7c1.9-2.2,3.5-4.4,6.2-5.7
			c1.9-0.9,3.7-1.6,5.6-0.1s1.7,3.4,1,5.5c-0.3,1-0.6,1.9-1.1,2.8c-1.2,1.9-2.8,3.4,0.8,5c2.3,1,1.7,3.5,0.4,5.6
			c-3.3,5.1-7.5,9.3-11.6,13.7c-2,2.2-4.3,4.1-6.3,6.7c6.2-6.1,13.4-10.7,20.2-15.8c1.7-1.3,3.7-0.8,5.7-0.1
			c4.1,1.6,5.2,0.9,6.1-3.5c0.5-1.9,0.7-3.9,0.4-5.9c-0.4-2.4,0.5-4.4,2.9-5.1c2.2-0.6,4.8-1.7,6.3,1c1.4,2.4,2-2.3,3.2-0.2
			c3.2,4,1.8,8.5,1.3,12.9c-6.4,4.6-12.1,10.1-17,16.3c-2.1,2.5-4.5,4.7-7.3,6.4c3.6-2.3,6.7-5.3,9.1-8.8c3-4.4,8.2-6.7,11.1-11.3
			c1-1.5,2.6-1.2,3.8,0.2c1.8,4.6,0.5,9.1,0.2,13.7c-0.4,6.8-1.4,13.5-3.1,20.1c-1.2,4.5-6,6.2-8,10.4c-4.9,10.4-14.6,16.5-22.8,24
			c-2.9,2.7-5.7,1.7-6.6-2.2c-0.5-2-2-4-1.2-5.9c-0.3,3.3-3.2,4.8-5.7,6.5c-1.6,1.1-3.5,0.9-4.4-0.7c-2.1-3.8-5-3.1-8.2-2.1
			c-1.5,0.7-3.3,0.5-4.7-0.5c-2.1-1.7-2.9-3.8-0.6-5.9c2-1.6,3.5-3.6,4.4-6c0.5-1.6,3.5-3,0.9-5c-2.3-1.7-5-2.4-7.3-0.3
			c-2.6,2.4-5.9,2.9-9,4.1c-2.6,1-5.6,1.5-6.7-1.9c-1.1-2.9,0.3-6.2,3.2-7.4c1.1-0.5,2.1-0.8,2.6-2.1c0.4-0.5-0.5-0.4,0-0.1
			c0.1,0.1,0.1,0.3-0.2,0.4c-4.7,1.9-6.3,6.4-8.1,10.5c-2.6,5.9-8.5,7.1-13.4,9.6c-2.4,1.2-4.6-1.4-3.7-4c0.6-1.9,1.8-3.5,3.5-4.6
			c-2,2.5-5.2,4.4-8.2,6.6c-3.5,2.5-6.6,1.7-9.9,0.8c-3-0.8-3.8-3.2-2.3-5.9c1-1.5,1.5-3.4,1.4-5.2c0-2.9,2.3-4.3,4.2-5.8
			c2.6-2,5.2-3.9,6.4-6.2c-1.8,2.5-4,5.5-8.3,5.7c-0.7,0-1.3,0.3-1.8,0.7c-3.7,3.4-7.2,5.5-11.4,0.6c-1.2-1.3-2.3,0.3-3.3,1.1
			c-5.8,4.5-10.2,10.2-14.6,16c-3.9,5.2-10,8.1-14.5,12.9c-12.7,13.6-25.9,26.8-39,40c-18,18.1-35.6,36.4-54.2,53.9
			c-2.3,2.4-4.1,5.3-5.1,8.4c-1.6,1.2-2.9,2.7-3.9,4.4C156.5,729.4,151.3,728.8,146,727.3z"/>
		<path class="st37" d="M161.9,717.3c2.3-4.1,5.8-7.2,9.1-10.6c10.7-11.1,21.7-22,32.5-33.1c15.2-15.6,30-31.5,45.6-46.6
			c7.5-7.2,13.6-15.8,22.5-21.6c3.9-2.6,6.9-6.4,8.5-10.8c0.6-1.8,1.9-3.2,3.7-3.9c3-1.1,5.5-3.3,7-6.1c2-3.6,3.6-2.6,5.5-0.3
			c3.3,4,5,3.8,8.2-0.4c1-1.3,1.4-7.8,4.9-1.3c0.6,1.1,1.7-0.2,2.5-0.7c2.4-1.5,4.5-3.5,6.1-5.8c0.5-0.8,1.1-2,2.2-1.2
			c1.4,1.1,0.1,2-0.6,2.9c-4.3,4.8-8.5,9.6-12.8,14.4c-4.2,9.2-11.1,16.1-18.1,23.1c-8.9,8.8-17.3,18.1-25.1,28
			c1-2.7,4.8-4.9,8.6-7.3c4.7-3,8.8-3.1,12.6,1.1c2.8,3,3.7,2.9,5.5-0.7c0.6-1.2,0.9-2.5,2-3.4c7.4-6.5,13.1-14.7,20.3-21.3
			c0.7-0.7,1.5-1.4,2.3-2c2.2-1.3,4.5-1.5,6.3,0.6s1.2,4.2-0.6,5.8c-7.7,6.9-13.7,15.3-20.9,22.6c-7.7,7.9-15.2,16.2-22.5,24.5
			c-6.8,7.7-13.8,15.3-21.1,22.6c-7.7,7.6-15.6,15.2-22.8,23.3c-3.9,4.4-8.7,7.9-12.3,10.7c6.6-4.2,12.9-10.9,19-17.6
			c6.3-7,13.4-13,19.7-19.9c4.2-4.7,7.6-10.4,12.4-14.1c5.8-4.4,9.9-10.2,15.4-14.7c3.2-2.5,5.5-5.7,8.2-8.7
			c2.5-2.8,4.8-6.1,8.9-6.9c1.3-0.3,1.8-1.4,2.1-2.6c0.8-2.9,2.2-5.1,5.7-3.8c2.1,0.8,3.3,5.6,2.3,8.1c-0.2,0.6-0.6,1.2-1.1,1.6
			c-5.8,4.2-7.3,11.1-10.8,16.8c-2.8,4.5-6,8.3-11.6,9c-2.2,0.3-2.8,1.6-2.5,3.5s1.2,4.2,3.4,4.3c1.8,0,2.4-2.1,2.6-3.8
			c1-6.3,1-6.3,6.9-6.9c1.9-0.2,3.4-1.4,5.1-1.9c3.3-1,6.2,1.5,5,4.5c-1.5,3.6-2.7,7.6-6.9,9.4c-3,1.3-5,3.9-6.9,6.4
			c-4.7,6.2-10.9,10.7-16,15.7c2.3-0.9,3.4-4.2,6.5-5.1c2.9-0.9,5.2-1.5,7.5,1.6c2.2,2.9,2.5,5.3-0.1,7.9c-0.3,0.3-0.5,0.6-1,2.1
			c6.2-7.6,12.8-13.4,19-19.6c5.2-5.2,10.9-9.8,15.8-15.2c6.4-7.2,13.4-13.8,20.9-19.8c2.2-1.7,4.4-4.6,7.8-2.1c1.1,1.7,0,3-1.1,4.1
			c-4.7,4.9-9.8,9.3-14.5,14.1c-5.9,6.1-12.2,11.8-17.9,18c-2.5,2.7-5.9,4.6-7.6,8c-3.9,5.4-7,11.4-12.4,15.7c-2.2,1.8-4,4-5.3,6.5
			c-2.3,4.2-5.7,5.1-10,4c-1.2-0.7-2.6-0.5-3.7,0.3c-1.6,1.4-3.4,2.7-5,4.1s-3.3,3.2-5.7,1.6s-1.7-3.7-0.6-5.9
			c-4.5,0.4-8.2,2.9-12.3,4.1c-0.9,0.1-1.6,0.8-1.6,1.7c-0.3,4.9-4.5,5.7-7.7,7.6c-1.8,1.1-3.8,1-5-0.5c-2.1-2.7-3.6-1.7-5.6,0
			c-4.8,4.2-4.7,4-8.9-0.9c-2.1-2.4-5.3-4-8-1.5c-5.9,5.5-13.2,7.8-20.4,10.4c-1.3-0.1-2.7-0.1-4-0.2c-2.2-0.6-4.4-0.9-6.7-1.3
			c-3.4-0.7-4-3.3-4.2-6c-0.1-2.5,1.5-3.9,4-4.2c1,0,2-0.5,2.7-1.2c4.4-6.2,10.6-11,14.1-17.9c0.7-1.4,1.3-2.8,2.8-3.3
			c9.4-3.1,15.7-10.1,21.5-17.5c2.4-3,4.5-6.1,8.2-7.7c1.7-0.8,2.9-2.2,3.5-4c-3,2.6-6.8,3.4-10,5.7c-5.8,4.3-10.4,9.8-15.9,14.3
			c-8.6,7.1-17.1,14.3-25.1,22c-1.3,1.3-2.8,2.5-3.5,4.2c-1,2.5-3.3,3.2-5.4,4.1c-1.4,0.6-3.1,0.3-4.1-0.9c-1.2-1-1.4-2.8-0.6-4.1
			c1.2-2.4,2.3-4.8,4.2-6.7c9.5-9.3,18.6-19,27.7-28.7c7.1-7.6,15-14.6,21.7-22.6c1.5-1.8,3.3-3.3,5.3-4.5c2.4-1.5,4.7-3.3,3.7-6.8
			c-0.2-0.4-0.3-0.9-0.3-1.4c0.4-5.9,4.8-10,7.2-16.3c-3.3,3.1-5.9,5.6-8.3,8.3c-7.3,8.2-14,17-23,23.4
			c-7.9,5.6-12.5,14.1-19.6,20.3c-1.5,1.3-2.7,3-4.4,4c-6.9,4-11.6,10.3-16.7,16.1c-3.5,4.2-7.6,7.9-12.1,11
			C166.3,718.7,163.5,721.4,161.9,717.3z"/>
		<path class="st37" d="M161.9,717.3c2.8-0.5,5.5-1.1,6.6-4.3c0.9-2.6,4-2.6,5.8-4.5c6.2-6.2,10.7-14.2,18.7-18.7
			c6.2-3.6,11.5-8.7,15.2-14.9c4.8-8.1,13.3-11.3,19-17.8c4.5-5.1,9.2-10,13.6-15.1c3.3-3.9,7-7.5,11.1-10.6
			c2.3-1.7,4.2-1.3,5.6,0.7c1.5,2.3-1.2,2.5-2.2,3.6c-4.4,4.5-6.4,10.3-9.5,15.6c-0.3,0.1-0.5,0.2-0.8,0.3c0.3-0.1,0.5-0.2,0.8-0.3
			c3.4,0.8,3,2.4,1,4.5c-5.6,5.9-10.9,12.1-16.8,17.6c-7.5,7-14.2,14.9-21.5,22.1c-6.5,6.4-12.7,13.2-19.1,19.7
			c-1.9,2.1-3.5,4.4-4.9,6.9c-0.4,0.7-1.1,1.4-0.4,2.2s1.6,0.4,2.3-0.1c1-0.6,2.3-1.1,2.8-2c3.5-5.8,10-8.8,13.5-14.6
			c0.9-1.5,2.4-2.4,4.1-2.6c0.8-0.1,2.2-0.5,2.2-0.8c0.7-6.1,6.6-6.6,10.2-9.6c6.5-5.4,11.8-12.2,19.1-16.7c1.5-0.9,2.8-2.4,4.8-2.4
			c1.8,0,2.5-0.8,1.3-2.5c-1-1.3-0.4-2.1,0.8-2.8c1-0.7,2.2-0.7,3.3-0.2c1.1,0.4,1.8,1.6,1.5,2.8c-1,4.6-2.2,9.2-7.4,10.9
			c-3.5,1.1-4.6,4.3-6.3,6.8c-4.6,6.8-11,12-17.4,16.1c-4,2.5-5.9,6-9.1,8.6c-3.8,3.2-6.4,7.2-9.3,11c-1.8,2.3-3,5.4-7,4.3
			c-1.1-0.3-1.5,0.5-1.3,1.5c0.3,1.4,0.5,3.9,2,3.6c3.6-0.8,4.5,2.4,6.6,3.7c-2.3,0-4.7,0-7-0.1c-2.6,2.3-5.7,1.5-8.5,1.2
			c-8.2-1-16.1-3.2-24.1-5.2c-2.2-0.6-4.6-1.1-5.3-3.8c-3.3-1.3-6.6-2.7-10-4c5.3,0.4,9.6-0.8,12-6.2
			C158.7,719.5,160.6,718.5,161.9,717.3z"/>
		<path class="st37" d="M36.9,580.3c4.2-2.3,8.5-3.9,12.6-6.7c15.7-10.8,29.3-23.9,43.3-36.7c1.4-1.3,1.4-1.3,4.6-1.6
			c-12.7,14.3-28.2,25.6-40.2,40.8c2.4,0.6,3.2-0.7,4.2-1.5c2.7-2.1,4.4-5.5,8.9-1.6c2,1.8,5.2-1.9,7.4-3.9c0.9-0.8,1.9-2.7,3.2-1.3
			c1.3,1.2-0.3,2.4-1.2,3.3c-5.5,5.1-11,10.2-16.4,15.4c-1.5,1.5-3.3,3.3,0.9,3.6c2,0.1,2.2,1.6,1.1,2.8c-3,3.5-4.1,8.5-8.9,10.5
			c-0.6,0.2-1.5,0.9-1.4,1.3c0.5,7.6-6.6,9.1-10.6,12.9c-1.9,1.7-3,4.2-2.8,6.8c3.4-0.3,5-3.5,8.3-4.3c0.1,3-3.4,4-3.2,6.7
			c1.1,1.3,2.4-0.3,3.7,0.1c2.7,0.9,6.1,1.3,2.8,5.4c-0.6,1-1.1,2.1-1.3,3.2c-0.3,0.7-0.2,1.6,0.1,2.3c0.9,1.1,1.7,0.1,2.6-0.4
			c0.5-0.4,1.1-0.8,1.7-1.1c1.3-0.5,2.9-1.9,4.1-0.4c1.2,1.3,0.1,2.9-0.8,4.1c-1.5,1.8-3.2,3.4-4.8,5.1c-1,1-1.9,2.1-0.6,3.4
			c1,1,2.2,0.5,3.2-0.1c0.4-0.4,0.8-0.7,1.2-0.9c1.7-0.9,2.6-4.9,4.8-2.6c1.6,1.6-0.1,4.7-1.6,6.8c-1,1.3-2.7,2.1-2.1,4.2
			c0.3,1.1,1.1,2.1,2.1,2.7c3.9,1.6,4,1.7,1.2,5.1c-1.2,1.4-2.6,2.6-4,3.7c-15.4-17.7-27.3-38.2-35-60.4c-0.5-1.5-1.3-3-1.9-4.5
			c-1.4-2.4-2.5-5-3.2-7.7c2.7-3.7,5.2-7.4,9.8-9.1c1.8-0.6,1.8-2.6,2.8-3.8C33.1,580.6,34.6,578.7,36.9,580.3z"/>
		<path class="st38" d="M342.9,707.2c-14.3,10.8-30.1,19.3-47,25.1c-6.4,1.2-12.7,3-18.9,5.2c-13.4,5.1-27.8,6.4-42.1,7.3
			c-10.3,0.6-20.6,0.4-30.9,0.4c-1.7,0-3.7,0.7-5.1-1.4c3-3.3,7.7-1.5,11-3.6c0.5-2.8,2.7-3.2,4.9-3.2c20.9-0.9,41.7-3.9,62-9
			c15-3.9,28.4-11.2,41.7-18.9c3.7-2.1,7.8-3.8,10.9-6.9c19.1-11.3,34.2-27,48.2-43.9c7.2-8.9,13.5-18.6,18.6-28.9
			c5.7-4.4,7.6-11.5,12.2-16.7c1.3-1.4,2.5-3.4,2.3-5.3c-0.7-6.6,4.7-10.7,6.4-16.2c0.5-1.6,2.2-1.8,3.7-0.9c0,1.2,0.3,2.5-0.2,3.5
			c-4,8-5.6,16.8-8.8,25.1c-3.4,9-8.8,16.6-12.9,25.1c-2.4,4.8-5.7,8.9-9.1,13.1c-3.2,4-6,8.3-8.2,12.9c-2.3,4.7-6.8,8.5-10.6,12.4
			c-7.6,7.7-15.7,14.8-24.4,21.3C345.5,704.7,344.2,706,342.9,707.2z"/>
		<path class="st39" d="M20,594.3c0.7,2.7,1.3,5.3,2,8c-2.2-3-4.4-5.9-6.6-8.9c-0.6-0.9-1-2.4-2.4-1.9s-0.9,1.9-1.1,2.9
			c-4.2-11.1-5.8-22.8-8-34.4c-2.7-14.2-1.7-28.5-2.1-42.8c0.2-3.3,1.7-6.5,1.1-9.9c0.9-5.7,2.7-11.3,3.7-17
			c2.9-5.6,4.9-5.7,8.8-0.6c0.8,5.2,0.7,10.5-0.3,15.6c-2.2,12.2-3.6,24.5-1.3,36.9c-1.1,10.3,1.1,20.2,3,30.2
			c0.3,1.6,0.5,3.3,0.6,4.9c0.1,1.6,0.7,3.2,1.5,4.6C19.4,586.1,22.9,589.9,20,594.3z"/>
		<path class="st37" d="M278,729.5c-20.2,6.9-41.2,8.6-62.2,10c-2,0.1-3.9,0.4-5.9,0.7c-1.7-0.3-3.3-0.5-5-0.8
			c3.1-4.1,7.9-6.8,12-8.4c2.7-1,4.1-2.7,6.2-4c3.2-2,7-3.9,10.1-0.2c2,2.4,3.2-0.3,4.7-0.2c0.4,1-0.5,1.5-0.9,2.1
			c-0.7,1-2.4,2.1-0.9,3.3s2.3-0.6,3.3-1.4c3.2-2.5,5.9-5.8,10.2-6.5c0.6,1.3,0,2.1-0.4,3s-1,1.9-0.1,2.7s1.8,0.3,2.7-0.2
			c1.5-0.8,3-1.5,4.4-2.3s2.1-1.5,0.6-3c-2.9-3.1,0.2-4.5,2.2-4.5c6.6,0,11.8-4.1,17.9-5.3c1.3-0.3,2.5-1.4,3.5,0
			c0.8,1.3-0.8,2-1.3,2.9c-1.1,1.8-5.1,3.3-3,5.2c1.8,1.6,3.3-2.2,4.8-3.7c2.5-2.5,5.3-3.9,8.8-2.7c2.2,6.7,1.4,8-5.8,9.6
			C281.7,726.4,280.1,728.4,278,729.5z"/>
		<path class="st38" d="M156,731.3c12.5,3.3,25.1,6,37.9,7.9c0.5,1.3,2.5,2.3,1.7,3.9c-0.9,1.9-2.9,1.1-4.5,1
			c-14-0.4-27.5-3.5-40.7-8.1c-1.1-0.4-2.6-0.5-2.5-2s1.5-1.7,2.6-1.9C152.3,731.7,154.1,731.5,156,731.3z"/>
		<path class="st12" d="M13.9,490.4c-2.7-4.5-4.3-1.4-6,0.9c-0.9,0.6-1.1,3.7-3.1,1c0-3.4,0.7-6.9,2.1-10c3-2.7,3.3-6.3,2.8-10
			c2.5-13.2,8.3-25.1,14.3-36.9c1.3,1.1,2,0.5,2.7-0.7c5-8,9.9-16.2,15.3-23.9c2.8-4.1,5.6-8.5,10.6-10.5c1-0.3,1.7-1.1,1.9-2.1
			c0.9-8,7.7-11.9,12.3-17c10.2-11.2,22.9-19.6,35.6-27.7c12.5-7.9,25.7-14.7,39.4-20.1c3.9-1.2,7.9-2.5,11.9-3.6
			c1.2-0.3,2.5-0.6,3.7-0.7c1.5-0.1,2.7,0.2,2.9,1.9c0.2,1.2-0.6,2.4-1.8,2.7c-0.1,0-0.2,0-0.4,0c-2.3,0.3-2.8,1.9-3.1,3.8
			c-0.5,0.9-1.3,1.7-2.2,2.2c-10.4,1.5-18.8,7.4-27.6,12.4c-5.9,0.3-10.5,3.6-15,6.9c-1.5,1-3,2-4.4,3c-10.9,8.7-23.2,15.6-32.7,26
			c-25.4,27.9-46.3,58.2-54.8,95.8C17.7,486.2,18.5,490.3,13.9,490.4z"/>
		<path class="st40" d="M153.9,336.3c-2-3.2,1.3-2.8,2.5-3.9c0.7-0.6,3.5,0.1,1.3-2.2c0.8-3.1,3.8-1.9,5.7-2.8
			c2.5-1.1,5.5-0.8,8.1-1.9c8.5-2.2,17.2-3.5,26-4c5.2-0.5,10.3-1,15.4,0.7c7.2-2.8,14.5,0.9,21.7-0.1c19.6-2.6,37.7,4.1,56.1,9
			c7.6,2.1,15,5.4,22.2,8.8c4.5,2.1,9.4,3.2,13.9,5.4c3.3,2.8,7.5,3.9,11,6.1c2.5,2.9,7,3.7,8.4,7.8c-2.8,2.2-4.6-0.1-6.4-1.5
			s-3.1-3.2-5-3.9c2.3,1.2,4.9,2.7,3.1,5.9c-1.5,2.9-3.8,1.4-6,0.1c-9.2-5.2-18.2-10.6-27.6-15.5c-3.3-1.7-6.4-2.8-9.1,1
			c-3.1,1.6-4.9-1.5-7.4-2.1c-19-6.8-38.5-11.2-58.8-11.8c-10.1-1.7-20.2-1.1-30.4-0.2H196c-5.2,0.4-10.4,1.1-15.6,2
			c-1.9,0.4-3.9,0.3-5.7,0.7c-5.3,0.9-10.4,2.1-15.6,3.5C157.2,338.1,155.2,338.6,153.9,336.3z"/>
		<path class="st41" d="M171.9,326.4l-14.2,3.9c-1.3,0-2.6,0-3.8,0.1c-0.6-0.3-0.6-0.7,0-1c5-2.4,10.4-3.1,15.7-4.1
			C170.8,324.8,172,324.4,171.9,326.4z"/>
		<path class="st42" d="M171.9,326.4c-0.8-0.4-1.6-0.8-2.3-1.2c8.9-2.4,18.1-3.8,27.3-4c0.2,0.2,0.3,0.4,0.2,0.7
			c-0.1,0.2-0.2,0.3-0.3,0.3C188.4,322.8,180,324.2,171.9,326.4z"/>
		<path class="st43" d="M196.8,322.1c0-0.3,0.1-0.6,0.1-1c5.4-0.5,10.8-2.8,15.9,1.1C207.5,322.2,202.2,322.2,196.8,322.1z"/>
		<path class="st44" d="M153.9,329.2v1c-3.9,1.3-7.8,2.8-12,3.1C145.6,331.1,149.7,330.1,153.9,329.2z"/>
		<path class="st35" d="M752.3,175.4c-3.4,4-6.8,7.9-10.3,11.9c-0.4-0.3-0.7-0.7-1.1-1c-13.6-10.8-25.2-23.8-37.3-36.1
			c-5.6-5.6-11.1-11.3-16.3-17.4c-2.2-2.6-3.8-5.1-3.4-8.5c1.5-4.6,4.4-2.8,7.1-1.4c2.5,1.4,4.4,4.3,7.9,3.4
			c6.7,4.9,13.5,9.8,20.2,14.8c3,2.2,1.1,2.9-1.2,3.2c-0.2-0.1-0.4-0.2-0.6-0.2c-4.7-3.4-8.7-7.6-13.8-10.4
			c3.8,2.1,6.9,4.9,10.1,7.6c6.5,6,13.5,11.5,20.1,17.3c2.8,2.5,6.3,4.2,8.2,7.7C744.8,170,748.7,172.5,752.3,175.4z"/>
		<path class="st5" d="M705.9,225.1c-2.4,1.6-4.7,3.3-7.1,4.9c-2.8,0.1-4.6-1.5-6.2-3.6c-11.4-14.4-23-28.6-33.4-43.8
			c-0.6-0.7-1.3-1.4-2.1-2c-1.2-0.6-2.7-1.2-2.9-2.5c-0.7-5.5-4.5-9.5-7.3-13.9c-1-1.6-2.2-3.5-0.3-4.8s2.7,1.2,3.9,2
			c0.7,0.7,1.5,1.3,2.3,1.8c5.9,4.7,9.9,11.1,14.9,16.6c11.6,12.7,22.8,25.9,34.1,38.9C703.6,220.6,705,222.7,705.9,225.1z"/>
		<path class="st45" d="M652.9,163.3c-2.4,0.5-3-2.4-5.4-2.9c2.8,5.8,8.2,9.8,9,16.4c0.1,0.6,1.6,1,2.4,1.5
			c0.1,7.6,5.8,12.2,9.7,17.5c7.8,10.6,15.9,20.9,24.3,31.1c1.5,1.8,3.2,3.6,1.9,6.2c-1.3,1.1-2.6,2.1-3.9,3.2
			c-3.7-0.1-5.5-2.9-7.2-5.5c-8-11.5-15.9-23-23.8-34.6c-2.9-6.8-7.9-12.1-11.6-18.4c-2-3.4-4.3-6.7-6.6-9.9
			c-1.7-2.4-1.6-4.3,0.6-6.5C647.5,156.5,647.4,156.4,652.9,163.3z"/>
		<path class="st46" d="M683.9,124.3c7.7,15.5,21.7,25.5,33.3,37.6c6.3,6.6,13.4,12.3,20.1,18.5c1.7,1.6,4.4,2.8,3.6,5.9
			c-2.8,1.2-4.8-0.4-6.6-2.2c-15.3-15.1-29.9-31-44.3-47c-3-3.3-6.1-6.6-9.1-9.8L683.9,124.3z"/>
		<path class="st35" d="M682.9,115.3c1.3-4.1,5-6.1,8.1-8.6c-3.7,2.7-2.9,8.3-7.1,10.6C683.5,116.7,683.2,116,682.9,115.3z"/>
		<path class="st47" d="M421,590.3c-3.9,5-8.3,9.8-8.3,16.7c0.1,0.6,0,1.3-0.3,1.9c-5.1,7.2-7.9,15.9-14.2,22.4
			c-2.5-1.8-1-3.9-0.1-5.7c2.8-6.1,6.2-12,8.4-18.4c2.1-8,5.2-15.7,9-23c0.8-1.6,2-3.1,2.2-4.9c3.1-11.5,4-23.2,4-35
			c-0.2-0.2-0.3-0.4-0.2-0.7c0.1-0.2,0.1-0.4,0.2-0.4c0.3-4.8,0.5-9.5-0.7-14.2c-2.6-1.3-2.3-3.7-2.6-6c-1.9-17.3-3.6-34.7-9.1-51.4
			c-6.2-18.9-14.2-36.9-26.2-52.9c-1.1-1.4-2.3-2.8-3.6-4.1c-3.9-4.2-7.2-9-10.8-13.4c-6.4-7.6-13.9-14.2-21.2-21
			c-3.6-3.3-8.6-5.3-10.1-10.5c-0.2-3,0.1-6.1,3.3-7s6.9-1.9,9.6,1.5c0.8,1,1.9,2,3.4,1.2c4.7-3.1,6.2-2.8,9.2,1.9
			c0.7,1.1,1.1,2.4,2.7,2.6c4,0.2,5.7-4,9.2-4.7c0.9-0.3,1.9-0.3,2.8-0.1c2.5,0.8,2.6-1,3.1-2.7c1.8-5.7,4.1-11.2,6.7-16.6
			c1.1-2.4,2.7-4.6,4.6-6.4c1.7-1.6,3.5-2.5,5.9-1.5c2.1,0.8,3.3,3,2.9,5.2c-0.1,0.7-0.1,1.3-0.1,2c-0.1,3.4,2.8,4.9,4.9,6.5
			s3.3-1.3,4.6-2.6c1.9-1.8,3.8-3.1,6.5-3.1c2.5,0,4.4-1.3,6.4-2.5c8.9-1.8,14.9-7.2,18.3-15.5c9-8.3,17.1-17.4,25.6-26.1
			c7.1-7.2,14.3-14.4,21.9-21.1c5.3-4.6,10.3-9.5,15.4-14.2c7.5-7,15.3-13.8,22.8-20.8c10.7-9.9,20.5-20.8,32-29.8
			c0.9-0.5,2-0.5,2.9,0.1c1.7,2.2,0.1,3.5-1.3,5c-4,4.1-8.4,7.8-11.9,12.4c-14.8,12.9-27.8,27.6-40.4,38
			c12.2-10,24.8-24.4,39.1-36.9c1.7-1.2,2.5-3.2,4.1-4.5c3.6-3.1,6.8-6.6,10.1-9.9c2.6-2.7,5.2-5.5,7.9-8.2c1.4-1.4,2.8-3,5.1-1.5
			c0.7,0,1.4,0,2.1,0.1c-25.2,25.8-51.2,50.9-77.1,76c-4.6,2.4-7.4,6.6-10.9,10.1c-9.6,9.7-20.2,18.5-29.1,28.9c-4,4.7-8.3,9-13,13
			c-7.2,6-13.3,13.1-20,19.5c-7,6.6-14.5,11.9-24.7,12.2c-5.6,0.2-9.5,4-9.8,8.5c-0.1,3.8-0.4,7.6-3.3,10.6c-1.1,1.4-2.6,2.4-4.2,3
			c-1.5,0.6-3.5,1-3,3.5c3.5,6.1,9,10.7,12.8,16.7c1.9,3-0.2,5.7,1.8,8.7c2.5,3.7,5.4,7.1,7.5,11c4.5,8.4,7.9,17.4,13,25.5
			c3.1,2.5,3.7,6.4,4.9,9.8c3.2,9.5,4.8,19.3,6.1,29.2c1.2,8.9,2,17.9,3.4,26.8c1,6.2-1.5,12.4-0.9,18.7c-0.1,4.7-1,9.4-0.9,14.1
			c0.8,6.4-1,12.4-2.6,18.4c-2,0.8-1.6,2.4-1.6,4.1C425,582.8,424.9,587.2,421,590.3z"/>
		<path class="st48" d="M390.9,378.3c-1.9-5.4,2.8-10.5,10.5-10.9c3.8-0.3,7.5-1,11.1-2.2c11.5-3.5,18.3-12.7,26.5-20.4
			c2.5-2.4,4.4-5.5,8-6.5c-12.6,13.4-25.7,26.3-39,39c-4.7,2.1-10.1,0.8-14.8,2.7C392.1,380.4,390.6,380.1,390.9,378.3z"/>
		<path class="st49" d="M390.9,378.3c5.5-2.4,11.2-3.3,17-1c-3.9,4.7-8.3,9.1-13,13c-3,1.6-5.7,2.5-6.9-2
			C390.2,385.4,387.3,380.8,390.9,378.3z"/>
		<path class="st48" d="M459.9,325.3c0.6-2.6,2.4-4.2,4.2-6c7.2-7.1,14-14.6,21.5-21.4c4.5-4.1,7.6-10.3,14.3-11.7
			c-8.7,9.6-17.9,18.7-27.6,27.4C468.1,317.5,464,321.5,459.9,325.3z"/>
		<path class="st30" d="M387.9,388.3c2.2,1,4.5,1.7,6.9,2c-2.2,3.1-6.1,5.4-5,10.1c-1.1-1.7-1.2-4.1-3-5.4s-3.5-1.7-4.9,0.5
			C381.5,391.1,384.9,389.8,387.9,388.3z"/>
		<path class="st45" d="M627.9,90.3c-2.1,2.1-5.2,2.7-7.1,5.3c-1.7,2.3-3.6,0.6-4.9-0.9c-6-7.1-12-14.2-17.9-21.3
			c-9.3-11.1-18.5-22.2-27.7-33.3c-1.5-1.8-3.5-3-5.3-4.4c-4.3-3.3-4.3-4.7,0-8.3c5-5.4,7.2-5.2,11.5,0.4
			c5.4,7.1,10.6,14.5,15.8,21.7c1.7,2.3,3.9,3.9,5.7,5.9c3.3,3.1,5.6,7.5,10.9,8.2c1.8,0.5,3.2,1.8,3.9,3.5
			C616,76,624.1,81.7,627.9,90.3z"/>
		<path class="st1" d="M597.9,55.3c-2,0-3.6-0.3-5-2.2c-5.7-7.9-11.8-15.5-17.7-23.4c-4.1-5.5-4-5.6-10.3-2.4c0-0.4,0-0.8-0.1-1.2
			c2-1.6,4-3.2,6-4.9c4.5,0.3,6.4,4,8.5,7C585.6,37.2,593,45.4,597.9,55.3z"/>
		<path class="st50" d="M429,541.6c-0.4-3.8-0.2-7.6,0.5-11.4c0.6-3.1,0.8-6.3-0.8-9.2c-0.5-0.7-0.7-1.5-0.6-2.3
			c1.8-4.9-0.3-9.5-1.4-14c-1.9-7.8-0.9-15.9-2.6-23.6c-1.6-8.1-4.1-16.1-7.3-23.7c0.3-1.3,0.7-2.7,1-4c5.5,12.1,8.6,24.9,11.3,37.9
			c1.6,8,1.3,16.2,2.7,24.1c0.8,9,0.8,18,0,27c-1.1,11.3-1.3,22.8-4.1,33.9c-0.3-0.6-0.6-1.3-0.9-1.9c0.1-6.1,3-12,1.1-18.3
			C429.9,551.4,429.6,546.5,429,541.6z"/>
		<path class="st30" d="M431.9,542.3v-27C433.5,524.3,433.5,533.4,431.9,542.3z"/>
		<path class="st51" d="M741.9,166.3c-9.7-8-19.3-16-29-24c-0.1-1.9,1-1.7,2.1-1.1c1.2,0.8,2.2,1.8,2.9,3.1l0,0
			c6.8,5.7,13.7,11.3,20.4,17.1C739.8,162.7,742,163.7,741.9,166.3z"/>
		<path class="st5" d="M424.1,344.5c-0.9,2.2-2.4,3.8-4.8,3.7c-4.6-0.2-7.3,2.2-9.8,5.7c-1.6,2.2-3.9,6.3-5.9,0
			c-0.4-0.9-1.1-1.6-2-2.1c-3.4-1.6-3.8-4.3-3.3-7.5c0.2-1.6,0.9-3.5-1.2-4.3c-1.9-0.7-3.1,0.8-4.1,2.1c-1.9,2.3-3.4,4.9-4.5,7.7
			c-1.2,3.1-2.4,6.2-3.8,9.2c-1.5,3.2-3.8,6.3,0,9.9c-2.2-0.5-4.4-1-6.6-1.6c-2.4-2.4-2.3-5.5-1.7-8.4c2.2-11.7,8.4-22.2,17.7-29.7
			c7.8-6.5,14.3-14.3,21.9-21c6.1-7.3,13.5-13.2,20.3-19.6c10.1-9.5,20.4-18.9,30.6-28.3c4.1-2.8,7-7.1,11-10.1c1-1.6,2.4-2.9,4-3.9
			c4.1-2.9,7-7.1,11-10.1l1-1c1.7-1,3-0.4,4,1.1c1.5,3-0.8,4.7-2.5,6.4c-8,8.2-16.3,16.1-24.7,24c-10.7,10-20.6,20.9-31.2,30.9
			c-9.4,8.9-18.8,17.9-28,27c1.5-0.6,3.3-0.2,4.4,1c5.1,4.4,8.9,3.2,11.2-3.3c0.6-0.8,1.1-1.6,1.6-2.4c0.4-0.6,1.1-1.1,1.8-1.3
			c7.3-3.2,12.1-9.2,16.9-15.1c2.2-2.7,4.1-5.6,7.2-7.4c1.4-0.6,2.4-1.7,3-3.1c1.1-3.3,3.4-6.1,6.5-7.9c1.9-1.2,3.3-2.8,4.3-4.8
			c1.9-4.4,6.2-6.4,9.4-9.5c17.7-17.3,35.5-34.6,51.7-53.4c3.7-4.3,7.8-8.5,13.9-9.6c3.2,3,0.7,5.5-1,7.7c-3.8,4.9-3.9,4.9,1.1,8.3
			c0.5,4.2-2.7,6.2-5.5,7.8c-5.1,2.9-9.5,6.3-12.4,11.5c-2.8,3.7-7.1,6.3-8.9,10.8c-5.3,4.6-10,9.7-14.9,14.6c-2.9,3-6,5.7-9.4,8.1
			c-5.4,1.1-8.9,5.3-13.1,8.3c-2.1,1.5-1.7,3.3-1.9,5.2c-0.5,1.1-1.3,2.1-2.3,2.9c-4.1,0.3-4,4.4-6,6.6
			c-11.4,12.5-22.9,24.8-35.9,35.7c-5,0.8-6.5,5.1-8.9,8.6C424.2,344.1,424.1,344.3,424.1,344.5z"/>
		<path class="st11" d="M415.9,308.2c-5,6.7-11.7,11.8-17.3,17.9c-5.4,5.8-11.3,11.2-14.8,18.6c-2.6,5.8-4.2,12-4.8,18.3
			c-0.3,1.5-0.6,2.9-1.1,4.3h-3c-3.8,2.4-7.5,5.1-11,8c-3.1-1.7-1.6-5.5-3.6-7.6c-1.1-1.2-2.5-5.5-4.4-0.4c-3.9,0.2-5.5-1.5-6-6.1
			c2.6,1.1,5.3,3.1,8,0.1c10.3-9.7,20.7-19.3,31-29c7.5-6.2,14.6-13,21.5-19.9C412,310.7,413.5,308.9,415.9,308.2z"/>
		<path class="st51" d="M496.9,237.3c-1-0.7-2-1.4-3.1-2.1c14.2-15.2,30.1-28.6,45.1-42.9c2.3-1.7,4.6-3.3,6.9-5
			c1.3,0.3,2.4-0.7,3.6-0.5c2.9,0,4.5,1.3,4.3,4.4c-2.7,3.3-5.9,6.2-9.4,8.6c-4-0.9-6.9,0.6-9.7,3.5c-10.5,10.6-21,21.2-31.7,31.6
			C501.5,236.5,500,239.3,496.9,237.3z"/>
		<path class="st51" d="M477.9,250.2c-3.2,3.9-6.1,8-11,10.1C470.2,256.6,473.3,252.5,477.9,250.2z"/>
		<path class="st51" d="M492.9,236.2c-3.2,3.8-6.1,8-11,10.1C485.2,242.6,488.2,238.5,492.9,236.2z"/>
		<path class="st5" d="M700.9,106.3c0-4.2,1.4-5.3,4.6-1.9c1.1,1.3,2.9,1.7,4.4,0.9c0.7,0.4,1.1,1.2,1,2c-2.8,0.1-5.5,1.6-7.1,3.9
			C703.6,109.2,701.9,107.9,700.9,106.3z"/>
		<path class="st49" d="M4.9,492.3c1.3,0.5,2.1-0.5,3.1-1c-1.2,5.5-2.9,10.8-5.1,16C2.7,502.3,3.4,497.2,4.9,492.3z"/>
		<path class="st49" d="M9.8,472.3c3.2,3.8,1.9,8.3-2.8,10C7.4,478.8,8,475.4,9.8,472.3z"/>
		<path class="st52" d="M694.9,233.1c-12.4-15.1-23.5-31.2-35.4-46.7c-2.1-2.8-0.7-5.4-0.6-8.1c11.1,18.9,26.2,34.9,39.9,51.8
			C697.8,231.5,696.5,232.5,694.9,233.1z"/>
		<path class="st53" d="M706.7,229.3c-4.1,4.4-8.9,8.1-14.1,11.1c-0.4-0.4-0.7-0.9-1.1-1.3c4.7-3.7,9.4-7.3,14.1-11
			C706,228.5,706.3,228.9,706.7,229.3z"/>
		<path class="st5" d="M710.9,107.3c-0.3-0.7-0.7-1.3-1-2c5.8-7.2,11.5-14.4,18.2-20.8c1.3-1.2,3.1-2.9,2.5-4.5
			c-0.8-2.3-3.2-0.5-4.8-0.6c-1.6-0.1-3.3-0.1-4.9,0c-1.9-1.9-1.8-3.9,0-5.6c4.1-3.8,8.6-7.1,13.5-9.7c2-1.1,3.8-0.8,4.8,1.6
			c0.9,2.6-1.3,3.9-2.3,5.7c-4.3,8.7-6.5,18.4-13.6,25.5C719.4,100.7,715.6,104.5,710.9,107.3z"/>
		<path class="st54" d="M748.9,61.3l1.9,1.9c-1,0.4-1.9,0.8-2.9,1.1c-2.2,1.1-3.2-0.4-4.2-1.9c-4.2-5.8-8.7-11.4-13.4-16.8
			c-3.5-3.7-4.8-9-3.2-13.8c2.3-2.4,4.5-2.2,4.6,1.2c0.4,9.3,6,15.1,12.5,20.5C746.6,55.5,750.8,56.6,748.9,61.3z"/>
		<path class="st6" d="M727.9,32.3c0.8,14.4,12.6,21.9,20.1,32.1c-1,0.6-2,1.2-3.1,1.9c-2.4,1-3.2-0.9-4.3-2.3c-2.2-2.8-3.8-6-6-8.9
			c-3.5-3.8-5.3-8.7-8.9-12.4c-2.4-2.5-0.6-5.4-1-8.1c0.1-1.3,1.1-2.3,2.4-2.3C727.4,32.2,727.7,32.2,727.9,32.3z"/>
		<path class="st55" d="M735.9,54.3c3,4,6,7.9,9,11.9c-1.7,2.9-4.7,4.7-8,5.1c-1-1.9,0-3.5,1-5c1.6-2.5-0.4-2.8-2-3.8
			c-4.4-2.7-5.6-6.6-3.3-10.5C734.5,51.6,735,53.3,735.9,54.3z"/>
		<path class="st16" d="M732.9,52.3c0.3,3.8,1.8,7,5.2,9.1c2.7,1.7,2.3,3.3-0.2,4.8c-0.1-0.1-0.2-0.4-0.3-0.4
			c-4.4,0.1-15.5,9-16.7,13.4c-8.1-0.4-12.1-4.4-13-13c3.1-3.4,6-6.9,9.2-10.1c0.9-0.8,1.6-1.6,2.3-2.6c0.8-1.3,1.7-2.8,0.1-3.9
			s-2.7,0.3-3.7,1.5c-0.8,1.1-1.2,2.3-2.1,3.4c-1.5,1.8-3.8,2.5-5,0.5c-1.9-3.2-5-3.5-7.8-4.7c-7.2,0.3-11.2-3.8-13.8-9.9
			c-0.9-2.1-1.6-4.3-2.4-6.5c-1.4-3.6-3.9-5.2-7.8-3.6c6.7-7.3,13.4-14.7,20-22h0.8c0.6,0.4,1,1,1.3,1.7c0.2,2.7-2.5,4.8-1.7,7.6
			c-0.6,2.5,0.3,4.1,2.7,5c2.3,0.9,4.1,2.6,5.2,4.8c1.6,2.9,3.1,5.9,6.8,6.9c1.1,0.4,1.9,1.4,2.1,2.6c1,3.7,2.3,1.2,3.6,0.2
			c0.5-0.6,1.1-1.1,1.7-1.5c1.1-0.7,2.4-0.9,3.7-0.7c2,0.3,3.1,1.3,2.5,3.4c-0.9,2.7,0.5,4.3,2.2,6C730,46.6,732.3,48.9,732.9,52.3z
			"/>
		<path class="st56" d="M748.9,61.3c-3.2-6.2-10-9.2-13.6-15c-2.4-3.8-5-7.5-4.8-12.2c0.1-2-0.6-2.9-2.6-1.8l0,0
			c-6.1,3.1-5.8,2.8-11.8-2c-5.2-4.2-10-9-14.1-14.3c-1.6-2.1-4.1-4.3-2.3-7.5c0.4-0.8,0.7-1.5,1.1-2.3c0.5-1,0.6-2.6,1.9-2.6
			c1.8-0.1,1.8,1.7,2.1,3c3.2,12.3,11.3,19.2,23.5,21.7c2.5,0.5,4.3,1.4,4.5,4.4c0.9,10.5,7,17.3,16.1,21.8c2.5,1.1,5,2.3,8.1,3.6
			C754.4,60.1,752,61.4,748.9,61.3z"/>
		<path class="st54" d="M699.8,8.4c4.4,10.3,12.5,17.4,21.4,23.8c2.3,1.7,4.5,0.1,6.7,0.1l-2,2c-0.2,1.9-2.1,1.2-3,2
			c-1,0.3-2,0.7-3,1c-1.7,1-3.2,0.7-4.1-1.1c-3.6-6.9-10-11.4-15.1-16.8c-2.8-2.9-4.4-5.3-2.8-9.1c0-0.6-0.1-1.3-0.1-1.9
			C698.5,8.3,699.1,8.3,699.8,8.4z"/>
		<path class="st57" d="M743.9,192.3c-1.6-0.8-1.6-2-0.5-3.2c4.5-5,9.1-10,13.7-14.9c0.8-0.9,1.8-0.6,2.7,0.1L743.9,192.3z"/>
		<path class="st1" d="M548.9,189.3c-1.8,0.5-2.5-0.6-3-2c4-4.3,6.1-9.6,8-15c3.9,4.1,1.2,7.5-1,11
			C554.7,187.4,549.5,186.9,548.9,189.3z"/>
		<path class="st0" d="M655.9,51.3c2-0.8,4.2-1.1,6.3-0.6c2,0.3,5.1-1.1,5.4,1.9c0.3,2.8-1.6,5.4-4.1,6.9s-3.9-0.8-5.3-2.3
			s-2.9-2.8-3.3-4.9L655.9,51.3z"/>
		<path class="st58" d="M349.9,361.2c1.8,2.2,2.9,5.2,6,6.1c-1.5,2.7-2.9,5.7-5.1,0.5c-0.6-1.3-1.8-3.7-2.6-3.1
			c-2.8,2.3-9.1-2.7-9.2,4.6c-0.8,1.3-2.5,1.6-3.7,0.8c-0.1,0-0.1-0.1-0.2-0.1c-7.3-5.1-15.6-8.6-22.2-14.7c-2.5-1.3-5-2.8-7.9-3
			c-2-1.3-3.8-2.8-6.2-3.5c-2.2-0.6-4.2-2-3.7-4.9c0.4-6.4,0.8-6.5,5.9-4c12.1,5.8,23.4,13.1,35.8,19.8c-1.5-5.3-7.1-4.8-9.3-8.2
			c4.3-0.8,4.3-0.8,18.7,7.9C347.4,359.9,348.6,360.5,349.9,361.2z"/>
		<path class="st59" d="M700.9,50.3c3.2,0,6.3-0.2,8.5,2.9c1.3,1.8,2.3,0.5,2.8-0.8c0.8-2.2,2.1-4.1,3.9-5.6
			c1.6-1.1,3.3-3.3,5.1-1.3s4.3,5,1.9,7.5c-4.7,4.9-7.8,11.7-15.3,13.4C710.6,58.8,707.3,53.8,700.9,50.3z"/>
		<path class="st0" d="M693.7,57.4c0,1,0,2.1-1,2.7c-0.9,0.5-2.1,0.3-2.8-0.5c-5.1-4-6.9-10.5-11.2-15.1c-0.4-0.5-0.3-1.2,0.2-1.6
			c0.1,0,0.1-0.1,0.2-0.1c1-0.7,2.2-0.9,3.3-0.6C686.2,43.3,693.7,53.5,693.7,57.4z"/>
		<path class="st35" d="M677.3,107.5c-0.3,1.5-1.4,1.7-2.6,1.5s-2.2-0.8-2.3-2.1c-0.1-0.9,0.5-1.7,1.4-1.9c0.3,0,0.6,0,0.8,0.1
			C676,105.2,677.1,106.2,677.3,107.5z"/>
		<path class="st0" d="M651.9,61.3c0.8,0.1,1.6,0.3,2.3,0.6c1.2,0.6,2.3,1.4,1.8,3c-0.3,1-1.3,1.6-2.3,1.4c-1.5-0.2-1.6-1.4-1.7-2.5
			C651.9,63,651.9,62.2,651.9,61.3z"/>
		<path class="st0" d="M548.9,189.3c0.5-2.6,2.8-4,4-6c2,0.5,3.8,2.1,6,0.1c1.2-1.1,2.5-0.1,3.5,0.9c5.7,5.3,10.7,11.3,16.8,16.1
			c2.1,1.7,1.5,3.8-0.2,5.6c-1.4,1.4-2.7,2.9-4.1,4.3c-4,3.7-8,7.3-12,11c-3.7,2.9-7.1,6.3-10,10l-4,4c-0.7,0.6-1.5,0.7-1.9-0.1
			c-0.6-1.1,0.4-2,0.9-2.9c3.4-3.6,6.9-7.2,10.3-10.8c1.5-1.6,3.2-2.9,3.6-5.2c-0.9-1.4,1.1-3.2-0.7-4.5c-6.8-2.9-8.6-6.2-7.6-13.7
			c0.2-1.3-0.2-2.6-1.1-3.6c-0.6-0.9-0.5-2,0.2-2.8C552.2,189.7,551.2,188.3,548.9,189.3z"/>
		<path class="st0" d="M567.9,161.3c3.9-1.3,3.8,1.5,4,4C569.6,164.9,568.1,163.8,567.9,161.3z"/>
		<path class="st37" d="M380.9,412.4c6.9,6.4,11.3,14.7,15.8,22.7c15.2,27,22,56.4,24.2,87c0.2,2.3,0.1,4.6,0.2,6.9
			c-0.1,1.7-0.1,3.3-0.2,5c-0.1,1.2,0.3,3.3-1.4,3.2c-1.9-0.1-1.1-2-0.9-3.2c0.5-2.8-0.3-4.3-3.4-3.8c-1.9,0.3-3.2,1.1-2.5,3.3
			c1.1,3.6-0.6,6.9-1.3,10.2c-0.8,3.9-3.7,4.8-7.2,2.6c-2.8-1.8-4.7-1.8-7.4,0.7c-3.2,3-7.1,5.4-10.8,7.9c-3.4,2.3-5.9,5.3-8.6,8.3
			c-1.1,1.2-2.4,3.5-4.4,1.8c-1.7-1.4-0.2-3,0.5-4.5c1.2-2.5,3.1-4.3,5-6.2c5.3-5.1,10.1-10.6,14.5-16.4c0.7-1,2-1.9,1.1-3.6
			c-0.4,0-1-0.1-1.3,0.1c-1.9,1-3.9,4.1-5.9,1.6c-1.4-1.8,1.2-3.8,2.5-5.4c1.7-2.1,3.3-4.2,3.9-6.9c0.6-2.5-0.4-3.1-2.6-2.2
			c-2,0.9-3.7,2.2-5.1,3.9c-6.2,8-12.3,16-20,22.7c-3.5,3.1-7.9,5-10.5,9.1c-0.6,0.9-2.2,2-2.8-0.4c-1-3.9-2.7-2.2-4.4-0.5
			c-1.1,1.1-1.8,3-3.9,2.1c4.1-11.9,12.8-20.3,20.8-29.4c-8.6,7.5-18.4,13.5-24.5,23.9c-1.8-2.7-0.7-4.2,0.3-5.4
			c1.7-2.3,2.6-4.2,0.6-7.1c-1.9-2.6,0.8-2.9,2.6-3.1c3.5-0.3,7.1,0,4.3-5.7c-1.2-2.5,1.4-5.2,3.3-7.3c1.5-1.8,4-3,4-7.5
			c-14.2,12.9-28.1,24.3-40.3,39c-0.7-4.3,3-4.8,2.8-7.8c-3.4,0.1-6.3,0.9-7.1,4.6c-0.6,2.6-1.8,3.8-4.5,3.2c-2.2-0.5-4.1,0.9-7.7,2
			c7.9-9.2,15.1-17.1,22.1-25.4c-3.9,3.2-7.8,6.4-11.7,9.7c-8.6,7.2-14.3,17-22.6,24.4c-3.2,2.9-5.5,0.6-8,0.4
			c-1.4-0.1-0.2-2.3,0.9-2.9c3.1-1.6,3.9-4.5,4.9-7.4c-5.1,5.5-13.7,6.8-16.3,15.4c-1.7,5.4-8.6,6.2-12.1,10.5
			c-5.6,7-14.4,9.8-21.2,15.4c-1.2,1-2.8,1.3-4.2,0.8c-4.7-1.6-7.7,0.7-11,3.7c-4.4,4.1-8.6,8.8-14.7,10.6c-0.4,0.1-0.9,0.2-2,0.4
			c2.1-5.9,6.8-8.9,10.6-12.6c4.1-4,9.1-7.2,10.7-13.3c0.4-1.5,1.8-1.8,3-2.3c4.4-2.1,6.5-7.2,5-11.8c-0.7-1.9,4.7-10.9,6.8-11.3
			c1.7-0.3,2.1,0.7,1.8,2.1c-0.4,2.2-1.8,4-3.7,5.1c-0.9,0.5-2.8,0.6-1.7,2.3s2.2,0.7,3.3-0.3c9.1-7.5,18.2-15.1,25-24.9
			c1.8-2.7,5.2-4.2,6.2-8.2c-2.9,0.2-5,1-6.1,3.4c-0.5,1.1-0.8,2.5-2.3,1.9c-1.8-0.8-0.7-2.3-0.3-3.4c2.3-6,6.4-10.7,11.5-14.6
			c2.1-1.7,4.1-3.5,5.9-5.4c0.6-0.6,1-1.5,0.4-2.2c-0.7-0.9-1.5-0.3-2.1,0.2c-2.6,2.2-4.2,5.4-9.2,3.3c-1.6-0.7-5.5,4-8.4,6.1
			c-3,2.2-6.1,4.3-9.3,6.2c3.3-4.6,6.3-9.4,10.3-13.3c0.8-0.8,2-1.9,1-3s-2,0.3-2.9,1c-1,0.9-1.9,1.8-2.8,2.8
			c-3,3.2-4.7,2.4-5.2-1.4c-8.4,2.6-13.6,10-21.3,13.9c-2.5,1.2-4.6,5.1-8,6.6c-1.1,0.4-2.2,1-3.2,1.7c1-0.7,2-1.3,3.2-1.7
			c1.2,0.9,2.3,2.3,0.7,3.2c-7.2,4-13,10-20.7,13.3c-2,0.9-3.5,0.7-4.7-1.1s0.1-3.2,1.3-4.3s2.2-2.4,3.6-2.6
			c8.5-1.6,12.7-8.2,17.2-14.5c1.7-2.5,3.8-4.6,6.3-6.3c6.8-4.8,12.5-10.8,18.2-17.8c-5.3-0.1-9,2.3-13.2,3.1
			c-1.5,0.3-1.6,2.7-1.8,4.3c-0.2,2.7-1.9,5-4.3,6.1c-1.3-1.8,1-2.5,0.5-4.3c-24.4,20.5-49,40.6-70.7,63.9c-0.5-0.5-1-1-1.4-1.5
			c2.6-3.1,4.6-6.9,7.8-9.2c11.3-8.2,19.4-19.5,29-29.3c8.2-8.3,17.4-15.5,26.3-23c0.9-0.6,1.6-1.2,2.3-2c0.9-1.2,2-2.8,0.5-4
			c-1.3-1-2.5,0.4-3.3,1.4c-6.8,8.5-16.7,13.4-24.1,21.3c-1.9,2.1-3.7,4.3-5.6,6.4c-1.6,1.8-3.8,2.9-5.6,0.8c-1.7-1.9,0.6-3,1.8-4.4
			c2.8-3,5.5-6.2,8.1-9.4c0.8-0.9,1.3-2.2,0.2-3.1s-1.9,0-2.5,0.8c-1.1,1.4-2.6,1-4,1.2c-2.1,0.4-4.7,2-4.5,4.1
			c0.5,4.3-2.4,4.7-5,6.2c-2.8,1.6-6.6,2.6-6.8,7c0,0.5-1.1,1.3-1.8,1.5c-5.4,1.1-8,5.6-11.4,9.2c-5.9,6.4-11.2,13.6-21.3,17.3
			c15.4-17.4,30.6-33,45.6-48.8c-17.6,13.8-34.9,28-51.1,43.5c-1.6-1.8,1.7-4.4-1.7-4.7c-2.5-0.3-4.3,0.6-4.3,3.5
			c0,0.8,0.5,2-0.6,2.1c-7.1,0.8-11.3,6.5-16.7,10.1c-1.2,1-3.1,0.8-4.1-0.5c0,0,0,0,0,0c-1.1-1.3-0.1-2.5,0.9-3.5
			c5.4-5.2,10.9-10.2,16.2-15.5c1.3-1.3,5-2.5,0.5-5.3c-1.8-1.1,0.7-4.7,2.6-5.3c2.3-0.8,4.3-2.1,6.7-3c0.4,3.6-4.5,3.8-3.7,8.1
			c6.6-6.1,14.3-10.1,19-18.3c-4.5,1.1-5.7,5.6-9.3,6.9c-1.3,0.5-2.6,2.5-3.9,1c-1.6-1.7,0.4-2.9,1.5-4.1
			c5.6-6.4,14.3-9.2,19.5-15.6c3.8-4.6,7.1-8.9,12.1-12.7c4.2-3.2,8-6.9,11.2-11.1c0.9-1.2,2.9-2.7,1.5-4.2
			c-1.5-1.7-3.4-0.3-4.8,0.9c-4.8,4.3-9,9.7-14.5,12.9c-7.2,4.3-11.5,11.9-19.2,15.3c-4.4,2-6.6,6.9-11.9,9.1
			c1.1-3.7,3.2-5.8,5.4-7.8c3-2.6,6.1-5.1,9.2-7.7c1.5-1.3,3-2.7,2.9-5c0-1.4,0.3-2.8,2.2-2.7c5.7,0.3,6.1-4.1,5.7-7.7
			c-0.4-3.8,1.8-4.8,3.7-6.7c1.9,2.1-1.1,4.9,1.4,5.7c2.3,0.7,3.7-1.9,5-3.5c2.1-2.8,4.5-5.3,7.3-7.5c1.6-1.2,2.5-3.1,2.3-5.1
			c-2.3,0.9-2.9,3.3-4.4,4.6c-1.4,1.1-2.9,2.3-4.3,0.6s0.4-2.6,1.5-3.5c1.2-1.1,2.6-2.1,3.7-3.3s3.6-1.8,2.5-3.8
			c-1.4-2.4-3.1,0.6-5,0.3c0.5-6.6,8.6-7.9,9.4-14.6c-3.3,2.7-6.9,5.3-10,8.2s-5.6,6-9.7,7.6c-3.3,1.3-4.8,4.6-6.6,7.3
			c-2.2,3.3-5.1,5.5-9,5.2c-5.6-0.4-7.7,3.3-9.7,7.3c-0.6,1.2-1.3,3.3-2.5,1.6c-2.9-4.2-4.4-0.9-5.9,0.9c-2.3,2.5-7.4,3.4-5.4,8.7
			c0.1,0.2-0.5,1-0.9,1.1c-5.5,0.6-7.6,6.5-12.6,8.1c-3.2,1-5.8,3.3-8.1,5.8c-9,9.7-20,17.1-29.6,26.1c-8.5,8-16.8,16.1-24.7,24.6
			c-1.3,1-2.7,2-4,3c-3,1.9-5.9,3.2-8.5-0.7c-0.9-1.3-2.4-1-3.6-0.3c-1.3,0.9-2.9,0.9-4.2,0.1c-1.1-1.1-0.8-2.4-0.8-3.7
			c-0.7-4.3,1.6-8.3,0.7-12.7c-0.3-1.5,1.6-2.7,3-3.8c3.5-2.9,6.7-6.1,9.7-9.5c-4.9,2.7-7.5,1.8-9.4-2.9c-0.8-2-1-4.2-0.8-6.3
			c0.3-2.8-1.1-3.7-3.6-2.4c-1.4,0.7-2.6,2.4-4.4,1.1c-0.8-13.3-1-26.5,2.1-39.8c0.8-4,1.2-8,1-12.1c4.1-16.5,8.8-32.7,16.8-47.8
			c13.5-25.6,30.7-48.2,52.5-67.2c6.7-5.8,13.9-10.8,21.7-15c1.1,0.3,2.3,0.9,3.3,0.1c4.9-4.2,10.9-6.9,15.8-11.2
			c9-4.6,18-9.2,27.8-11.9c1.2,2.1,0.2,3.7-1.6,4.6c-9.1,4.4-15.1,12.4-21.9,19.4c-3.2,3.3-6.2,6.9-10.5,9.1c-1.3,0.8-2.4,1.8-3.3,3
			c-5.1,7-11.9,12.4-18.3,18.1c-3.7,3.3-6.7,7.1-6.4,12.8c0.2,3.9-3.3,6-6.3,7.6c-1.9,1-3.6,2.4-4.9,4.1c2.6-3.8,6.9-4.5,9.5-7.5
			c1.1-1.3,2.8-1.1,4,0.2c1.2,1.2,1.3,3.1,0.1,4.4c0,0.1-0.1,0.1-0.1,0.1c-3.3,4-6.9,7.7-10.8,11.1c-12.5,10.5-24,22.1-35.7,33.4
			c-3.7,3.6-8.2,6.2-10.7,9.1c6.4-5.6,13.8-12.2,22-17.8c4.8-3.3,9.3-7.1,13.3-11.3c2.3-2.4,4.9-4.1,8.4-3.4
			c1.4,0.2,2.4,1.5,2.4,2.9c0,3.6-2.3,5.5-5,7.4c-6.4,4.5-12,10-18,15c-0.8,0.6-1.4,1.5-1.7,2.5c-0.7,2.2-2.3,4.6-0.1,6.5
			c2,1.7,3.5-0.8,5.2-1.7c6.4-3.5,12.2-8,17.3-13.3c1.8-1.7,3.9-3,6.3-3.8c5.6-2.1,10.1-5.4,11.8-11.7c1.6-5.7,4.8-10.3,11.7-10.5
			c3.2-0.1,5.7-1.7,7.9-3.9c2.9-3,6-5.8,9.1-8.6c1.7-1.6,3.9-2.3,5.8-0.4s0.8,3.5-0.4,5.4c-2.2,3.5-5.5,5.8-8.6,8.3
			c-3.2,2.4-6.1,5.2-8.7,8.2c-5.2,6.1-11.6,10.9-17.7,16c-3.3,2.8-6.1,6.1-6.5,11.4c4.3-2.6,8.5-4.3,11.7-7.8
			c4.3-4.5,8.8-8.7,13.5-12.6c2-1.7,4.2-3.3,6.6-1s0.5,4.2-0.9,6.1c-1.7,2.4-2.9,5.4-4.7,7.6c-2.8,3.7-6.4,6.6-10.5,8.7
			c-2.3,1.1-3.2,2.7-4.3,5c-2.6,5.3-5.4,11-10.4,14.2c-7.6,4.9-12.9,11.9-18.4,18.8c-7.2,2.6-11.3,8.7-16,14.2
			c5.3-4.8,10.2-10.1,16-14.2c4.4-5,10.7-7.2,16-10.9c1.5-1,3.5-0.7,4.5,0.8c1.2,1.5,0.9,3.6-0.6,4.8c0,0-0.1,0.1-0.1,0.1
			c-5,4.6-9.3,10-14.5,14.5c-2.5,2-4.5,4.5-5.9,7.3c-1.5,3.2-3.1,6.2-6.5,7.9c-3.2,1.5-3.1,5.5-5.5,8c-3.5,3.3-6.6,7.1-9.2,11.1
			c3.5-3.9,8.8-6.3,10.3-11.9c0.4-1,1.3-1.6,2.3-1.7c2.8-0.5,4.8-2.2,6.6-4.2c4.4-4.7,9.9-8.3,14.6-12.7c1.5-1.4,3.2-2.9,5.2-1.2
			s1.2,3.8,0.1,5.8c-2.6,4.8-6.9,8.2-10.9,11.4c-7.9,6.3-14.2,14.1-18.7,18.1c4.5-4.1,11.3-11.6,18.9-18.3
			c9.7-8.6,20.6-15.5,29.9-24.6c7.2-7,15.7-12.8,23.2-19.5c9.5-8.5,20.2-15.3,29.5-24c6.2-5.8,12.9-11,20-15.6
			c2.9-1.8,4.7-0.8,5.3,1.7c-2-3.3,0.8-5.8,3.8-8.2c2.7-2.2,4.1-5.3,9-4.9c3.5,0.3,7.4-3,10.6-5.7c4.6-4,9-8.3,13.1-12.9
			c7.3-7.7,15.2-14.8,23.7-21.1c4.3-3.2,8-7,11.8-10.6c5.1-5,10.9-9.2,16.2-14c1.8-1.7,3.8-2.3,5.7-0.2c1.6,1.5,1.7,4.1,0.2,5.7
			c-0.1,0.1-0.2,0.2-0.3,0.2c-5.6,5.4-10.6,11.5-17.1,16c-8.4,5.7-16.7,11.5-21.9,20.6c-0.6,1.4-1.7,2.5-3,3.2
			c-4.7,2.3-8.7,5.7-11.6,10c-2.2,3-5.8,3.6-7.5,4.9c1.5-1.5,3.5-0.6,5.1,1.9c3.3,5.2,3.1,7.9-1.5,12.2c-10.8,9.9-22,19.4-33.4,28.5
			c12.7-10.2,25.2-20.6,37-31.8c2-2,4.8-3.1,7.6-3.1c1.4,0,2.7,0.2,3.3,1.6s-0.1,2.5-1.1,3.5c-1.2,1.3-2.9,2.2-4,3.6s-3,2.5-1.4,4.7
			c0.2,0.4,0.4,0.8,0.4,1.3c-0.3,4.4-2.7,7-6.9,7.8c-0.8,0.2-1.5,0-2,1c-4.9,8.1-12.9,13.2-19.5,19.7c-7.6,7.4-16,14-20.3,19.4
			c3.7-4,12.8-6.9,19.2-13.6c0.6-0.6,1.5-0.8,2.3-0.7c2.2,0.2,3.2-0.1,2.6-2.9c-0.6-3.1,1.7-5,4.8-5.1c3.1,0,5.9-1.6,7.5-4.2
			c3.3-4.8,8.9-6.8,13-10.6c1.7-1.6,4.3-2.5,6.2-4.1c1.5-1.3,3.3-1.9,4.9-0.3c1.8,1.8,1.1,3.6-0.4,5.3c-0.7,0.8-1.4,1.5-2.2,2.2
			c4.7-4.6,11.9-8.2,16.3-15c1.5-2.3,3.9-2.4,6.2-1.1c2.6,1.6,2.2,3.8,0.9,6.1c-1.1,1.9-2.7,3.4-4.5,4.6c-1.1,0.8-2.6,1.5-2.8,2.7
			c-1.1,6.9-7.6,8.8-12,12.5c-4,3.4-6.1,8-9.5,11.6c5-2.1,7.8-6.6,11.3-10.2c5.5-5.7,12.6-9.3,17.8-15.3c1.1-1.4,3.1-1.6,4.4-0.5
			c0.2,0.1,0.3,0.3,0.5,0.5c1.5,1.6,1.5,3.6,0,4.9c-3,2.7-5.3,6.1-9.1,8.2c-4.1,2.2-6.9,6.5-9.9,10.3c-0.9,1.1-1.5,2.6-2.8,3.4
			c3-2.1,4.4-5.5,6.9-8c7.7-7.7,16.4-14.2,24.1-21.9c7.3-7.2,14.9-14.2,22.2-21.4c4.6-4.6,7.3-5.2,12-1.8c0.4,0.3,0.6,0.7,0.8,1.2
			c0.7,2-0.3,3.5-1.6,4.9c-4.5,4.7-9.3,9-14,13.5c-4.9,4.6-9.9,9.2-13.6,15c-0.4,0.9-1.1,1.7-1.9,2.2c-7.8,4.5-13.3,11.4-18.9,18.2
			c-1.5,1.8-3.3,3.3-5.3,4.4c-1.9,0.7-3.7,1.5-5.4,2.4c-0.4,0.3-0.9,0.4-1.3,0.7c0.3,0.4,0.8,0,1.1,0.3c2,1.4,1.9,3.3,1.1,5.3
			c-0.4,1-1.5,2-0.1,3c0.3-0.1,0.4-0.3,0.4-0.7c-0.3-5.3,2.3-8.5,6.7-11.2c3.8-2.3,6.6-6,10.9-7.6c1.4-0.6,2.6-1.6,3.3-3
			c4.1-8.6,12.2-13.5,18.3-20.2c1.7-1.8,3.2-3.8,4.5-5.9c1.8-2.9,5.3-3.6,7.2-1.6c2.5,2.5,0.8,4.5-1,6.4
			c-5.8,6.4-10.5,13.8-17.3,19.1c-3.7,2.9-5.6,7.2-9.3,10c-1.6,1.2-3.8,3.2-1.6,5.8c0.7,0.8,1.9,0.8,2.7,0.1
			c0.1-0.1,0.2-0.1,0.2-0.2c-0.5,0.4-1.1,0.6-1.7,0.5c-3.2-2.2-1.4-4.3,0.2-6.2c1.3-1.5,3-2.6,4.1-4.3c2.8-4.6,6.6-5.2,9.6-1
			c2.5,3.5,3.9,1.9,5.6-0.2c6.8-8.4,15.9-14.6,23.3-22.4c6.6-6.9,14.8-12.1,20.7-19.7c1.5-2,2.6-3.8,2.2-6.2c-0.6-4.6,1.8-7.4,5.5-9
			c1.7-0.8,2.4-1.1,2.5-3.2c0.1-3.5,2.5-5.4,6-5.2c3.3,0.2,4.3-0.8,4-4.3c-0.3-4.9,5-10.2,10-10.8c0.9-0.1,2-0.2,2.3,0.5
			C374.6,413.3,377.9,412.3,380.9,412.4z"/>
		<path class="st37" d="M417.8,579.3c-1.4,10.2-6.2,19.2-9.1,28.9c-5,1.9-9.9,3.6-12,9.4c-0.8,2.2-3.5,3.5-5.5,5
			c-8.9,6.6-17.2,13.9-25,21.8c-2,2.1-4,5.7-8.2,3.9c-5.4,1.9-8.8,6.5-13.1,9.7c-5.2,3.9-8.8,9.4-13.6,13.6
			c-9,7.9-16.9,16.9-26,24.6c-3.6,3.1-6,7.7-9.9,10.9c-2,1.7-3.4,2.8-5.3,1.1c-2.2-1.9,0.6-2.7,1.4-3.9c1.4-2,3-3.9,4.5-5.9
			c-1.6-1-2.8,2.1-4,0.3c-1.1-1.5,1.1-2.6,1-4.7c-2.4,2.2-5.6,1.4-7.9,3.6c-1,1-2.3,1.4-2.1,3.4c0.3,2.8-2,3.1-4.1,3
			c-1.5,0-2.5-0.4-1.1-2.4c6.6-9.4,15.1-17.2,22.8-25.7c2.7-3,6-5.6,8.4-8.9c0.6-0.8,1.5-1.6,0.6-2.6s-1.8-0.2-2.7,0.2
			c-2.9,1.5-5.3,5.3-9.3,1.1c0.1,9.7-1.7,12.2-11,14.9c2.8-4-0.1-7-0.9-10.3c-1.2-4.8,0.5-7,5.3-6.3c5.6,0.8,8-3.3,9.3-7.2
			c1.5-4.5,6.3-7.4,5.9-12.8c-0.1-1.5,2.2-2.3,3.7-3.1c1.8-0.9,3.1-2.1,2.7-4.3c-0.3-1.3,0-3.6-2-3.4c-1.7,0.2-1,1.8-0.8,3.2
			c0.5,2.9-2.3,4.6-4,4.5c-4.3-0.2-5.8,2.8-7.9,5.2c-7,7.9-13.6,16.2-22.8,21.7c-2.9,1.7-3.3,5-5.2,7.4
			c-6.6,8.2-15.2,14.2-22.3,21.8c-7.3,7.9-14.5,16-23.5,22.2c-1.7,1.2-2.3,3.3-3.7,4.7c-1.2,1.2-2.9,3.3-4.6,1.7
			c-1.5-1.4,0.4-3,1.6-4.1c4.3-4,8.8-7.6,12.9-11.8c7.5-7.7,14.6-15.8,22.1-23.5c7.3-7.5,13.8-15.7,21.8-22.5
			c2.2-1.9,3.1-5.1,5.2-7.2c8-7.8,14.7-16.7,23.4-23.8c2.2-1.8,3.8-4.6,5.4-7.1c2.8-4.4,7.1-7.1,10.7-10.7c0.9-0.9,2.3-1.9,1-3.3
			c-1.2-1.2-2.6-0.4-3.5,0.5c-3.2,3.1-6.4,6.3-9.5,9.6s-5.6,7-9.2,9.8c-1.9,1.5-3.9,3.1-4.3,5.9c-0.9,5.6-6.3,5.2-10,6.9
			c-1.7,0.8-1.2-1.5-0.9-2.8s1.5-4,0-3.5c-2.9,1-4-4-7.8-0.8c-4.5,4.1-9.1,8-14,11.7c-1.3,0.9-2.8,1.6-3.9-0.1s-0.1-2.8,1.5-3.6
			c1.2-0.6,2.9-1,3.3-2c3.2-7.8,10.6-12.1,15.1-18.9c2.4-3.7,5.9-6.8,9.2-9.8c7-6.4,13.5-13.4,19.2-21c0.6-0.6,1.3-1.1,2-1.4
			c-0.1,1-0.2,2-0.4,3c-0.3,1.8-2.9,4.2-0.3,5.1c2.2,0.7,4.9,2.4,7.9-0.1c3.5-2.9,8.8-3.4,10.7-8.7c0.5-1.3,3.9-3.1,5.6-1.3
			c2.1,2.4-0.9,3.8-2.4,4.9c-2.5,1.8-5.8,2.8-5.2,7.5c5.2-4,12.1-4.7,14.3-12.5c1.5-5,7.9-6.6,11.7-10.3c0.3-0.3,1.2,0.1,1.8,0.2
			c-0.1,0.6-0.2,1.6-0.5,1.7c-3.2,0.9-3.3,4.8-6.2,6.2c-1.7,1-2.3,3.1-1.4,4.8c0.9,1.6,2.8,0.4,4.1-0.2c2.8-1.2,5.9-1.8,8.2-4.5
			c1.9-2.2,5-2.3,7.8-0.5c0.8,0.6,1.6,1.2,2.5,1.6c1.3,0.4,3.1-1.2,3.9,1c0.8,2.4-1.5,3-2.7,4.2c-2.6,2.6-3.7,6.3-6.7,8.7
			c-0.8,0.5-1.1,1.7-0.5,2.5c0,0.1,0.1,0.1,0.1,0.2c0.6,0.8,1.7,1.2,2.7,0.8c1.6-0.5,3.1-1.2,4.7-1.6c3.9-1,6.8,1,7,4.9
			c6.2-1.2,6.9-9.1,12.5-11c1.1,1.4,0.1,2.1-0.5,2.8c-1,1.2-3,2.4-2.1,4.1c1.2,2.2,2.6-1.5,4.3-0.3c-0.3,2.3-4.2,4.8-2.1,6.3
			c2.5,1.7,3.8-2.6,5.9-3.9C403,600.7,409,588.8,417.8,579.3z"/>
		<path class="st60" d="M421.7,543.3v1.1c-0.6,1.2-0.9,3-1.8,3.5c-8.7,4.5-12.3,14.4-20.5,19.3c-1.3,0.8-2.9,2.8-4.2,1.1
			c-1-1.4,0.8-3,2.1-4.1c7.8-6.2,15.1-13,20.8-21.2C419.7,540.8,420.7,541.4,421.7,543.3z"/>
		<path class="st60" d="M401.3,557.3c-0.1,1.1-0.8,1.9-1.9,2.1c-0.8,0.1-1.2-0.6-1.1-1.3c0.2-1,0.6-2,1.8-2.1
			C401,556,401.3,556.6,401.3,557.3z"/>
		<path class="st37" d="M357.9,648.3c11.5-10.4,22.6-21.2,35.1-30.5c1.3-1.1,2.3-2.5,2.9-4c3.3-6.6,5.2-7.4,12.7-5.6l-10.5,23.1
			c-9,17.8-21.3,33.2-35.3,47.3c-9.7,9.7-20.5,18.5-32,26c-1.5-1.6-0.7-2.8,0.5-3.9c-2.9,1.5-5.9,2.9-8.3,5.5c-1.5,1.8-4.2,2-6,0.5
			c-0.1-0.1-0.2-0.2-0.3-0.3c-1.9-1.8-1.2-3.8,0-5.9c4.6-7.2,9.8-14,15.7-20.2c1-1.1,2-2.5,3.7-3.1c6.1-2,9.9-6.5,12.7-11.9
			c0.6-1.4,1.7-2.5,3.1-3.1c3.7-1.3,5.6-4.2,7.6-7.4s6.1-4.6,8.9-7.2c1.4-1.3,3-2.5,4.5-3.8c-3.1,2.9-6.4,5.6-9.9,8
			c-1.8,1.2-3.7,2.1-4.3,4.5c-0.6,1.6-1.7,2.9-3.2,3.7c-6.1,4-9.6,10.9-15.3,14.7c-7.4,4.9-12.1,12.4-19.3,17.2
			c-1.9,1.3-3.8,2.5-5.2-0.6c3.6-5,8-9.2,12.5-13.5C338.4,668.2,348.1,658.2,357.9,648.3z"/>
		<path class="st37" d="M315.9,691.3c5.3-1.5,9.9-4.6,13.3-8.9c6.4-7.7,14.5-13.8,21.3-21c7.3-7.7,17-12.8,23.4-21.4
			c0.7-0.9,1.5-2.2,2.8-1.2s0.7,2.2-0.1,3.1c-1.7,2-3.1,4.7-5.7,5.5c-3.5,1.2-3.5,7.2-8.6,6c-0.1,0.6-0.2,1.2-0.4,1.8
			c-1.5,4.2-4.1,7.6-8.5,9c-0.7,0.2-1.7-0.1-2,1c-2.1,7.3-7.8,10.6-13.9,14.3c-5.7,3.5-11,8.1-13.5,15.1c-0.9,2.6-3.2,4.6-4.8,7
			c-0.7,1-2.2,2.3-1,3.4c1.4,1.3,2.8,0,3.8-1.1c4-4.5,9.6-5.5,15.3-7.1l-6.3,7.8c-16.6,10.6-33.6,20.1-52.9,24.9
			c-0.2-3.6,3.6-5,5.1-5c5.1,0,5.7-2.6,5.8-6.5c0-0.6,0.6-1.1,1-1.7c3.3,0.4,5.4-0.8,7.6-3.7C303.2,705.1,309.7,698.3,315.9,691.3z"
			/>
		<path class="st61" d="M245.9,651.3c-0.2,0.6-0.5,1.2-0.7,1.8c-0.5,1.7-0.8,3.6-3.2,3.7c-1.3,0-1.6-0.7-1.7-1.8
			c-0.2-2.4,1.7-2.9,3.2-3.7C244.3,651.2,245.1,651.2,245.9,651.3z"/>
		<path class="st62" d="M16.6,582.4c1.4-1.1,2.8-2.3,4.3-3.4c3.6-2.5,5.3-2,6.3,2.2c0.9,3.8,3.7,1.5,5.7,2c-3.9,4.1-7.9,8.1-12.9,11
			C18.5,590.4,17.3,586.5,16.6,582.4z"/>
		<path class="st62" d="M10.8,542.3c0.7-1.1,1.5-2.1,2.5-3c2.2-1.7,4.7-3.9,7.6-2.3c2.7,1.5,0.8,4.2,0.6,6.4
			c-0.1,1.7-0.4,3.3,0.2,4.9c1.3,4,3.1,4.7,6.5,2.2c1.6-1.1,2.8-2.9,5.4-2.5c-2,7.2-7.2,11.8-12.6,16.1c-2.2,1.8-2.9,3.5-1.7,6
			c1.6,3.4,2.3,6.4-3,6.9c-0.3,0-0.4,1.2-0.6,1.8C12.5,566.9,10.8,554.7,10.8,542.3z"/>
		<path class="st63" d="M380.9,412.4c-2.3,1.4-4.5,2.8-6.8,4.1c-1.1,0.6-2.2,2.2-3.5,1.1s-0.2-2.7,0.6-4c0.3-0.6,0.7-1.1,1.4-2.3
			c-2.9,0.6-5.6,1.9-7.8,3.8c-1.5,1.3-3.2,3.5-1.6,5.2c2,2.1,1.3,3.4-0.1,5s-3.2,3.2-5.6,2.2c-1.9-0.8-3.6-1.2-4.7,0.9
			s0.7,2.5,2.1,3.1c1.1,0.5,0.8,1.4,0.2,2c-1.7,1.5-2.3,4.1-4.6,4.9c-1.9-0.8,0.3-3-1.8-4c-2.3,1.7-4.8,3.4-3.4,7.1
			c0.5,1.3,0.3,2.7-0.6,3.8c-3.4,4.2-6.2,9.7-10.6,12.3c-6.5,3.9-10.4,10.1-16,14.7s-11.6,8.8-16.2,14.6c-0.6,0.8-1.8,1.3-2.1,2.1
			c-2.2,6-7.8,6.3-12.5,8.3c-0.9-1.5,0.2-2,0.7-2.8c0.8-1.1,2.1-2.5,0.4-3.3s-4-3-5.3-1.3c-2.6,3.4-7.3,5.8-6.3,11.2
			c0,1.1-0.9,2-2,2c-1.4,0.5-3,1.5-4.1-0.1s0.4-3,1.4-3.9c7.4-6.4,11.2-16,19-22.1c4.8-3.7,6.2-10.6,11.8-13.8
			c0.6-0.3,0.8-1,0.5-1.6c-0.1-0.2-0.3-0.4-0.5-0.5c-1-0.7-2.3-0.5-3,0.5c0,0-0.1,0.1-0.1,0.1c-4.5,7.6-11.5,12.8-17.7,18.7
			c-1.6,1.4-2.8,3.3-3.5,5.4c-1.4,4.9-5.5,6.8-9.4,8.7c-4.7,2.4-7.9,6.4-12.2,9.2c-2.1,1.4,1.5,4.6-1.2,6.3c-0.6,1.3-1,2.8-3,2
			c-1.8-0.5-3.9,2.4-5.3-0.3c-1.2-2.4,1.2-3.4,2.6-4.7s1.7-3.1,1.7-5c0.6-2.7,2.5-4.9,5-6c5.7-3.7,8.8-9.9,13.8-14.2
			c5.9-5.2,12-10.4,16.9-16.5c6.8-8.3,15.8-14.2,22.7-22.3c0.6-0.9,1.2-1.9,1.6-3c4-1.8,4.3-6.3,6.8-9.2c-2.7,2.7-2.6,7.5-6.8,9.2
			c-0.7,0.4-2,1.2-2.2,1c-3.9-3.9-5.7-0.2-7.9,2.1s-4.5,4.4-6.9,6.4c-8.4,6.9-15.4,15.3-23.6,22.5c-5.7,5-13.3,8.4-16.9,15.5
			c-2.4,4.8-6.9,6.9-10.8,10.3c-0.1-5.2,1.6-7.6,10.5-17.3c4.4-4.9,11.4-7.2,13.6-14.4c-5.2,5.7-12.4,8.9-17.7,14.5l-12.3,12.9
			c-1.9,2.1-4.6,1.3-7.2,2.6c0-3.8,1.7-7.4,4.6-9.9c1.6-1.4,3.2-2.9,3.2-5.4c0-1.2,0.8-2.3,2-2.6c6-3,11.6-6.4,13.9-13.3
			c0.9-2.8,4.5-2.8,6.1-4.9c1.1-1.4,3.8-3,1.7-4.8s-3.2,0.9-4.5,2.4c-6.1,7-13.5,12.7-21.7,17c-0.6,0.3-1.3,0.7-1.8,0.1
			c-0.8-1-0.1-1.9,0.6-2.6c2.8-2.7,5.2-5.8,7.4-9c-3.6,3.5-9.2,4.1-12,8.7c-0.5,0.8-1.4,1.4-2.3,1.7c-3.7,0.6-5.7,3.2-7.6,6
			s-3.8,5-7.7,3.9c-1,0-1.9,0.3-2.7,0.9c-0.8,0.4-1.2,1.3-0.9,2.1c0.3,0.8,1,0.8,1.7,0.6c1.4-0.5,2.7-0.6,2.9,1.4
			c0.2,1.6-0.9,2.4-2.1,3.1c-1.3,0.8-2.9,1-4.3,0.4c-1.7-0.7-3.5-0.7-4.6,0.7c-3.9,5.1-9.6,7.6-15,10.4c-4.2,2.1-6.6,7.4-12.1,7.1
			c-0.4,0-0.9-0.1-1.3-0.2c10.2-11.9,21.2-23,33.1-33.2c4.1-3.4,7.8-7.1,11.2-11.2c1.2-1.5,2.3-2.6,2.3-4.7s1.3-4.4,3.5-3.8
			c2.5,0.7-1.3,2.6,0.2,4.4c2.8-1.3,4.3-3.7,5.6-6.3c4.9-2.8,8.3-7.4,12.8-10.8c-4.4,3.4-7.9,7.9-12.8,10.8
			c-1.4,0.1-3.2,0.9-3.9-1.1c-0.6-1.6,1.2-2.1,2-3.1c2.3-2.8,4.5-5.7,6.3-8c-5.9-0.8-8.9,5.4-13.1,9.1c-2.2,1.9-4.3,4-6.7,5.7
			c-9.7,6.8-17.4,16.4-28.1,21.9c-0.7,0.4-1.4,1.2-2.2,0.4s-0.2-1.6,0.4-2.2c2.9-3.1,5.2-6.5,8.8-9.1c10.3-7.3,19.5-16,28.7-24.6
			c1.3-1.2,0.5-8.9-0.9-9.8c-1-0.7-1.5-0.2-1.9,0.7c-0.5,1.4-1.7,2-2.7,2.8c-0.8,0.6-1.7,1.6-2.6,0.9c-1.3-1.1-0.2-2.3,0.7-2.9
			c7.6-6,12.5-14.8,21.3-19.4c3-1.6,4-4.8,6.2-7.1c6.4-6.6,12.7-13.2,20.6-18c6.2-3.8,10-10.2,15.6-14.6c1-0.7,1.3-2.1,0.6-3.2
			c0,0,0,0,0,0c-1.1-1.5-2,0-2.8,0.6c-8.1,7-15.7,14.5-23.7,21.6c-6.4,5.7-12.6,12.1-19.4,16.8c-7.9,5.4-12,13.9-19.7,19.3
			c-4.1,2.9-9.9,4.2-12.4,9.4c-0.4,0.9-1.4,0.5-2-0.3c-1.1-1.3-2.1-3-4-1.4c-2.4,2.2-6.2,4.2-6.6,7.2c-0.6,5.2-1,7-6,9.3
			c-0.1-0.3-0.2-0.6-0.3-0.9c0.3-2.1,4.5-3.3,2.6-5.2s-3.3,1.7-4.9,2.7c-15.2,9.9-29.3,21.3-42.3,34c-3.8,3.7-8.4,6.5-12.5,9.9
			c-6.6,5.5-12.9,11.3-19.6,16.6s-13.4,11-20.7,16c-5.8,3.8-11,8.4-15.5,13.7c-4.1,5-10.1,8.2-13.8,13.7c-0.6,0.9-2.1,2.3-3.3,1
			c-0.9-1,0.1-2.3,1-3c8.2-7.3,14-17,23.2-23.4c5.2-3.6,9.7-8.4,11.9-15.2c-4.1,3.4-8.2,6.7-12.2,10.1c-3.8,3.2-6.3,8.3-12,9.1
			c-0.4,0.1-1.1,0.5-1.2,0.9c-1.6,7-9.1,8.9-12.4,14.5c-1,1.7-2.8,2.8-4.7,1.5c-2.2-1.5-0.7-3.3,0.4-4.7c1.5-1.7,1.7-5,2.6-5.5
			c3.8-2.2,5.3-6.3,8.2-9.1c0.6-0.5,2-0.7,2.1-1.1c0.7-4.7,5.7-6,7.4-9.1c6-11,15.7-18.3,24-26.9c0.4-0.6,0.6-1.4,0.4-2.1
			c-6.5,2.9-11.7,8.1-18.9,9.3c0.1-2,0.8-3.9,2-5.6c1.8-2.8,3.6-5.6,1.7-9.2c8.9,0.3,13.8-5.3,17.6-11.4c1.9-3,6.1-5.4,4.8-10.2
			c-0.1-0.5,1.1-2,1.9-2.1c5.2-0.9,6.8-7,11.9-7.9c2.3-0.4,1.2-3.2,2.5-4.6c2.2-2.4,4.1-5.2,5.7-8.1c-5.1,1.4-8.4,5.4-12,8.7
			c-4.2,3.9-7.7,8.7-13.3,10.9c-2.3,0.9-3.4,3.1-5,4.8c-0.9,1-2,2.1-3.4,1.3s-0.4-2.1-0.4-3.2c0-10,6.9-15.5,13.8-20.7
			c8.2-6.2,14.2-14.5,22.1-20.8c3.2-2.5,6.7-4.8,8.5-8.9c-2-1.2-2.9,0.3-3.9,1.2c-3.3,3.1-6.5,6.2-9.7,9.3c-1.9,1.9-4.4,3-7.1,3.2
			c-6.3,0.7-9.1,2.9-10.4,8.9c-1.5,7-6.5,10.6-12.4,13c-3.5,1.4-6.6,3.6-9.1,6.5c-3.2,3.6-7.6,6.2-11.7,8.8
			c-1.9,1.2-4.1,2.2-5.7,3.9c-1.8,1.9-3.6,2.6-6.1,0.7c-2.3-1.8-2.5-3.3-2-6.3c1.6-9,9.9-11.6,15.2-17c2.7-3,5.8-5.5,9.3-7.5
			c1.4-0.7,2.9-2.7,1.9-4.1c-1.2-1.6-3.2-0.2-4.4,0.8c-3.6,3-6.7,6.4-10.4,9.3c-9.8,7.7-20.4,14.4-29.5,23c-1.2,1.1-2.9,2.6-4.3,0.9
			s0.5-3,1.7-4c13-10.6,24-23.3,36.5-34.6c7.3-6.6,15-12.7,21.5-20c0.5-0.6,1-1.2,1.8-2.1c-2.6,0.6-7.9,4.4-10.6,6.8
			c-2.1,1.9-4.6,5.9-7.1,3.9c-2.2-1.8,2-4.1,3.2-6.2c1.7-2.7,2.6-6.3,7.3-6.2c1.8,0,4.6-2.9,2.7-5.8c-1.4-2.2-0.4-3.4,0.7-4.8
			c4.3-5.9,8.8-11.4,15.3-15.4c3.4-2.1,5.4-6.2,8.2-9.3c5.4-6,12.9-9.8,17.9-16.4c6.2-8.2,14.5-14,22.8-19.7c0.7-0.4,1.4-0.8,2-1.2
			c7.1-0.9,13.6-4.6,21-4.2c3.2,3,0.9,5-0.9,7.5c-7.2,9.8-18.2,15.1-26.6,23.5c-6.2,6.2-12.3,12.5-18.3,19
			c-6.3,4-15.6,13.7-18.5,19.4c2.9-5.6,12.5-15.6,18.4-19.3c7.8-9.4,18.5-15.5,27.4-23.7c4.6-4.3,8.9-9,13.8-13
			c1.4-1.4,3-2.6,4.6-3.8c3.9-2.4,5.9-5.8,5-10.5c5.2-1.5,10.7-2.2,16.1-1.9c3.4,3.2,4.2,7.7,5.8,11.9c1.2-2.2,1.3-2.4,0.1-3.7
			c-2.1-2.4-2.9-5.5-4.2-8.3c10.8-1.5,21.7-1.5,32.5,0c-0.6,2.9-3.6,2.7-5.2,4.2c-8.1,7.2-16.7,13.7-23.6,22.2
			c-6,7.4-14,12.7-21.1,18.9c-6.4,6.4-12.2,12.6-18.2,18.7c-2.1,2.1-2.1,4.8-2,7.8c7.1-3.8,12.7-9.6,19-14.7c2.1-1.7,4.1-5.3,7-2.4
			c3.1,3.1-1,4.8-2.6,6.8c-4.4,5.5-9.9,10.3-13.4,16.5c-0.7,1.3-1.9,1.8-3,2.5c-1.8,1-3,2.8-3,4.9c0,2.7,1,4.2,4,2.7
			c0.9-0.4,1.8-0.9,2.6-1.4c1.5-0.8,2.9-0.9,4.1,0.4c1.2,1.1,1.2,3,0.2,4.2c-4,4.3-5.2,11-11.6,13.3c-2.4,0.8-3.5,2.9-3.3,5.6
			c0.4,4.3-1.6,6.7-6,6.8c-3.7,0.1-6,1.4-6,5.6c0,2.4-1.7,3.8-4,4.5c-7.2,1.8-7.2,1.9-7.8,9.1c0.8,0.4,1.3-0.2,1.7-0.6
			c8.8-10,20.3-16.9,29.6-26.4c2.2-2.3,4.7-4.8,8.1-2.2c2.2,1.7,1.1,5.1-3.1,8.2c-8.6,6.3-16,14-21.9,22.9c-1.6,2.5-4.6,3.2-6.8,5.8
			c5.6-3.1,10.5-6,14-11c1.8-2.6,5-3.8,7.5-5.6c6.4-4.6,11.3-10.8,18-14.9c3.3-0.2,5.6-1.6,6.6-4.9c0.4-1.3,1.1-2.4,2.2-3.3
			c6.7-8.8,16.6-14.1,23.8-22.4c11.2-13,25.2-23,37.3-35c11.6-11.6,24.7-21.6,35.9-33.5c2.3,0.1,3.3,3.2,6,2.3c3.5,2.8,8,3.7,12,5.6
			c0.5,0.9,0.2,1.9-0.7,2.4c-0.1,0-0.1,0.1-0.2,0.1c-8.1,3.1-12.1,11.2-18.4,14.4c2.4-2,6-4.8,9.4-7.8c3.5-3.2,6.6-2.3,10.9,2.6
			c0.7,0.9,1.8,1.6,1.7,2.3c0.1-0.9-1.3-1.6-1.9-2.8c-0.8-5,1.3-7.5,6.1-7.3c8.4,5.3,16.9,10.6,25.3,15.9
			c12.7,10.8,24.5,22.5,35.3,35.2C376.5,407,378.7,409.8,380.9,412.4z"/>
		<path class="st63" d="M124,349.4c-1.3,4.7-6.7,5-9.4,8.3c-1.1,1.4-2.8,2.2-3.8,3.8c-0.8,1.3-1.2,3.5-3.4,3c-1.8-0.4-2.1-2.4-2.5-4
			C110.8,356,117.2,352.3,124,349.4z"/>
		<path class="st64" d="M183.9,443.3c-6.5,3.5-11,9.4-16.9,13.8c-7.9,5.9-14.6,13.3-23,18.6c-1.3,0.8-3,2.4-4.4,0.9s-0.4-3.5,0.7-5
			c0.6-0.8,1.2-1.8,2.1-2.1c6-2.6,8.6-8.6,12.5-13.2c4.5-5.3,9.6-10,15.2-14.1c1.9-1.3,3.7-2.8,4.5-5c-1.3-1.6-2.5-0.6-3.2,0
			c-4.7,4.4-10.2,8-14.3,13.1c-1.4,1.9-3.2,3.4-5.3,4.4c-4,1.8-7.4,4.6-9.8,8.3c-2.1,3.2-5.4,4.8-8.8,6.4c-1,0.5-2.4,1-3.2-0.1
			s0.2-1.9,0.9-2.6c2.1-1.8,2.2-4.1,2.7-6.6c0.9-4.1,2.7-8.1,8.3-7.4c3,0.4,4-1.2,3.5-3.9c-0.8-5.1,1.7-6.5,6.4-6.2
			c4,0.3,7.4-0.4,4.7-5.9c-1-2.1,0.5-3.8,2.2-4.4c7.7-2.5,10.1-9.9,14.2-16l-8.7,4.8c-1,0.6-2.2,1.1-3.3,0.3s-0.4-2.1-0.5-3.2
			c-1.1-10.2,8-14,12.7-20.5c1.7-2.4,3.6-4.7,5.6-6.9c2-2.1,3.9-4.4,5.5-6.9c-3.4,2.9-7.1,5.6-10.3,8.8c-4.9,5-11.5,7.8-16.5,12.8
			c-0.4,0.9-1.5,1.3-2.4,0.8c0,0,0,0-0.1,0c-1.2-0.8-0.4-2-0.2-3.1c3.1-14.5,15-22,24.7-31.2c7.3-6.9,15.6-12.6,22.1-20.5
			c6.3-7.7,14.4-13.8,22-20.3c2-1.7,4.2-1.8,6.5-1.9c17.5,0.5,34.4,3.9,51,9.2c2.7,0.9,5.2,2,7.8,3c0.7,4.2-2.4,6.5-4.8,8.8
			c-7.2,6.9-14.7,13.5-22.1,20.1c-13.2,11.8-25.8,24.2-39.4,35.6c-3.9,3.1-7.2,6.8-9.9,11c-0.5,1.1-1.3,1.9-2.3,2.5
			c-7,3.4-11.7,9.1-16.6,14.8C190,436.6,188.2,441.4,183.9,443.3z"/>
		<path class="st64" d="M179.8,331.3c4.8,1.8,3.4,5,1.5,7.9c-1.7,2.7-4.8,4-7.1,6.1c-8.7,7.8-16.9,16.2-26,23.6
			c-6.1,4.9-11.8,10.5-19.3,13.5l0,0c-0.4-7.2,6.1-9.9,9.9-14c7.1-7.8,15-14.8,23.7-20.7c5.4-3.6,10.4-8.6,12.4-15.4
			C176.3,331.3,178.1,330.9,179.8,331.3z"/>
		<path class="st64" d="M197.6,329.2c2.7,0.3,6.7-0.7,4.9,4.6c-0.1,0.4,0.9,1.2,1.4,1.9c0.9,1.1,4.4,0,3.3,2.4
			c-1.5,3.4-2.7,7.3-6.1,9.5c-0.9,0.5-2,0.3-2.5-0.6c-0.2-0.3-0.3-0.7-0.3-1.1c1.4-5.9-2.7-10.9-2.4-16.5
			C196.5,329.3,197,329.2,197.6,329.2z"/>
		<path class="st17" d="M252.6,324.5c4.4,0.5,8.9,0.4,12.9,2.8C261,327.6,256.6,326.6,252.6,324.5z"/>
		<path class="st65" d="M276.1,330.6c3.5-1.3,6.3,0.6,10.2,2.2C281.7,333.9,279.2,331.1,276.1,330.6z"/>
		<path class="st12" d="M717.9,144.3c-1.7-0.7-2.6-3.2-5-2c-1.4-0.4-3.2,1-3.8-2.2c-0.6-3.6-4.9-4.6-7.3-7.1
			c-1.2-1.3-3.3-1.7-3.2-4.2C704.5,134.6,713.6,136.3,717.9,144.3z"/>
		<path class="st66" d="M473.6,291.3l2.2-2.2c4.2-5.7,9.3-10.5,15.2-14.3c8.5-6.8,15.8-15,23.8-22.4c7.4-5.1,12.8-12.3,19.1-18.6
			c4.4-4.5,9.8-7.8,13.4-13.1c1.4-2,4-2.8,6.3-3.8c2.1-0.3,4.4-4,6.2,0.3c-26.6,27.7-55.9,52.6-83.5,79.3
			c-11,10.7-21.7,21.6-32.5,32.5c-2.3,2.9-4.8,5.6-7.5,8.2c-1.3,1.5-3.1,2.3-5.1,2.4c-4.7-2.6-0.2-4.4,0.5-6.5
			c12.4-9.2,22.9-20.4,33-32.1l2.2-2.5C468.9,295.7,470.6,292.9,473.6,291.3z"/>
		<path class="st52" d="M547.9,232.3c-0.1,1.2-0.5,2.4,1,3c-7.1,6.9-14,14-21.5,20.5c-6.1,5.3-12,11-18,16.5
			c-1.9,1.8-3.6,3.9-6.3,4.8C504,274.1,537.2,240.9,547.9,232.3z"/>
		<path class="st67" d="M559.8,217c-2.4-1.2-4.1,1.2-6.3,1.1c-0.1-2.4,0.9-4.7,2.6-6.4c2.4-1,4.9-1.6,6.9-3.3c1.3-0.1,2.6-1.8,4,0
			s-0.3,2.7-1,3.7c-1.2,1.5-2.6,2.9-4,4.2C561.2,216.5,560.5,216.8,559.8,217z"/>
		<path class="st5" d="M431.9,338.3c4.8-2,7.8-6.4,11.9-9.4c-4.1,8.3-10.4,13.8-19.7,15.6l-0.2-0.2
			C424.9,340.1,428.1,338.9,431.9,338.3z"/>
		<path class="st68" d="M429,541.6c0.7,4.9,2.6,9.9-1,14.5C428.4,551.3,428.7,546.4,429,541.6z"/>
		<path class="st52" d="M552.9,231.3c2.1-4.4,5.6-7.9,10-10C560,225.1,556.6,228.4,552.9,231.3z"/>
		<path class="st69" d="M363.9,375.3c3.1-3.5,6.2-6.9,11-8C371.8,370.7,368.1,373.4,363.9,375.3z"/>
		<path class="st19" d="M496.9,237.3c12.9-12.7,25.9-25.4,38.6-38.2c2.8-2.9,5.1-3.9,8.2-0.8c1.9,2.5,0,3.9-1.6,5.4
			s-3.8,2.6-5.1,4.6c-17.5,20.2-35,40.5-55.6,57.7c-5.6,4.7-10,10.7-16.3,14.6c-9.9,10-20.6,19.1-29.9,29.8c-1.3,1.4-3,2.3-4,4
			c-1.5,1.6-2.6,3.6-4.4,5c-4.8,4.1,2.5,2,2,3.9c-1.3,3.7-4.6,5.6-7.6,7.6c-2,1.3-4.6,1.6-5.7-0.8c-2.2-5-4.6-3.2-7.3-0.9
			c-0.6,0.6-1.4,0.8-2.6,0.1c1.3-3.3,3.6-5.8,5.9-8.2c19.9-19.6,39.6-39.4,59.8-58.6C480.1,254.3,488.8,246.1,496.9,237.3z"/>
		<path class="st70" d="M464,279.3c9-9.1,18.6-17.5,27.9-26.1c14.2-13,26.9-27.5,39.6-41.9c1.3-1.5,2.9-2.7,4.3-4.1
			c2.4,0.7,4.5-3.8,7.1-0.5c0.2,0.5,0.1,1-0.2,1.4c-8.6,7.3-16.6,15.4-23.9,24.1c-15.1,17.6-32.3,33.1-49.1,48.9
			c-1.7,1.9-3.3,3.8-5.9,4.5C460.9,283.5,464.7,281.4,464,279.3z"/>
		<path class="st47" d="M542.8,208.1c0-0.3-0.1-0.6-0.1-0.8c0.1-4.3,6.1-12,10.9-13.8c2.5,1.9,2.1,4.4,1.9,7.2
			c-0.5,4.7,2.9,8,7.6,7.8c-1.2,2.2-3.4,3.4-5.2,4.9c-3.7,2.9-7.3,6-10.7,9.3c-1.1,1.1-2.3,2.4-4.2,1.7c-2.1,0.2-4.4,3.3-6.2,0.3
			s-0.9-6.2,1.4-8.7C540.2,213.6,542.9,211.7,542.8,208.1z"/>
		<path class="st2" d="M463.9,285.3c2-1.4,3.9-2.8,5.9-4.2c-0.3,0.7-0.4,1.7-1,2.2c-11.3,10.3-20.5,22.6-31.6,33.2
			c-1.8,1.7-3.3,3.8-6.1,3.8c-0.8-3.8,3.3-5.3,3.9-8.5c8.3-7.3,14.9-16.3,23.1-23.6C459.8,286.8,461.1,284.6,463.9,285.3z"/>
		<path class="st71" d="M542.9,224.3c4.1-1.7,6.4-5.5,9.8-8.1c1.6-1.1,3.3-2.1,5.1-2.9c-1.4,1.6-2.9,3.2-4.3,4.8l-18.7,16
			c-2.9,3.7-5.9,7.3-10.8,8.4c3-6.4,8.9-9.9,14.3-13.8C540.1,227.5,541.6,226,542.9,224.3z"/>
		<path class="st72" d="M524,242.5c4.3-1.9,6.7-6.2,10.8-8.4c0.7,1.4,0.1,3.1-1.3,3.8c0,0-0.1,0-0.1,0c-5.4,3.2-9.4,7.9-13.8,12.1
			c-1.3,1.3-3,2.1-4.8,2.2C517.8,249,520.9,245.7,524,242.5z"/>
		<path class="st34" d="M491,274.7c-4.8,5.1-9.8,9.8-15.2,14.3c-0.1-0.6-0.5-1.6-0.3-1.9C480.2,282.4,484.1,276.7,491,274.7z"/>
		<path class="st73" d="M437.2,313.4c-1.4,2.9-4.3,4.4-6.1,7l-1,1c-3.3,1.4-4.6,0.1-4.3-3.3c1-1.9,2.4-3.6,4.1-4.9
			C432.3,314.1,434.8,310,437.2,313.4z"/>
		<path class="st74" d="M431.9,338.3c-2.7,2-5.3,4-8,6c-2.4-2.3,0.5-3.5,1.2-4.9c1.4-2.9,3.7-5.2,6.6-6.5
			C432.2,334.7,429,336.6,431.9,338.3z"/>
		<path class="st75" d="M425.7,318.1c0.9,1.8,2.1,3.2,4.3,3.3c-0.4,0.6-0.8,1.2-1.1,1.9c-2.9,0.8-5.6,2.8-9.3,2.7
			C421.6,323,423.2,320.2,425.7,318.1z"/>
		<path class="st34" d="M473.6,291.3c-1.9,2.7-4.1,5.1-6.7,7.1C468.3,295.2,469.1,291.4,473.6,291.3z"/>
		<path class="st76" d="M553.6,193.4c-2.9,5.2-6.5,9.8-10.9,13.8c-2.3-1.5-4.6,3.7-6.8-0.1c2.6-3,5.2-5.9,7.8-8.9
			c2.4-3.1,5.2-5.7,9-6.7C552.7,192.3,552.7,193.1,553.6,193.4z"/>
		<path class="st77" d="M722.9,36.3c1-0.7,2-1.4,3-2c-0.5,8.6,7,13.2,10,20c-1-0.7-2-1.3-3-2c-1.4-2-2.6-4.2-4.6-5.8
			c-2.4-2.1-4.8-4.2-3.8-7.9C724.8,37.5,723.8,36.8,722.9,36.3z"/>
		<path class="st77" d="M718.9,38.4c-1.5,2.2-3.6,3.9-6.1,4.9c-0.9,0.4-1.9,0.8-2.8-0.1s-0.4-1.9,0.2-2.7c2.6-3.2,0.6-3.7-1.9-6
			c-5-4.4-8.3-10.7-13.8-14.9c-0.3-0.2,0.2-1.5,0.4-2.3c4.7-0.7,7,2.9,9.7,5.5C709.7,27.7,714.1,33.2,718.9,38.4z"/>
		<path class="st17" d="M718.9,38.4c-2.3-0.5-4.3-1.9-5.7-3.8c-4.7-7.3-11.4-12.4-18.3-17.3c0.7-2.5,1.2-5,3-7
			c0.5,6.5,6.1,9.8,9.9,13.9c4,4.4,8.1,8.9,12.2,13.2C719.6,37.7,719.3,38.1,718.9,38.4z"/>
		<path class="st60" d="M313.6,353.3c-2.5,2.2-4.4,4.9-5.7,8c-1.6,0.8-3.2,1.5-4.7,2.2c-2.1-1.2,1.2-3.6-1.2-4.3
			c-2-0.5-3.8,0.6-5.4,1.9c-4.5,3.7-8.8,8-14.4,10.4c-0.7-2.1,0.8-2.7,1.6-3.6c4.8-5,10.7-9,14.8-14.7c2-2.8,5.3-3.1,8.3-3.9
			C309.3,350.4,311.8,351.3,313.6,353.3z"/>
		<path class="st63" d="M22.1,494.2c0.1-0.7,0.5-1.4,0.9-2c5.9-6.1,10.5-13.4,17.7-18.2c1.9-1.3,3.6-2,5.1,0.2s-0.8,2.6-1.8,3.9
			s-5.8,1.9-1,4.7c1.3,0.7-0.4,1.7-1.1,2.1c-2.9,1.4-4.5,4.6-8.1,5.5c-2.7,0.7-2.6,4.8-4.6,6.8c-1.1,1.1-2.2,2.2-3.9,1.5
			C23.5,497.9,22.3,496.2,22.1,494.2z"/>
		<path class="st63" d="M71.8,503.4c-2.4,8.3-10.7,11.5-15.7,17.7c-1.1,1.4-3.8,2.4-5.3,0.6s0.2-3.8,1.5-5.2
			c3.6-3.4,6.9-7.1,10.1-10.9C64.8,502.6,68.2,502.1,71.8,503.4z"/>
		<path class="st78" d="M216.7,499.4c-2.2,3.7-2.3,8.6-7.4,10.4c-1.8,0.6-2.3,3.5-2.8,5.6c-0.5,2.8-2.2,4.8-4.1,6.7
			c-0.5,0.5-0.9,1.3-1.9,0.4c-2.3-1.9-2.4-1.9-3.5,1.2c-0.5,1.4-0.5,3.2-2.3,3.5c-1.5,0.2-1.2-1.7-2-2.5c-1.5-1.6-0.9-3.2,0.6-4.3
			c6.8-5,11.9-11.8,18.5-17.1C213.5,502.1,215.1,500.7,216.7,499.4z"/>
		<path class="st63" d="M70.3,478.4c0.5,3.4,0.8,6.4-2.7,6.6c-2.6,0.1-3.1-3.1-2.9-4.9c0.2-2.7,2.6-5.4,4.9-5.4
			S69.9,477.6,70.3,478.4z"/>
		<path class="st63" d="M44,507.5c-0.5,2.1-2.2,2.4-3.8,2.6s-3.5-0.1-3.7-2.2c-0.3-1.1,0.4-2.2,1.5-2.5c0.3-0.1,0.5-0.1,0.8,0
			C40.6,505.5,42.6,505.8,44,507.5z"/>
		<path class="st78" d="M256.9,496.3c-1.7,2-3.3,4-5,6c-2.3,1.2-3.7,4.2-6.9,4.2c-0.1-2.4,1.5-2.8,2.7-3.5c2.8-1.6,5.2-3.5,6.5-6.5
			C255.1,494.2,256,495,256.9,496.3z"/>
		<path class="st78" d="M266.5,558.8c0,4-1.5,5.6-3.9,6.3c-0.9,0.3-2.5-0.7-2.3-1.4C261.2,561.3,263.9,560.8,266.5,558.8z"/>
		<path class="st78" d="M221.8,512.4c-0.9,0-1.5-0.4-1.3-1.1c0.5-2.2,2.1-3.8,4.3-4.3c1-0.2,1.5,0.7,1.2,1.6
			C225.3,510.8,223.5,511.7,221.8,512.4z"/>
		<path class="st78" d="M241.8,583c1.3-2.6,2.9-4.6,5.8-4.8c0.2,0,0.8,0.8,0.7,1.1C247,582,244.1,582,241.8,583z"/>
		<path class="st78" d="M292.3,506.4c0-5.2,0.3-5.5,5.3-5c0,1.6-1.7,1.8-2.4,2.8S294.1,506.7,292.3,506.4z"/>
		<path class="st78" d="M274.9,503.3l2-2c2.6-1.6,4.9-3.6,6.8-5.9C282.1,500,277.9,503.5,274.9,503.3z"/>
		<path class="st78" d="M194,510.2c1-2.8,2.9-4.8,6.2-6.6C199.3,506.7,197,509.2,194,510.2z"/>
		<path class="st78" d="M278,549.7c-0.9,1.5-2.6,1.6-4.1,2.1c-1.1,0.4-1.9-0.8-1.9-1.7c0.1-2.6,2.5-1.2,3.8-1.9
			C276.7,547.8,277.7,548.4,278,549.7z"/>
		<path class="st63" d="M46.2,442.8c1.1,0.1,2,0.5,1.9,1.7c-0.1,1.2-1.1,2.2-2.3,2.2c-1,0.1-1.5-0.6-1.6-1.5
			C44.2,444,45,443,46.2,442.8z"/>
		<path class="st63" d="M63.4,431.8c-0.5,1.4-1.2,2.7-3,2.6c-0.8,0-1.1-0.8-0.8-1.5c0.5-1.4,1.3-2.7,3.1-2.7
			C63.4,430.3,63.5,431.1,63.4,431.8z"/>
		<path class="st78" d="M252.9,512.3c1-0.7,2-1.3,3-2c2.4,3.7-1,4.2-3,5.2C251.8,516,251.6,515.6,252.9,512.3z"/>
		<path class="st78" d="M150.5,529.4c-2.1,1.7-4.2,3.3-6.3,5c0.6-3.4,3.4-4.3,5.5-5.9C150,528.8,150.3,529.1,150.5,529.4z"/>
		<path class="st78" d="M221,540.3c-1.4,1.4-2,3.6-4.5,3.2c-0.2,0-0.6-0.9-0.5-1.2C217,540.2,218.8,539.8,221,540.3z"/>
		<path class="st78" d="M364.6,593.3c-1.5,2.3-2.2,3.4-3,4.4s-1.4,2.5-3,2.2c-0.4-0.1-0.8-1-0.9-1.6c-0.3-1.4,0.4-2.7,1.7-3.3
			C360.5,594.4,361.9,594.2,364.6,593.3z"/>
		<path class="st64" d="M188.2,346.1c1.3,3.7-0.2,5.8-3.5,7.7c-3.6,2.1-6.5,5.1-7.1,9.8c-0.5,2.5-1.9,4.7-4,6.1
			c-2.1,1.6-5,1.8-5.2,5.7c-0.1,2-3.8,3.2-6.1,1.1c-3.6-3.2-9.2-2-10.2,2.9c-0.6,3.1-2,4.6-4.9,5.4c-2.5,0.7-4,2.8-5.8,4.6
			c-1.1,1.1-2.6,2.2-4,1c-1.6-1.3-0.2-2.7,0.7-3.8c6.5-7.9,13.6-15.3,21.4-21.9c7.8-6.7,14.6-14.5,22.3-21.3c1.5-1.4,2.3-4.3,5-3.5
			C190.1,341.1,187.5,344.1,188.2,346.1z"/>
		<path class="st60" d="M361.1,396.1c-0.6,0.8-1.3,1.7-2,2.4c-6.6,5.8-13.1,11.7-19.8,17.4c-1,0.8-2.2,1.4-3.5,1.7
			c-1,0.1-2-0.5-2.5-1.4c-0.5-0.7-0.3-1.6,0.3-2.1c0.1,0,0.1-0.1,0.2-0.1c2.4-1.3,3.4-5.2,7.3-4.2c1.4,0.3,2.8-0.6,3.1-2
			c2.2-6.9,8.1-10,13.8-13.2C360.1,393.5,361.3,394.1,361.1,396.1z"/>
		<path class="st64" d="M128.9,382.3c-6.8,7.7-12.1,16.8-21,22.5c-1.3,0.8-2.7,3.1-4,1.3s1.1-2.7,2.5-3.4c1.2-0.6,2.6-0.8,2.9-2.4
			c1.3-7.2,8-9.7,12.4-14.1C123.4,384.3,125.8,382.3,128.9,382.3z"/>
		<path class="st60" d="M298.9,437.7c-2.7,4.2-21.9,22.1-25.7,23.6C281.2,452.9,288.8,444,298.9,437.7z"/>
		<path class="st60" d="M366.9,402.6c-0.1,3.1-1.7,6.1-4.2,7.9c-2.6,1.8-5,3.8-5.9,7.1c-0.2,0.8-0.6,1.7-1.5,1.7
			c-1.3-0.1-1.2-1.3-1.4-2.3c-0.4-1.3-0.1-2.7,0.8-3.7l10.8-12C365.9,401.7,366.4,402.1,366.9,402.6z"/>
		<path class="st60" d="M311.9,440.3c1.3-2.1,3.4-3.7,3.3-6.4c-1.2-1-2,1.3-3.4-0.1c2-2.1,1.7-6.7,6.9-4.9c1.7,0.6,2.7-1.7,4.2-2.3
			c0.6-0.3,1.2-0.3,1.8,0c0.3,0.5,0.3,1.1,0.1,1.7C319.4,431.3,317.8,438,311.9,440.3L311.9,440.3z"/>
		<path class="st60" d="M324.9,444.9c-0.1,0.3-0.2,0.8-0.4,0.9c-4.1,2.1-6.7,5.2-6.7,10c0,0.6-1,1-1.6,0.6c-1.5-1-2.9-2.9-2.1-4.1
			c2.1-3.4,4.6-6.8,8.3-8.9C323.7,442.8,324.7,443.4,324.9,444.9z"/>
		<path class="st60" d="M230.1,455.3c4.6-5.5,9.3-10.5,15.6-13.7C241.6,447.5,236.9,452.7,230.1,455.3z"/>
		<path class="st64" d="M116.9,404.8c3.6-3.1,6.4-7.3,11.2-9.6C126.8,400.8,126.4,401.2,116.9,404.8z"/>
		<path class="st60" d="M258.1,403.4c-1.8,3.9-3.4,6.5-7,7.2c-1.2,0.2-2.5,1.7-3.3-0.1c-0.6-1.4,0.5-2.6,1.7-3.2
			C252,406,254.7,404.9,258.1,403.4z"/>
		<path class="st60" d="M312.6,424.5c-1.6,3.7-4.2,6.3-8.2,7c-0.2,0-0.8-0.8-0.7-1C305.6,426.8,309.1,425.6,312.6,424.5z"/>
		<path class="st60" d="M338.9,445.2c-0.1,1.7-5.8,6.7-7,6.6s-1.5-0.9-1.1-1.7c1.4-2.8,3.9-4.4,6.6-5.8
			C338.2,443.8,338.8,444.7,338.9,445.2z"/>
		<path class="st60" d="M307.8,361.3c2,0.3,3.6,1,3.1,2.5c-1,3-3.3,4.9-7.4,6.3C305.5,366.7,308.6,364.8,307.8,361.3z"/>
		<path class="st60" d="M183.9,443.3c3-3.4,5.6-7.2,10-9C190.7,437.5,189.6,442.9,183.9,443.3z"/>
		<path class="st60" d="M286.5,376.5c1.5-3.2,3.8-4.3,6.7-5.9C293,375.2,290.3,375.9,286.5,376.5z"/>
		<path class="st60" d="M299.9,481.1c-0.5,2.6-1.9,4.1-4.1,4.6c-1.1,0.2-1.3-0.8-1-1.7C295.6,481.6,297.2,480.8,299.9,481.1z"/>
		<path class="st64" d="M158.6,383.1c-0.3,1.1-0.6,2.3-2,2.2c-1-0.1-1.2-1-0.9-1.9c0.1-1,0.8-1.8,1.8-2
			C158.5,381.4,158.6,382.3,158.6,383.1z"/>
		<path class="st60" d="M267.5,421.4c-1.2,2-2.4,3.8-5.1,5C263.1,423.1,265.2,422,267.5,421.4z"/>
		<path class="st60" d="M308.1,473.4c-1,2.5-2.9,4.5-5.3,5.5C303.8,476.2,304.8,474.4,308.1,473.4z"/>
		<path class="st79" d="M437.2,313.4c-1.6,0.5-3.1,1.1-4.5,1.9c-3.2,2.2-3.1,0.3-2.8-2.1c10.2-12.5,21.9-23.5,34.2-33.9
			c5.1,2.1-1.2,4-0.1,6C455,294.7,446.1,304,437.2,313.4z"/>
	</g>
</g>
</svg>
